<svg width="100" height="39" viewBox="0 0 100 39" fill="none" xmlns="http://www.w3.org/2000/svg">
<path d="M47.3438 19.0597V30.399H43.7144V2.38947H53.3352C55.6561 2.34048 57.8988 3.214 59.5654 4.81407C61.2525 6.32027 62.2031 8.47548 62.1661 10.7246C62.2154 12.99 61.2649 15.1615 59.5654 16.6718C57.8823 18.2637 55.8042 19.0597 53.3352 19.0556L47.3438 19.0597ZM47.3438 5.83861V15.6187H53.4258C54.7755 15.6595 56.0758 15.1329 57.0141 14.1696C58.9193 12.3328 58.9646 9.30817 57.1087 7.41828C57.0758 7.38563 57.047 7.35297 57.0141 7.3244C56.0882 6.34068 54.7796 5.80188 53.4258 5.83861H47.3438ZM70.5278 10.6103C73.2107 10.6103 75.3259 11.3205 76.8772 12.741C78.4286 14.1615 79.2022 16.1126 79.2022 18.5862V30.399H75.7332V27.7376H75.5769C74.0749 29.9296 72.075 31.0235 69.5813 31.0235C67.4538 31.0235 65.672 30.399 64.24 29.1459C62.8491 27.9825 62.0591 26.26 62.092 24.4518C62.092 22.468 62.8491 20.8924 64.3594 19.7209C65.8696 18.5494 67.8859 17.9617 70.4125 17.9617C72.5647 17.9617 74.3424 18.3535 75.7332 19.1331V18.3086C75.7415 17.0759 75.1901 15.9085 74.2354 15.1248C73.2766 14.2676 72.0256 13.7982 70.7335 13.8145C68.7089 13.8145 67.1041 14.6635 65.9231 16.3575L62.7298 14.3615C64.4828 11.8593 67.0835 10.6103 70.5278 10.6103ZM65.8325 24.5334C65.8284 25.4641 66.2769 26.3376 67.0341 26.8805C67.8365 27.505 68.8324 27.8397 69.8529 27.8193C71.3837 27.8152 72.8527 27.2111 73.935 26.1376C75.1366 25.0151 75.7374 23.7007 75.7374 22.1863C74.6057 21.2924 73.0297 20.8434 71.0051 20.8434C69.5319 20.8434 68.3015 21.1945 67.318 21.9006C66.3263 22.619 65.8325 23.4885 65.8325 24.5334V24.5334ZM99.1188 11.2348L87.0084 38.8484H83.2637L87.7573 29.1867L79.7906 11.2348H83.7328L89.4897 25.0028H89.5679L95.1684 11.2348H99.1188Z" fill="#5F6368"/>
<path d="M32.682 16.6105C32.682 15.5125 32.5914 14.4186 32.4022 13.3369H17.1025V19.5331H25.8634C25.5013 21.5332 24.3326 23.3007 22.6249 24.4232V28.4478H27.8551C30.9166 25.6518 32.682 21.5087 32.682 16.6105V16.6105Z" fill="#4285F4"/>
<path d="M17.1026 32.3378C21.4809 32.3378 25.168 30.9133 27.8551 28.4519L22.6249 24.4273C21.1682 25.4069 19.2959 25.9661 17.1026 25.9661C12.8723 25.9661 9.27993 23.1374 7.99605 19.325H2.6095V23.4721C5.36244 28.9091 10.9712 32.3378 17.1026 32.3378V32.3378Z" fill="#34A853"/>
<path d="M7.99596 19.325C7.31698 17.3289 7.31698 15.1615 7.99596 13.1655V9.01834H2.60941C0.305002 13.5655 0.305002 18.9249 2.60941 23.4721L7.99596 19.325Z" fill="#FBBC04"/>
<path d="M17.1026 6.52435C19.4152 6.48762 21.6497 7.35296 23.3245 8.93671L27.958 4.34465C25.0198 1.60983 21.1312 0.10772 17.1026 0.15262C10.9712 0.15262 5.36244 3.58544 2.6095 9.01834L7.99605 13.1655C9.27993 9.35306 12.8723 6.52435 17.1026 6.52435V6.52435Z" fill="#EA4335"/>
</svg>
