<svg width="162" height="104" viewBox="0 0 162 104" fill="none" xmlns="http://www.w3.org/2000/svg">
<path d="M81 104C125.735 104 162 101.09 162 97.5C162 93.9101 125.735 91 81 91C36.2649 91 0 93.9101 0 97.5C0 101.09 36.2649 104 81 104Z" fill="#3F3D56"/>
<path d="M131.453 3.31818C131.453 3.31818 131.99 10.6188 131.99 10.8892C131.99 11.1596 128.229 29.8169 128.229 29.8169C128.229 29.8169 122.855 40.0919 128.229 39.8215C133.602 39.5511 131.99 30.0873 131.99 30.0873L137.633 14.4044L135.215 3.31818L131.453 3.31818Z" fill="#A0616A"/>
<path d="M133.919 22.0076H27.1501V97.4875H133.919V22.0076Z" fill="#D3D3D3"/>
<path d="M62.9461 50.8068H36.1377V97.9038H62.9461V50.8068Z" fill="#3F3D56"/>
<path d="M48.3181 53.6323H41.0967V60.4071H48.3181V53.6323Z" fill="#D3D3D3"/>
<path d="M57.9878 53.6323H50.7664V60.4071H57.9878V53.6323Z" fill="#D3D3D3"/>
<path d="M48.3181 62.8707H41.0967V69.8919H48.3181V62.8707Z" fill="#D3D3D3"/>
<path d="M57.9878 62.8707H50.7664V69.8919H57.9878V62.8707Z" fill="#D3D3D3"/>
<path d="M59.5376 79.2413C60.479 79.2413 61.2422 78.4733 61.2422 77.5259C61.2422 76.5785 60.479 75.8104 59.5376 75.8104C58.5962 75.8104 57.833 76.5785 57.833 77.5259C57.833 78.4733 58.5962 79.2413 59.5376 79.2413Z" fill="#009688"/>
<path d="M125 46H72V81H125V46Z" fill="#3F3D56"/>
<path d="M145.076 36.2178H15.9929L24.5995 18.1088L26.5256 14.0541L29.0455 8.7518L30.9716 4.69713L33.2045 0H134.906L136.225 4.69713L137.364 8.7518L138.853 14.0541L139.992 18.1088L145.076 36.2178Z" fill="#3F3D56"/>
<path d="M124.997 64H72V65.0917H124.997V64Z" fill="#D3D3D3"/>
<path d="M99 46H98V91H99V46Z" fill="#D3D3D3"/>
<path d="M137.364 8.752H29.0454L30.9715 4.69733H136.225L137.364 8.752Z" fill="#009688"/>
<path d="M139.992 18.1091H24.5999L26.526 14.0544H138.853L139.992 18.1091Z" fill="#009688"/>
</svg>
