<svg width="235" height="162" viewBox="0 0 235 162" fill="none" xmlns="http://www.w3.org/2000/svg">
<g clip-path="url(#clip0)">
<path opacity="0.1" d="M132.923 22.0546C117.86 22.0748 103.361 17.8109 89.4925 13.0742C75.6243 8.33748 61.8629 3.03333 47.0798 0.785703C37.5724 -0.659054 26.7611 -0.52625 19.3293 4.71955C12.1755 9.76614 10.1039 18.1188 9.10443 25.8356C8.35278 31.6407 8.00618 37.7337 10.8213 43.0439C12.776 46.7302 16.1212 49.7686 18.4789 53.2819C26.7087 65.504 21.7595 81.1167 13.7614 93.6225C10.0112 99.49 5.61823 105.114 2.78293 111.318C-0.0523815 117.521 -1.21512 124.556 1.67661 130.679C4.54215 136.748 11.0148 141.153 17.961 144.161C32.067 150.282 48.4904 151.594 64.4725 152.099C99.8504 153.22 135.297 150.934 170.648 148.648C183.731 147.803 196.871 146.952 209.684 144.503C216.797 143.145 224.122 141.128 229.166 136.71C235.568 131.1 236.878 121.94 232.219 115.356C224.406 104.313 203.806 102.231 198.203 90.2822C195.114 83.7043 197.778 76.1606 201.702 69.8202C210.117 56.2157 224.602 44.0298 224.846 28.8136C225.013 18.3643 217.48 8.17047 206.23 3.62894C194.437 -1.1279 178.358 0.0955199 170.096 8.96126C161.6 18.0946 146.223 22.0405 132.923 22.0546Z" fill="#009688"/>
<path d="M200.009 129.859C200.009 129.859 197.532 128.227 195.078 129.388C195.078 129.388 195.834 130.841 198.941 130.704L200.009 129.859Z" fill="#009688"/>
<path d="M200.323 129.946C200.323 129.946 201.077 132.811 199.187 134.761C199.187 134.761 198.05 133.58 199.187 130.686L200.323 129.946Z" fill="#009688"/>
<path d="M203.403 127.195C203.403 127.195 203.219 124.758 197.708 125.567C197.708 125.567 197.682 127.139 199.616 127.883C201.551 128.628 202.437 128 203.403 127.195Z" fill="#009688"/>
<path d="M203.749 127.179C203.749 127.179 206.079 127.925 204.001 133.087C204.001 133.087 202.463 132.745 202.187 130.69C201.911 128.636 202.729 127.927 203.749 127.179Z" fill="#009688"/>
<path d="M206.86 123.722C206.86 123.722 207.177 119.712 201.545 120.122C201.545 120.122 201.142 123.744 205.867 124.686L206.86 123.722Z" fill="#009688"/>
<path d="M210.583 119.195C210.583 119.195 209.811 114.649 204.18 116.003C204.18 116.003 204.16 119.933 209.664 120.277L210.583 119.195Z" fill="#009688"/>
<path d="M213.303 114.514C213.303 114.514 212.009 110.087 206.431 111.411C206.431 111.411 207.759 115.393 212.932 115.331L213.303 114.514Z" fill="#009688"/>
<path d="M215.886 109.942C215.886 109.942 214.623 105.349 209.236 106.723C209.236 106.723 211.034 111.087 215.53 110.719L215.886 109.942Z" fill="#009688"/>
<path d="M217.551 105.6C217.551 105.6 216.58 99.9821 211.558 101.226C211.558 101.226 213.017 106.337 217.182 106.419L217.551 105.6Z" fill="#009688"/>
<path d="M219.113 100.354C219.113 100.354 217.946 94.692 212.866 96.3299C212.866 96.3299 214.857 101.682 218.752 101.129L219.113 100.354Z" fill="#009688"/>
<path d="M220.072 95.4727C220.072 95.4727 218.22 89.8084 214.292 89.9613C214.292 89.9613 216.185 95.9435 219.743 96.6015L220.072 95.4727Z" fill="#009688"/>
<path d="M220.692 90.7078C220.692 90.7078 218.677 83.8905 215.481 84.4157C215.481 84.4157 216.876 89.6273 220.58 91.7703L220.692 90.7078Z" fill="#009688"/>
<path d="M221.043 85.0234C221.043 85.0234 219.153 79.343 216.005 79.1156C216.005 79.1156 217.291 84.7055 220.981 86.5004L221.043 85.0234Z" fill="#009688"/>
<path d="M221.424 79.7192C221.424 79.7192 219.068 74.0328 216.991 73.904C216.991 73.904 218.014 79.5039 221.222 80.6529L221.424 79.7192Z" fill="#009688"/>
<path d="M221.684 74.7853C221.684 74.7853 220.235 68.6099 218.153 68.0968C218.153 68.0968 218.438 73.1494 221.474 75.2482L221.684 74.7853Z" fill="#009688"/>
<path d="M222.47 68.3222C222.47 68.3222 220.946 63.3983 219.26 62.6478C219.26 62.6478 219.592 68.453 222.081 69.5255L222.47 68.3222Z" fill="#009688"/>
<path d="M223.121 64.0965L223.427 55.4159C223.427 55.4159 220.273 61.9596 222.893 65.6198L223.121 64.0965Z" fill="#009688"/>
<path d="M225.555 55.4622C225.555 55.4622 227.826 49.1237 228.376 48.7696C228.376 48.7696 223.923 52.8825 224.358 58.1726L225.555 55.4622Z" fill="#009688"/>
<path d="M207.014 123.692C207.014 123.692 211.008 123.171 210.889 128.807C210.889 128.807 207.28 129.394 206.101 124.732L207.014 123.692Z" fill="#009688"/>
<path d="M210.772 119.042C210.772 119.042 215.387 119.027 215.004 124.796C215.004 124.796 211.129 125.489 209.851 120.132L210.772 119.042Z" fill="#009688"/>
<path d="M213.347 114.886C213.347 114.886 217.537 112.925 220.217 117.989C220.217 117.989 216.348 119.623 212.976 115.705L213.347 114.886Z" fill="#009688"/>
<path d="M215.979 109.985C215.979 109.985 220.269 107.898 222.788 112.844C222.788 112.844 218.319 114.381 215.624 110.767L215.979 109.985Z" fill="#009688"/>
<path d="M217.496 105.723C217.496 105.723 221.625 101.785 224.92 105.767C224.92 105.767 220.703 109.009 217.307 106.6L217.496 105.723Z" fill="#009688"/>
<path d="M218.879 100.22C218.879 100.22 223.032 96.1951 226.301 100.405C226.301 100.405 221.64 103.711 218.73 101.065L218.879 100.22Z" fill="#009688"/>
<path d="M219.655 95.3118C219.655 95.3118 222.855 90.2813 226.623 91.4041C226.623 91.4041 223.302 96.7304 219.691 96.4929L219.655 95.3118Z" fill="#009688"/>
<path d="M220.598 90.6757C220.598 90.6757 223.822 84.3413 226.873 85.444C226.873 85.444 224.547 90.3135 220.515 91.7442L220.598 90.6757Z" fill="#009688"/>
<path d="M220.821 84.6934C220.821 84.6934 224.136 79.7072 227.242 80.3169C227.242 80.3169 224.531 85.3735 220.499 86.1362L220.821 84.6934Z" fill="#009688"/>
<path d="M221.079 79.6086C221.079 79.6086 223.649 74.0127 225.736 73.9744C225.736 73.9744 224.503 79.5301 221.253 80.5583L221.079 79.6086Z" fill="#009688"/>
<path d="M221.583 74.6646C221.583 74.6646 224.439 68.9983 226.585 68.9862C226.585 68.9862 225.124 73.8316 221.678 75.1616L221.583 74.6646Z" fill="#009688"/>
<path d="M222.012 68.6763C222.012 68.6763 224.148 63.9879 225.918 63.4567C225.918 63.4567 224.85 69.1713 222.248 69.9198L222.012 68.6763Z" fill="#009688"/>
<path d="M223.375 63.9255L228.148 56.6635C228.148 56.6635 226.925 63.8269 222.677 65.316L223.375 63.9255Z" fill="#009688"/>
<path d="M226.651 56.0477C226.651 56.0477 232.199 52.2246 232.4 51.6068C232.4 51.6068 229.579 56.9613 224.34 57.907L226.651 56.0477Z" fill="#009688"/>
<path d="M226.984 54.3273C226.984 54.3273 233.354 48.2122 234.98 48.2183C234.98 48.2183 229.726 48.4577 226.831 54.0013L226.984 54.3273Z" fill="#009688"/>
<path d="M222.075 69.5838L222.307 69.614C223.504 60.2593 225.249 54.7237 227.22 54.0456L227.143 53.8243C225.053 54.5487 223.296 59.9997 222.075 69.5838Z" fill="#444053"/>
<path d="M220.314 91.9554L220.664 91.9836C220.739 91.1103 220.795 90.2169 220.834 89.3254C221.168 81.5825 221.686 74.4714 222.367 69.1411L222.166 68.8896C221.482 74.232 220.817 81.5564 220.483 89.3114C220.445 90.1967 220.388 91.0861 220.314 91.9554Z" fill="#444053"/>
<path d="M193.472 134.322C193.532 134.296 199.705 131.543 206.111 124.98C209.864 121.135 212.983 116.721 215.35 111.9C218.313 105.878 220.118 98.4769 220.723 91.2874L220.358 91.4584C218.998 107.596 211.64 118.623 205.791 124.629C199.447 131.135 193.343 133.859 193.283 133.886L193.472 134.322Z" fill="#444053"/>
<path d="M209.454 17.15H15.8229C15.3654 17.15 14.9267 17.3314 14.6032 17.6545C14.2797 17.9775 14.0979 18.4156 14.0979 18.8724V23.8908H211.179V18.8724C211.179 18.4156 210.997 17.9775 210.674 17.6545C210.35 17.3314 209.912 17.15 209.454 17.15V17.15Z" fill="#3F3D56"/>
<path d="M14.0979 23.8908V136.823C14.0979 137.744 14.4644 138.628 15.1167 139.279C15.7689 139.931 16.6536 140.296 17.5761 140.296H207.701C208.623 140.296 209.508 139.931 210.16 139.279C210.813 138.628 211.179 137.744 211.179 136.823V23.8908H14.0979Z" fill="white"/>
<path opacity="0.8" d="M17.2194 21.275C17.6646 21.275 18.0255 20.9146 18.0255 20.4701C18.0255 20.0256 17.6646 19.6652 17.2194 19.6652C16.7742 19.6652 16.4133 20.0256 16.4133 20.4701C16.4133 20.9146 16.7742 21.275 17.2194 21.275Z" fill="#FA5959"/>
<path opacity="0.8" d="M19.4361 21.275C19.8812 21.275 20.2421 20.9146 20.2421 20.4701C20.2421 20.0256 19.8812 19.6652 19.4361 19.6652C18.9909 19.6652 18.63 20.0256 18.63 20.4701C18.63 20.9146 18.9909 21.275 19.4361 21.275Z" fill="#FED253"/>
<path opacity="0.8" d="M21.6527 21.275C22.0979 21.275 22.4588 20.9146 22.4588 20.4701C22.4588 20.0256 22.0979 19.6652 21.6527 19.6652C21.2075 19.6652 20.8466 20.0256 20.8466 20.4701C20.8466 20.9146 21.2075 21.275 21.6527 21.275Z" fill="#8CCF4D"/>
<path opacity="0.05" d="M190.808 42.7209H32.4176V112.267H190.808V42.7209Z" fill="black"/>
<path d="M189.599 43.2482H33.6267V111.26H189.599V43.2482Z" fill="#E5F4F3"/>
<path d="M76.1462 60.7523C73.0773 60.7523 70.0774 61.661 67.5257 63.3635C64.974 65.0659 62.9852 67.4858 61.8108 70.3169C60.6363 73.148 60.3291 76.2633 60.9278 79.2689C61.5265 82.2744 63.0043 85.0351 65.1743 87.202C67.3444 89.3689 70.1092 90.8445 73.1191 91.4424C76.129 92.0402 79.2489 91.7334 82.0842 90.5607C84.9195 89.388 87.3428 87.4021 89.0478 84.8541C90.7528 82.3062 91.6628 79.3106 91.6628 76.2462C91.6628 74.2115 91.2615 72.1967 90.4817 70.3169C89.7019 68.4371 88.559 66.7291 87.1181 65.2903C85.6773 63.8516 83.9667 62.7103 82.0842 61.9317C80.2016 61.153 78.1839 60.7523 76.1462 60.7523V60.7523ZM78.9292 76.6184V83.9549H73.4439V76.6184C72.6849 76.0447 72.1254 75.2474 71.8446 74.339C71.5638 73.4307 71.5757 72.4573 71.8788 71.5561C72.1818 70.6549 72.7607 69.8716 73.5336 69.3166C74.3066 68.7616 75.2345 68.463 76.1865 68.463C77.1386 68.463 78.0665 68.7616 78.8395 69.3166C79.6124 69.8716 80.1912 70.6549 80.4943 71.5561C80.7974 72.4573 80.8093 73.4307 80.5285 74.339C80.2477 75.2474 79.6882 76.0447 78.9292 76.6184V76.6184Z" fill="#009688"/>
<path opacity="0.05" d="M76.1462 60.7523C73.0773 60.7523 70.0774 61.661 67.5257 63.3635C64.974 65.0659 62.9852 67.4858 61.8108 70.3169C60.6363 73.148 60.3291 76.2633 60.9278 79.2689C61.5265 82.2744 63.0043 85.0351 65.1743 87.202C67.3444 89.3689 70.1092 90.8445 73.1191 91.4424C76.129 92.0402 79.2489 91.7334 82.0842 90.5607C84.9195 89.388 87.3428 87.4021 89.0478 84.8541C90.7528 82.3062 91.6628 79.3106 91.6628 76.2462C91.6628 74.2115 91.2615 72.1967 90.4817 70.3169C89.7019 68.4371 88.559 66.7291 87.1181 65.2903C85.6773 63.8516 83.9667 62.7103 82.0842 61.9317C80.2016 61.153 78.1839 60.7523 76.1462 60.7523V60.7523ZM78.9292 76.6184V83.9549H73.4439V76.6184C72.6849 76.0447 72.1254 75.2474 71.8446 74.339C71.5638 73.4307 71.5757 72.4573 71.8788 71.5561C72.1818 70.6549 72.7607 69.8716 73.5336 69.3166C74.3066 68.7616 75.2345 68.463 76.1865 68.463C77.1386 68.463 78.0665 68.7616 78.8395 69.3166C79.6124 69.8716 80.1912 70.6549 80.4943 71.5561C80.7974 72.4573 80.8093 73.4307 80.5285 74.339C80.2477 75.2474 79.6882 76.0447 78.9292 76.6184V76.6184Z" fill="black"/>
<path d="M76.1462 56.3254C72.2005 56.3254 68.3434 57.4938 65.0626 59.6827C61.7819 61.8716 59.2249 64.9828 57.7149 68.6229C56.2049 72.2629 55.8099 76.2683 56.5796 80.1325C57.3494 83.9968 59.2494 87.5463 62.0395 90.3323C64.8295 93.1183 68.3843 95.0155 72.2542 95.7842C76.1241 96.5528 80.1353 96.1583 83.7807 94.6506C87.4261 93.1428 90.5418 90.5895 92.734 87.3136C94.9261 84.0376 96.0961 80.1861 96.0961 76.2462C96.0961 70.9629 93.9943 65.896 90.2529 62.1601C86.5116 58.4242 81.4373 56.3254 76.1462 56.3254V56.3254ZM79.7231 76.7251V86.1563H72.6701V76.7251C71.6938 75.9873 70.9742 74.962 70.6129 73.7938C70.2516 72.6257 70.2669 71.3737 70.6566 70.2147C71.0463 69.0557 71.7907 68.0482 72.7847 67.3344C73.7788 66.6206 74.9722 66.2366 76.1966 66.2366C77.421 66.2366 78.6144 66.6206 79.6085 67.3344C80.6025 68.0482 81.3469 69.0557 81.7366 70.2147C82.1263 71.3737 82.1416 72.6257 81.7803 73.7938C81.419 74.962 80.6994 75.9873 79.7231 76.7251V76.7251Z" fill="#009688"/>
<path d="M168.843 73.6323H104.358V80.4738H168.843V73.6323Z" fill="white"/>
<path d="M168.843 86.108H154.938V92.9494H168.843V86.108Z" fill="#009688"/>
<path d="M110.706 76.9505H109.539L110.577 75.9162C110.596 75.8971 110.606 75.8714 110.606 75.8448C110.606 75.8181 110.596 75.7925 110.577 75.7733C110.568 75.7639 110.556 75.7564 110.544 75.7513C110.532 75.7462 110.519 75.7436 110.505 75.7436C110.492 75.7436 110.479 75.7462 110.467 75.7513C110.454 75.7564 110.443 75.7639 110.434 75.7733L109.396 76.8096V75.6425C109.396 75.6159 109.385 75.5903 109.367 75.5714C109.348 75.5525 109.322 75.5419 109.295 75.5419C109.269 75.5424 109.243 75.5532 109.225 75.572C109.206 75.5907 109.195 75.616 109.195 75.6425V76.8096L108.159 75.7673C108.149 75.7579 108.138 75.7504 108.126 75.7453C108.114 75.7402 108.101 75.7375 108.087 75.7375C108.074 75.7375 108.061 75.7402 108.049 75.7453C108.036 75.7504 108.025 75.7579 108.016 75.7673C107.997 75.7864 107.987 75.8121 107.987 75.8387C107.987 75.8654 107.997 75.891 108.016 75.9102L109.054 76.9444H107.885C107.858 76.945 107.833 76.9557 107.814 76.9745C107.795 76.9932 107.785 77.0185 107.784 77.045C107.784 77.0717 107.795 77.0973 107.814 77.1162C107.832 77.1351 107.858 77.1457 107.885 77.1457H109.054L108.016 78.1819C107.997 78.2011 107.987 78.2267 107.987 78.2534C107.987 78.28 107.997 78.3057 108.016 78.3248C108.035 78.3429 108.061 78.353 108.087 78.353C108.114 78.353 108.139 78.3429 108.159 78.3248L109.195 77.2885V78.4536C109.195 78.4803 109.205 78.5059 109.224 78.5247C109.243 78.5436 109.269 78.5542 109.295 78.5542C109.322 78.5542 109.348 78.5436 109.367 78.5247C109.385 78.5059 109.396 78.4803 109.396 78.4536V77.2885L110.434 78.3248C110.453 78.3429 110.479 78.353 110.505 78.353C110.532 78.353 110.558 78.3429 110.577 78.3248C110.596 78.3057 110.606 78.28 110.606 78.2534C110.606 78.2267 110.596 78.2011 110.577 78.1819L109.539 77.1457H110.706C110.733 77.1457 110.758 77.1351 110.777 77.1162C110.796 77.0973 110.807 77.0717 110.807 77.045C110.805 77.0194 110.794 76.9954 110.775 76.9778C110.756 76.9602 110.732 76.9504 110.706 76.9505Z" fill="#009688"/>
<path d="M114.938 76.9505H113.771L114.809 75.9162C114.827 75.8971 114.838 75.8714 114.838 75.8448C114.838 75.8181 114.827 75.7925 114.809 75.7733C114.799 75.7639 114.788 75.7564 114.776 75.7513C114.764 75.7462 114.751 75.7436 114.737 75.7436C114.724 75.7436 114.711 75.7462 114.698 75.7513C114.686 75.7564 114.675 75.7639 114.666 75.7733L113.628 76.8096V75.6425C113.628 75.6159 113.617 75.5903 113.598 75.5714C113.579 75.5525 113.554 75.5419 113.527 75.5419C113.501 75.5424 113.475 75.5532 113.456 75.572C113.438 75.5907 113.427 75.616 113.426 75.6425V76.8096L112.391 75.7673C112.381 75.7579 112.37 75.7504 112.358 75.7453C112.346 75.7402 112.332 75.7375 112.319 75.7375C112.306 75.7375 112.293 75.7402 112.28 75.7453C112.268 75.7504 112.257 75.7579 112.248 75.7673C112.229 75.7864 112.219 75.8121 112.219 75.8387C112.219 75.8654 112.229 75.891 112.248 75.9102L113.285 76.9444H112.117C112.09 76.945 112.065 76.9557 112.046 76.9745C112.027 76.9932 112.016 77.0185 112.016 77.045C112.016 77.0717 112.026 77.0973 112.045 77.1162C112.064 77.1351 112.09 77.1457 112.117 77.1457H113.285L112.248 78.1819C112.229 78.2011 112.219 78.2267 112.219 78.2534C112.219 78.28 112.229 78.3057 112.248 78.3248C112.267 78.3429 112.293 78.353 112.319 78.353C112.346 78.353 112.371 78.3429 112.391 78.3248L113.426 77.2885V78.4536C113.426 78.4803 113.437 78.5059 113.456 78.5247C113.475 78.5436 113.5 78.5542 113.527 78.5542C113.554 78.5542 113.579 78.5436 113.598 78.5247C113.617 78.5059 113.628 78.4803 113.628 78.4536V77.2885L114.666 78.3248C114.685 78.3429 114.711 78.353 114.737 78.353C114.764 78.353 114.789 78.3429 114.809 78.3248C114.827 78.3057 114.838 78.28 114.838 78.2534C114.838 78.2267 114.827 78.2011 114.809 78.1819L113.771 77.1457H114.938C114.964 77.1457 114.99 77.1351 115.009 77.1162C115.028 77.0973 115.039 77.0717 115.039 77.045C115.037 77.0194 115.026 76.9954 115.007 76.9778C114.988 76.9602 114.963 76.9504 114.938 76.9505Z" fill="#009688"/>
<path d="M119.17 76.9505H118.003L119.041 75.9162C119.059 75.8971 119.07 75.8714 119.07 75.8448C119.07 75.8181 119.059 75.7925 119.041 75.7733C119.031 75.7639 119.02 75.7564 119.008 75.7513C118.996 75.7462 118.982 75.7436 118.969 75.7436C118.956 75.7436 118.943 75.7462 118.93 75.7513C118.918 75.7564 118.907 75.7639 118.898 75.7733L117.86 76.8096V75.6425C117.86 75.6159 117.849 75.5903 117.83 75.5714C117.811 75.5525 117.786 75.5419 117.759 75.5419C117.732 75.5424 117.707 75.5532 117.688 75.572C117.669 75.5907 117.659 75.616 117.658 75.6425V76.8096L116.622 75.7673C116.613 75.7579 116.602 75.7504 116.59 75.7453C116.577 75.7402 116.564 75.7375 116.551 75.7375C116.538 75.7375 116.524 75.7402 116.512 75.7453C116.5 75.7504 116.489 75.7579 116.479 75.7673C116.461 75.7864 116.45 75.8121 116.45 75.8387C116.45 75.8654 116.461 75.891 116.479 75.9102L117.517 76.9444H116.348C116.322 76.945 116.296 76.9557 116.278 76.9745C116.259 76.9932 116.248 77.0185 116.248 77.045C116.248 77.0717 116.258 77.0973 116.277 77.1162C116.296 77.1351 116.322 77.1457 116.348 77.1457H117.517L116.479 78.1819C116.461 78.2011 116.45 78.2267 116.45 78.2534C116.45 78.28 116.461 78.3057 116.479 78.3248C116.499 78.3429 116.524 78.353 116.551 78.353C116.577 78.353 116.603 78.3429 116.622 78.3248L117.658 77.2885V78.4536C117.658 78.4803 117.669 78.5059 117.688 78.5247C117.707 78.5436 117.732 78.5542 117.759 78.5542C117.786 78.5542 117.811 78.5436 117.83 78.5247C117.849 78.5059 117.86 78.4803 117.86 78.4536V77.2885L118.898 78.3248C118.917 78.3429 118.942 78.353 118.969 78.353C118.996 78.353 119.021 78.3429 119.041 78.3248C119.059 78.3057 119.07 78.28 119.07 78.2534C119.07 78.2267 119.059 78.2011 119.041 78.1819L118.003 77.1457H119.17C119.196 77.1457 119.222 77.1351 119.241 77.1162C119.26 77.0973 119.27 77.0717 119.27 77.045C119.269 77.0194 119.257 76.9954 119.239 76.9778C119.22 76.9602 119.195 76.9504 119.17 76.9505Z" fill="#009688"/>
<path d="M123.401 76.9505H122.235L123.272 75.9162C123.291 75.8971 123.301 75.8714 123.301 75.8448C123.301 75.8181 123.291 75.7925 123.272 75.7733C123.263 75.7639 123.252 75.7564 123.24 75.7513C123.227 75.7462 123.214 75.7436 123.201 75.7436C123.188 75.7436 123.174 75.7462 123.162 75.7513C123.15 75.7564 123.139 75.7639 123.129 75.7733L122.092 76.8096V75.6425C122.092 75.6159 122.081 75.5903 122.062 75.5714C122.043 75.5525 122.017 75.5419 121.991 75.5419C121.964 75.5424 121.939 75.5532 121.92 75.572C121.901 75.5907 121.891 75.616 121.89 75.6425V76.8096L120.854 75.7673C120.845 75.7579 120.834 75.7504 120.821 75.7453C120.809 75.7402 120.796 75.7375 120.783 75.7375C120.769 75.7375 120.756 75.7402 120.744 75.7453C120.732 75.7504 120.72 75.7579 120.711 75.7673C120.693 75.7864 120.682 75.8121 120.682 75.8387C120.682 75.8654 120.693 75.891 120.711 75.9102L121.749 76.9444H120.58C120.554 76.945 120.528 76.9557 120.509 76.9745C120.491 76.9932 120.48 77.0185 120.479 77.045C120.479 77.0717 120.49 77.0973 120.509 77.1162C120.528 77.1351 120.553 77.1457 120.58 77.1457H121.749L120.711 78.1819C120.693 78.2011 120.682 78.2267 120.682 78.2534C120.682 78.28 120.693 78.3057 120.711 78.3248C120.731 78.3429 120.756 78.353 120.783 78.353C120.809 78.353 120.835 78.3429 120.854 78.3248L121.89 77.2885V78.4536C121.89 78.4803 121.901 78.5059 121.919 78.5247C121.938 78.5436 121.964 78.5542 121.991 78.5542C122.017 78.5542 122.043 78.5436 122.062 78.5247C122.081 78.5059 122.092 78.4803 122.092 78.4536V77.2885L123.129 78.3248C123.149 78.3429 123.174 78.353 123.201 78.353C123.227 78.353 123.253 78.3429 123.272 78.3248C123.291 78.3057 123.301 78.28 123.301 78.2534C123.301 78.2267 123.291 78.2011 123.272 78.1819L122.235 77.1457H123.401C123.428 77.1457 123.454 77.1351 123.473 77.1162C123.491 77.0973 123.502 77.0717 123.502 77.045C123.501 77.0194 123.489 76.9954 123.471 76.9778C123.452 76.9602 123.427 76.9504 123.401 76.9505Z" fill="#009688"/>
<path d="M127.633 76.9505H126.466L127.504 75.9162C127.523 75.8971 127.533 75.8714 127.533 75.8448C127.533 75.8181 127.523 75.7925 127.504 75.7733C127.495 75.7639 127.484 75.7564 127.471 75.7513C127.459 75.7462 127.446 75.7436 127.433 75.7436C127.419 75.7436 127.406 75.7462 127.394 75.7513C127.382 75.7564 127.37 75.7639 127.361 75.7733L126.323 76.8096V75.6425C126.323 75.6159 126.313 75.5903 126.294 75.5714C126.275 75.5525 126.249 75.5419 126.223 75.5419C126.196 75.5424 126.171 75.5532 126.152 75.572C126.133 75.5907 126.122 75.616 126.122 75.6425V76.8096L125.086 75.7673C125.077 75.7579 125.066 75.7504 125.053 75.7453C125.041 75.7402 125.028 75.7375 125.014 75.7375C125.001 75.7375 124.988 75.7402 124.976 75.7453C124.963 75.7504 124.952 75.7579 124.943 75.7673C124.924 75.7864 124.914 75.8121 124.914 75.8387C124.914 75.8654 124.924 75.891 124.943 75.9102L125.981 76.9444H124.812C124.785 76.945 124.76 76.9557 124.741 76.9745C124.722 76.9932 124.712 77.0185 124.711 77.045C124.711 77.0717 124.722 77.0973 124.741 77.1162C124.76 77.1351 124.785 77.1457 124.812 77.1457H125.981L124.943 78.1819C124.924 78.2011 124.914 78.2267 124.914 78.2534C124.914 78.28 124.924 78.3057 124.943 78.3248C124.962 78.3429 124.988 78.353 125.014 78.353C125.041 78.353 125.067 78.3429 125.086 78.3248L126.122 77.2885V78.4536C126.122 78.4803 126.132 78.5059 126.151 78.5247C126.17 78.5436 126.196 78.5542 126.223 78.5542C126.249 78.5542 126.275 78.5436 126.294 78.5247C126.313 78.5059 126.323 78.4803 126.323 78.4536V77.2885L127.361 78.3248C127.381 78.3429 127.406 78.353 127.433 78.353C127.459 78.353 127.485 78.3429 127.504 78.3248C127.523 78.3057 127.533 78.28 127.533 78.2534C127.533 78.2267 127.523 78.2011 127.504 78.1819L126.466 77.1457H127.633C127.66 77.1457 127.686 77.1351 127.704 77.1162C127.723 77.0973 127.734 77.0717 127.734 77.045C127.732 77.0194 127.721 76.9954 127.702 76.9778C127.684 76.9602 127.659 76.9504 127.633 76.9505Z" fill="#009688"/>
<path d="M131.865 76.9505H130.698L131.736 75.9162C131.755 75.8971 131.765 75.8714 131.765 75.8448C131.765 75.8181 131.755 75.7925 131.736 75.7733C131.727 75.7639 131.715 75.7564 131.703 75.7513C131.691 75.7462 131.678 75.7436 131.664 75.7436C131.651 75.7436 131.638 75.7462 131.626 75.7513C131.613 75.7564 131.602 75.7639 131.593 75.7733L130.555 76.8096V75.6425C130.555 75.6159 130.544 75.5903 130.526 75.5714C130.507 75.5525 130.481 75.5419 130.454 75.5419C130.428 75.5424 130.402 75.5532 130.384 75.572C130.365 75.5907 130.354 75.616 130.354 75.6425V76.8096L129.318 75.7673C129.308 75.7579 129.297 75.7504 129.285 75.7453C129.273 75.7402 129.26 75.7375 129.246 75.7375C129.233 75.7375 129.22 75.7402 129.208 75.7453C129.195 75.7504 129.184 75.7579 129.175 75.7673C129.156 75.7864 129.146 75.8121 129.146 75.8387C129.146 75.8654 129.156 75.891 129.175 75.9102L130.213 76.9444H129.044C129.017 76.945 128.992 76.9557 128.973 76.9745C128.954 76.9932 128.944 77.0185 128.943 77.045C128.943 77.0717 128.954 77.0973 128.972 77.1162C128.991 77.1351 129.017 77.1457 129.044 77.1457H130.213L129.175 78.1819C129.156 78.2011 129.146 78.2267 129.146 78.2534C129.146 78.28 129.156 78.3057 129.175 78.3248C129.194 78.3429 129.22 78.353 129.246 78.353C129.273 78.353 129.298 78.3429 129.318 78.3248L130.354 77.2885V78.4536C130.354 78.4803 130.364 78.5059 130.383 78.5247C130.402 78.5436 130.428 78.5542 130.454 78.5542C130.481 78.5542 130.507 78.5436 130.526 78.5247C130.544 78.5059 130.555 78.4803 130.555 78.4536V77.2885L131.593 78.3248C131.612 78.3429 131.638 78.353 131.664 78.353C131.691 78.353 131.717 78.3429 131.736 78.3248C131.755 78.3057 131.765 78.28 131.765 78.2534C131.765 78.2267 131.755 78.2011 131.736 78.1819L130.698 77.1457H131.865C131.892 77.1457 131.917 77.1351 131.936 77.1162C131.955 77.0973 131.966 77.0717 131.966 77.045C131.964 77.0194 131.953 76.9954 131.934 76.9778C131.915 76.9602 131.891 76.9504 131.865 76.9505Z" fill="#009688"/>
<path d="M136.097 76.9505H134.93L135.968 75.9162C135.986 75.8971 135.997 75.8714 135.997 75.8448C135.997 75.8181 135.986 75.7925 135.968 75.7733C135.958 75.7639 135.947 75.7564 135.935 75.7513C135.923 75.7462 135.91 75.7436 135.896 75.7436C135.883 75.7436 135.87 75.7462 135.858 75.7513C135.845 75.7564 135.834 75.7639 135.825 75.7733L134.787 76.8096V75.6425C134.787 75.6159 134.776 75.5903 134.757 75.5714C134.739 75.5525 134.713 75.5419 134.686 75.5419C134.66 75.5424 134.634 75.5532 134.615 75.572C134.597 75.5907 134.586 75.616 134.585 75.6425V76.8096L133.55 75.7673C133.54 75.7579 133.529 75.7504 133.517 75.7453C133.505 75.7402 133.491 75.7375 133.478 75.7375C133.465 75.7375 133.452 75.7402 133.439 75.7453C133.427 75.7504 133.416 75.7579 133.407 75.7673C133.388 75.7864 133.378 75.8121 133.378 75.8387C133.378 75.8654 133.388 75.891 133.407 75.9102L134.444 76.9444H133.276C133.249 76.945 133.224 76.9557 133.205 76.9745C133.186 76.9932 133.175 77.0185 133.175 77.045C133.175 77.0717 133.185 77.0973 133.204 77.1162C133.223 77.1351 133.249 77.1457 133.276 77.1457H134.444L133.407 78.1819C133.388 78.2011 133.378 78.2267 133.378 78.2534C133.378 78.28 133.388 78.3057 133.407 78.3248C133.426 78.3429 133.452 78.353 133.478 78.353C133.505 78.353 133.53 78.3429 133.55 78.3248L134.585 77.2885V78.4536C134.585 78.4803 134.596 78.5059 134.615 78.5247C134.634 78.5436 134.659 78.5542 134.686 78.5542C134.713 78.5542 134.739 78.5436 134.757 78.5247C134.776 78.5059 134.787 78.4803 134.787 78.4536V77.2885L135.825 78.3248C135.844 78.3429 135.87 78.353 135.896 78.353C135.923 78.353 135.948 78.3429 135.968 78.3248C135.986 78.3057 135.997 78.28 135.997 78.2534C135.997 78.2267 135.986 78.2011 135.968 78.1819L134.93 77.1457H136.097C136.123 77.1457 136.149 77.1351 136.168 77.1162C136.187 77.0973 136.198 77.0717 136.198 77.045C136.196 77.0194 136.185 76.9954 136.166 76.9778C136.147 76.9602 136.122 76.9504 136.097 76.9505Z" fill="#009688"/>
<path d="M140.329 76.9505H139.162L140.2 75.9162C140.218 75.8971 140.229 75.8714 140.229 75.8448C140.229 75.8181 140.218 75.7925 140.2 75.7733C140.19 75.7639 140.179 75.7564 140.167 75.7513C140.155 75.7462 140.141 75.7436 140.128 75.7436C140.115 75.7436 140.102 75.7462 140.089 75.7513C140.077 75.7564 140.066 75.7639 140.057 75.7733L139.019 76.8096V75.6425C139.019 75.6159 139.008 75.5903 138.989 75.5714C138.97 75.5525 138.945 75.5419 138.918 75.5419C138.891 75.5424 138.866 75.5532 138.847 75.572C138.828 75.5907 138.818 75.616 138.817 75.6425V76.8096L137.781 75.7673C137.772 75.7579 137.761 75.7504 137.749 75.7453C137.736 75.7402 137.723 75.7375 137.71 75.7375C137.697 75.7375 137.683 75.7402 137.671 75.7453C137.659 75.7504 137.648 75.7579 137.638 75.7673C137.62 75.7864 137.609 75.8121 137.609 75.8387C137.609 75.8654 137.62 75.891 137.638 75.9102L138.676 76.9444H137.507C137.481 76.945 137.455 76.9557 137.437 76.9745C137.418 76.9932 137.407 77.0185 137.407 77.045C137.407 77.0717 137.417 77.0973 137.436 77.1162C137.455 77.1351 137.481 77.1457 137.507 77.1457H138.676L137.638 78.1819C137.62 78.2011 137.609 78.2267 137.609 78.2534C137.609 78.28 137.62 78.3057 137.638 78.3248C137.658 78.3429 137.683 78.353 137.71 78.353C137.736 78.353 137.762 78.3429 137.781 78.3248L138.817 77.2885V78.4536C138.817 78.4803 138.828 78.5059 138.847 78.5247C138.866 78.5436 138.891 78.5542 138.918 78.5542C138.945 78.5542 138.97 78.5436 138.989 78.5247C139.008 78.5059 139.019 78.4803 139.019 78.4536V77.2885L140.057 78.3248C140.076 78.3429 140.101 78.353 140.128 78.353C140.155 78.353 140.18 78.3429 140.2 78.3248C140.218 78.3057 140.229 78.28 140.229 78.2534C140.229 78.2267 140.218 78.2011 140.2 78.1819L139.162 77.1457H140.329C140.355 77.1457 140.381 77.1351 140.4 77.1162C140.419 77.0973 140.429 77.0717 140.429 77.045C140.428 77.0194 140.416 76.9954 140.398 76.9778C140.379 76.9602 140.354 76.9504 140.329 76.9505Z" fill="#009688"/>
<path d="M144.56 76.9505H143.394L144.431 75.9162C144.45 75.8971 144.46 75.8714 144.46 75.8448C144.46 75.8181 144.45 75.7925 144.431 75.7733C144.422 75.7639 144.411 75.7564 144.399 75.7513C144.386 75.7462 144.373 75.7436 144.36 75.7436C144.347 75.7436 144.333 75.7462 144.321 75.7513C144.309 75.7564 144.298 75.7639 144.288 75.7733L143.251 76.8096V75.6425C143.251 75.6159 143.24 75.5903 143.221 75.5714C143.202 75.5525 143.176 75.5419 143.15 75.5419C143.123 75.5424 143.098 75.5532 143.079 75.572C143.06 75.5907 143.05 75.616 143.049 75.6425V76.8096L142.013 75.7673C142.004 75.7579 141.993 75.7504 141.98 75.7453C141.968 75.7402 141.955 75.7375 141.942 75.7375C141.928 75.7375 141.915 75.7402 141.903 75.7453C141.891 75.7504 141.88 75.7579 141.87 75.7673C141.852 75.7864 141.841 75.8121 141.841 75.8387C141.841 75.8654 141.852 75.891 141.87 75.9102L142.908 76.9444H141.739C141.713 76.945 141.687 76.9557 141.668 76.9745C141.65 76.9932 141.639 77.0185 141.638 77.045C141.638 77.0717 141.649 77.0973 141.668 77.1162C141.687 77.1351 141.712 77.1457 141.739 77.1457H142.908L141.87 78.1819C141.852 78.2011 141.841 78.2267 141.841 78.2534C141.841 78.28 141.852 78.3057 141.87 78.3248C141.89 78.3429 141.915 78.353 141.942 78.353C141.968 78.353 141.994 78.3429 142.013 78.3248L143.049 77.2885V78.4536C143.049 78.4803 143.06 78.5059 143.079 78.5247C143.097 78.5436 143.123 78.5542 143.15 78.5542C143.176 78.5542 143.202 78.5436 143.221 78.5247C143.24 78.5059 143.251 78.4803 143.251 78.4536V77.2885L144.288 78.3248C144.308 78.3429 144.333 78.353 144.36 78.353C144.386 78.353 144.412 78.3429 144.431 78.3248C144.45 78.3057 144.46 78.28 144.46 78.2534C144.46 78.2267 144.45 78.2011 144.431 78.1819L143.394 77.1457H144.56C144.587 77.1457 144.613 77.1351 144.632 77.1162C144.65 77.0973 144.661 77.0717 144.661 77.045C144.66 77.0194 144.648 76.9954 144.63 76.9778C144.611 76.9602 144.586 76.9504 144.56 76.9505Z" fill="#009688"/>
<path d="M148.792 76.9505H147.625L148.663 75.9162C148.682 75.8971 148.692 75.8714 148.692 75.8448C148.692 75.8181 148.682 75.7925 148.663 75.7733C148.654 75.7639 148.643 75.7564 148.63 75.7513C148.618 75.7462 148.605 75.7436 148.592 75.7436C148.578 75.7436 148.565 75.7462 148.553 75.7513C148.541 75.7564 148.529 75.7639 148.52 75.7733L147.482 76.8096V75.6425C147.482 75.6159 147.472 75.5903 147.453 75.5714C147.434 75.5525 147.408 75.5419 147.382 75.5419C147.355 75.5424 147.33 75.5532 147.311 75.572C147.292 75.5907 147.281 75.616 147.281 75.6425V76.8096L146.245 75.7673C146.236 75.7579 146.225 75.7504 146.212 75.7453C146.2 75.7402 146.187 75.7375 146.173 75.7375C146.16 75.7375 146.147 75.7402 146.135 75.7453C146.122 75.7504 146.111 75.7579 146.102 75.7673C146.083 75.7864 146.073 75.8121 146.073 75.8387C146.073 75.8654 146.083 75.891 146.102 75.9102L147.14 76.9444H145.971C145.944 76.945 145.919 76.9557 145.9 76.9745C145.881 76.9932 145.871 77.0185 145.87 77.045C145.87 77.0717 145.881 77.0973 145.9 77.1162C145.919 77.1351 145.944 77.1457 145.971 77.1457H147.14L146.102 78.1819C146.083 78.2011 146.073 78.2267 146.073 78.2534C146.073 78.28 146.083 78.3057 146.102 78.3248C146.121 78.3429 146.147 78.353 146.173 78.353C146.2 78.353 146.226 78.3429 146.245 78.3248L147.281 77.2885V78.4536C147.281 78.4803 147.291 78.5059 147.31 78.5247C147.329 78.5436 147.355 78.5542 147.382 78.5542C147.408 78.5542 147.434 78.5436 147.453 78.5247C147.472 78.5059 147.482 78.4803 147.482 78.4536V77.2885L148.52 78.3248C148.54 78.3429 148.565 78.353 148.592 78.353C148.618 78.353 148.644 78.3429 148.663 78.3248C148.682 78.3057 148.692 78.28 148.692 78.2534C148.692 78.2267 148.682 78.2011 148.663 78.1819L147.625 77.1457H148.792C148.819 77.1457 148.844 77.1351 148.863 77.1162C148.882 77.0973 148.893 77.0717 148.893 77.045C148.891 77.0194 148.88 76.9954 148.861 76.9778C148.843 76.9602 148.818 76.9504 148.792 76.9505Z" fill="#009688"/>
<path d="M153.024 76.9505H151.857L152.895 75.9162C152.914 75.8971 152.924 75.8714 152.924 75.8448C152.924 75.8181 152.914 75.7925 152.895 75.7733C152.886 75.7639 152.874 75.7564 152.862 75.7513C152.85 75.7462 152.837 75.7436 152.823 75.7436C152.81 75.7436 152.797 75.7462 152.785 75.7513C152.772 75.7564 152.761 75.7639 152.752 75.7733L151.714 76.8096V75.6425C151.714 75.6159 151.704 75.5903 151.685 75.5714C151.666 75.5525 151.64 75.5419 151.613 75.5419C151.587 75.5424 151.561 75.5532 151.543 75.572C151.524 75.5907 151.513 75.616 151.513 75.6425V76.8096L150.477 75.7673C150.467 75.7579 150.456 75.7504 150.444 75.7453C150.432 75.7402 150.419 75.7375 150.405 75.7375C150.392 75.7375 150.379 75.7402 150.367 75.7453C150.354 75.7504 150.343 75.7579 150.334 75.7673C150.315 75.7864 150.305 75.8121 150.305 75.8387C150.305 75.8654 150.315 75.891 150.334 75.9102L151.372 76.9444H150.203C150.176 76.945 150.151 76.9557 150.132 76.9745C150.113 76.9932 150.103 77.0185 150.102 77.045C150.102 77.0717 150.113 77.0973 150.132 77.1162C150.15 77.1351 150.176 77.1457 150.203 77.1457H151.372L150.334 78.1819C150.315 78.2011 150.305 78.2267 150.305 78.2534C150.305 78.28 150.315 78.3057 150.334 78.3248C150.353 78.3429 150.379 78.353 150.405 78.353C150.432 78.353 150.457 78.3429 150.477 78.3248L151.513 77.2885V78.4536C151.513 78.4803 151.523 78.5059 151.542 78.5247C151.561 78.5436 151.587 78.5542 151.613 78.5542C151.64 78.5542 151.666 78.5436 151.685 78.5247C151.704 78.5059 151.714 78.4803 151.714 78.4536V77.2885L152.752 78.3248C152.771 78.3429 152.797 78.353 152.823 78.353C152.85 78.353 152.876 78.3429 152.895 78.3248C152.914 78.3057 152.924 78.28 152.924 78.2534C152.924 78.2267 152.914 78.2011 152.895 78.1819L151.857 77.1457H153.024C153.051 77.1457 153.076 77.1351 153.095 77.1162C153.114 77.0973 153.125 77.0717 153.125 77.045C153.123 77.0194 153.112 76.9954 153.093 76.9778C153.074 76.9602 153.05 76.9504 153.024 76.9505Z" fill="#009688"/>
<path d="M185.466 101.429C185.46 101.186 185.43 100.944 185.375 100.706C185.194 100.026 184.785 99.2034 184.112 98.9981C183.417 98.7857 182.745 98.5025 182.109 98.153C181.988 95.9959 182.483 93.7885 181.943 91.6979C181.742 90.9332 181.409 90.2008 181.321 89.418C181.21 88.4441 181.476 87.4058 181.087 86.5084C180.781 85.8001 180.107 85.3011 179.384 85.0395C178.661 84.7779 177.881 84.7075 177.113 84.637C176.146 84.5586 173.014 84.1883 171.922 85.0516C171.847 85.11 171.779 85.1776 171.72 85.2528V85.2528C171.696 85.286 171.675 85.3209 171.656 85.3574L171.646 85.3735C171.624 85.4155 171.606 85.4592 171.591 85.5043V85.5043C171.576 85.5537 171.565 85.6041 171.557 85.6552C171.557 85.6713 171.557 85.6874 171.557 85.7035C171.557 85.7196 171.557 85.7739 171.557 85.8102V85.8645C171.557 85.9007 171.557 85.9369 171.557 85.9752C171.557 86.0134 171.557 86.0033 171.557 86.0174C171.571 86.1985 171.598 86.3796 171.598 86.5587C171.6 86.6479 171.592 86.737 171.573 86.8243C171.506 87.0616 171.393 87.2832 171.239 87.4763V87.4763L171.203 87.5286C171.18 87.5608 171.158 87.591 171.138 87.6232C171.118 87.6553 171.102 87.6795 171.086 87.7077C171.07 87.7358 171.053 87.7539 171.039 87.7801C171.02 87.8133 171.002 87.8475 170.987 87.8827C170.987 87.9028 170.965 87.921 170.957 87.9411C170.932 87.9955 170.911 88.0521 170.896 88.1101C170.849 88.2849 170.845 88.4686 170.884 88.6453C170.939 88.8711 171.032 89.0856 171.16 89.2792C171.211 89.3617 171.265 89.4422 171.321 89.5227L171.463 89.7138C171.436 89.9005 171.422 90.0887 171.42 90.2772C171.42 90.9073 171.564 91.5292 171.839 92.096C172.115 92.6627 172.516 93.1596 173.012 93.5491C173.092 94.3988 173.083 95.2546 172.986 96.1026C172.968 96.2796 172.946 96.4587 172.921 96.6358C172.897 96.8129 172.879 96.9296 172.855 97.0765C172.56 97.1186 172.26 97.096 171.974 97.0101C171.843 96.9515 171.708 96.8997 171.571 96.8551C170.985 96.7082 170.386 97.2918 169.806 97.1147C169.806 97.1429 169.79 97.169 169.78 97.1952C169.659 97.12 169.519 97.079 169.377 97.0765C169.032 97.0604 168.752 96.8108 168.502 96.5754L167.735 95.853C167.684 95.8088 167.64 95.7588 167.602 95.7041C167.56 95.6259 167.529 95.5427 167.509 95.4566C167.38 95.0401 167.067 94.7081 166.765 94.3922C166.708 94.3201 166.632 94.2652 166.546 94.2332C166.512 94.2282 166.478 94.2282 166.445 94.2332C166.424 94.2051 166.402 94.1782 166.378 94.1527C166.326 94.0929 166.27 94.0365 166.211 93.9837C165.844 93.6457 165.808 93.3559 165.49 92.9776C165.212 92.6168 164.96 92.2369 164.736 91.8407C164.71 91.6294 164.674 91.4121 164.629 91.1928C164.528 90.6907 164.38 90.1989 164.188 89.7239L163.785 88.8325L163.738 88.8788C163.446 88.4441 163.134 88.2067 162.854 88.263C162.384 88.3596 162.153 89.2691 162.227 90.4583L162.388 91.6657C162.388 91.6958 162.402 91.726 162.41 91.7562C162.381 91.8993 162.367 92.0449 162.366 92.1908C162.366 92.3599 162.523 92.4846 162.606 92.6355C162.738 92.84 162.808 93.0783 162.807 93.3217C162.797 93.4082 162.771 93.4907 162.767 93.5752C162.778 93.7643 162.844 93.9461 162.957 94.0984L163.964 95.7886L164.166 96.1428L164.178 96.1589C164.241 96.2825 164.334 96.3888 164.448 96.4688C164.487 96.892 164.6 97.3052 164.78 97.6902C164.815 97.7666 164.853 97.8391 164.893 97.9115C165.164 98.3562 165.483 98.7698 165.844 99.145L166.324 99.6822C166.797 100.209 167.271 100.739 167.785 101.226C167.969 101.421 168.191 101.576 168.438 101.682C168.559 101.731 168.69 101.746 168.819 101.727C168.948 101.709 169.069 101.656 169.171 101.576C169.171 101.825 169.171 102.075 169.171 102.324C169.246 102.329 169.318 102.353 169.381 102.395C169.443 102.437 169.493 102.494 169.525 102.562C169.558 102.629 169.571 102.704 169.565 102.779C169.559 102.854 169.533 102.925 169.49 102.986C169.067 104.071 168.639 105.165 167.998 106.137C168.451 106.405 168.87 106.724 169.248 107.089C169.493 107.36 169.711 107.655 169.899 107.968C169.917 108.117 169.931 108.264 169.939 108.411C170.088 110.81 169.159 113.19 168.327 115.476C168.087 116.124 167.825 116.802 167.845 117.476C167.687 117.573 167.537 117.682 167.394 117.8C167.559 118.231 167.495 118.615 167.477 119.076C167.471 119.352 167.414 119.625 167.309 119.881C167.222 120.058 167.125 120.231 167.019 120.398C166.497 121.317 166.382 122.41 166.278 123.46C166.215 124.094 166.461 124.869 166.173 125.436C165.675 126.41 165.234 127.449 165.165 128.531C165.163 128.775 165.132 129.017 165.073 129.254C165.01 129.455 164.899 129.626 164.843 129.823C164.785 130.087 164.771 130.359 164.802 130.628C164.841 131.592 164.697 132.555 164.379 133.467C164.127 134.185 163.849 134.954 164.047 135.693C163.561 136.202 163.26 136.861 163.194 137.562C163.189 137.741 163.168 137.92 163.13 138.095C163.068 138.274 162.987 138.447 162.888 138.608C162.482 139.346 162.293 140.183 162.34 141.023C161.735 141.842 161.433 142.852 161.254 143.856C161.074 144.86 160.996 145.882 160.766 146.874C160.46 148.186 159.906 149.512 159.797 150.856C159.144 151.273 158.862 152.08 158.737 152.843C158.612 153.605 158.592 154.406 158.271 155.11C158.106 155.476 157.868 155.804 157.711 156.179C157.601 156.477 157.52 156.785 157.469 157.098C157.373 157.589 157.288 158.137 157.407 158.607C157.236 158.788 157.036 158.94 156.816 159.056C156.849 158.931 156.875 158.807 156.897 158.68C156.377 159.151 155.434 158.986 155.019 159.551C154.894 159.733 154.846 159.957 154.883 160.174C154.921 160.392 155.042 160.586 155.22 160.716C155.35 160.795 155.491 160.856 155.638 160.895C156.645 161.217 157.681 161.541 158.717 161.37C158.839 161.357 158.958 161.319 159.065 161.26C159.2 161.16 159.311 161.033 159.39 160.885C159.545 160.64 159.7 160.394 159.853 160.149C160.224 160.259 160.602 160.347 160.984 160.412C161.022 160.734 161.05 161.056 161.064 161.378C161.266 161.419 161.536 161.431 161.631 161.243C161.659 161.173 161.671 161.096 161.665 161.02C161.665 160.877 161.685 160.688 161.697 160.495H161.737C162.352 160.52 162.964 160.396 163.521 160.135C163.305 158.352 164.017 156.609 164.633 154.923C165.284 153.148 165.842 151.341 166.405 149.534C166.808 148.263 167.253 147.031 167.648 145.758C168.145 144.148 168.644 142.538 169.145 140.928C169.363 140.22 169.582 139.52 169.832 138.815C170.358 137.39 170.982 136.003 171.7 134.664C171.902 134.284 172.103 133.908 172.269 133.513C172.47 133.032 172.613 132.529 172.774 132.032C173.126 131.013 173.549 130.019 174.04 129.058C174.054 129.032 174.064 129.008 174.078 128.984C174.241 129.65 174.405 130.326 174.513 130.996C174.661 131.818 174.672 132.658 174.548 133.483C174.451 134.045 174.268 134.6 174.29 135.169C174.32 135.956 174.741 136.67 174.949 137.429C175.083 137.997 175.158 138.577 175.174 139.16C175.231 140.065 175.723 141.081 175.376 141.92C174.298 144.578 174.82 147.581 174.205 150.372C173.889 151.804 172.919 153.15 172.996 154.615C173.05 155.655 173.141 156.692 173.27 157.726C173.301 158.052 173.386 158.371 173.522 158.67C173.602 158.827 173.695 158.978 173.798 159.121C173.709 159.155 173.635 159.245 173.57 159.436C173.405 159.94 173.57 160.563 174.018 160.845C174.2 160.942 174.397 161.01 174.6 161.046C174.874 161.124 175.158 161.163 175.442 161.163C175.531 161.158 175.619 161.147 175.706 161.131C176.018 161.261 176.336 161.376 176.66 161.473C176.66 161.555 176.676 161.638 176.686 161.72C176.686 161.763 176.696 161.806 176.714 161.845C176.732 161.884 176.758 161.919 176.791 161.948C176.841 161.971 176.896 161.981 176.952 161.976H178.046C178.046 161.885 178.046 161.793 178.046 161.702C178.171 161.715 178.298 161.702 178.418 161.663C178.537 161.624 178.648 161.561 178.741 161.477C178.838 161.354 178.907 161.211 178.943 161.058C179.241 160.048 179.537 159.037 179.831 158.026C180.184 156.908 180.331 155.735 180.265 154.565C179.876 150.856 180.73 147.136 180.452 143.417C180.285 141.182 180.4 138.935 180.795 136.729C180.885 136.23 180.996 135.723 181.036 135.226C181.125 134.288 181.016 133.34 181.083 132.409C181.105 132.083 181.149 131.759 181.19 131.435C181.466 129.424 181.61 127.397 181.623 125.368C181.617 124.695 181.575 124.024 181.498 123.356C181.708 123.302 181.899 123.191 182.048 123.034C182.227 122.8 182.181 122.472 182.179 122.175C182.179 121.462 182.479 120.79 182.721 120.118C183.031 119.191 183.286 118.246 183.483 117.289C183.691 116.517 183.805 115.724 183.821 114.925C183.821 114.844 183.817 114.764 183.809 114.683C183.885 114.631 183.949 114.562 183.995 114.482C184.047 114.364 184.08 114.238 184.091 114.11C184.164 113.597 184.239 113.081 184.311 112.566C184.365 112.197 184.418 111.829 184.47 111.462L185.111 106.997C185.165 106.608 185.222 106.222 185.276 105.836L185.444 104.681C185.462 104.544 185.482 104.407 185.496 104.278C185.988 103.457 185.518 102.363 185.466 101.429ZM180.12 118.146C179.882 117.583 179.66 117.005 179.717 116.398H179.694C179.747 116.211 179.738 116.011 179.668 115.83C179.606 115.683 179.497 115.558 179.43 115.412C179.359 115.232 179.322 115.041 179.322 114.848C179.272 113.624 179.368 112.399 179.61 111.198C179.636 111.057 179.664 110.914 179.69 110.773C179.775 110.725 179.852 110.664 179.92 110.594C180.026 110.474 180.114 110.338 180.18 110.192C180.408 109.735 180.615 109.27 180.807 108.798C180.869 108.645 180.96 108.468 181.115 108.429C181.083 109.606 181.204 110.808 180.724 111.87C180.633 112.041 180.565 112.224 180.523 112.413C180.478 112.713 180.603 113.017 180.559 113.315C180.537 113.47 180.47 113.613 180.444 113.766C180.424 113.841 180.424 113.92 180.445 113.995C180.466 114.07 180.505 114.138 180.561 114.192C180.588 114.211 180.617 114.226 180.648 114.236C180.635 114.317 180.625 114.399 180.617 114.478C180.601 114.643 180.593 114.798 180.583 114.894C180.537 115.387 180.519 115.881 180.529 116.375C180.529 116.909 180.549 117.442 180.541 117.985C180.548 118.141 180.522 118.297 180.464 118.442C180.424 118.517 180.373 118.585 180.311 118.643C180.253 118.462 180.188 118.303 180.12 118.146Z" fill="url(#paint0_linear)"/>
<path d="M164.213 94.7986C164.827 94.6727 165.037 93.1613 164.68 91.4227C164.323 89.684 163.535 88.3766 162.921 88.5024C162.306 88.6282 162.096 90.1397 162.453 91.8783C162.81 93.6169 163.598 94.9244 164.213 94.7986Z" fill="#FBBEBE"/>
<path d="M173.603 159.475C173.437 159.974 173.603 160.597 174.05 160.869C174.231 160.966 174.426 161.033 174.628 161.07C174.902 161.147 175.185 161.186 175.469 161.185C175.817 161.169 176.152 161.032 176.5 160.984C176.541 160.974 176.583 160.979 176.619 161C176.637 161.019 176.65 161.041 176.657 161.065C176.665 161.09 176.667 161.115 176.664 161.141C176.667 161.339 176.682 161.536 176.708 161.732C176.708 161.775 176.718 161.818 176.736 161.857C176.754 161.896 176.78 161.931 176.813 161.96C176.863 161.983 176.919 161.993 176.974 161.988H178.066C178.091 161.03 177.986 160.073 177.754 159.143C177.739 159.071 177.711 159.003 177.673 158.941C177.581 158.84 177.459 158.77 177.325 158.74C177.058 158.629 176.769 158.579 176.48 158.593C176.128 158.64 175.833 158.867 175.533 159.056C175.233 159.245 174.824 159.412 174.459 159.316C174.094 159.219 173.79 158.915 173.603 159.475Z" fill="#3F3D56"/>
<path d="M157.566 158.591C157.259 158.92 156.882 159.175 156.464 159.34L156.278 159.428C156.253 159.438 156.231 159.456 156.216 159.479C156.212 159.494 156.212 159.511 156.216 159.526C156.219 159.542 156.226 159.557 156.236 159.569C156.39 159.807 156.618 159.989 156.885 160.086C157.152 160.183 157.444 160.19 157.715 160.106C157.835 160.077 157.946 160.019 158.04 159.937C158.193 159.756 158.281 159.527 158.29 159.29C158.351 159.044 158.34 158.787 158.259 158.547C157.979 157.917 157.876 158.203 157.566 158.591Z" fill="#FBBEBE"/>
<path d="M161.754 161.07C161.76 161.146 161.748 161.223 161.719 161.294C161.625 161.479 161.361 161.469 161.155 161.429C161.124 160.746 161.041 160.066 160.907 159.396C160.516 159.378 160.234 159.748 160.025 160.08L159.485 160.936C159.406 161.083 159.296 161.211 159.162 161.31C159.054 161.369 158.936 161.406 158.813 161.42C157.782 161.592 156.74 161.268 155.744 160.946C155.598 160.906 155.457 160.847 155.327 160.769C155.15 160.638 155.029 160.444 154.992 160.228C154.954 160.011 155.002 159.788 155.126 159.605C155.543 159.042 156.48 159.203 157 158.736C156.946 159.065 156.856 159.386 156.734 159.696C157.429 159.591 157.897 158.956 158.457 158.531C158.598 158.412 158.767 158.331 158.948 158.298C159.084 158.286 159.221 158.3 159.352 158.34C159.997 158.502 160.602 158.799 161.125 159.211C161.336 159.378 161.667 159.614 161.76 159.871C161.858 160.179 161.754 160.742 161.754 161.07Z" fill="#3F3D56"/>
<path d="M175.616 94.6799C177.915 94.6799 179.779 92.8187 179.779 90.5227C179.779 88.2268 177.915 86.3655 175.616 86.3655C173.316 86.3655 171.452 88.2268 171.452 90.5227C171.452 92.8187 173.316 94.6799 175.616 94.6799Z" fill="#FBBEBE"/>
<path d="M183.817 115.067C183.801 115.862 183.688 116.652 183.481 117.42C183.284 118.373 183.029 119.314 182.719 120.237C182.479 120.907 182.179 121.579 182.181 122.289C182.181 122.585 182.229 122.913 182.048 123.146C181.887 123.31 181.683 123.427 181.46 123.482C181.348 123.512 181.245 123.567 181.159 123.644C181.073 123.72 181.006 123.816 180.964 123.923C180.775 123.641 180.633 123.33 180.545 123.002C180.183 121.896 179.848 120.785 179.537 119.667C179.509 119.603 179.497 119.533 179.501 119.463C179.506 119.393 179.528 119.325 179.565 119.265C179.617 119.221 179.676 119.187 179.741 119.166C179.947 119.082 180.137 118.961 180.299 118.808C180.375 118.741 180.438 118.659 180.484 118.569C180.543 118.425 180.57 118.269 180.563 118.114C180.563 117.581 180.563 117.049 180.549 116.516C180.54 116.024 180.559 115.532 180.605 115.041C180.605 114.945 180.623 114.79 180.639 114.625C180.67 114.309 180.73 113.943 180.901 113.82C181.157 113.649 181.923 113.878 182.213 113.919C182.713 113.987 183.221 114.067 183.709 114.162C183.779 114.459 183.816 114.762 183.817 115.067Z" fill="#3F3D56"/>
<path d="M167.007 95.1769C166.846 95.4989 166.459 95.6538 166.161 95.8571L165.139 96.5573C165.071 96.6187 164.991 96.6657 164.904 96.6955C164.817 96.7252 164.725 96.7371 164.633 96.7304C164.55 96.6997 164.474 96.6528 164.409 96.5923C164.344 96.5318 164.293 96.459 164.256 96.3782C164.257 96.3729 164.257 96.3675 164.256 96.3621L164.045 96.008L163.037 94.3218C162.925 94.1708 162.86 93.9903 162.85 93.8026C162.85 93.7161 162.88 93.6356 162.888 93.5491C162.891 93.3061 162.821 93.0678 162.687 92.8649C162.606 92.714 162.445 92.5893 162.449 92.4202C162.441 92.1981 162.48 91.9768 162.562 91.7703C162.667 91.5792 162.819 91.4174 163.003 91.2994C163.098 91.231 163.194 91.1666 163.295 91.0982C163.349 91.0618 163.408 91.0345 163.47 91.0177C163.638 90.9835 163.803 91.1224 163.972 91.1284C164.7 91.6154 164.98 92.5369 165.552 93.201C165.875 93.5793 165.907 93.869 166.272 94.2071C166.33 94.2594 166.386 94.3157 166.441 94.3741C166.513 94.4526 166.574 94.5406 166.622 94.6357C166.689 94.8087 167.09 95.0119 167.007 95.1769Z" fill="#3F3D56"/>
<path d="M174.153 94.6819C174.453 95.3158 174.687 96.012 174.6 96.7082C174.582 96.8968 174.522 97.079 174.425 97.2414C174.135 97.6861 173.526 97.7666 172.996 97.7928C172.884 97.7834 172.772 97.7964 172.665 97.8309C172.559 97.8655 172.46 97.9209 172.375 97.994C172.305 98.0968 172.27 98.2201 172.277 98.3446C172.284 98.4692 172.332 98.5879 172.414 98.6822C172.584 98.8637 172.795 99.0017 173.03 99.0846C173.869 99.4528 174.773 99.7567 175.684 99.6722C176.107 99.6319 176.519 99.5092 176.94 99.4468C177.399 99.3972 177.86 99.3716 178.322 99.3703C178.87 99.3502 179.416 99.2959 179.962 99.2416L181.409 99.0987C181.488 99.0998 181.565 99.0719 181.625 99.0202C181.732 98.8955 181.595 98.7124 181.462 98.6178C180.694 98.0503 179.717 97.66 179.279 96.8068C179.078 96.4044 179.015 95.9255 178.866 95.4908C178.717 95.0562 178.479 94.6638 178.387 94.2211C178.337 93.8328 178.315 93.4415 178.32 93.05C178.325 92.6553 178.181 92.2732 177.917 91.9795C177.629 91.7119 177.212 91.6435 176.821 91.6274C175.858 91.5852 174.832 91.8145 174.149 92.4927C173.965 92.6758 173.808 92.8951 173.619 93.0601C173.429 93.2251 173.171 93.2734 173.296 93.4907C173.421 93.708 173.667 93.8428 173.8 94.034C173.935 94.2403 174.053 94.4569 174.153 94.6819V94.6819Z" fill="#FBBEBE"/>
<path d="M182.36 100.535C182.106 102.085 181.693 103.604 181.127 105.069C180.843 105.73 180.6 106.409 180.402 107.101C180.247 107.725 180.277 108.393 180.134 109.019C179.956 109.798 179.779 110.578 179.636 111.363C179.396 112.561 179.3 113.784 179.35 115.005C179.35 115.197 179.387 115.388 179.459 115.567C179.525 115.711 179.632 115.836 179.694 115.985C179.741 116.116 179.76 116.255 179.751 116.393C179.741 116.532 179.702 116.667 179.638 116.79C179.535 117.02 179.394 117.232 179.223 117.418C177.345 117.977 175.336 117.794 173.379 117.913C171.575 118.021 169.752 118.392 167.974 118.084C167.773 117.279 168.109 116.436 168.397 115.651C169.234 113.371 170.159 110.997 170.01 108.608C169.994 108.33 169.962 108.052 169.915 107.777C169.623 106.085 169.941 104.332 170.451 102.693C170.767 101.67 170.753 100.582 170.681 99.5173C170.645 99.1716 170.64 98.8234 170.667 98.477C170.696 98.1231 170.827 97.7855 171.045 97.5051C171.045 97.491 171.064 97.4769 171.074 97.4628C171.084 97.4487 171.162 97.4507 171.225 97.4628C171.241 97.4696 171.258 97.473 171.275 97.473C171.292 97.473 171.31 97.4696 171.325 97.4628L171.348 97.4487C171.356 97.4427 171.366 97.4394 171.377 97.4394C171.387 97.4394 171.398 97.4427 171.406 97.4487C171.452 97.4769 171.479 97.5735 171.579 97.5916C171.728 97.6141 171.878 97.6282 172.029 97.6338C172.21 97.6392 172.39 97.6649 172.565 97.7103H172.589C172.851 97.7544 173.12 97.7316 173.371 97.6439C173.538 97.6023 173.699 97.5401 173.85 97.4588C173.895 97.4105 174.173 97.3662 174.229 97.332C174.413 97.2213 174.372 96.7022 174.411 96.4889C174.432 96.275 174.483 96.0651 174.562 95.8651C174.654 95.7176 174.78 95.5947 174.931 95.5074C175.081 95.42 175.25 95.3708 175.424 95.3641C175.771 95.3558 176.118 95.3869 176.458 95.4566C177.21 95.5633 177.979 95.5452 178.717 95.7182C179.088 95.8048 179.493 95.9356 179.833 95.7665C179.926 95.7887 179.94 95.8692 179.94 95.9678C179.932 96.0614 179.913 96.1539 179.884 96.2434C179.755 96.7988 180.192 97.3099 180.595 97.7123C180.765 97.902 180.966 98.0619 181.19 98.1852C181.391 98.2777 181.593 98.316 181.794 98.4166C181.957 98.5036 182.096 98.6302 182.197 98.7848C182.313 98.9621 182.392 99.1615 182.427 99.3704C182.47 99.7597 182.448 100.154 182.36 100.535Z" fill="#3F3D56"/>
<path opacity="0.1" d="M182.36 100.535C182.106 102.085 181.693 103.604 181.127 105.069C180.843 105.73 180.6 106.409 180.402 107.101C180.247 107.725 180.277 108.393 180.134 109.019C179.956 109.798 179.779 110.578 179.636 111.363C179.594 111.387 179.549 111.409 179.505 111.429C179.254 111.549 178.989 111.634 178.715 111.683C178.224 111.742 177.726 111.726 177.24 111.635L174.364 111.25C173.216 111.095 171.992 110.908 171.14 110.132C170.667 109.705 170.356 109.142 170.016 108.598C170 108.32 169.968 108.042 169.921 107.767C169.629 106.075 169.947 104.322 170.457 102.682C170.773 101.66 170.759 100.572 170.687 99.5072C170.651 99.1615 170.646 98.8134 170.673 98.4669C170.702 98.1131 170.833 97.7754 171.051 97.495C171.11 97.4778 171.17 97.4643 171.231 97.4548V97.4548C171.271 97.4466 171.312 97.4412 171.354 97.4387H171.412C171.48 97.4389 171.548 97.447 171.614 97.4628C171.751 97.5065 171.886 97.5582 172.017 97.6177H172.041C172.214 97.6746 172.395 97.7004 172.577 97.6942C172.843 97.6942 173.117 97.6519 173.383 97.6338C173.712 97.5826 174.048 97.6428 174.338 97.8049C174.525 97.9552 174.703 98.1172 174.87 98.2898C175.072 98.4479 175.299 98.5711 175.541 98.654C177.276 99.3152 179.2 99.2747 180.905 98.5413C181.069 98.4483 181.255 98.4011 181.444 98.4045C181.583 98.4317 181.715 98.4879 181.83 98.5695C181.951 98.6399 182.07 98.7084 182.193 98.7707C182.309 98.948 182.388 99.1474 182.423 99.3563C182.469 99.75 182.448 100.149 182.36 100.535V100.535Z" fill="black"/>
<path d="M184.116 99.2033C183.313 98.9586 182.542 98.6209 181.818 98.1972C181.702 98.1162 181.57 98.0601 181.431 98.0323C181.243 98.03 181.056 98.0772 180.891 98.1691C179.187 98.9024 177.263 98.9428 175.529 98.2818C175.287 98.198 175.06 98.075 174.858 97.9176C174.691 97.7455 174.513 97.5835 174.326 97.4326C173.663 97.004 172.746 97.5071 172.005 97.2314C171.873 97.1727 171.739 97.121 171.602 97.0765C171.015 96.9296 170.419 97.5131 169.842 97.336C169.628 97.918 169.469 98.519 169.369 99.1309C169.287 99.8336 169.243 100.54 169.238 101.248C169.238 101.672 169.218 102.097 169.238 102.521C169.309 102.533 169.377 102.559 169.437 102.598C169.497 102.638 169.549 102.689 169.588 102.749C169.615 102.819 169.626 102.894 169.62 102.969C169.615 103.043 169.593 103.116 169.556 103.181C169.135 104.262 168.708 105.355 168.069 106.322C168.519 106.59 168.937 106.909 169.314 107.272C170.02 108.017 170.366 109.061 171.128 109.749C171.986 110.524 173.21 110.713 174.352 110.866L177.228 111.25C177.715 111.341 178.213 111.358 178.705 111.301C178.978 111.251 179.243 111.165 179.493 111.045C179.656 110.977 179.805 110.879 179.932 110.755C180.038 110.635 180.126 110.499 180.192 110.353C180.42 109.898 180.627 109.433 180.819 108.962C180.885 108.795 180.986 108.6 181.167 108.586C182.235 107.624 183.243 106.638 184.311 105.677C184.74 105.321 185.125 104.916 185.458 104.469C185.988 103.687 185.506 102.578 185.458 101.632C185.452 101.39 185.421 101.149 185.367 100.914C185.194 100.228 184.787 99.4066 184.116 99.2033Z" fill="#009688"/>
<path opacity="0.1" d="M167.007 95.1769C166.846 95.4989 166.459 95.6538 166.161 95.857L165.139 96.5573C165.071 96.6187 164.991 96.6657 164.904 96.6954C164.817 96.7252 164.725 96.737 164.633 96.7303C164.55 96.6997 164.474 96.6527 164.409 96.5923C164.344 96.5318 164.293 96.459 164.256 96.3782C164.256 96.3319 164.256 96.2816 164.256 96.2333C164.249 96.0704 164.27 95.9075 164.321 95.7524C164.421 95.5249 164.576 95.3257 164.772 95.1729C165.152 94.8142 165.603 94.5398 166.096 94.368C166.173 94.3381 166.257 94.3298 166.338 94.3439C166.369 94.352 166.399 94.3649 166.427 94.3821C166.499 94.4606 166.56 94.5486 166.608 94.6437C166.689 94.8087 167.09 95.0119 167.007 95.1769Z" fill="black"/>
<path d="M169.413 97.2978C169.071 97.2817 168.79 97.0342 168.541 96.7988L167.777 96.0905C167.726 96.0473 167.681 95.9972 167.644 95.9416C167.603 95.8633 167.571 95.7801 167.551 95.6941C167.389 95.2876 167.135 94.924 166.81 94.6316C166.753 94.5595 166.677 94.5051 166.59 94.4747C166.508 94.4596 166.423 94.4679 166.346 94.4988C165.853 94.6704 165.401 94.9447 165.022 95.3037C164.826 95.4566 164.671 95.6557 164.571 95.8832C164.52 96.0382 164.498 96.2012 164.506 96.3641C164.511 96.8958 164.631 97.4202 164.857 97.9014C164.891 97.9759 164.929 98.0503 164.97 98.1228C165.239 98.5665 165.556 98.9789 165.917 99.3522L166.396 99.8875C166.868 100.415 167.34 100.942 167.851 101.427C168.035 101.622 168.257 101.777 168.504 101.882C168.628 101.932 168.764 101.948 168.896 101.926C169.028 101.905 169.152 101.848 169.254 101.761C169.35 101.649 169.423 101.519 169.468 101.379C169.778 100.574 170.072 99.7366 170.09 98.8693C170.095 98.522 170.08 98.1747 170.046 97.829C170.016 97.4628 169.756 97.3199 169.413 97.2978Z" fill="#009688"/>
<path d="M181.625 125.469C181.613 127.493 181.469 129.514 181.194 131.519C181.153 131.843 181.109 132.167 181.087 132.491C181.02 133.431 181.129 134.375 181.041 135.308C180.994 135.813 180.889 136.314 180.801 136.807C180.407 139.008 180.292 141.249 180.458 143.478C180.736 147.186 179.884 150.897 180.271 154.595C180.318 155.314 180.278 156.037 180.152 156.746C180.08 157.187 179.975 157.621 179.839 158.046C179.545 159.053 179.25 160.06 178.953 161.064C178.918 161.217 178.849 161.36 178.751 161.483C178.649 161.572 178.528 161.637 178.398 161.676C178.267 161.715 178.13 161.725 177.996 161.706C176.833 161.67 175.739 161.169 174.683 160.68C174.561 160.632 174.449 160.564 174.35 160.479C174.131 160.251 174.149 159.893 174.052 159.593C173.955 159.294 173.693 159.012 173.544 158.704C173.422 158.413 173.347 158.104 173.325 157.788C173.19 156.758 173.099 155.724 173.05 154.686C172.974 153.225 173.941 151.881 174.26 150.46C174.864 147.667 174.352 144.673 175.426 142.023C175.765 141.186 175.273 140.172 175.225 139.27C175.207 138.689 175.132 138.11 174.999 137.544C174.798 136.787 174.372 136.075 174.342 135.29C174.32 134.723 174.503 134.169 174.598 133.61C174.724 132.787 174.712 131.948 174.564 131.129C174.457 130.453 174.294 129.777 174.131 129.117L174.094 129.191C173.603 130.149 173.181 131.141 172.831 132.159C172.67 132.652 172.529 133.155 172.327 133.634C172.162 134.037 171.958 134.405 171.759 134.783C171.043 136.117 170.42 137.499 169.895 138.918C169.645 139.614 169.425 140.327 169.208 141.025L167.714 145.854C167.311 147.124 166.87 148.351 166.475 149.619C165.917 151.43 165.359 153.225 164.71 154.996C164.105 156.676 163.386 158.416 163.601 160.191C163.046 160.452 162.436 160.575 161.822 160.551C160.783 160.459 159.765 160.213 158.799 159.819C158.414 159.676 158.015 159.515 157.756 159.199C157.308 158.654 157.419 157.855 157.554 157.161C157.605 156.848 157.686 156.54 157.796 156.243C157.949 155.873 158.199 155.545 158.356 155.179C158.672 154.476 158.693 153.682 158.818 152.919C158.942 152.156 159.221 151.351 159.873 150.937C159.984 149.597 160.536 148.275 160.841 146.965C161.07 145.973 161.147 144.953 161.328 143.947C161.51 142.94 161.802 141.934 162.411 141.119C162.362 140.279 162.552 139.442 162.959 138.705C163.057 138.543 163.137 138.371 163.198 138.192C163.236 138.017 163.258 137.839 163.263 137.66C163.33 136.961 163.629 136.305 164.113 135.795C163.912 135.061 164.192 134.294 164.444 133.582C164.761 132.673 164.905 131.712 164.867 130.751C164.836 130.482 164.849 130.21 164.905 129.946C164.962 129.744 165.073 129.573 165.137 129.38C165.194 129.144 165.225 128.901 165.228 128.658C165.306 127.569 165.748 126.543 166.235 125.571C166.525 125.004 166.28 124.233 166.34 123.601C166.445 122.551 166.56 121.464 167.082 120.549C167.178 120.376 167.283 120.211 167.37 120.032C167.475 119.776 167.531 119.503 167.537 119.227C167.555 118.766 167.62 118.384 167.454 117.955C168.533 117.06 170.004 116.808 171.406 116.748C172.809 116.687 174.227 116.814 175.6 116.516C176.003 116.426 176.406 116.301 176.831 116.241C177.796 116.1 178.776 116.319 179.729 116.536C179.662 117.14 179.884 117.72 180.132 118.281C181.099 120.555 181.607 122.998 181.625 125.469V125.469Z" fill="#33313F"/>
<path opacity="0.1" d="M176.879 125.929L174.564 131.129C174.457 130.453 174.294 129.777 174.131 129.117L174.094 129.191V129.082L175.356 126.312L176.879 125.929Z" fill="black"/>
<path opacity="0.1" d="M183.817 115.067C183.684 115.167 183.524 115.227 183.358 115.239C183.103 115.248 182.848 115.213 182.604 115.136L180.791 114.683C180.734 114.669 180.678 114.65 180.625 114.625C180.656 114.309 180.716 113.943 180.887 113.82C181.143 113.649 181.909 113.878 182.199 113.919C182.699 113.987 183.207 114.067 183.694 114.162C183.77 114.458 183.811 114.762 183.817 115.067V115.067Z" fill="black"/>
<path d="M185.351 103.095C185.389 103.262 185.444 103.427 185.476 103.596C185.53 104.011 185.516 104.431 185.434 104.841L185.268 105.992L185.103 107.149L184.464 111.602L184.307 112.705L184.085 114.244C184.075 114.373 184.042 114.498 183.989 114.615C183.923 114.724 183.83 114.815 183.72 114.88C183.61 114.945 183.486 114.982 183.358 114.987C183.103 114.995 182.848 114.96 182.604 114.884L180.791 114.43C180.711 114.415 180.636 114.385 180.569 114.339C180.514 114.285 180.474 114.217 180.453 114.143C180.432 114.068 180.432 113.989 180.452 113.914C180.478 113.762 180.545 113.619 180.567 113.466C180.611 113.168 180.486 112.862 180.531 112.566C180.574 112.378 180.642 112.196 180.732 112.025C181.337 110.691 180.986 109.133 181.192 107.685C181.377 106.544 181.859 105.473 182.59 104.578C183.041 104.013 183.56 103.505 184.134 103.065C184.359 102.89 184.718 102.529 185.002 102.461C185.367 102.385 185.29 102.841 185.351 103.095Z" fill="#009688"/>
<path d="M171.626 85.7619C171.493 86.1844 171.7 86.6493 171.606 87.0799C171.503 87.5547 171.055 87.8847 170.929 88.3616C170.727 89.088 171.344 89.75 171.795 90.3537C173.468 92.5953 173.248 95.6981 172.676 98.4327C172.215 100.627 171.578 102.78 170.771 104.872C170.519 105.522 170.241 106.182 169.746 106.669C170.673 106.403 171.658 106.135 172.587 106.393C173.764 106.719 174.779 107.86 175.972 107.6C176.69 107.441 177.194 106.805 177.838 106.453C179.048 105.803 180.504 106.212 181.853 106.421C182.143 106.49 182.447 106.474 182.729 106.377C182.945 106.261 183.128 106.093 183.261 105.888C183.863 105.117 184.223 104.186 184.297 103.212C184.329 102.726 184.257 102.24 184.087 101.784C183.916 101.329 183.65 100.915 183.308 100.57C183.021 100.3 182.679 100.083 182.459 99.7648C182.246 99.3934 182.131 98.9736 182.127 98.5454C181.967 96.3319 182.508 94.0722 181.951 91.9313C181.75 91.1686 181.421 90.4382 181.333 89.6575C181.222 88.6856 181.486 87.6453 181.099 86.7559C180.795 86.0496 180.124 85.5486 179.4 85.291C178.677 85.0335 177.903 84.961 177.135 84.8886C176.031 84.796 172.087 84.3232 171.626 85.7619Z" fill="#33313F"/>
<g opacity="0.1">
<path opacity="0.1" d="M172.676 98.4327C172.217 100.618 171.584 102.762 170.781 104.846C170.92 104.57 171.037 104.28 171.148 103.992C171.956 101.901 172.593 99.7475 173.052 97.5533C173.627 94.8167 173.846 91.718 172.174 89.4744C171.771 88.9391 171.253 88.3596 171.271 87.7318C171.122 87.9217 171.006 88.1353 170.929 88.3636C170.727 89.09 171.344 89.7521 171.795 90.3557C173.468 92.5953 173.248 95.6981 172.676 98.4327Z" fill="black"/>
<path opacity="0.1" d="M171.63 86.8766C171.792 86.6761 171.912 86.4457 171.984 86.1985C172.016 85.8996 172.007 85.5979 171.96 85.3011C171.805 85.4177 171.688 85.5783 171.626 85.7619C171.507 86.118 171.644 86.5044 171.63 86.8766Z" fill="black"/>
<path opacity="0.1" d="M183.64 105.002C183.507 105.207 183.324 105.374 183.108 105.489C182.826 105.589 182.522 105.604 182.231 105.534C180.883 105.332 179.41 104.918 178.217 105.568C177.57 105.918 177.069 106.554 176.349 106.715C175.158 106.98 174.143 105.84 172.966 105.508C172.132 105.276 171.253 105.467 170.413 105.709C170.246 106.064 170.02 106.389 169.746 106.671C170.673 106.405 171.658 106.137 172.587 106.395C173.764 106.721 174.779 107.862 175.972 107.602C176.69 107.443 177.194 106.807 177.838 106.455C179.048 105.805 180.504 106.214 181.853 106.423C182.143 106.492 182.447 106.476 182.729 106.379C182.945 106.263 183.128 106.095 183.261 105.89C183.626 105.409 183.908 104.87 184.095 104.296C183.961 104.542 183.809 104.778 183.64 105.002Z" fill="black"/>
</g>
</g>
<defs>
<linearGradient id="paint0_linear" x1="154.884" y1="123.231" x2="185.716" y2="123.231" gradientUnits="userSpaceOnUse">
<stop stop-color="#808080" stop-opacity="0.25"/>
<stop offset="0.54" stop-color="#808080" stop-opacity="0.12"/>
<stop offset="1" stop-color="#808080" stop-opacity="0.1"/>
</linearGradient>
<clipPath id="clip0">
<rect width="235" height="162" fill="white"/>
</clipPath>
</defs>
</svg>
