<svg width="144" height="107" viewBox="0 0 144 107" fill="none" xmlns="http://www.w3.org/2000/svg">
<g clip-path="url(#clip0)">
<path d="M103.187 100.872H15.9932V101.243H103.187V100.872Z" fill="#3F3D56"/>
<path d="M62.2336 49.7659C62.2336 49.7659 60.3832 58.1199 64.0841 56.6348C67.785 55.1496 65.5644 49.3946 65.5644 49.3946L62.2336 49.7659Z" fill="#FFB9B9"/>
<path d="M96.8372 52.5506C96.8372 52.5506 101.278 57.9343 98.5026 59.0482C95.7269 60.1621 94.2465 54.0358 94.6166 53.4788C94.9867 52.9219 96.8372 52.5506 96.8372 52.5506Z" fill="#FFB9B9"/>
<path d="M86.2897 14.4933C89.3556 14.4933 91.8411 11.9998 91.8411 8.9239C91.8411 5.84802 89.3556 3.35452 86.2897 3.35452C83.2237 3.35452 80.7383 5.84802 80.7383 8.9239C80.7383 11.9998 83.2237 14.4933 86.2897 14.4933Z" fill="#FFB9B9"/>
<path d="M82.1262 11.0588L81.386 16.8138L87.4924 19.0415L88.7878 12.5439L82.1262 11.0588Z" fill="#FFB9B9"/>
<path d="M85.5493 16.7209C85.5493 16.7209 82.4123 15.1672 81.7603 13.902L80.368 15.2358C80.368 15.2358 70.3755 14.3075 68.8951 19.32C67.4148 24.3324 68.7101 42.5257 68.7101 42.5257C68.7101 42.5257 66.6746 50.6941 67.2297 50.8797C67.7849 51.0654 74.6316 54.407 84.254 52.5505C84.254 52.5505 88.51 51.808 89.2502 52.3649C89.9904 52.9218 88.8801 43.4539 88.8801 43.4539C88.8801 43.4539 96.282 26.7458 94.9867 24.7037C93.6913 22.6616 87.9549 18.3917 87.9549 18.3917L88.325 16.3496C88.325 16.3496 85.7344 17.4635 85.5493 16.7209Z" fill="#CFCCE0"/>
<path d="M70.3757 18.0205C70.3757 18.0205 67.0448 19.6913 66.4897 22.2904C65.9346 24.8894 60.7533 46.4243 61.3084 47.7238C61.8635 49.0234 61.6785 50.6942 61.6785 50.6942L66.4897 50.1372C66.4897 50.1372 65.5645 48.8377 66.1196 48.2808C66.6747 47.7238 67.2299 45.8674 66.8598 45.1248C66.4897 44.3822 66.1196 45.6817 68.1551 43.2683C70.1906 40.8549 74.8168 18.7631 70.3757 18.0205Z" fill="#CFCCE0"/>
<path d="M93.8765 24.3324C93.8765 24.3324 95.4494 24.4252 95.8195 27.0243C96.1896 29.6233 96.8373 45.6817 96.8373 45.6817C96.8373 45.6817 99.2429 50.8797 98.3177 51.6223C97.3924 52.3649 97.9476 53.4788 97.9476 53.4788L94.6167 54.407L87.3999 43.0826L93.8765 24.3324Z" fill="#CFCCE0"/>
<path d="M67.7849 50.1372C67.7849 50.1372 66.6746 50.3229 66.6746 54.4071C66.6746 58.4913 64.6391 71.1152 65.9344 73.1573C67.2298 75.1994 67.4148 93.5784 67.4148 93.5784C67.4148 93.5784 70.9307 95.0635 73.8914 90.2367L74.2615 87.6377L75.0017 75.0138L77.9625 59.2339L82.0335 76.6846C82.0335 76.6846 81.4783 97.6626 83.5139 97.6626C85.5494 97.6626 89.4354 95.9917 89.4354 95.9917C89.4354 95.9917 90.3606 94.1353 89.9905 93.2071C89.6204 92.2788 89.2503 92.4645 89.6204 91.7219C89.9905 90.9793 90.5456 71.6722 90.5456 71.6722C90.5456 71.6722 89.8055 51.8081 88.8802 51.2511C87.955 50.6942 67.7849 50.1372 67.7849 50.1372Z" fill="#2F2E41"/>
<path d="M67.7851 92.8357L64.8243 95.9917C64.8243 95.9917 59.458 101.004 64.0841 101.19C68.7103 101.375 71.301 98.2194 71.301 97.8481C71.301 97.4768 71.486 96.1773 72.7813 96.1773C74.0767 96.1773 77.2225 93.0213 76.4823 91.7218C75.7421 90.4223 73.5215 89.8654 73.5215 89.8654L67.7851 92.8357Z" fill="#2F2E41"/>
<path d="M83.6989 96.9199C83.6989 96.9199 81.4783 101.375 82.7736 102.304C84.069 103.232 84.439 103.603 84.439 103.603C84.439 103.603 85.5493 103.418 85.3643 105.088C85.1792 106.759 92.026 107.687 92.3961 106.388C92.7661 105.088 92.5811 102.489 91.8409 101.747C91.1007 101.004 88.8802 95.8061 88.8802 95.8061C88.8802 95.8061 86.4746 93.0214 83.6989 96.9199Z" fill="#2F2E41"/>
<path d="M91.8923 4.45179L92.938 4.30276C92.938 4.30276 91.4822 1.61454 88.6645 1.1264L89.6536 0.456666C89.6536 0.456666 87.9348 -0.775611 85.7136 0.808326C84.5459 1.64096 83.1902 2.62381 82.1929 3.86089L81.1728 3.61077L81.3694 4.65569L79.6501 5.23085L81.2208 5.43693C81.0042 5.92963 80.8621 6.452 80.7993 6.98679C80.7384 7.52222 80.8872 8.06045 81.2144 8.48788C81.2144 8.48788 82.9933 6.32431 83.0865 5.94172L82.8536 6.89819C82.8536 6.89819 84.0158 6.27093 84.1556 5.69705L84.5121 6.49397L85.0282 5.50554L87.976 7.34325L87.6661 6.35504L89.5879 7.13032L89.0648 5.8871C89.0648 5.8871 91.0134 7.68255 90.8438 8.75591C90.6741 9.82924 91.0902 10.9878 91.0902 10.9878C91.0902 10.9878 94.0541 6.50223 91.8923 4.45179Z" fill="#2F2E41"/>
<path d="M143.139 67.5526H113.505V67.9084H143.139V67.5526Z" fill="#3F3D56"/>
<path d="M32.3704 94.9634H25.2273V102.13H32.3704V94.9634Z" fill="#CFCCE0"/>
<path d="M31.4307 101.187H23.9116V93.6433H31.4307V101.187ZM24.2876 100.81H31.0548V94.0205H24.2876L24.2876 100.81Z" fill="#3F3D56"/>
<path d="M40.1856 32.3465L35.665 34.1005L37.3528 38.4786L41.8734 36.7246L40.1856 32.3465Z" fill="#F2F2F2"/>
<path d="M41.0566 36.3793L36.2981 38.2256L34.5215 33.617L39.28 31.7707L41.0566 36.3793ZM36.4472 37.9028L40.7298 36.2412L39.1309 32.0934L34.8482 33.7551L36.4472 37.9028Z" fill="#3F3D56"/>
<path d="M123.251 85.7194L121.676 81.1211L117.251 82.6472L118.827 87.2456L123.251 85.7194Z" fill="#F2F2F2"/>
<path d="M119.201 86.4398L117.543 81.5994L122.2 79.9929L123.859 84.8333L119.201 86.4398ZM117.859 81.7611L119.351 86.1175L123.543 84.6716L122.051 80.3152L117.859 81.7611Z" fill="#3F3D56"/>
<path d="M22.4746 62.8605C25.125 62.9176 27.2333 64.8444 27.2333 64.8444C27.2333 64.8444 25.0445 66.6788 22.3942 66.6218C19.7438 66.5648 17.6355 64.6379 17.6355 64.6379C17.6355 64.6379 19.8243 62.8035 22.4746 62.8605Z" fill="#009688"/>
<path d="M9.15015 53.7843C11.5446 54.9255 14.2903 54.1516 14.2903 54.1516C14.2903 54.1516 13.1538 51.5274 10.7593 50.3861C8.36485 49.2449 5.61914 50.0188 5.61914 50.0188C5.61914 50.0188 6.75566 52.643 9.15015 53.7843Z" fill="#009688"/>
<path d="M9.39362 52.6501C12.0336 52.4081 14.3443 54.0851 14.3443 54.0851C14.3443 54.0851 12.3749 56.1546 9.7349 56.3967C7.09493 56.6387 4.78418 54.9617 4.78418 54.9617C4.78418 54.9617 6.75365 52.8922 9.39362 52.6501Z" fill="#3F3D56"/>
<path d="M19.0709 53.1086C18.8179 55.756 20.4792 58.0817 20.4792 58.0817C20.4792 58.0817 22.5507 56.1151 22.8038 53.4677C23.0568 50.8203 21.3955 48.4946 21.3955 48.4946C21.3955 48.4946 19.3239 50.4612 19.0709 53.1086Z" fill="#3F3D56"/>
<path d="M31.5038 69.3452C30.1191 71.6131 30.5955 74.4342 30.5955 74.4342C30.5955 74.4342 33.3169 73.5782 34.7016 71.3103C36.0863 69.0424 35.6099 66.2213 35.6099 66.2213C35.6099 66.2213 32.8885 67.0773 31.5038 69.3452Z" fill="#3F3D56"/>
<path d="M27.4865 94.0033L27.6883 93.8665C26.977 92.8309 26.5886 91.6066 26.5725 90.3491C26.5782 88.5097 27.4788 86.8083 28.3498 85.1629C28.5114 84.8575 28.6725 84.5531 28.8275 84.2489C29.4782 83.0083 29.9967 81.7024 30.3745 80.3528C31.7255 75.3161 30.3954 69.3738 26.8165 64.4569C23.9775 60.5565 19.7453 57.1457 13.8783 54.0298L13.7644 54.2457C19.598 57.3439 23.8031 60.7312 26.6199 64.601C30.1556 69.4586 31.4713 75.3235 30.1393 80.2894C29.7659 81.6224 29.2536 82.9123 28.6108 84.1377C28.4562 84.4408 28.2957 84.744 28.1346 85.0484C27.2498 86.72 26.3348 88.4485 26.329 90.3484C26.3451 91.6549 26.748 92.9271 27.4865 94.0033Z" fill="#3F3D56"/>
<path d="M2.31357 54.3508C3.59133 54.3508 4.62715 53.3117 4.62715 52.0298C4.62715 50.7479 3.59133 49.7087 2.31357 49.7087C1.03582 49.7087 0 50.7479 0 52.0298C0 53.3117 1.03582 54.3508 2.31357 54.3508Z" fill="#3F3D56"/>
<path d="M128.263 65.7399L98.4829 55.0093L103.8 40.1582L122.342 35.596L133.58 50.8889L128.263 65.7399Z" fill="#2F2E41"/>
<path d="M124.655 62.7949L102.4 54.284C108.178 46.5202 110.761 41.0436 110.763 32.4257L133.018 40.9367C127.848 48.3048 125.686 53.8437 124.655 62.7949Z" fill="#F2F2F2"/>
<path d="M126.407 42.1012L114.877 37.692L114.673 38.23L126.203 42.6392L126.407 42.1012Z" fill="#3F3D56"/>
<path d="M125.59 44.2533L114.06 39.844L113.855 40.382L125.385 44.7913L125.59 44.2533Z" fill="#3F3D56"/>
<path d="M124.772 46.4054L113.242 41.9961L113.038 42.5341L124.567 46.9434L124.772 46.4054Z" fill="#3F3D56"/>
<path d="M123.954 48.5573L112.424 44.148L112.22 44.686L123.75 49.0953L123.954 48.5573Z" fill="#3F3D56"/>
<path d="M123.136 50.7093L111.607 46.3L111.402 46.838L122.932 51.2473L123.136 50.7093Z" fill="#3F3D56"/>
<path d="M122.319 52.8613L110.789 48.452L110.585 48.99L122.114 53.3993L122.319 52.8613Z" fill="#3F3D56"/>
<path d="M121.501 55.0134L109.971 50.6041L109.767 51.1421L121.297 55.5514L121.501 55.0134Z" fill="#3F3D56"/>
<path d="M120.683 57.1654L109.154 52.7561L108.949 53.2941L120.479 57.7034L120.683 57.1654Z" fill="#3F3D56"/>
<path d="M127.575 67.6617L97.7947 56.9311L103.799 40.1581L116.375 51.988L133.58 50.8888L127.575 67.6617Z" fill="#3F3D56"/>
<path d="M112.443 62.3766L97.5942 57.026L101.212 46.919L101.508 47.0254L97.9955 56.8362L112.549 62.0804L112.443 62.3766Z" fill="#009688"/>
<path d="M107.165 51.628L102.811 50.0592L102.186 51.8064L106.54 53.3752L107.165 51.628Z" fill="#009688"/>
<path d="M57.938 101.004L34.6299 100.992L34.8129 87.8641L46.3964 93.0872L58.121 88.1911L57.938 101.004Z" fill="#3F3D56"/>
<path d="M39.8932 95.0477L36.4856 94.9999L36.4665 96.3673L39.8742 96.4152L39.8932 95.0477Z" fill="#009688"/>
<path d="M58.1988 88.1731L46.4175 94.1988L34.7515 88.1731V87.8255H58.1988V88.1731Z" fill="#009688"/>
<path d="M125.928 38.4856C126.206 37.7526 124.792 36.5313 122.769 35.7577C120.746 34.9841 118.881 34.9512 118.602 35.6842C118.324 36.4172 119.738 37.6385 121.761 38.4121C123.783 39.1857 125.649 39.2186 125.928 38.4856Z" fill="#009688"/>
<path d="M129.129 16.1317C128.382 15.8986 127.596 15.8154 126.817 15.887C126.038 15.9585 125.28 16.1832 124.588 16.5485C123.895 16.9137 123.281 17.4122 122.78 18.0155C122.28 18.6188 121.903 19.3151 121.67 20.0647C120.693 23.217 123.356 34.7572 123.356 34.7572C123.356 34.7572 132.072 26.7667 133.049 23.6143C133.518 22.1005 133.369 20.4617 132.634 19.0584C131.898 17.6552 130.638 16.6024 129.129 16.1317ZM126.522 24.5432C125.989 24.3769 125.517 24.0558 125.166 23.6205C124.815 23.1851 124.6 22.6551 124.549 22.0975C124.498 21.5398 124.613 20.9795 124.88 20.4875C125.147 19.9955 125.553 19.5938 126.047 19.3332C126.541 19.0727 127.101 18.965 127.656 19.0237C128.211 19.0825 128.736 19.3051 129.165 19.6633C129.594 20.0216 129.908 20.4994 130.066 21.0364C130.224 21.5734 130.22 22.1455 130.055 22.6802C129.945 23.0353 129.766 23.3651 129.529 23.6509C129.292 23.9367 129.001 24.1728 128.673 24.3458C128.345 24.5188 127.986 24.6253 127.617 24.6591C127.248 24.693 126.876 24.6536 126.522 24.5432Z" fill="#009688"/>
</g>
<defs>
<clipPath id="clip0">
<rect width="143.139" height="107" fill="white"/>
</clipPath>
</defs>
</svg>
