<svg width="192" height="150" viewBox="0 0 192 150" fill="none" xmlns="http://www.w3.org/2000/svg">
<g clip-path="url(#clip0)">
<path opacity="0.1" d="M67.3357 147.095C85.8286 147.095 100.82 144.259 100.82 140.76C100.82 137.261 85.8286 134.425 67.3357 134.425C48.8428 134.425 33.8514 137.261 33.8514 140.76C33.8514 144.259 48.8428 147.095 67.3357 147.095Z" fill="#009688"/>
<path opacity="0.1" d="M111.529 21.1537C99.2229 20.7283 87.5024 16.7596 76.3106 12.4187C65.1187 8.07784 54.0333 3.26982 42.0219 0.970249C34.2963 -0.508996 25.4603 -0.719775 19.2369 3.41224C13.2455 7.39993 11.3098 14.2645 10.2697 20.6391C9.48632 25.4357 9.02617 30.4849 11.171 34.9758C12.6617 38.0938 15.3047 40.7143 17.1339 43.7013C23.498 54.092 18.9992 66.9058 12.1046 77.0517C8.87216 81.8103 5.11681 86.3563 2.62022 91.4169C0.123627 96.4775 -1.03055 102.296 1.15421 107.472C3.31805 112.599 8.47666 116.443 14.065 119.148C25.4147 124.646 38.7837 126.218 51.8295 127.111C80.6991 129.082 109.721 128.229 138.666 127.373C149.379 127.057 160.137 126.736 170.675 125.083C176.528 124.163 182.569 122.705 186.818 119.185C192.211 114.716 193.548 107.151 189.933 101.549C183.871 92.1498 167.116 89.8161 162.874 79.731C160.542 74.1786 162.936 67.9958 166.327 62.8479C173.598 51.802 185.784 42.1119 186.425 29.488C186.866 20.8176 181.008 12.1339 171.949 8.03037C162.455 3.72935 149.288 4.27054 142.287 11.3895C135.071 18.7117 122.396 21.5316 111.529 21.1537Z" fill="#009688"/>
<path d="M101.75 68.6909L95.9258 64.7697L98.8636 60.4022L83.4809 59.1774L77.9534 63.4461L71.0341 59.5724L65.2632 60.2655L65.1948 58.7464C65.1233 57.1627 64.964 55.5842 64.7175 54.0181C64.7422 53.5434 64.7593 52.9984 64.7574 52.4059C64.7574 49.9089 64.419 46.5991 62.932 44.3926L63.2743 41.3201L60.4982 38.0445C60.944 37.1577 61.4523 36.3035 62.0194 35.4886C62.1144 35.3519 62.2095 35.219 62.3122 35.0898C65.9154 34.8297 68.7581 31.8712 68.7581 28.2538C68.7581 28.0867 68.7581 27.9196 68.739 27.7544C68.739 27.6879 68.7257 27.6195 68.7181 27.5531C69.0699 27.743 69.4255 27.9329 69.781 28.1228C69.8476 28.2177 69.9236 28.3126 70.0073 28.4247L70.0244 28.4456L70.1309 28.5766L70.1651 28.6165C70.2032 28.662 70.2431 28.7057 70.283 28.7513L70.3096 28.7817C70.4104 28.8937 70.5169 29.0076 70.631 29.1197C70.6446 29.1307 70.6573 29.1428 70.669 29.1558L70.8116 29.2887L70.8515 29.3248C70.9732 29.433 71.1025 29.5374 71.2318 29.6362L71.2737 29.6666L71.4372 29.7786L71.4904 29.8128C71.5532 29.8508 71.6178 29.8906 71.6806 29.9267L71.7034 29.94C71.7775 29.9799 71.8536 30.0179 71.9297 30.0539L71.9677 30.0691C72.0323 30.097 72.0957 30.1236 72.1578 30.1489L72.2168 30.1698C72.2833 30.1926 72.348 30.2134 72.4164 30.2324L72.4583 30.2438C72.5419 30.2647 72.6256 30.2818 72.7112 30.2951H72.7207C72.8012 30.3081 72.8825 30.3164 72.964 30.3198H73.0192C73.092 30.3236 73.165 30.3236 73.2379 30.3198H73.2854C73.3766 30.3145 73.4674 30.3038 73.5573 30.2875C73.9827 30.2316 74.3912 30.0853 74.7552 29.8584C74.8479 29.7965 74.93 29.7202 74.9986 29.6324C75.3789 29.1349 74.9606 28.5899 74.9606 28.5899C74.8122 28.2367 73.8501 27.9879 73.8501 27.9879C73.8501 27.9879 70.8078 26.7195 70.8078 25.7093C70.8078 24.699 70.0472 19.4581 62.1962 18.2599C62.1962 18.2599 57.0889 17.9731 55.6533 20.7037L55.6229 21.0228C55.2008 21.2867 54.8509 21.8165 54.4345 21.9722C54.2546 22.0108 54.0811 22.0747 53.9192 22.1621V22.126C53.8711 22.168 53.8317 22.219 53.8032 22.276C53.7138 22.4538 53.6602 22.6473 53.6454 22.8457C53.6026 23.088 53.5183 23.3212 53.3963 23.535C53.3623 23.5958 53.3242 23.6541 53.2822 23.7097V23.7097L53.2499 23.761C53.4707 23.7782 53.6923 23.7423 53.8964 23.6565C53.8642 23.9165 53.8004 24.1716 53.7063 24.4161C53.8271 24.42 53.9466 24.3891 54.0504 24.3272C54.1542 24.2653 54.2381 24.1748 54.2919 24.0667V24.0515L54.3166 24.0173C54.3644 23.9294 54.4039 23.8372 54.4345 23.742L54.4136 23.7648C54.4516 23.6413 54.4858 23.516 54.5277 23.3945C54.5468 23.326 54.5784 23.2617 54.6208 23.2046C54.6716 23.1535 54.7337 23.115 54.802 23.0923C54.8704 23.0695 54.9431 23.0631 55.0144 23.0736L54.9365 24.7199H54.9707C54.9249 24.8397 54.8689 24.9553 54.8034 25.0655C54.5334 25.5023 54.0428 25.8004 53.8622 26.2789C53.7843 26.5097 53.7545 26.754 53.7747 26.9967C53.7747 27.1391 53.7918 27.2834 53.8032 27.4259V27.4145C53.8298 27.7942 53.8375 28.155 53.6321 28.4608C53.4914 28.6696 53.2651 28.8272 53.1872 29.0646C53.1656 29.1308 53.1559 29.2002 53.1586 29.2697C53.1739 29.4778 53.2174 29.6828 53.2879 29.8792C53.2888 29.8755 53.2888 29.8716 53.2879 29.8679C53.3354 30.0123 53.3465 30.1662 53.3203 30.316C53.2347 30.6958 52.7727 31.0129 52.7955 31.3756C52.7942 31.4233 52.8012 31.4708 52.8164 31.5161C52.9053 31.6932 53.0592 31.8293 53.2461 31.8959C53.5393 32.0624 53.876 32.1365 54.212 32.1086C54.338 32.0858 54.4598 32.0442 54.5733 31.9851C54.4402 32.2908 54.3033 32.5928 54.1645 32.8795C54.1436 32.9251 54.1208 32.9707 54.0979 33.0162C54.0979 33.0162 52.9229 32.232 52.2555 33.8309C52.0606 34.1631 51.9213 34.5248 51.8428 34.9018C51.8094 35.0526 51.7623 35.2001 51.7021 35.3424C51.4058 35.8433 50.9624 36.2411 50.432 36.4817C49.0705 37.1046 43.5716 43.9539 43.4746 45.7275C43.427 46.4198 43.3098 47.1056 43.1247 47.7745C42.6919 49.3497 42.5806 50.9958 42.7977 52.6148C42.8656 53.138 42.9782 53.6545 43.1342 54.1586C43.718 55.9303 44.1078 59.2363 44.1078 59.2363L44.7391 64.9748C44.7156 65.7668 44.7499 66.5594 44.8417 67.3465C44.1972 68.0814 41.6093 71.1443 42.598 71.9779C43.3586 72.6349 44.6896 72.5267 45.4369 72.3919C44.8075 73.9471 43.8169 76.6511 43.6857 78.5082C43.4955 81.256 44.0108 84.8961 44.8265 86.2937C45.6422 87.6913 48.3613 91.2765 48.3613 91.2765C48.3613 91.2765 48.2339 96.1946 49.2055 97.9815C50.1772 99.7684 50.5689 103.475 50.5689 103.475C50.5689 103.475 51.4759 106.604 51.0214 107.755C50.567 108.906 51.8638 109.863 50.5023 110.628C49.1409 111.393 47.3992 128.641 47.3992 128.641C47.3992 128.641 46.6975 139.945 47.3992 140.521C47.4367 140.548 47.4768 140.571 47.519 140.591V144.389C47.519 144.389 47.0322 145.186 49.0116 145.348C50.3673 145.456 54.2101 145.701 56.49 145.843L58.2564 145.953C58.2564 145.953 62.4396 146.785 64.2878 145.953C66.136 145.122 69.4122 145.141 68.9254 142.944C68.8608 142.645 68.7744 142.351 68.6668 142.064C68.1325 140.701 67.2255 140.545 65.5541 140.166C65.4572 140.145 65.364 140.126 65.2784 140.111C63.5177 139.805 62.9396 140.623 61.9528 139.558C61.0953 138.637 58.3648 137.606 57.435 137.279C57.4578 137.211 57.4863 137.144 57.5091 137.074C57.2458 137.03 57.001 136.91 56.8037 136.73L59.3231 136.89L60.8233 136.983C60.8233 136.983 64.379 137.691 65.9572 136.983C67.5354 136.275 70.3115 136.294 69.897 134.427C69.8424 134.173 69.7693 133.923 69.6784 133.679C69.2239 132.521 68.4519 132.393 67.0316 132.072C66.9498 132.055 66.8737 132.038 66.7977 132.025C65.3012 131.765 64.8107 132.46 63.9721 131.556C63.2534 130.785 60.985 129.921 60.1693 129.627C60.1693 129.205 59.5988 128.605 59.2394 128.003C58.8173 127.301 59.5969 124.841 59.5969 124.841L60.0419 114.639C60.2113 114.563 60.3905 114.512 60.5743 114.487C60.5743 114.487 62.586 112.569 62.1315 110.526C62.0389 109.908 61.9907 109.284 61.987 108.659C62.6487 108.046 63.5595 107.14 63.8181 106.582C64.2402 105.672 63.8181 101.265 63.8181 101.265V84.4119L67.1837 84.7518L70.2374 85.0651L71.1672 85.1601L74.2209 85.4677L81.2391 86.176L87.5633 84.9797L90.2995 84.4632L95.9258 83.3998V69.6518L101.75 68.6909ZM55.429 23.1343L55.0373 23.0926C55.1666 23.0983 55.3035 23.1229 55.429 23.1343Z" fill="url(#paint0_linear)"/>
<path d="M88.0995 77.6176C86.198 80.335 79.3624 78.8956 79.3624 78.8956L74.0649 73.9452L73.3519 73.2749L74.5479 70.7379C74.5479 70.7379 74.9282 70.8424 75.5804 71.0284C79.0049 72.0216 89.7043 75.3333 88.0995 77.6176Z" fill="#EFB7B9"/>
<path opacity="0.1" d="M75.5766 71.0284C75.3427 71.8412 74.7019 73.0584 74.0649 73.9452L73.3519 73.2749L74.5479 70.7379C74.5479 70.7379 74.932 70.8424 75.5766 71.0284Z" fill="black"/>
<path d="M57.4083 42.4196C57.4083 42.4196 52.5254 44.5825 52.765 49.8937C52.9374 53.3155 53.3107 56.7242 53.883 60.1022C53.883 60.1022 52.8848 68.0947 57.0413 70.155C61.1979 72.2153 65.0445 73.9091 65.0445 73.9091C65.0445 73.9091 71.5474 74.6079 72.3555 74.8966C73.1636 75.1852 75.6887 70.7721 75.2229 70.0847C74.757 69.3973 68.7884 67.9561 68.0278 66.8091C67.2673 65.6622 65.5084 64.9539 65.5084 64.9539C65.5084 64.9539 63.6926 63.8563 63.569 62.8651C63.4454 61.8739 63.9245 61.1352 64.0462 60.7004C64.1679 60.2655 64.476 56.067 64.476 56.067C64.476 56.067 66.5257 41.1227 57.4083 42.4196Z" fill="#DCE6F2"/>
<path opacity="0.1" d="M60.6313 59.8837C60.6313 59.8837 53.9325 61.0041 54.5809 63.3454C54.5809 63.3454 57.0128 60.818 60.6313 59.8837Z" fill="black"/>
<path opacity="0.1" d="M60.6826 60.8313C60.6826 60.8313 56.9995 63.8335 57.7201 63.9873C58.4408 64.1411 60.6826 60.8313 60.6826 60.8313Z" fill="black"/>
<path opacity="0.1" d="M62.4528 61.8776C62.4528 61.8776 61.466 63.8961 62.0725 63.7594C62.6791 63.6227 62.4528 61.8776 62.4528 61.8776Z" fill="black"/>
<path opacity="0.1" d="M75.8238 71.243L75.4169 71.1272C75.5328 70.7474 75.5652 70.4398 75.4701 70.2973C75.0043 69.6099 69.0394 68.1706 68.2808 67.0217C67.5221 65.8729 65.7613 65.1665 65.7613 65.1665C65.7613 65.1665 63.9455 64.0689 63.8219 63.0777C63.6983 62.0865 64.1774 61.3478 64.2991 60.913C64.4208 60.4781 64.7289 56.2777 64.7289 56.2777C64.7289 56.2777 66.7729 41.3353 57.6555 42.6322C57.6555 42.6322 52.7726 44.797 53.0103 50.1082C53.1827 53.53 53.5567 56.9388 54.1302 60.3167C54.1302 60.3167 53.132 68.3092 57.2885 70.3695C61.4451 72.4298 65.2917 74.1236 65.2917 74.1236C65.2917 74.1236 71.7927 74.8205 72.6027 75.111C72.9089 75.2212 73.4622 74.6534 74.0041 73.873L74.3121 74.1597L79.6095 79.1082C79.6095 79.1082 86.4452 80.5495 88.3467 77.8322C89.9534 75.5459 79.2559 72.2342 75.8238 71.243Z" fill="black"/>
<path d="M54.5979 22.4849C54.4118 22.5213 54.2335 22.5901 54.0712 22.6881C53.8811 22.8457 53.8811 23.1154 53.8335 23.3508C53.7777 23.6784 53.6476 23.9889 53.4532 24.2585C53.6696 24.2744 53.8867 24.2386 54.0864 24.1541C54.0539 24.414 53.99 24.669 53.8963 24.9136C54.0148 24.9166 54.1316 24.8855 54.2328 24.8238C54.3339 24.7622 54.4152 24.6727 54.4667 24.5661C54.5673 24.3522 54.6469 24.1289 54.7044 23.8996C54.7223 23.831 54.7533 23.7666 54.7957 23.7097C54.9706 23.5028 55.2957 23.5958 55.5658 23.6224C55.7905 23.6413 56.0161 23.5999 56.2194 23.5024C56.4227 23.4049 56.5961 23.2549 56.7218 23.0679C57.009 22.6331 57.0261 21.5203 56.3415 21.4026C55.6266 21.2848 55.1817 22.2685 54.5979 22.4849Z" fill="#965D7B"/>
<g opacity="0.1">
<path opacity="0.1" d="M54.0522 22.9217C54.0693 22.8286 54.0808 22.7318 54.1017 22.6387C53.921 22.7963 53.9115 23.0641 53.864 23.3014C53.84 23.4384 53.8025 23.5726 53.7518 23.7021C53.9015 23.4638 54.0035 23.1988 54.0522 22.9217V22.9217Z" fill="black"/>
<path opacity="0.1" d="M54.1131 24.4901C54.2078 24.2458 54.2717 23.9907 54.3033 23.7306C54.1129 23.8106 53.9068 23.8463 53.7005 23.835C53.6405 23.9686 53.5672 24.0958 53.4819 24.2148C53.6975 24.2315 53.9139 24.1963 54.1131 24.1123C54.0816 24.3724 54.0177 24.6275 53.923 24.8718C54.0414 24.8746 54.1582 24.8433 54.2593 24.7817C54.3604 24.7201 54.4417 24.6308 54.4934 24.5243C54.5408 24.438 54.579 24.347 54.6075 24.2528C54.5517 24.3307 54.4772 24.3932 54.3908 24.4347C54.3044 24.4762 54.2089 24.4953 54.1131 24.4901V24.4901Z" fill="black"/>
<path opacity="0.1" d="M55.7826 23.1989C55.5126 23.1723 55.1855 23.0793 55.0106 23.2863C54.969 23.3436 54.938 23.4079 54.9193 23.4762C54.9022 23.5255 54.887 23.5768 54.8737 23.6281C55.0543 23.4857 55.3472 23.5616 55.5924 23.5863C55.8171 23.6046 56.0425 23.5629 56.2457 23.4655C56.4489 23.368 56.6224 23.2184 56.7485 23.0318C56.8061 22.9396 56.8491 22.8391 56.8759 22.7337C56.7457 22.8947 56.5779 23.0212 56.3873 23.1024C56.1967 23.1835 55.989 23.2166 55.7826 23.1989Z" fill="black"/>
</g>
<path d="M60.3214 38.168L63.2211 41.6506L62.8427 45.1654L59.3383 39.6871L60.3214 38.168Z" fill="#DCE6F2"/>
<path opacity="0.1" d="M63.2192 41.6506L62.8636 44.9565L62.8408 45.1654L59.6787 40.2207L59.3383 39.6871L59.4372 39.5333L60.3195 38.168L60.5153 38.4034L63.2192 41.6506Z" fill="black"/>
<path d="M64.725 33.453C63.7439 33.734 62.8065 34.6987 61.9907 35.8703C61.4394 36.6787 60.9463 37.5252 60.5152 38.4034C60.2471 38.9389 60.0113 39.4535 59.8155 39.9017L59.6786 40.2207C59.3477 41.0011 59.1633 41.5233 59.1633 41.5233C59.1633 41.5233 51.6526 35.8836 52.841 35.5038C53.2403 35.3766 53.7651 34.5221 54.2842 33.4454L54.3489 33.3087C54.6778 32.6175 55.001 31.8465 55.2882 31.1211C55.8757 29.6305 56.3111 28.3354 56.3111 28.3354C56.3111 28.3354 67.7198 32.5985 64.725 33.453Z" fill="#EFB7B9"/>
<path d="M69.2181 28.0183C69.2181 28.0183 70.9522 31.1515 73.2815 30.7243C75.6108 30.297 74.6525 29.0418 74.6525 29.0418L69.2181 28.0183Z" fill="#444053"/>
<path d="M65.8584 136.474C64.322 137.175 60.8481 136.474 60.8481 136.474L59.384 136.383C57.4826 136.261 54.2995 136.056 53.1739 135.965C51.531 135.83 51.9341 135.158 51.9341 135.158V131.096L59.905 129.08C59.905 129.08 63.0557 130.156 63.9189 131.096C64.7385 131.993 65.2176 131.303 66.6798 131.562C66.7521 131.575 66.8281 131.59 66.908 131.609C68.296 131.926 69.049 132.051 69.494 133.2C69.5834 133.442 69.6552 133.689 69.7088 133.941C70.1195 135.79 67.3929 135.777 65.8584 136.474Z" fill="#A36468"/>
<path opacity="0.1" d="M69.494 133.2C69.2083 133.379 68.9081 133.532 68.5965 133.66C67.5507 134.137 66.5562 134.718 65.499 135.168C64.4418 135.618 63.3029 135.939 62.1582 135.853C61.5592 135.809 60.947 135.663 60.3746 135.834C60.0207 135.971 59.6873 136.155 59.384 136.383C57.4826 136.261 54.2995 136.056 53.1739 135.965C51.531 135.83 51.9341 135.158 51.9341 135.158V134.683C51.9931 134.683 52.0596 134.666 52.1357 134.661C52.5292 134.654 52.9211 134.713 53.2956 134.833C54.1208 135.058 54.9422 135.278 55.7675 135.498C55.8353 135.242 55.9546 135.003 56.1181 134.795C56.2815 134.586 56.4857 134.414 56.7182 134.287C57.1892 134.037 57.7178 133.916 58.2507 133.935C59.5304 133.952 60.7416 134.558 62.0194 134.619C62.3766 134.652 62.7363 134.591 63.0633 134.444C63.2382 134.357 63.3922 134.23 63.5634 134.133C63.8372 134 64.1266 133.903 64.4247 133.842C65.2626 133.634 66.0853 133.369 66.8871 133.048C67.1153 132.959 67.3815 132.798 67.351 132.555C67.3111 132.232 66.8034 132.194 66.6703 131.898C66.6468 131.844 66.636 131.786 66.6386 131.728C66.6413 131.67 66.6573 131.613 66.6855 131.562C66.7578 131.575 66.8338 131.59 66.9137 131.609C68.296 131.926 69.049 132.052 69.494 133.2Z" fill="black"/>
<path d="M64.2344 145.361C62.428 146.185 58.3399 145.361 58.3399 145.361L56.6191 145.26C54.3906 145.118 50.6372 144.881 49.3119 144.769C47.3781 144.609 47.8534 143.819 47.8534 143.819V139.032L57.2333 136.658C57.2333 136.658 60.9411 137.925 61.9564 139.032C62.9205 140.086 63.4776 139.275 65.206 139.579C65.2916 139.594 65.3809 139.613 65.4741 139.634C67.1074 140.014 67.9935 140.156 68.5164 141.508C68.6223 141.792 68.7068 142.083 68.7693 142.38C69.2409 144.556 66.0407 144.539 64.2344 145.361Z" fill="#A36468"/>
<path opacity="0.1" d="M68.5126 141.508C68.1766 141.718 67.8236 141.899 67.4573 142.049C66.2271 142.609 65.0558 143.293 63.8122 143.823C62.5687 144.353 61.2282 144.729 59.8801 144.63C59.1765 144.579 58.4559 144.402 57.7885 144.607C57.3703 144.77 56.9767 144.99 56.6191 145.26C54.3906 145.118 50.6372 144.881 49.3119 144.769C47.3781 144.609 47.8534 143.819 47.8534 143.819V143.261C47.9322 143.248 48.0115 143.239 48.0911 143.234C48.5543 143.226 49.0157 143.294 49.4564 143.437L52.3637 144.22C52.4446 143.918 52.5864 143.636 52.7803 143.391C52.9742 143.145 53.2161 142.942 53.4912 142.794C54.0454 142.499 54.6681 142.356 55.2957 142.38C56.8016 142.401 58.2258 143.113 59.7298 143.185C60.1487 143.223 60.5704 143.153 60.9544 142.982C61.1616 142.877 61.3347 142.727 61.5438 142.615C61.8654 142.458 62.2061 142.343 62.5573 142.273C63.5379 142.026 64.5009 141.714 65.4399 141.339C65.708 141.233 66.0217 141.043 65.9856 140.758C65.9381 140.378 65.341 140.333 65.1832 139.983C65.1566 139.92 65.1445 139.852 65.1478 139.784C65.1511 139.715 65.1697 139.649 65.2022 139.588C65.2878 139.604 65.3771 139.622 65.4703 139.643C67.1036 140.008 67.9897 140.156 68.5126 141.508Z" fill="black"/>
<path d="M60.1463 112.512L59.6386 124.443C59.6386 124.443 58.878 126.879 59.2906 127.576C59.7033 128.273 60.3992 128.968 60.1463 129.38C59.8934 129.792 56.8511 134.247 55.8681 132.538C54.885 130.829 53.9153 123.423 53.9153 123.423L54.8223 114.276L60.1463 112.512Z" fill="#444053"/>
<path d="M62.3482 82.7864L63.7591 84.6702V101.054C63.7591 101.054 64.1717 105.421 63.7591 106.323C63.3465 107.225 61.2549 109.029 61.2549 109.029L59.4961 100.009L59.8764 90.4675L62.3482 82.7864Z" fill="#444053"/>
<path opacity="0.1" d="M60.1463 112.512L59.6386 124.443C59.6386 124.443 58.878 126.879 59.2906 127.576C59.7033 128.273 60.3992 128.968 60.1463 129.38C59.8934 129.792 56.8511 134.247 55.8681 132.538C54.885 130.829 53.9153 123.423 53.9153 123.423L54.8223 114.276L60.1463 112.512Z" fill="black"/>
<path opacity="0.1" d="M62.3482 82.7864L63.7591 84.6702V101.054C63.7591 101.054 64.1717 105.421 63.7591 106.323C63.3465 107.225 61.2549 109.029 61.2549 109.029L59.4961 100.009L59.8764 90.4675L62.3482 82.7864Z" fill="black"/>
<path d="M63.7591 75.7986V84.6608L62.1752 91.5595C62.1752 91.5595 61.6675 108.207 62.1105 110.231C62.5536 112.256 60.5894 114.156 60.5894 114.156C60.5894 114.156 59.4485 114.284 59.4485 115.169C59.4485 116.053 57.5471 118.587 57.5471 118.587L57.6098 123.524C57.6098 123.524 58.4351 132.766 57.1668 134.537C55.8985 136.309 57.6098 136.563 57.6098 136.563C56.0259 141.753 48.4202 140.551 47.7337 139.981C47.0473 139.412 47.7337 128.208 47.7337 128.208C47.7337 128.208 49.4336 111.118 50.7646 110.359C52.0956 109.599 50.8293 108.65 51.2723 107.51C51.7154 106.371 50.8293 103.27 50.8293 103.27C50.8293 103.27 50.449 99.5975 49.4983 97.8258C48.5476 96.0542 48.6731 91.1797 48.6731 91.1797C48.6731 91.1797 46.011 87.6344 45.22 86.2425C44.429 84.8506 43.9195 81.2427 44.1096 78.5197C44.2389 76.6797 45.2067 74.0003 45.8209 72.4584C46.1156 71.7197 46.3286 71.2412 46.3286 71.2412L46.5092 71.2887L56.8949 74.0041L63.7591 75.7986Z" fill="#444053"/>
<path opacity="0.1" d="M64.725 33.453C63.7439 33.734 62.8065 34.6987 61.9907 35.8703H61.7778C60.5821 35.8711 59.4074 35.5567 58.3724 34.9589C57.3374 34.3611 56.4788 33.501 55.8833 32.4656C55.6345 32.0365 55.4342 31.5811 55.2863 31.1078C55.8738 29.6172 56.3092 28.3221 56.3092 28.3221C56.3092 28.3221 67.7198 32.5985 64.725 33.453Z" fill="black"/>
<path d="M68.5755 28.7057C68.5772 29.7447 68.34 30.7703 67.8823 31.7033C67.4246 32.6364 66.7585 33.4521 65.9354 34.0875C65.1123 34.723 64.1541 35.1613 63.1346 35.3687C62.1152 35.5761 61.0617 35.547 60.0552 35.2837C59.0488 35.0204 58.1163 34.5299 57.3296 33.85C56.5429 33.1701 55.9229 32.319 55.5175 31.3621C55.1121 30.4052 54.932 29.3682 54.9912 28.3308C55.0503 27.2935 55.3471 26.2836 55.8586 25.3789C56.0647 25.0112 56.3054 24.6641 56.5774 24.3421C57.0258 23.8086 57.5528 23.3463 58.1404 22.9711C59.1328 22.3412 60.2719 21.9793 61.4463 21.9205C62.6208 21.8618 63.7903 22.1084 64.8408 22.6361C65.8913 23.1638 66.7868 23.9546 67.4397 24.9312C68.0926 25.9079 68.4807 27.037 68.566 28.2082C68.5698 28.3753 68.5755 28.5405 68.5755 28.7057Z" fill="#EFB7B9"/>
<path opacity="0.1" d="M62.8635 44.9565L62.8407 45.1654L59.6786 40.2283C59.3477 41.0087 59.1633 41.5309 59.1633 41.5309C59.1633 41.5309 51.6526 35.8836 52.841 35.5038C53.2403 35.3766 53.7651 34.5221 54.2842 33.4454L54.3489 33.3087C54.9003 34.9493 58.1042 38.2287 59.4371 39.5427C59.5911 39.6947 59.7185 39.82 59.8174 39.9111L60.0208 40.101L60.1273 40.2074C60.6122 40.7068 62.6581 42.9095 62.8635 44.9565Z" fill="black"/>
<path d="M65.2269 61.7087L64.8809 72.8306L64.82 74.8111C64.82 74.8111 60.7205 74.4313 56.8948 74.0136C53.8145 73.6775 50.911 73.3148 50.4641 73.1021C49.8937 72.8344 48.6711 72.6274 47.707 72.4963C46.9617 72.3957 46.376 72.3425 46.376 72.3425C46.376 72.3425 46.1574 72.4071 45.8208 72.4679C45.0868 72.6008 43.7977 72.709 43.0466 72.0577C42.0864 71.2241 44.6096 68.1953 45.239 67.4681L45.3778 67.3104L45.1401 65.1172L44.5221 59.43C44.5221 59.43 44.1418 56.1544 43.5714 54.3979C43.4189 53.8985 43.3089 53.3872 43.2425 52.8693C43.0305 51.2651 43.1391 49.6348 43.5619 48.0727C43.7425 47.4089 43.8572 46.729 43.9042 46.0427C43.9992 44.2863 49.3708 37.4977 50.7018 36.8805C51.3006 36.6017 51.7824 36.1219 52.0632 35.5247C52.156 35.337 52.2256 35.1387 52.2705 34.9342C52.8409 32.4656 54.2841 33.4454 54.2841 33.4454C54.6321 35.3766 60.0189 40.4885 60.0189 40.4885L60.1253 40.5948C60.6597 41.1417 63.0403 43.709 62.871 45.9003C62.8372 46.7159 62.9592 47.5305 63.2304 48.3005C64.3261 51.746 64.956 55.3223 65.1033 58.9344L65.2269 61.7087Z" fill="#DCE6F2"/>
<path opacity="0.1" d="M57.5947 48.5018C57.5947 48.5018 56.2637 51.73 55.2654 52.2522C54.2671 52.7744 58.07 53.3535 57.5947 48.5018Z" fill="black"/>
<path opacity="0.1" d="M58.593 54.5309C58.593 54.5309 55.5507 54.9107 55.5507 55.4803C55.5507 56.05 58.593 54.5309 58.593 54.5309Z" fill="black"/>
<path opacity="0.1" d="M61.7777 58.2336C61.7777 58.2336 57.3569 67.6332 56.121 67.918C54.885 68.2029 61.7777 58.2336 61.7777 58.2336Z" fill="black"/>
<path opacity="0.1" d="M59.9354 40.9651L56.2789 42.5526L51.8656 35.895C51.9584 35.7073 52.028 35.509 52.0729 35.3045C52.6433 32.8359 54.0865 33.8157 54.0865 33.8157C54.4345 35.7469 59.8213 40.8588 59.8213 40.8588L59.9354 40.9651Z" fill="black"/>
<path d="M60.1254 40.5853L56.469 42.1728L52.0557 35.5152C52.1484 35.3274 52.218 35.1291 52.263 34.9246C52.8334 32.4561 54.2766 33.4359 54.2766 33.4359C54.6246 35.3671 60.0113 40.4789 60.0113 40.4789L60.1254 40.5853Z" fill="#DCE6F2"/>
<path opacity="0.1" d="M64.8202 74.811C64.8202 74.811 60.7207 74.4312 56.895 74.0135L63.7592 75.8079V77.8967C63.4587 78.1683 63.1982 78.3088 63.029 78.2366C62.238 77.9043 55.7826 76.8599 55.7826 76.8599C55.7826 76.8599 52.033 74.961 47.9867 72.6824C47.8885 72.628 47.7933 72.5684 47.7015 72.5039C47.2297 72.184 46.8232 71.7773 46.5036 71.3056C45.7563 70.2252 45.3912 68.8371 45.2334 67.4756C45.1447 66.6953 45.1117 65.9097 45.1345 65.1247C45.1541 64.2346 45.2355 63.347 45.3779 62.4682C44.9866 59.0643 44.7961 55.6403 44.8075 52.2141C44.855 46.8972 49.8463 44.9983 49.8463 44.9983C59.0208 44.1912 56.1762 59.0027 56.1762 59.0027C56.1762 59.0027 55.6457 63.1802 55.5012 63.6075C55.3567 64.0347 54.8376 64.7468 54.908 65.7438C54.9783 66.7407 56.7314 67.9332 56.7314 67.9332C56.7314 67.9332 58.4427 68.7345 59.1482 69.9213C59.6616 70.7967 62.9967 71.9836 64.881 72.8305L64.8202 74.811Z" fill="black"/>
<path opacity="0.1" d="M67.8927 24.4902C67.8962 24.803 67.8314 25.1127 67.7026 25.3979C67.6051 25.6306 67.4921 25.8564 67.3641 26.0739C67.164 26.4739 66.88 26.8263 66.5313 27.1069C66.0921 27.4202 65.5369 27.5076 65.0102 27.6348C64.4835 27.762 63.9358 27.9652 63.6354 28.4133C63.4726 28.7014 63.3637 29.0167 63.3141 29.3438C63.2637 29.6706 63.1331 29.9798 62.9338 30.2439C62.83 30.3728 62.6863 30.4636 62.5253 30.5021C62.3642 30.5406 62.1949 30.5246 62.0439 30.4566C61.8849 30.3495 61.7643 30.1945 61.6998 30.0141C61.483 29.5261 61.4278 28.9849 61.3404 28.4589C61.2529 27.9329 61.1293 27.3917 60.8061 26.9683C60.4828 26.5448 59.9105 26.2657 59.4028 26.4309C59.2329 26.4962 59.0779 26.5951 58.9472 26.7218C58.8165 26.8484 58.7128 27 58.6422 27.1677C58.5017 27.5032 58.4052 27.8556 58.3551 28.2159C58.1193 29.5046 57.8411 30.7857 57.5204 32.0592C57.5106 32.1114 57.4892 32.1608 57.4576 32.2035C57.4071 32.2539 57.3389 32.2825 57.2675 32.2833C56.8416 32.3403 56.4328 32.0421 56.003 32.0744C55.9588 32.0774 55.9148 32.0844 55.8718 32.0953C55.1771 30.8894 54.8703 29.4994 54.9931 28.1136C55.1158 26.7277 55.6623 25.4131 56.5583 24.3478L56.5925 24.3383C56.8783 24.2369 57.1381 24.0735 57.3531 23.8598C57.6275 23.5855 57.8817 23.2916 58.1136 22.9806L58.2658 22.7907C58.7028 22.2649 59.2006 21.7926 59.7489 21.3836C59.8985 21.2612 60.0702 21.1684 60.2547 21.1102C60.4125 21.0794 60.5743 21.0743 60.7338 21.095C61.3905 21.1737 62.0525 21.1985 62.7132 21.169C63.1736 21.0967 63.6376 21.0498 64.1032 21.0285C65.3068 21.0627 66.3336 21.9115 67.0941 22.842C67.503 23.3186 67.868 23.8674 67.8927 24.4902Z" fill="black"/>
<path d="M54.9706 25.5592C54.7063 25.9921 54.2291 26.2864 54.0503 26.7612C53.7879 27.4505 54.231 28.3088 53.8241 28.924C53.6891 29.131 53.4666 29.2848 53.3905 29.5222C53.2612 29.9228 53.6149 30.3501 53.5236 30.7621C53.4324 31.1742 52.8886 31.5217 53.0331 31.9243C53.1185 32.0998 53.2683 32.2358 53.4514 32.3041C53.7395 32.4691 54.0711 32.5426 54.4021 32.5148C54.9212 32.4294 55.3072 31.9205 55.8339 31.8825C56.2617 31.8521 56.6705 32.1483 57.0965 32.0933C57.1678 32.0908 57.2357 32.0617 57.2866 32.0116C57.3189 31.9693 57.3404 31.9198 57.3493 31.8673C57.6688 30.595 57.9477 29.3139 58.186 28.0239C58.2345 27.6635 58.3304 27.3111 58.4712 26.9757C58.5423 26.8084 58.6462 26.6571 58.7769 26.5305C58.9075 26.404 59.0622 26.3049 59.2318 26.239C59.7395 26.0757 60.3099 26.3529 60.635 26.7763C60.9602 27.1998 61.0838 27.741 61.1712 28.267C61.2587 28.793 61.3138 29.3342 61.5287 29.8222C61.594 30.0032 61.7152 30.1588 61.8748 30.2665C62.16 30.4317 62.5441 30.3007 62.7627 30.0539C62.9631 29.7897 63.0938 29.4796 63.143 29.1519C63.1926 28.8254 63.3015 28.5107 63.4644 28.2233C63.7648 27.7752 64.3143 27.572 64.8391 27.4448C65.3639 27.3175 65.9172 27.2283 66.3603 26.915C66.7085 26.6346 66.9925 26.283 67.1931 25.8839C67.4745 25.3939 67.7369 24.8623 67.7141 24.2983C67.6894 23.683 67.3243 23.1343 66.9345 22.6557C66.1739 21.7253 65.1453 20.8765 63.9416 20.8442C63.476 20.8636 63.0118 20.9105 62.5517 20.9847C61.8909 21.0144 61.2288 20.989 60.5723 20.9087C60.4126 20.8897 60.251 20.8954 60.0931 20.9258C59.9084 20.9822 59.737 21.0752 59.5892 21.1993C59.0405 21.6075 58.542 22.0792 58.1042 22.6045C57.8219 22.9782 57.5158 23.3334 57.1877 23.6678C56.9727 23.8819 56.713 24.046 56.4271 24.1483C56.237 24.2014 56.0469 24.1635 55.8662 24.2223C55.3053 24.3989 55.2311 25.13 54.9706 25.5592Z" fill="#965D7B"/>
<path opacity="0.1" d="M73.2815 30.7223C71.7604 31.0015 70.4997 29.7729 69.8019 28.8766C69.5875 28.6044 69.3925 28.3176 69.2181 28.0183L74.4395 29.0019L74.6505 29.0418C74.6505 29.0418 75.6108 30.297 73.2815 30.7223Z" fill="black"/>
<g opacity="0.1">
<path opacity="0.1" d="M53.5236 30.2192C53.5449 29.9708 53.5071 29.721 53.4133 29.49C53.4133 29.509 53.3962 29.528 53.3905 29.547C53.3087 29.8014 53.419 30.0654 53.4894 30.3293C53.5045 30.2938 53.5159 30.2569 53.5236 30.2192V30.2192Z" fill="black"/>
<path opacity="0.1" d="M53.9761 27.1107C53.9566 27.3732 53.9617 27.6371 53.9914 27.8987C54.0108 27.6361 54.0058 27.3723 53.9761 27.1107Z" fill="black"/>
<path opacity="0.1" d="M67.1817 25.3352C66.9816 25.7353 66.6975 26.0876 66.3489 26.3682C65.9096 26.6815 65.3563 26.7689 64.8277 26.8961C64.2991 27.0233 63.7534 27.2265 63.453 27.6747C63.2904 27.9629 63.1815 28.2781 63.1316 28.6051C63.0821 28.9327 62.9514 29.2428 62.7513 29.5071C62.5327 29.754 62.1486 29.8869 61.8634 29.7198C61.7038 29.612 61.5826 29.4564 61.5173 29.2754C61.3024 28.7874 61.2454 28.2481 61.1598 27.7202C61.0743 27.1923 60.9469 26.653 60.6236 26.2296C60.3004 25.8061 59.728 25.527 59.2204 25.6922C59.0506 25.7578 58.8958 25.8569 58.7651 25.9834C58.6345 26.11 58.5306 26.2615 58.4598 26.429C58.319 26.7643 58.2231 27.1168 58.1746 27.4772C57.9375 28.7672 57.6586 30.0483 57.3379 31.3205C57.329 31.373 57.3075 31.4225 57.2752 31.4649C57.2243 31.5149 57.1564 31.544 57.085 31.5465C56.6591 31.6016 56.2503 31.3054 55.8225 31.3357C55.2958 31.3737 54.9098 31.8826 54.3907 31.9662C54.0596 31.9958 53.7274 31.9222 53.44 31.7554C53.3078 31.6986 53.1892 31.6145 53.092 31.5085C53.0475 31.5722 53.0181 31.645 53.0059 31.7217C52.9937 31.7983 52.9991 31.8767 53.0217 31.951C53.1054 32.1278 53.2558 32.2643 53.44 32.3308C53.7274 32.4976 54.0596 32.5712 54.3907 32.5415C54.9098 32.458 55.2958 31.9491 55.8225 31.9111C56.2503 31.8807 56.6591 32.177 57.085 32.1219C57.1564 32.1194 57.2243 32.0903 57.2752 32.0402C57.3075 31.9979 57.329 31.9484 57.3379 31.8959C57.6574 30.63 57.9362 29.3489 58.1746 28.0525C58.2231 27.6921 58.319 27.3397 58.4598 27.0043C58.5306 26.8369 58.6345 26.6854 58.7651 26.5588C58.8958 26.4322 59.0506 26.3332 59.2204 26.2676C59.728 26.1024 60.2985 26.3815 60.6236 26.805C60.9488 27.2284 61.0724 27.7696 61.1598 28.2956C61.2473 28.8216 61.3024 29.3628 61.5173 29.8508C61.5826 30.0318 61.7038 30.1874 61.8634 30.2951C62.1486 30.4603 62.5327 30.3293 62.7513 30.0825C62.9514 29.8181 63.0821 29.5081 63.1316 29.1805C63.1815 28.8535 63.2904 28.5382 63.453 28.25C63.7534 27.8019 64.3029 27.6006 64.8277 27.4715C65.3525 27.3423 65.9058 27.2569 66.3489 26.9436C66.6975 26.663 66.9816 26.3106 67.1817 25.9106C67.4631 25.4226 67.7255 24.8909 67.7027 24.3269C67.6989 24.2544 67.6913 24.1821 67.6799 24.1104C67.5881 24.545 67.4194 24.9598 67.1817 25.3352V25.3352Z" fill="black"/>
</g>
<path opacity="0.1" d="M67.7103 25.3921C68.1979 26.2579 68.4869 27.2211 68.5564 28.212C66.8622 27.2625 65.2688 26.22 64.4645 25.8574C63.0632 25.225 57.8228 25.32 55.8529 25.3788C56.059 25.0112 56.2996 24.6641 56.5716 24.342C57.0218 23.8081 57.5507 23.3458 58.1403 22.971C58.9212 22.4761 59.7948 22.1455 60.7079 21.9993C61.6211 21.853 62.5545 21.8943 63.4511 22.1206C64.3477 22.3468 65.1887 22.7533 65.9226 23.3151C66.6566 23.877 67.2681 24.5824 67.7198 25.3883L67.7103 25.3921Z" fill="black"/>
<path opacity="0.1" d="M73.7569 29.9172C72.8423 30.1983 71.3496 29.6552 69.8019 28.8766C69.5875 28.6044 69.3925 28.3176 69.2181 28.0183L74.4395 29.0019C74.7856 29.2374 74.873 29.5735 73.7569 29.9172Z" fill="black"/>
<path d="M62.1828 18.8087C62.1828 18.8087 57.1915 18.5238 55.7883 21.2298L55.562 23.6281L55.1817 23.5863L55.1057 25.2175C55.1057 25.2175 62.7342 24.8851 64.4702 25.6675C66.2063 26.4498 71.6006 30.392 73.7626 29.7274C75.9245 29.0627 73.5724 28.4456 73.5724 28.4456C73.5724 28.4456 70.5967 27.1866 70.5967 26.1992C70.5967 25.2118 69.8589 19.9955 62.1828 18.8087Z" fill="#444053"/>
<path opacity="0.1" d="M52.5558 107.715C52.5558 107.715 55.7407 110.801 57.1192 110.564C57.1192 110.564 53.2213 110.231 52.5558 107.715Z" fill="black"/>
<path opacity="0.1" d="M51.8904 109.145C51.8904 109.145 52.1756 110.733 52.9362 110.577C53.6968 110.421 51.8904 109.145 51.8904 109.145Z" fill="black"/>
<path opacity="0.1" d="M56.8816 135.677C56.8816 135.677 52.3599 139.19 53.1224 139.284C53.8849 139.379 56.8816 135.677 56.8816 135.677Z" fill="black"/>
<path d="M62.9301 65.9546L77.5712 63.5753V77.4182L63.6603 76.691L62.9301 65.9546Z" fill="#009688"/>
<path opacity="0.05" d="M62.9301 65.9546L77.5712 63.5753V77.4182L63.6603 76.691L62.9301 65.9546Z" fill="black"/>
<path d="M77.5713 63.5753L95.1292 64.8874L94.1575 76.934L77.5713 77.4182V63.5753Z" fill="#009688"/>
<path opacity="0.1" d="M77.5713 63.5753L95.1292 64.8874L94.1575 76.934L77.5713 77.4182V63.5753Z" fill="black"/>
<path d="M82.9695 59.3502L77.5713 63.5753L95.1292 64.8874L97.9985 60.5636L82.9695 59.3502Z" fill="#009688"/>
<path d="M57.6289 61.3402L70.8097 59.7375L77.5712 63.5752L62.9301 65.9545L57.6289 61.3402Z" fill="#009688"/>
<path d="M80.7809 67.1698V86.0962L73.9224 85.3936L70.939 85.0898L70.0301 84.9948L67.0487 84.6891L62.9301 84.2675V65.9545L77.5693 66.9496L80.7809 67.1698Z" fill="#009688"/>
<path d="M95.1291 64.8875V83.3448L89.632 84.3987L86.9586 84.9114L80.7808 86.0963V67.1699L95.1291 64.8875Z" fill="#009688"/>
<path opacity="0.05" d="M95.1291 64.8875V83.3448L89.632 84.3987L86.9586 84.9114L80.7808 86.0963V67.1699L95.1291 64.8875Z" fill="black"/>
<path d="M57.6289 69.9384L62.9301 65.9545L80.7809 67.1698L78.1531 71.5905L57.6289 69.9384Z" fill="#009688"/>
<path opacity="0.1" d="M57.6289 69.9384L62.9301 65.9545L80.7809 67.1698L78.1531 71.5905L57.6289 69.9384Z" fill="white"/>
<path d="M95.129 64.8875L80.7808 67.1699L85.4507 71.3475L100.82 68.7726L95.129 64.8875Z" fill="#009688"/>
<path opacity="0.1" d="M95.129 64.8875L80.7808 67.1699L85.4507 71.3475L100.82 68.7726L95.129 64.8875Z" fill="white"/>
<path opacity="0.1" d="M89.6319 84.3986L86.9585 84.9113V80.9673L89.4627 80.3369L89.6319 84.3986Z" fill="white"/>
<path opacity="0.1" d="M73.9223 82.7847V85.3937L70.9389 85.0899V82.7847H73.9223Z" fill="white"/>
<path opacity="0.1" d="M70.0301 83.6068V84.9948L67.0486 84.6891V83.6068H70.0301Z" fill="white"/>
<path opacity="0.1" d="M78.9859 81.4003C76.9418 84.0113 70.1917 82.2073 70.1917 82.2073L65.1757 76.9815L64.495 76.2733L65.826 73.8047C65.826 73.8047 66.2063 73.93 66.8414 74.1503C70.2031 75.3238 80.7067 79.2033 78.9859 81.4003Z" fill="black"/>
<path d="M78.7957 81.0204C76.7516 83.6314 70.0015 81.8275 70.0015 81.8275L64.9855 76.6017L64.3048 75.8934L65.6358 73.4248C65.6358 73.4248 66.0161 73.5501 66.6512 73.7704C70.0129 74.9439 80.5165 78.8234 78.7957 81.0204Z" fill="#EFB7B9"/>
<path opacity="0.1" d="M66.6436 73.7704C66.366 74.5679 65.6605 75.7491 64.9779 76.6017L64.2972 75.8934L65.6282 73.4248C65.6282 73.4248 66.0104 73.5501 66.6436 73.7704Z" fill="black"/>
<path d="M50.0364 44.2388C50.0364 44.2388 45.0451 46.1377 44.9975 51.4546C44.9862 54.8808 45.1767 58.3048 45.568 61.7087C45.568 61.7087 44.1419 69.6366 48.1825 71.9153C52.223 74.194 55.9784 76.0929 55.9784 76.0929C55.9784 76.0929 62.4338 77.1373 63.2267 77.4696C64.0196 77.8019 66.7747 73.5294 66.3469 72.8173C65.9191 72.1052 60.0417 70.3487 59.3439 69.1619C58.6461 67.9751 56.9272 67.1756 56.9272 67.1756C56.9272 67.1756 55.1741 65.9812 55.1037 64.9843C55.0333 63.9874 55.5505 63.2753 55.6969 62.848C55.8434 62.4208 56.3739 58.2432 56.3739 58.2432C56.3739 58.2432 59.2108 43.4223 50.0364 44.2388Z" fill="#DCE6F2"/>
<path opacity="0.1" d="M52.3181 61.8416C52.3181 61.8416 45.568 62.6011 46.0909 64.9747C46.0909 64.9747 48.6559 62.5802 52.3181 61.8416Z" fill="black"/>
<path opacity="0.1" d="M52.3181 62.791C52.3181 62.791 48.4867 65.5919 49.1902 65.7818C49.8938 65.9717 52.3181 62.791 52.3181 62.791Z" fill="black"/>
<path opacity="0.1" d="M54.0294 63.9304C54.0294 63.9304 52.9361 65.8938 53.554 65.7913C54.172 65.6887 54.0294 63.9304 54.0294 63.9304Z" fill="black"/>
<path d="M124.311 21.3418C124.311 21.3418 117.085 20.907 117.929 25.9694C117.929 25.9694 117.76 26.8638 118.572 27.2702C118.572 27.2702 118.585 26.8904 119.314 27.0214C119.573 27.065 119.837 27.0778 120.099 27.0594C120.454 27.0357 120.792 26.8963 121.061 26.6625V26.6625C121.061 26.6625 123.094 25.8251 123.885 22.5058C123.885 22.5058 124.47 21.7805 124.455 21.5944L123.234 22.1166C123.234 22.1166 123.651 22.9957 123.322 23.7268C123.322 23.7268 123.284 22.1488 123.048 22.1849C123 22.1849 122.415 22.4906 122.415 22.4906C122.415 22.4906 123.132 24.0212 122.59 25.1358C122.59 25.1358 122.795 23.2483 122.19 22.6008L121.331 23.1021C121.331 23.1021 122.17 24.6839 121.601 25.9751C121.601 25.9751 121.747 23.9946 121.15 23.2236L120.371 23.8294C120.371 23.8294 121.16 25.3903 120.679 26.4612C120.679 26.4612 120.616 24.156 120.202 23.9813C120.202 23.9813 119.521 24.5813 119.418 24.8282C119.418 24.8282 119.956 25.9675 119.622 26.5581C119.622 26.5581 119.416 25.0219 119.241 25.0143C119.241 25.0143 118.563 26.0321 118.492 26.7233C118.525 26.0789 118.726 25.4543 119.076 24.9117C118.685 24.9857 118.324 25.1725 118.038 25.4491C118.038 25.4491 118.142 24.7294 119.243 24.6668C119.243 24.6668 119.814 23.8939 119.954 23.8465C119.954 23.8465 118.859 23.7553 118.196 24.0496C118.196 24.0496 118.779 23.3717 120.156 23.6699L120.916 23.0432C120.916 23.0432 119.475 22.8533 118.863 23.0641C118.863 23.0641 119.566 22.4641 121.124 22.9008L121.96 22.4014C121.96 22.4014 120.732 22.1355 120 22.2324C120 22.2324 120.772 21.8165 122.206 22.2666L122.805 21.9988C122.805 21.9988 121.903 21.8222 121.641 21.7937C121.379 21.7653 121.363 21.6931 121.363 21.6931C121.934 21.5983 122.519 21.6641 123.054 21.883C123.054 21.883 124.337 21.4216 124.311 21.3418Z" fill="#009688"/>
<path opacity="0.1" d="M146.265 46.6618C146.265 46.6618 139.039 46.2269 139.883 51.2894C139.883 51.2894 139.714 52.1838 140.526 52.5901C140.526 52.5901 140.539 52.2104 141.269 52.3414C141.529 52.385 141.792 52.3977 142.055 52.3794C142.406 52.3539 142.74 52.2153 143.005 51.9844V51.9844C143.005 51.9844 145.04 51.1451 145.831 47.8258C145.831 47.8258 146.415 47.1023 146.392 46.9162L145.171 47.4365C145.171 47.4365 145.588 48.3157 145.261 49.0468C145.261 49.0468 145.221 47.4688 144.987 47.5049C144.939 47.5049 144.352 47.8106 144.352 47.8106C144.352 47.8106 145.07 49.343 144.529 50.4558C144.529 50.4558 144.734 48.5683 144.127 47.9207L143.277 48.4163C143.277 48.4163 144.116 49.9981 143.547 51.2894C143.547 51.2894 143.694 49.3088 143.097 48.5379L142.319 49.1455C142.319 49.1455 143.106 50.7045 142.627 51.7755C142.627 51.7755 142.564 49.4702 142.15 49.2955C142.15 49.2955 141.469 49.8956 141.365 50.1424C141.365 50.1424 141.905 51.2818 141.57 51.8723C141.57 51.8723 141.365 50.3361 141.19 50.3285C141.19 50.3285 140.511 51.3464 140.44 52.0376C140.474 51.3931 140.676 50.7686 141.026 50.226C140.634 50.3001 140.273 50.4869 139.986 50.7634C139.986 50.7634 140.092 50.0437 141.193 49.981C141.193 49.981 141.754 49.2082 141.905 49.1607C141.905 49.1607 140.809 49.0696 140.146 49.3639C140.146 49.3639 140.729 48.686 142.104 48.9936L142.865 48.367C142.865 48.367 141.422 48.1771 140.811 48.3879C140.811 48.3879 141.515 47.7878 143.072 48.2245L143.909 47.7251C143.909 47.7251 142.678 47.4612 141.946 47.5561C141.946 47.5561 142.72 47.1403 144.154 47.5903L144.753 47.3226C144.753 47.3226 143.852 47.146 143.587 47.1175C143.323 47.089 143.31 47.0168 143.31 47.0168C143.881 46.922 144.466 46.9878 145.002 47.2067C145.002 47.2067 146.287 46.7415 146.265 46.6618Z" fill="#009688"/>
<path opacity="0.1" d="M102.37 42.167C102.37 42.167 104.034 35.1239 98.892 35.0993C98.892 35.0993 98.0383 34.7802 97.5002 35.5094C97.5002 35.5094 97.8671 35.5873 97.6181 36.2823C97.5319 36.528 97.4745 36.7829 97.4469 37.0418C97.4101 37.3948 97.4895 37.7501 97.6732 38.0539V38.0539C97.6732 38.0539 98.1543 40.1997 101.286 41.5441C101.286 41.5441 101.902 42.2429 102.088 42.2505L101.784 40.9612C101.784 40.9612 100.845 41.2213 100.179 40.7713C100.179 40.7713 101.744 41.001 101.746 40.7713C101.746 40.7238 101.556 40.0953 101.556 40.0953C101.556 40.0953 99.9226 40.5396 98.9148 39.8161C98.9148 39.8161 100.742 40.3402 101.486 39.856L101.143 38.9217C101.143 38.9217 99.432 39.4781 98.2607 38.6977C98.2607 38.6977 100.191 39.18 101.054 38.7243L100.588 37.8546C100.588 37.8546 98.9148 38.3635 97.9394 37.7084C97.9394 37.7084 100.221 38.0388 100.468 37.6628C100.468 37.6628 99.993 36.8899 99.7667 36.7456C99.7667 36.7456 98.5574 37.0836 98.025 36.6526C98.025 36.6526 99.5746 36.7114 99.6108 36.5481C99.6108 36.5481 98.7228 35.7069 98.0459 35.517C98.6767 35.6605 99.2593 35.9654 99.7363 36.4019C99.7293 36.0039 99.6064 35.6166 99.3826 35.2873C99.3826 35.2873 100.075 35.5151 99.953 36.6165C99.953 36.6165 100.619 37.3001 100.639 37.4558C100.639 37.4558 100.915 36.3943 100.738 35.6898C100.738 35.6898 101.309 36.381 100.771 37.6818L101.257 38.5458C101.257 38.5458 101.699 37.1596 101.586 36.5215C101.586 36.5215 102.06 37.3153 101.362 38.7736L101.714 39.6832C101.714 39.6832 102.183 38.5173 102.214 37.7843C102.214 37.7843 102.493 38.616 101.803 39.951L101.967 40.5852C101.967 40.5852 102.294 39.7288 102.366 39.4743C102.438 39.2199 102.512 39.218 102.512 39.218C102.509 39.7957 102.346 40.3612 102.039 40.851C102.039 40.851 102.288 42.1765 102.37 42.167Z" fill="#009688"/>
<path opacity="0.1" d="M86.546 44.5672C86.546 44.5672 80.7428 40.2321 78.6683 44.928C78.6683 44.928 78.0352 45.5832 78.4896 46.3674C78.4896 46.3674 78.7064 46.0617 79.2502 46.5687C79.4428 46.7476 79.656 46.9032 79.8853 47.032C80.1958 47.2047 80.5543 47.2714 80.9063 47.2219V47.2219C80.9063 47.2219 83.0664 47.6378 85.5535 45.3002C85.5535 45.3002 86.4414 45.0154 86.5251 44.8483L85.215 44.6185C85.215 44.6185 85.0781 45.5813 84.4031 46.0123C84.4031 46.0123 85.2378 44.6717 85.0211 44.5748C84.9773 44.5539 84.3232 44.4799 84.3232 44.4799C84.3232 44.4799 84.0798 46.1547 83.015 46.7871C83.015 46.7871 84.2263 45.323 84.076 44.4495L83.0816 44.3963C83.0816 44.3963 82.9123 46.1794 81.7258 46.9466C81.7258 46.9466 82.9371 45.3724 82.8667 44.4001L81.8818 44.4799C81.8818 44.4799 81.6821 46.2136 80.6915 46.844C80.6915 46.844 81.9065 44.8844 81.6574 44.5122C81.6574 44.5122 80.758 44.6394 80.5356 44.7875C80.5356 44.7875 80.3625 46.0294 79.7541 46.3446C79.7541 46.3446 80.4291 44.9489 80.2922 44.8521C80.2922 44.8521 79.1646 45.3287 78.7216 45.8718C79.1048 45.3518 79.6174 44.9407 80.2085 44.6793C79.8407 44.5266 79.4363 44.4844 79.0448 44.5577C79.0448 44.5577 79.5278 44.0147 80.4823 44.5672C80.4823 44.5672 81.376 44.2311 81.5281 44.2729C81.5281 44.2729 80.6629 43.595 79.9461 43.4773C79.9461 43.4773 80.8094 43.2304 81.7886 44.2368L82.7754 44.1362C82.7754 44.1362 81.6783 43.1867 81.0489 43.0272C81.0489 43.0272 81.9673 42.9114 83.0264 44.1305L84 44.1742C84 44.1742 83.1196 43.2779 82.456 42.9551C82.456 42.9551 83.3288 43.031 84.2795 44.1951L84.9279 44.2995C84.9279 44.2995 84.2719 43.6577 84.0665 43.4906C83.8612 43.3235 83.8897 43.2532 83.8897 43.2532C84.4187 43.4871 84.8722 43.8632 85.1998 44.3394C85.1998 44.3394 86.5213 44.6451 86.546 44.5672Z" fill="#009688"/>
<path opacity="0.1" d="M105.866 4.28964C105.866 4.28964 100.063 -0.0474498 97.9888 4.65044C97.9888 4.65044 97.3556 5.30556 97.8101 6.0898C97.8101 6.0898 98.0268 5.78408 98.5707 6.29109C98.7643 6.46912 98.9781 6.62398 99.2076 6.75252C99.5181 6.92535 99.8767 6.99203 100.229 6.94241V6.94241C100.229 6.94241 102.389 7.35827 104.876 5.01882C104.876 5.01882 105.764 4.73589 105.846 4.56688L104.535 4.34091C104.535 4.34091 104.4 5.30366 103.724 5.73471C103.724 5.73471 104.56 4.39408 104.343 4.29724C104.3 4.27635 103.646 4.2023 103.646 4.2023C103.646 4.2023 103.395 5.88092 102.33 6.50946C102.33 6.50946 103.539 5.04541 103.391 4.17191L102.396 4.11874C102.396 4.11874 102.225 5.90181 101.041 6.66707C101.041 6.66707 102.252 5.09288 102.181 4.12064L101.198 4.2004C101.198 4.2004 100.997 5.93599 100.006 6.56643C100.006 6.56643 101.223 4.60676 100.974 4.23458C100.974 4.23458 100.075 4.3618 99.8522 4.50992C99.8522 4.50992 99.6792 5.7518 99.0707 6.06702C99.0707 6.06702 99.7458 4.67132 99.6088 4.57258C99.6088 4.57258 98.4813 5.0511 98.0383 5.59419C98.4209 5.07365 98.9336 4.66246 99.5252 4.40168C99.157 4.24788 98.7517 4.20562 98.3596 4.28015C98.3596 4.28015 98.8445 3.73706 99.799 4.28964C99.799 4.28964 100.693 3.95164 100.845 3.99531C100.845 3.99531 99.9796 3.31741 99.2628 3.19778C99.2628 3.19778 100.124 2.95282 101.103 3.95734L102.09 3.85669C102.09 3.85669 100.995 2.90724 100.364 2.74584C100.364 2.74584 101.282 2.6319 102.343 3.851L103.317 3.89277C103.317 3.89277 102.436 2.99649 101.771 2.67558C101.771 2.67558 102.645 2.75153 103.596 3.91556L104.243 4.02C104.243 4.02 103.585 3.38577 103.379 3.22246C103.174 3.05916 103.203 2.987 103.203 2.987C103.732 3.22067 104.185 3.59675 104.513 4.07317C104.513 4.07317 105.834 4.3618 105.866 4.28964Z" fill="#009688"/>
<path opacity="0.1" d="M128.041 9.78314C128.041 9.78314 125.721 2.92621 121.346 5.62075C121.346 5.62075 120.452 5.81064 120.382 6.70502C120.382 6.70502 120.734 6.5759 120.89 7.29748C120.948 7.55416 121.035 7.8033 121.15 8.03995C121.307 8.35844 121.564 8.61758 121.88 8.77862V8.77862C121.88 8.77862 123.424 10.3452 126.801 9.82682C126.801 9.82682 127.693 10.0965 127.857 10.0034L126.906 9.07106C126.906 9.07106 126.248 9.78694 125.446 9.75846C125.446 9.75846 126.896 9.12802 126.777 8.92484C126.752 8.88496 126.256 8.45391 126.256 8.45391C126.256 8.45391 125.103 9.6939 123.867 9.61224C123.867 9.61224 125.695 9.09194 126.067 8.28301L125.28 7.67726C125.28 7.67726 124.128 9.04827 122.715 9.00649C122.715 9.00649 124.617 8.39694 125.098 7.55383L124.242 7.06202C124.242 7.06202 123.101 8.37796 121.918 8.33618C121.918 8.33618 124.033 7.41141 124.039 6.96327C124.039 6.96327 123.227 6.55881 122.959 6.55501C122.959 6.55501 122.11 7.47978 121.437 7.39622C121.437 7.39622 122.784 6.62717 122.727 6.46956C122.727 6.46956 121.529 6.2246 120.854 6.42209C121.464 6.2098 122.12 6.1607 122.755 6.27967C122.538 5.94527 122.228 5.68131 121.863 5.52011C121.863 5.52011 122.571 5.34731 123.044 6.34233C123.044 6.34233 123.972 6.5721 124.071 6.69173C124.071 6.69173 123.744 5.64544 123.221 5.14033C123.221 5.14033 124.071 5.42706 124.303 6.81516L125.174 7.28988C125.174 7.28988 124.814 5.8828 124.381 5.39098C124.381 5.39098 125.204 5.81634 125.383 7.42091L126.162 8.00767C126.162 8.00767 125.946 6.76959 125.581 6.12776C125.581 6.12776 126.258 6.68603 126.379 8.18427L126.853 8.63621C126.853 8.63621 126.678 7.73613 126.605 7.48167C126.533 7.22722 126.592 7.21013 126.592 7.21013C126.894 7.70273 127.054 8.26925 127.054 8.84699C127.054 8.84699 127.975 9.83252 128.041 9.78314Z" fill="#009688"/>
<path opacity="0.1" d="M112.902 10.1212C112.902 10.1212 105.695 9.31983 106.29 14.426C106.29 14.426 106.076 15.3109 106.861 15.7552C106.861 15.7552 106.893 15.3754 107.621 15.5463C107.879 15.6016 108.142 15.6278 108.405 15.6242C108.76 15.6178 109.104 15.4958 109.384 15.2767V15.2767C109.384 15.2767 111.459 14.5418 112.426 11.2662C112.426 11.2662 113.046 10.5731 113.033 10.3851L111.788 10.8447C111.788 10.8447 112.168 11.7428 111.788 12.4568C111.788 12.4568 111.827 10.8788 111.597 10.9035C111.55 10.9035 110.949 11.177 110.949 11.177C110.949 11.177 111.588 12.7436 110.991 13.8354C110.991 13.8354 111.291 11.9593 110.719 11.2833L109.835 11.739C109.835 11.739 110.595 13.3626 109.958 14.6235C109.958 14.6235 110.206 12.6524 109.648 11.853L108.84 12.4226C108.84 12.4226 109.548 14.0196 109.013 15.0659C109.013 15.0659 109.069 12.7606 108.663 12.5651C108.663 12.5651 107.952 13.1347 107.836 13.3702C107.836 13.3702 108.317 14.5285 107.954 15.1077C107.954 15.1077 107.827 13.5639 107.66 13.5487C107.66 13.5487 106.929 14.5304 106.823 15.2235C106.889 14.5809 107.122 13.9668 107.5 13.4423C107.105 13.4968 106.735 13.6651 106.435 13.9266C106.435 13.9266 106.576 13.2145 107.679 13.2069C107.679 13.2069 108.278 12.4644 108.439 12.4245C108.439 12.4245 107.35 12.2783 106.671 12.5385C106.671 12.5385 107.289 11.889 108.646 12.2669L109.447 11.6802C109.447 11.6802 108 11.3877 107.388 11.5776C107.388 11.5776 108.122 11.008 109.654 11.5302L110.515 11.0725C110.515 11.0725 109.3 10.7459 108.565 10.8048C108.565 10.8048 109.358 10.425 110.766 10.951L111.379 10.7136C111.379 10.7136 110.487 10.4915 110.225 10.4497C109.962 10.4079 109.953 10.3357 109.953 10.3357C110.527 10.2699 111.109 10.3645 111.634 10.6092C111.634 10.6092 112.915 10.2009 112.902 10.1212Z" fill="#009688"/>
<path opacity="0.1" d="M175.954 65.9812C175.954 65.9812 168.751 65.1799 169.346 70.2803C169.346 70.2803 169.131 71.1652 169.917 71.6096C169.917 71.6096 169.949 71.2298 170.677 71.3988C170.934 71.456 171.197 71.4821 171.461 71.4767C171.816 71.4712 172.16 71.3491 172.44 71.1292V71.1292C172.44 71.1292 174.514 70.3943 175.473 67.1206C175.473 67.1206 176.092 66.4256 176.079 66.2395L174.834 66.6971C174.834 66.6971 175.214 67.5972 174.834 68.3112C174.834 68.3112 174.874 66.7313 174.644 66.7579C174.596 66.7579 173.995 67.0294 173.995 67.0294C173.995 67.0294 174.634 68.596 174.037 69.6879C174.037 69.6879 174.337 67.8137 173.765 67.1358L172.881 67.5934C172.881 67.5934 173.641 69.217 173.006 70.4778C173.006 70.4778 173.252 68.5068 172.695 67.7054L171.886 68.2751C171.886 68.2751 172.594 69.8721 172.059 70.9165C172.059 70.9165 172.115 68.6112 171.71 68.4175C171.71 68.4175 171 68.9872 170.882 69.2227C170.882 69.2227 171.365 70.381 171 70.9602C171 70.9602 170.873 69.4163 170.706 69.4012C170.706 69.4012 169.976 70.3829 169.869 71.076C169.935 70.4334 170.168 69.8193 170.546 69.2948C170.151 69.3483 169.781 69.5167 169.481 69.779C169.481 69.779 169.622 69.0651 170.725 69.0575C170.725 69.0575 171.326 68.315 171.485 68.277C171.485 68.277 170.396 68.1289 169.717 68.389C169.717 68.389 170.335 67.7415 171.694 68.1194L172.493 67.5326C172.493 67.5326 171.063 67.263 170.441 67.4491C170.441 67.4491 171.175 66.8794 172.708 67.3997L173.569 66.944C173.569 66.944 172.354 66.6174 171.618 66.6762C171.618 66.6762 172.411 66.2964 173.82 66.8224L174.433 66.5832C174.433 66.5832 173.541 66.361 173.278 66.3211C173.016 66.2813 173.006 66.2072 173.006 66.2072C173.581 66.1401 174.163 66.2342 174.687 66.4787C174.687 66.4787 175.973 66.0629 175.954 65.9812Z" fill="#009688"/>
<path opacity="0.1" d="M186.965 72.6995C186.965 72.6995 179.762 71.9001 180.357 76.9986C180.357 76.9986 180.144 77.8835 180.928 78.3278C180.928 78.3278 180.96 77.948 181.688 78.1189C181.945 78.1747 182.207 78.2002 182.47 78.1949C182.824 78.1877 183.166 78.0664 183.445 77.8493V77.8493C183.445 77.8493 185.518 77.1144 186.476 73.8388C186.476 73.8388 187.098 73.1457 187.083 72.9577L185.837 73.4154C185.837 73.4154 186.218 74.3155 185.837 75.0294C185.837 75.0294 185.877 73.4515 185.647 73.4761C185.6 73.4761 184.999 73.7477 184.999 73.7477C184.999 73.7477 185.638 75.3143 185.041 76.4061C185.041 76.4061 185.341 74.5319 184.769 73.8559L183.885 74.3117C183.885 74.3117 184.645 75.9352 184.01 77.1961C184.01 77.1961 184.255 75.225 183.698 74.4256L182.89 74.9953C182.89 74.9953 183.597 76.5922 183.065 77.6385C183.065 77.6385 183.118 75.3314 182.713 75.1377C182.713 75.1377 182.004 75.7073 181.886 75.9428C181.886 75.9428 182.369 77.1011 182.004 77.6803C182.004 77.6803 181.877 76.1365 181.709 76.1213C181.709 76.1213 180.979 77.103 180.875 77.7961C180.94 77.1538 181.173 76.5398 181.55 76.015C181.155 76.0694 180.785 76.2377 180.485 76.4992C180.485 76.4992 180.627 75.7852 181.73 75.7795C181.73 75.7795 182.329 75.037 182.491 74.9972C182.491 74.9972 181.401 74.8509 180.722 75.1111C180.722 75.1111 181.34 74.4617 182.7 74.8395L183.499 74.2528C183.499 74.2528 182.069 73.9831 181.447 74.1692C181.447 74.1692 182.181 73.5996 183.713 74.1218L184.575 73.6641C184.575 73.6641 183.36 73.3375 182.624 73.3964C182.624 73.3964 183.417 73.0166 184.826 73.5426L185.438 73.3052C185.438 73.3052 184.546 73.0831 184.286 73.0413C184.025 72.9995 184.012 72.9274 184.012 72.9274C184.587 72.8615 185.169 72.9561 185.693 73.2008C185.693 73.2008 186.984 72.7811 186.965 72.6995Z" fill="#009688"/>
<path opacity="0.1" d="M162.518 16.1103C162.518 16.1103 156.715 11.7751 154.64 16.4711C154.64 16.4711 154.007 17.1262 154.462 17.9105C154.462 17.9105 154.678 17.6048 155.222 18.1118C155.415 18.2907 155.628 18.4463 155.857 18.5751C156.168 18.7477 156.526 18.8143 156.878 18.765V18.765C156.878 18.765 159.038 19.1809 161.527 16.8433C161.527 16.8433 162.413 16.5585 162.497 16.3914L161.191 16.1559C161.191 16.1559 161.054 17.1186 160.379 17.5497C160.379 17.5497 161.214 16.2091 160.997 16.1122C160.953 16.0913 160.301 16.0173 160.301 16.0173C160.301 16.0173 160.056 17.6921 158.991 18.3244C158.991 18.3244 160.202 16.8604 160.052 15.9869L159.057 15.9337C159.057 15.9337 158.888 17.7168 157.702 18.484C157.702 18.484 158.915 16.9098 158.843 15.9375L157.858 16.0173C157.858 16.0173 157.667 17.751 156.667 18.3814C156.667 18.3814 157.884 16.4218 157.633 16.0496C157.633 16.0496 156.734 16.1768 156.511 16.3249C156.511 16.3249 156.34 17.5668 155.732 17.882C155.732 17.882 156.405 16.4863 156.268 16.3895C156.268 16.3895 155.14 16.8661 154.697 17.4092C155.081 16.8892 155.593 16.4781 156.184 16.2167C155.817 16.064 155.412 16.0218 155.021 16.0951C155.021 16.0951 155.506 15.5521 156.46 16.1046C156.46 16.1046 157.352 15.7685 157.504 15.8103C157.504 15.8103 156.639 15.1324 155.922 15.0147C155.922 15.0147 156.785 14.7678 157.764 15.7742L158.751 15.6736C158.751 15.6736 157.656 14.7241 157.025 14.5646C157.025 14.5646 157.943 14.4488 159.002 15.6679L159.978 15.7116C159.978 15.7116 159.095 14.8153 158.432 14.4925C158.432 14.4925 159.306 14.5684 160.255 15.7325L160.904 15.8369C160.904 15.8369 160.248 15.1951 160.042 15.028C159.837 14.8609 159.867 14.8058 159.867 14.8058C160.396 15.0401 160.848 15.4161 161.176 15.892C161.176 15.892 162.493 16.1882 162.518 16.1103Z" fill="#009688"/>
<path opacity="0.1" d="M167.002 47.408C167.002 47.408 165.001 40.4523 160.502 42.9494C160.502 42.9494 159.601 43.088 159.489 43.9881C159.489 43.9881 159.846 43.876 159.97 44.6033C160.016 44.8646 160.092 45.1195 160.198 45.3629C160.339 45.6901 160.584 45.9622 160.894 46.1376V46.1376C160.894 46.1376 162.366 47.7707 165.762 47.4061C165.762 47.4061 166.64 47.7137 166.808 47.6302L165.908 46.6541C165.908 46.6541 165.218 47.3415 164.419 47.277C164.419 47.277 165.895 46.7073 165.781 46.5041C165.758 46.4623 165.283 46.0085 165.283 46.0085C165.283 46.0085 164.077 47.1972 162.845 47.0586C162.845 47.0586 164.695 46.6218 165.102 45.8357L164.341 45.1939C164.341 45.1939 163.128 46.5117 161.719 46.4092C161.719 46.4092 163.636 45.8832 164.165 45.0647L163.332 44.5349C163.332 44.5349 162.124 45.7977 160.953 45.7028C160.953 45.7028 163.107 44.8729 163.134 44.4267C163.134 44.4267 162.339 43.9862 162.071 43.971C162.071 43.971 161.183 44.8559 160.508 44.7419C160.508 44.7419 161.889 44.0336 161.839 43.8741C161.839 43.8741 160.653 43.576 159.97 43.7412C160.588 43.5581 161.244 43.5391 161.872 43.6861C161.67 43.3425 161.373 43.0653 161.016 42.8886C161.016 42.8886 161.731 42.7462 162.157 43.7621C162.157 43.7621 163.071 44.0317 163.166 44.1571C163.166 44.1571 162.887 43.0956 162.387 42.5696C162.387 42.5696 163.223 42.8924 163.393 44.29L164.241 44.8046C164.241 44.8046 163.944 43.3804 163.533 42.8791C163.533 42.8791 164.336 43.3405 164.444 44.9508L165.205 45.5717C165.205 45.5717 165.043 44.3261 164.708 43.6728C164.708 43.6728 165.361 44.2615 165.414 45.7616L165.866 46.2364C165.866 46.2364 165.733 45.3287 165.676 45.0704C165.619 44.8122 165.676 44.7761 165.676 44.7761C165.958 45.2812 166.093 45.8546 166.066 46.4319C166.066 46.4319 166.933 47.4536 167.002 47.408Z" fill="#009688"/>
<path opacity="0.1" d="M122.428 63.0815C122.428 63.0815 118.543 56.9708 114.936 60.6281C114.936 60.6281 114.111 61.0079 114.256 61.9099C114.256 61.9099 114.569 61.701 114.893 62.3656C115.009 62.6011 115.153 62.8217 115.322 63.0226C115.549 63.2968 115.86 63.4889 116.207 63.5695V63.5695C116.207 63.5695 118.079 64.724 121.236 63.4176C121.236 63.4176 122.166 63.467 122.303 63.3397L121.162 62.6561C121.162 62.6561 120.692 63.5106 119.907 63.672C119.907 63.672 121.166 62.7226 120.996 62.5479C120.964 62.5137 120.378 62.2137 120.378 62.2137C120.378 62.2137 119.555 63.691 118.334 63.9056C118.334 63.9056 119.987 62.9656 120.158 62.0959L119.247 61.6953C119.247 61.6953 118.454 63.2998 117.074 63.5942C117.074 63.5942 118.766 62.5517 119.042 61.6174L118.091 61.344C118.091 61.344 117.288 62.8954 116.138 63.1327C116.138 63.1327 117.971 61.7314 117.87 61.2946C117.87 61.2946 116.984 61.0952 116.729 61.156C116.729 61.156 116.127 62.2555 115.446 62.3352C115.446 62.3352 116.572 61.268 116.478 61.1275C116.478 61.1275 115.256 61.175 114.647 61.5263C115.19 61.1751 115.816 60.9722 116.461 60.9376C116.172 60.6643 115.809 60.4815 115.417 60.4116C115.417 60.4116 116.062 60.0755 116.748 60.93C116.748 60.93 117.699 60.93 117.83 61.025C117.83 61.025 117.26 60.0755 116.634 59.7204C116.634 59.7204 117.528 59.7964 118.083 61.0895L119.044 61.344C119.044 61.344 118.357 60.0622 117.823 59.6957C117.823 59.6957 118.722 59.9122 119.279 61.4294L120.177 61.8092C120.177 61.8092 119.671 60.6604 119.163 60.123C119.163 60.123 119.954 60.5028 120.428 61.9288L120.998 62.2574C120.998 62.2574 120.618 61.4237 120.483 61.194C120.348 60.9642 120.401 60.911 120.401 60.911C120.813 61.3169 121.103 61.8291 121.24 62.3903C121.24 62.3903 122.377 63.146 122.428 63.0815Z" fill="#009688"/>
<path d="M147.959 31.8598C147.959 31.8598 144.264 25.6333 140.543 29.1766C140.543 29.1766 139.706 29.5374 139.824 30.4375C139.824 30.4375 140.142 30.2362 140.446 30.9103C140.555 31.15 140.692 31.3757 140.855 31.5826C141.073 31.8626 141.378 32.0628 141.722 32.1522V32.1522C141.722 32.1522 143.557 33.3637 146.753 32.1522C146.753 32.1522 147.681 32.2301 147.822 32.1067L146.706 31.3889C146.706 31.3889 146.211 32.2263 145.42 32.3649C145.42 32.3649 146.707 31.4477 146.546 31.2749C146.512 31.2389 145.937 30.9198 145.937 30.9198C145.937 30.9198 145.068 32.3725 143.846 32.5491C143.846 32.5491 145.527 31.6604 145.723 30.7983L144.825 30.3768C144.825 30.3768 143.983 31.9585 142.593 32.2111C142.593 32.2111 144.317 31.2218 144.622 30.297L143.682 29.9932C143.682 29.9932 142.83 31.5123 141.674 31.7212C141.674 31.7212 143.549 30.3768 143.462 29.9381C143.462 29.9381 142.583 29.7102 142.321 29.7634C142.321 29.7634 141.684 30.8439 141.001 30.9028C141.001 30.9028 142.159 29.8735 142.072 29.7292C142.072 29.7292 140.847 29.7387 140.229 30.071C140.783 29.7376 141.414 29.5543 142.06 29.5393C141.779 29.2571 141.422 29.063 141.032 28.9811C141.032 28.9811 141.688 28.6639 142.363 29.5393C142.363 29.5393 143.313 29.5716 143.441 29.6685C143.441 29.6685 142.903 28.719 142.287 28.3278C142.287 28.3278 143.177 28.4304 143.692 29.7406L144.643 30.0255C144.643 30.0255 143.998 28.7228 143.473 28.3392C143.473 28.3392 144.367 28.5842 144.876 30.1166L145.761 30.5287C145.761 30.5287 145.291 29.3646 144.81 28.8197C144.81 28.8197 145.588 29.2241 146.019 30.6635L146.576 31.0091C146.576 31.0091 146.219 30.1641 146.093 29.9305C145.968 29.6969 146.021 29.6457 146.021 29.6457C146.42 30.064 146.694 30.5847 146.814 31.1496C146.814 31.1496 147.903 31.9225 147.959 31.8598Z" fill="#009688"/>
<path d="M124.584 44.9527C124.584 44.9527 124.774 37.7179 119.741 38.7376C119.741 38.7376 118.84 38.599 118.46 39.4231C118.46 39.4231 118.84 39.4231 118.734 40.1542C118.699 40.4148 118.695 40.6787 118.722 40.9403C118.757 41.2951 118.907 41.6288 119.15 41.8898C119.15 41.8898 120.057 43.8912 123.405 44.571C123.405 44.571 124.149 45.1312 124.335 45.1008L123.765 43.9007C123.765 43.9007 122.9 44.3451 122.156 44.0431C122.156 44.0431 123.734 43.9501 123.691 43.7184C123.691 43.6709 123.364 43.0937 123.364 43.0937C123.364 43.0937 121.854 43.8627 120.723 43.3576C120.723 43.3576 122.624 43.5 123.246 42.8753L122.715 42.0341C122.715 42.0341 121.16 42.9228 119.848 42.3987C119.848 42.3987 121.835 42.4784 122.588 41.8575L121.955 41.0979C121.955 41.0979 120.42 41.9372 119.333 41.4929C119.333 41.4929 121.637 41.3543 121.804 40.9346C121.804 40.9346 121.181 40.2757 120.93 40.1751C120.93 40.1751 119.816 40.7447 119.207 40.4371C119.207 40.4371 120.728 40.1827 120.738 40.0136C120.738 40.0136 119.698 39.3699 118.996 39.3224C119.643 39.334 120.276 39.5147 120.831 39.8465C120.744 39.4584 120.546 39.104 120.26 38.8268C120.26 38.8268 120.985 38.9085 121.084 40.0042C121.084 40.0042 121.877 40.5396 121.928 40.6878C121.928 40.6878 121.983 39.5921 121.666 38.9389C121.666 38.9389 122.365 39.499 122.103 40.8815L122.755 41.6296C122.755 41.6296 122.903 40.1827 122.666 39.5807C122.666 39.5807 123.289 40.2624 122.905 41.8309L123.432 42.6493C123.432 42.6493 123.656 41.4131 123.537 40.6859C123.537 40.6859 123.978 41.4454 123.575 42.8905L123.864 43.4792C123.864 43.4792 124.01 42.5734 124.029 42.3094C124.048 42.0455 124.12 42.0284 124.12 42.0284C124.235 42.5948 124.189 43.1819 123.989 43.7241C123.989 43.7241 124.501 44.9774 124.584 44.9527Z" fill="#009688"/>
<path opacity="0.1" d="M132.905 136.882C135.733 136.882 138.026 136.496 138.026 136.018C138.026 135.541 135.733 135.154 132.905 135.154C130.077 135.154 127.784 135.541 127.784 136.018C127.784 136.496 130.077 136.882 132.905 136.882Z" fill="#009688"/>
<path opacity="0.1" d="M114.238 150C117.067 150 119.359 149.613 119.359 149.136C119.359 148.659 117.067 148.272 114.238 148.272C111.41 148.272 109.118 148.659 109.118 149.136C109.118 149.613 111.41 150 114.238 150Z" fill="#009688"/>
<path opacity="0.1" d="M17.7101 143.28C20.5381 143.28 22.8306 142.893 22.8306 142.416C22.8306 141.939 20.5381 141.552 17.7101 141.552C14.882 141.552 12.5895 141.939 12.5895 142.416C12.5895 142.893 14.882 143.28 17.7101 143.28Z" fill="#009688"/>
<path opacity="0.1" d="M153.077 149.136C155.905 149.136 158.198 148.749 158.198 148.272C158.198 147.795 155.905 147.408 153.077 147.408C150.249 147.408 147.957 147.795 147.957 148.272C147.957 148.749 150.249 149.136 153.077 149.136Z" fill="#009688"/>
<path d="M158.409 138.601C162.632 138.601 166.055 138.023 166.055 137.31C166.055 136.596 162.632 136.018 158.409 136.018C154.186 136.018 150.763 136.596 150.763 137.31C150.763 138.023 154.186 138.601 158.409 138.601Z" fill="#009688"/>
<path d="M161.579 135.196C161.928 134.913 162.182 134.53 162.307 134.099C162.402 133.662 162.216 133.14 161.799 132.98C161.331 132.802 160.831 133.124 160.451 133.451C160.071 133.778 159.639 134.152 159.143 134.083C159.398 133.852 159.588 133.559 159.696 133.233C159.804 132.907 159.826 132.558 159.759 132.221C159.737 132.081 159.678 131.95 159.588 131.841C159.327 131.564 158.858 131.683 158.546 131.902C157.557 132.597 157.281 133.937 157.276 135.145C157.177 134.71 157.261 134.256 157.259 133.816C157.257 133.375 157.133 132.866 156.755 132.635C156.522 132.505 156.26 132.44 155.994 132.445C155.549 132.429 155.053 132.473 154.751 132.798C154.37 133.2 154.471 133.878 154.798 134.317C155.125 134.756 155.625 135.039 156.085 135.346C156.454 135.566 156.768 135.865 157.006 136.222C157.033 136.271 157.055 136.323 157.072 136.377H159.86C160.484 136.063 161.062 135.666 161.579 135.196V135.196Z" fill="#009688"/>
<path d="M14.2721 138.4C14.2721 138.4 17.1908 138.31 18.075 137.684C18.9591 137.057 22.5681 136.311 22.7867 137.315C23.0054 138.32 27.1753 142.308 23.8782 142.334C20.5811 142.361 16.2173 141.821 15.3388 141.286C14.4603 140.75 14.2721 138.4 14.2721 138.4Z" fill="#A8A8A8"/>
<path opacity="0.2" d="M23.9333 141.985C20.6362 142.011 16.2724 141.472 15.3939 140.937C14.7246 140.53 14.4584 139.07 14.3691 138.396H14.2721C14.2721 138.396 14.4622 140.749 15.335 141.282C16.2078 141.816 20.5773 142.357 23.8744 142.33C24.8251 142.33 25.154 141.985 25.1369 141.483C25.0038 141.789 24.6406 141.979 23.9333 141.985Z" fill="black"/>
</g>
<defs>
<linearGradient id="paint0_linear" x1="42.4003" y1="82.3022" x2="101.75" y2="82.3022" gradientUnits="userSpaceOnUse">
<stop stop-color="#808080" stop-opacity="0.25"/>
<stop offset="0.54" stop-color="#808080" stop-opacity="0.12"/>
<stop offset="1" stop-color="#808080" stop-opacity="0.1"/>
</linearGradient>
<clipPath id="clip0">
<rect width="191.958" height="150" fill="white"/>
</clipPath>
</defs>
</svg>
