<svg width="174" height="113" viewBox="0 0 174 113" fill="none" xmlns="http://www.w3.org/2000/svg">
<g clip-path="url(#clip0)">
<path opacity="0.1" d="M104.876 24.8089C94.2994 24.4742 84.2263 21.3512 74.6075 17.9354C64.9887 14.5195 55.4614 10.7361 45.1383 8.92651C38.4986 7.76249 30.9046 7.59663 25.5559 10.8481C20.4066 13.9861 18.743 19.3878 17.8491 24.404C17.1758 28.1785 16.7803 32.1517 18.6237 35.6856C19.9049 38.1392 22.1764 40.2012 23.7485 42.5517C29.2181 50.7283 25.3516 60.8115 19.4261 68.7953C16.648 72.5399 13.4205 76.1171 11.2748 80.0993C9.12911 84.0815 8.13716 88.6599 10.0148 92.7332C11.8745 96.7677 16.3081 99.7921 21.1109 101.921C30.8654 106.247 42.3553 107.484 53.5674 108.187C78.3792 109.738 103.322 109.067 128.199 108.393C137.406 108.145 146.652 107.892 155.709 106.591C160.739 105.868 165.93 104.72 169.583 101.95C174.217 98.4338 175.366 92.4807 172.26 88.0726C167.05 80.6761 152.649 78.8396 149.004 70.9037C147 66.5345 149.058 61.6692 151.971 57.6183C158.22 48.9262 168.694 41.301 169.245 31.3672C169.624 24.5444 164.589 17.7112 156.804 14.4821C148.644 11.0977 137.327 11.5235 131.31 17.1255C125.109 22.8873 114.215 25.1063 104.876 24.8089Z" fill="#009688"/>
<path d="M158.706 112.666L153.737 97.6439C153.737 97.6439 159.203 103.119 159.203 107.612L158.222 97.2228C158.222 97.2228 161.025 101.013 160.745 106.769C160.464 112.525 158.706 112.666 158.706 112.666Z" fill="#E6E6E6"/>
<path d="M51.9842 98.9877L47.134 84.3271C47.134 84.3271 52.4689 89.6706 52.4689 94.0551L51.5114 83.916C51.5114 83.916 54.2472 87.6154 53.9736 93.2331C53.7 98.8507 51.9842 98.9877 51.9842 98.9877Z" fill="#E6E6E6"/>
<path d="M127.687 105.753C127.695 115.397 108.598 112.431 85.2197 112.451C61.841 112.471 43.0333 115.47 43.025 105.826C43.0167 96.1822 62.1063 94.0682 85.4849 94.048C108.864 94.0278 127.678 96.109 127.687 105.753Z" fill="#E6E6E6"/>
<path d="M111.302 92.7286H108.245L106.791 80.9203H111.302V92.7286Z" fill="#A0616A"/>
<path d="M105.723 91.8541H111.957V95.5716H102.351V95.2315C102.351 94.3358 102.706 93.4767 103.339 92.8433C103.971 92.21 104.829 91.8541 105.723 91.8541V91.8541Z" fill="#2F2E41"/>
<path d="M133.768 110.157H130.711L129.257 98.3489H133.768V110.157Z" fill="#A0616A"/>
<path d="M128.189 109.283H134.423V113H124.817V112.66C124.817 111.764 125.172 110.905 125.804 110.272C126.437 109.638 127.294 109.283 128.189 109.283V109.283Z" fill="#2F2E41"/>
<path d="M147.866 75.0767C148.077 74.82 148.23 74.5201 148.313 74.1979C148.396 73.8758 148.407 73.5393 148.347 73.2122C148.286 72.8851 148.154 72.5754 147.961 72.3047C147.768 72.0341 147.517 71.8093 147.228 71.646L140.129 42.681L135.59 44.6371L144.034 72.6437C143.792 73.1489 143.744 73.7253 143.898 74.2637C144.052 74.8021 144.399 75.2652 144.871 75.5651C145.343 75.865 145.909 75.9809 146.461 75.8909C147.013 75.8009 147.513 75.5112 147.866 75.0767V75.0767Z" fill="#A0616A"/>
<path d="M142.329 16.5379C142.076 16.2726 141.768 16.0662 141.426 15.9332C141.085 15.8002 140.718 15.7438 140.352 15.7681C139.987 15.7923 139.631 15.8965 139.31 16.0735C138.988 16.2504 138.71 16.4957 138.494 16.7921L127.506 18.0556L129.178 22.3005L139.17 20.4273C139.691 20.7582 140.316 20.886 140.925 20.7867C141.534 20.6873 142.085 20.3676 142.475 19.8882C142.864 19.4088 143.064 18.8029 143.038 18.1854C143.011 17.5679 142.759 16.9817 142.329 16.5379V16.5379Z" fill="#A0616A"/>
<path d="M124.223 72.0729L129.017 108.115L134.985 106.885C134.985 106.885 134.107 80.6359 137.091 77.4715C140.075 74.3071 133.253 68.7637 133.253 68.7637L124.223 72.0729Z" fill="#2F2E41"/>
<path d="M126.205 62.1453L124.003 65.4545C124.003 65.4545 107.043 58.395 107.043 69.6461C107.043 80.8973 106.073 88.5327 105.722 89.0601C105.371 89.5875 109.783 90.956 111.889 90.6044C111.889 90.6044 114.487 72.4658 114.312 71.4111C114.312 71.4111 130.948 79.5811 134.107 78.8779C137.266 78.1747 138.013 75.6854 138.539 74.279C139.066 72.8726 138.319 61.7041 138.319 61.7041L127.789 58.4852L126.205 62.1453Z" fill="#2F2E41"/>
<path d="M126.502 42.2768L125.874 41.5222C125.874 41.5222 118.843 25.676 121.605 21.4C124.368 17.124 136.421 16.4952 136.798 16.7467C137.175 16.9982 135.898 20.2639 136.777 21.7731C136.777 21.7731 127.44 23.8008 126.812 24.0523C126.184 24.3038 131.65 33.5991 131.65 33.5991L131.022 39.2585L126.502 42.2768Z" fill="#CCCCCC"/>
<path d="M138.807 34.4793C138.807 34.4793 132.278 35.2339 132.027 35.2339C131.776 35.2339 131.65 33.599 131.65 33.599L125.874 41.5221C125.874 41.5221 123.029 64.5081 123.782 64.1308C124.536 63.7535 138.43 65.9203 138.556 64.9142C138.681 63.9081 138.43 58.8775 138.807 58.626C139.184 58.3745 145.336 42.7798 145.336 42.7798C145.336 42.7798 144.708 39.5099 142.574 38.378C140.439 37.2461 138.807 34.4793 138.807 34.4793Z" fill="#CCCCCC"/>
<path d="M143.327 40.6418L145.336 42.7798C145.336 42.7798 148.321 67.3473 146.689 68.1019C145.056 68.8565 141.843 68.7637 141.843 68.7637L138.681 57.1169L143.327 40.6418Z" fill="#CCCCCC"/>
<path d="M132.533 32.9235C135.725 32.9235 138.312 30.3318 138.312 27.1348C138.312 23.9378 135.725 21.3462 132.533 21.3462C129.341 21.3462 126.754 23.9378 126.754 27.1348C126.754 30.3318 129.341 32.9235 132.533 32.9235Z" fill="#A0616A"/>
<path d="M131.177 28.0383C131.099 26.8371 129.586 26.796 128.384 26.7846C127.183 26.7732 125.746 26.8162 125.066 25.8237C124.617 25.1679 124.703 24.2573 125.074 23.5541C125.445 22.8509 126.056 22.3101 126.656 21.7898C128.207 20.4465 129.806 19.1139 131.668 18.2541C133.53 17.3943 135.711 17.0469 137.643 17.7371C140.015 18.5849 143.221 22.9493 143.498 25.4567C143.775 27.9642 142.775 30.5204 141.088 32.3941C139.402 34.2679 135.542 33.5119 133.113 34.1784C134.59 32.0849 133.616 28.2809 131.25 27.3032L131.177 28.0383Z" fill="#2F2E41"/>
<path d="M79.6705 102.915C87.3326 102.915 93.5441 96.6932 93.5441 89.0185C93.5441 81.3438 87.3326 75.1222 79.6705 75.1222C72.0083 75.1222 65.7969 81.3438 65.7969 89.0185C65.7969 96.6932 72.0083 102.915 79.6705 102.915Z" fill="#009688"/>
<path d="M70.4054 74.1348C68.4826 74.1349 66.601 73.5768 64.9883 72.528C63.3756 71.4792 62.101 69.9847 61.3187 68.2254L39.304 18.5671C38.5747 16.9222 38.189 15.1452 38.1706 13.3455C38.1522 11.5458 38.5014 9.76131 39.1969 8.10175C39.8923 6.44219 40.9193 4.94262 42.2146 3.69522C43.5099 2.44781 45.0462 1.47893 46.7291 0.848123C48.412 0.217314 50.206 -0.0620948 52.0006 0.027074C53.7953 0.116243 55.5528 0.572104 57.1651 1.36664C58.7774 2.16117 60.2105 3.27759 61.3762 4.64727C62.5419 6.01695 63.4156 7.61095 63.9437 9.3313L79.8851 61.2664C80.3415 62.7529 80.4434 64.326 80.1827 65.8592C79.9221 67.3924 79.306 68.843 78.3841 70.0944C77.4622 71.3459 76.2602 72.3633 74.8745 73.065C73.4888 73.7667 71.9581 74.1331 70.4054 74.1348H70.4054Z" fill="#009688"/>
</g>
<defs>
<clipPath id="clip0">
<rect width="174" height="113" fill="white"/>
</clipPath>
</defs>
</svg>
