<svg width="140" height="107" viewBox="0 0 140 107" fill="none" xmlns="http://www.w3.org/2000/svg">
<g clip-path="url(#clip0)">
<path opacity="0.1" d="M12.1562 49.4544C10.219 50.0858 8.41102 51.6138 7.92286 53.7332C7.36883 56.1682 8.64477 58.629 8.82687 61.1259C9.42222 69.3213 -1.39227 75.1035 0.149707 83.1572C0.76314 86.3537 3.24011 88.7101 5.68222 90.6491C9.5914 93.7554 13.928 96.4984 18.7257 97.274C26.0146 98.4503 33.6315 94.9897 40.7176 97.1774C46.4322 98.9411 50.805 104.113 56.4809 106.021C60.802 107.474 65.455 106.901 69.948 106.313C72.3642 105.998 74.9032 105.632 76.8571 104.066C80.4951 101.152 80.7147 95.3981 83.1477 91.274C86.9019 84.9081 95.1335 83.6648 102.036 84.9017C108.939 86.1385 115.638 89.1881 122.631 88.9304C124.125 88.8776 125.658 88.6573 126.96 87.8675C128.544 86.9064 129.616 85.2147 130.563 83.5398C136.462 73.104 139.749 60.9648 139.983 48.7445C140.023 46.6329 139.954 44.4298 139.033 42.5603C137.871 40.2013 135.546 38.7931 133.222 37.8423C127.658 35.5721 121.512 35.205 116.059 32.6282C110.799 30.1455 106.537 25.7895 101.957 22.0635C92.8748 14.6617 82.1985 9.53913 71.025 7.2136C68.3943 6.66604 65.6643 6.27437 63.0504 6.90697C60.0388 7.63619 57.443 9.66024 55.1094 11.8376C48.8988 17.6353 43.9229 24.7832 38.2019 31.135C34.2822 35.4837 29.9824 39.4758 25.3534 43.0641C23.2315 44.7093 20.9844 46.6625 18.625 47.8788C16.467 48.9906 14.4382 48.711 12.1562 49.4544Z" fill="#009688"/>
<path d="M131.022 53.6288C128.181 53.0362 122.802 51.9243 116.715 50.6926C107.702 48.8696 105.35 55.7701 105.35 55.7701C105.35 59.2848 93.5979 73.8642 93.5979 73.8642L90.093 66.0308C90.6316 66.1137 91.182 66.0768 91.7047 65.9226C93.7116 65.3248 94.7034 63.0662 95.025 61.0035C95.5049 57.8968 95.0664 54.7179 93.7632 51.856C93.1653 50.5496 92.3904 49.3205 91.91 47.9677C89.8838 42.2911 93.3939 35.7204 91.2708 30.0657C90.3939 27.7324 88.6453 25.8398 87.4365 23.6598C84.7245 18.7575 84.8407 12.6248 81.8833 7.86299C79.1093 3.39875 73.6427 0.752418 68.4059 1.3425C65.3181 1.69036 63.111 2.79064 60.2337 1.47133C57.8045 0.360751 54.8884 -0.881248 52.3869 0.868373C50.2535 2.36032 49.8906 5.29911 48.7257 7.62206C46.6801 11.7024 41.8268 14.3654 41.256 18.8915C41.1153 20.0073 41.256 21.1642 40.9293 22.2413C39.9969 25.2858 35.9366 26.1851 34.2732 28.9022C32.6447 31.5615 34.29 35.5825 37.3197 36.3491C38.6112 36.6763 40.0008 36.4779 41.2909 36.8245C42.501 37.1466 43.6749 38.2752 43.4657 39.4541L40.7821 39.9411L33.0606 40.7966L31.866 40.8713C31.866 40.8713 31.866 40.8919 31.866 40.9293L31.8014 40.937L31.8647 40.9885C31.8647 41.08 31.8647 41.223 31.8647 41.4111C29.6912 42.2602 26.1695 44.5264 24.8393 50.471C24.5346 51.8278 23.9188 53.0957 23.0403 54.1751C21.0606 56.6102 17.7751 61.3656 17.9585 65.9303C18.2168 72.4392 18.2168 75.043 26.841 73.22C29.0197 72.76 31.3895 71.8169 33.7153 70.6651C33.8509 73.3784 34.2035 76.0389 34.9396 78.0359C37.2913 84.4147 32.3271 106.936 32.3271 106.936H80.269C80.269 106.936 76.2191 93.6575 72.3009 86.8884C69.5256 82.093 70.551 79.1929 71.3852 77.9084C72.1087 76.8167 72.6491 75.6148 72.9853 74.3499C73.1274 73.7946 73.2656 73.1646 73.3844 72.4663C74.2664 73.1865 75.2079 73.8332 76.2733 74.2197C77.26 74.5766 78.3822 74.6746 79.3805 74.3988C81.4236 76.8906 83.7055 79.6232 86.1476 82.4628C95.5532 93.3973 98.1657 86.6281 98.1657 86.6281C98.1657 86.6281 107.702 68.5341 109.014 63.0662C110.326 57.5984 113.194 57.8586 113.194 57.8586C121.056 59.8414 128.025 56.9632 131.263 55.2316C131.42 55.1483 131.548 55.0183 131.628 54.8596C131.708 54.7009 131.737 54.5213 131.711 54.3455C131.684 54.1697 131.604 54.0064 131.481 53.878C131.357 53.7497 131.197 53.6626 131.022 53.6288ZM34.0201 56.9001C34.6761 56.1542 35.2397 55.3323 35.699 54.4521H35.7235C35.4854 55.3621 35.1785 56.2528 34.8053 57.1165C34.0731 57.2569 33.6314 57.3304 33.6314 57.3304L34.0201 56.9001Z" fill="url(#paint0_linear)"/>
<path d="M52.0448 2.02665C49.9359 3.50314 49.5768 6.40715 48.4287 8.71077C46.4064 12.7486 41.6087 15.3859 41.0443 19.8643C40.9048 20.9684 41.0443 22.1138 40.7215 23.178C39.8007 26.1915 35.7856 27.0818 34.1351 29.7706C32.5247 32.4015 34.1519 36.3813 37.1468 37.1402C38.4266 37.4648 39.7968 37.269 41.0727 37.6104C42.3487 37.9519 43.5846 39.199 43.1623 40.4449C42.8484 41.3725 41.7417 41.9007 41.5402 42.8593C41.3646 43.6839 41.9277 44.4698 42.4726 45.1114C43.1649 45.9231 43.9036 46.7219 44.8295 47.254C47.3762 48.7176 50.5532 47.8389 53.4899 47.7423C57.0428 47.637 60.5257 48.7416 63.3655 50.8743C64.1778 51.4889 64.9423 52.1988 65.446 53.0839C67.0874 55.9673 65.5351 59.5863 65.8838 62.8833C66.279 66.6299 69.084 69.637 71.9161 72.1274C73.0474 73.1221 74.2407 74.1025 75.6613 74.6166C77.0818 75.1306 78.7801 75.1023 79.9747 74.185C81.2299 73.2213 81.6664 71.5142 81.6742 69.9333C81.6819 68.3525 81.3487 66.7794 81.4288 65.2011C81.4676 64.4281 81.7504 63.5095 82.5059 63.3574C82.8843 63.2814 83.2678 63.4347 83.6126 63.6074C86.0224 64.8159 88.3341 67.1826 90.917 66.4147C92.9019 65.8234 93.8873 63.588 94.1998 61.546C94.6735 58.4726 94.24 55.3281 92.9523 52.4964C92.3608 51.208 91.595 49.9879 91.1197 48.648C89.1232 43.0191 92.5907 36.514 90.4934 30.9212C89.6268 28.6124 87.8976 26.7391 86.703 24.581C84.0168 19.729 84.1369 13.6594 81.2118 8.94654C78.4701 4.5274 73.0642 1.90941 67.8881 2.49305C64.8351 2.83704 62.6539 3.92701 59.8089 2.62188C57.4068 1.52547 54.5243 0.289917 52.0448 2.02665Z" fill="#40243E"/>
<path d="M72.514 42.8386C72.514 42.8386 80.9083 40.2618 84.2661 55.2071L92.7895 74.2751C92.7895 74.2751 104.412 59.8452 104.412 56.3666C104.412 56.3666 106.737 49.5382 115.648 51.3419C121.667 52.5607 126.979 53.661 129.793 54.2472C129.964 54.2827 130.12 54.3699 130.24 54.4968C130.36 54.6238 130.438 54.7844 130.463 54.957C130.488 55.1295 130.46 55.3056 130.381 55.4615C130.303 55.6173 130.178 55.7453 130.024 55.8281C126.824 57.5416 119.934 60.3902 112.161 58.428C112.161 58.428 109.32 58.1703 108.028 63.5815C106.737 68.9927 97.3096 86.9012 97.3096 86.9012C97.3096 86.9012 94.7267 93.6008 85.4283 82.7784C76.13 71.956 69.1562 62.6797 69.1562 62.6797L72.514 42.8386Z" fill="#FFBCC8"/>
<path d="M72.514 44.6423L71.4008 48.3001L70.3005 51.9178L68.1231 59.0722L57.7916 61.0048L54.4249 58.8622L50.3013 56.2378L46.746 53.7898L41.5196 50.1824L37.2578 41.2925C37.2578 41.2925 38.433 41.0851 42.0968 40.4203L47.2019 39.4888C50.7275 38.8446 52.0603 36.2266 52.4671 33.5623C52.9539 30.3722 52.1093 27.1204 52.1093 27.1204H65.1528C65.1528 27.1204 66.6122 29.3106 66.3836 33.0933C66.3118 34.2126 66.1156 35.3206 65.7986 36.3967C64.6518 40.3572 67.2411 41.6791 68.9974 42.1081C69.4724 42.2283 69.9583 42.3004 70.4477 42.3233L72.514 44.6423Z" fill="#FFBCC8"/>
<path opacity="0.1" d="M66.3797 33.0933C64.3808 34.5687 61.98 35.4037 59.495 35.4879C57.0099 35.5721 54.5578 34.9015 52.4632 33.5649C52.9501 30.3749 52.1055 27.123 52.1055 27.123H65.149C65.149 27.123 66.6122 29.3042 66.3797 33.0933Z" fill="black"/>
<path d="M59.0831 35.1084C65.8589 35.1084 71.3517 29.6286 71.3517 22.8688C71.3517 16.1091 65.8589 10.6292 59.0831 10.6292C52.3073 10.6292 46.8145 16.1091 46.8145 22.8688C46.8145 29.6286 52.3073 35.1084 59.0831 35.1084Z" fill="#FFBCC8"/>
<path opacity="0.1" d="M72.514 44.6424L71.4008 48.3001L70.3005 51.9179L68.1231 59.0722L57.7916 61.0048L54.4249 58.8622L50.3013 56.2378L46.746 53.7899L41.5196 50.1824L37.2578 41.2926C37.2578 41.2926 38.433 41.0852 42.0968 40.4203C44.6797 47.5902 47.947 50.2597 50.8954 51.1255C52.6582 51.6409 54.3061 51.512 55.6195 51.3188C57.3076 51.0493 59.0338 51.1371 60.6858 51.5764C64.6505 52.6767 66.7374 50.5702 67.8339 47.8968C68.6449 45.9192 68.9135 43.6297 68.9962 42.0991C69.4711 42.2193 69.957 42.2914 70.4464 42.3143L72.514 44.6424Z" fill="black"/>
<path d="M32.2213 107C32.2213 107 37.1288 84.7111 34.8042 78.398C34.1391 76.5943 33.7904 74.2339 33.6341 71.7912C33.2467 65.701 34.0293 59.0723 34.0293 59.0723C34.1404 58.8571 34.245 58.6433 34.3457 58.4281C34.604 57.8784 34.8313 57.3407 35.0276 56.8151C37.7951 49.3862 34.3522 44.4402 32.6062 42.5488C32.3261 42.2385 32.024 41.9487 31.7021 41.6817L41.5816 40.5866C44.1787 48.0219 47.5093 50.7648 50.5055 51.6435C52.2683 52.1588 53.9161 52.03 55.2295 51.8367C56.9177 51.5672 58.6439 51.655 60.2958 52.0944C64.2605 53.1947 66.3475 51.0882 67.4439 48.4148C68.8051 45.0959 68.6372 40.9048 68.6372 40.9048L74.3195 42.5797C74.3195 42.5797 73.8185 45.6847 73.3652 49.765C73.258 50.7223 73.1534 51.7324 73.0591 52.7695C72.6717 57.0959 72.4418 61.8797 72.899 65.1264C73.3635 68.3348 73.1981 71.6026 72.4121 74.748C72.0803 76 71.5464 77.1897 70.8314 78.2704C70.0061 79.5408 68.9924 82.4126 71.7354 87.1603C75.6097 93.8598 79.6131 107.001 79.6131 107.001L32.2213 107Z" fill="#FF808E"/>
<path d="M74.2574 42.6454C74.2574 42.6454 78.9492 49.9892 72.793 56.3022C66.6367 62.6153 69.0917 53.7255 69.0917 53.7255L70.6414 43.4184L74.2574 42.6454Z" fill="#FF808E"/>
<path opacity="0.1" d="M32.6064 42.5487C32.9566 42.4382 33.3157 42.358 33.6796 42.3091C35.3585 43.1079 36.2883 45.3252 36.7933 47.6404C37.1303 49.2107 37.1477 50.8325 36.8445 52.4096C36.5412 53.9867 35.9235 55.487 35.0279 56.8214C37.7954 49.3862 34.3525 44.4401 32.6064 42.5487Z" fill="black"/>
<path opacity="0.1" d="M73.0616 52.7708C70.3044 52.9525 66.7026 52.6304 66.7026 52.6304C67.1881 54.8464 66.186 56.578 65.1528 57.7066C64.7578 58.1431 64.2591 58.4737 63.7027 58.668C63.1463 58.8622 62.5499 58.914 61.9682 58.8185C56.0095 57.7878 46.9488 63.199 46.9488 63.199C46.9488 63.199 40.4683 68.4208 33.634 71.795C33.2466 65.7049 34.0292 59.0761 34.0292 59.0761C34.1403 58.861 34.2449 58.6471 34.3456 58.432C37.1067 57.9166 47.1386 55.881 49.139 52.8919C49.4361 52.4474 49.9139 52.0313 50.5079 51.6448C52.2165 50.5419 54.9505 49.6774 57.5501 49.0461C60.7857 48.2543 64.1365 48.0423 67.4464 48.42C68.8674 48.5824 70.2733 48.8559 71.6513 49.2381C72.2531 49.4043 72.8343 49.5834 73.3676 49.7702C74.8296 50.2855 75.9376 50.8614 76.13 51.4747C76.3896 52.2993 74.9161 52.6497 73.0616 52.7708Z" fill="black"/>
<path opacity="0.1" d="M70.3006 51.9179C68.3131 51.8844 66.5735 51.7285 66.5735 51.7285C67.0591 53.9445 66.0569 55.6761 65.0238 56.8047C64.6287 57.2412 64.1301 57.5718 63.5737 57.766C63.0172 57.9603 62.4208 58.0121 61.8391 57.9166C59.5933 57.53 56.9058 58.057 54.4301 58.8622L50.3014 56.2378L46.7461 53.7899C47.7792 53.2372 48.5786 52.6303 49.01 51.9861C50.1568 50.27 53.9174 48.9932 57.4211 48.1403C62.0191 47.0093 66.8301 47.0643 71.4009 48.3001L71.5223 48.3323C73.7681 48.9572 75.7389 49.7315 76.001 50.5689C76.3781 51.7736 73.0953 51.9668 70.3006 51.9179Z" fill="black"/>
<path d="M33.5502 41.6624C33.5502 41.6624 26.7947 42.3478 24.8253 51.0843C24.5208 52.4424 23.9066 53.7121 23.0302 54.7948C21.0724 57.208 17.8348 61.9067 18.0156 66.4173C18.2738 72.8592 18.2738 75.436 26.7973 73.6322C35.3208 71.8285 46.8146 62.5522 46.8146 62.5522C46.8146 62.5522 55.8753 57.15 61.834 58.1717C62.4157 58.2669 63.012 58.2151 63.5684 58.0208C64.1248 57.8266 64.6235 57.4961 65.0187 57.0598C66.0518 55.9312 67.0604 54.1996 66.5684 51.9836C66.5684 51.9836 76.6416 52.8854 75.9959 50.824C75.7376 49.9866 73.763 49.2123 71.5172 48.5887C66.9108 47.3217 62.0555 47.2552 57.416 48.3954C53.9059 49.2496 50.1516 50.5264 49.0049 52.2412C46.6803 55.7199 33.5076 57.9101 33.5076 57.9101L33.8951 57.4759C35.1461 56.0664 36.0483 54.3838 36.5292 52.5633C37.01 50.7428 37.0562 48.8352 36.6639 46.9937C36.1602 44.6785 35.2343 42.4611 33.5502 41.6624Z" fill="#FFBCC8"/>
<path d="M31.7695 41.6147C31.7695 41.6147 31.3821 57.2041 37.1935 54.8851C43.005 52.566 38.485 41.6147 38.485 41.6147L35.9021 41.3571L31.7695 41.6147Z" fill="#FF808E"/>
<path opacity="0.1" d="M49.1612 23.0788C52.9927 22.6545 56.7714 21.8442 60.4393 20.6605C61.382 20.3565 62.4062 19.9519 62.8465 19.0681C62.9602 18.84 63.0454 18.5695 63.2688 18.4445C63.4587 18.3376 63.6937 18.3711 63.9068 18.42C65.1659 18.7176 66.2469 19.5048 67.4466 19.988C68.6464 20.4711 70.1741 20.5845 71.0962 19.6775C72.1849 18.6055 71.8246 16.7632 71.1078 15.4168C68.4462 10.4076 62.2111 8.1207 56.5392 8.53556C55.7423 8.59354 54.9326 8.70047 54.2146 9.05091C52.6958 9.77885 51.8642 11.3983 51.0415 12.8658C49.4414 15.7118 40.9812 23.982 49.1612 23.0788Z" fill="black"/>
<path d="M49.1612 22.6923C52.9927 22.268 56.7714 21.4578 60.4393 20.274C61.382 19.97 62.4062 19.5654 62.8465 18.6816C62.9602 18.4536 63.0454 18.183 63.2688 18.058C63.4587 17.9511 63.6937 17.9846 63.9068 18.0335C65.1659 18.3312 66.2469 19.1184 67.4466 19.6015C68.6464 20.0846 70.1741 20.198 71.0962 19.291C72.1849 18.2191 71.8246 16.3767 71.1078 15.0303C68.4462 10.0211 62.2111 7.73423 56.5392 8.14909C55.7423 8.20706 54.9326 8.314 54.2146 8.66444C52.6958 9.39237 51.8642 11.0119 51.0415 12.4793C49.4414 15.3254 40.9812 23.5955 49.1612 22.6923Z" fill="#40243E"/>
<path d="M132.403 36.3323H106.187C105.87 36.3323 105.567 36.4579 105.343 36.6814C105.119 36.9049 104.993 37.208 104.993 37.5241V52.8558C104.993 53.1719 105.119 53.475 105.343 53.6985C105.567 53.922 105.87 54.0476 106.187 54.0476H132.403C132.72 54.0476 133.024 53.922 133.248 53.6985C133.472 53.475 133.598 53.1719 133.598 52.8558V37.5241C133.598 37.208 133.472 36.9049 133.248 36.6814C133.024 36.4579 132.72 36.3323 132.403 36.3323Z" fill="url(#paint1_linear)"/>
<path d="M131.724 36.5411H106.862C106.013 36.5411 105.324 37.2281 105.324 38.0755V52.3057C105.324 53.1532 106.013 53.8402 106.862 53.8402H131.724C132.573 53.8402 133.262 53.1532 133.262 52.3057V38.0755C133.262 37.2281 132.573 36.5411 131.724 36.5411Z" fill="#009688"/>
<path d="M133.262 39.5687H105.324V42.7407H133.262V39.5687Z" fill="#009688"/>
<path opacity="0.3" d="M133.262 39.5687H105.324V42.7407H133.262V39.5687Z" fill="black"/>
<path d="M130.612 45.0945H107.973V46.6329H130.612V45.0945Z" fill="#D6D6E3"/>
<path d="M109.852 52.687C111.076 52.687 112.068 51.6972 112.068 50.4762C112.068 49.2552 111.076 48.2653 109.852 48.2653C108.628 48.2653 107.636 49.2552 107.636 50.4762C107.636 51.6972 108.628 52.687 109.852 52.687Z" fill="#009688"/>
<path opacity="0.3" d="M109.852 52.687C111.076 52.687 112.068 51.6972 112.068 50.4762C112.068 49.2552 111.076 48.2653 109.852 48.2653C108.628 48.2653 107.636 49.2552 107.636 50.4762C107.636 51.6972 108.628 52.687 109.852 52.687Z" fill="black"/>
<path opacity="0.05" d="M32.6734 57.9772C32.6734 57.9772 30.2197 59.2772 29.8129 60.8657C29.4061 62.4543 28.9282 62.7442 28.9282 62.7442" fill="black"/>
<path opacity="0.05" d="M92.8545 74.2107C92.8545 74.2107 91.6922 78.2047 92.8545 78.72V74.2107Z" fill="black"/>
<path opacity="0.05" d="M34.8687 78.72C34.8687 78.72 44.9419 80.9103 52.4322 76.4009H55.6608C55.6608 76.4009 65.3465 81.2968 69.9957 79.8796" fill="black"/>
<path d="M106.376 70.973L104.422 75.4376L113.143 79.2349L115.096 74.7703L106.376 70.973Z" fill="#8ED16F"/>
<path d="M111.569 75.9607C111.79 75.4546 111.148 74.6865 110.134 74.245C109.12 73.8036 108.118 73.8559 107.897 74.362C107.676 74.868 108.318 75.6361 109.332 76.0776C110.346 76.5191 111.347 76.4667 111.569 75.9607Z" fill="#8ED16F"/>
<path opacity="0.1" d="M111.569 75.9607C111.79 75.4546 111.148 74.6865 110.134 74.245C109.12 73.8036 108.118 73.8559 107.897 74.362C107.676 74.868 108.318 75.6361 109.332 76.0776C110.346 76.5191 111.347 76.4667 111.569 75.9607Z" fill="black"/>
<path d="M119.165 55.0668L117.211 59.5314L125.932 63.3288L127.886 58.8641L119.165 55.0668Z" fill="#8ED16F"/>
<path d="M124.358 60.0544C124.579 59.5483 123.937 58.7802 122.923 58.3387C121.909 57.8972 120.907 57.9496 120.686 58.4556C120.465 58.9617 121.107 59.7298 122.121 60.1713C123.135 60.6128 124.136 60.5604 124.358 60.0544Z" fill="#8ED16F"/>
<path opacity="0.1" d="M124.358 60.0544C124.579 59.5483 123.937 58.7802 122.923 58.3387C121.909 57.8972 120.907 57.9496 120.686 58.4556C120.465 58.9617 121.107 59.7298 122.121 60.1713C123.135 60.6128 124.136 60.5604 124.358 60.0544Z" fill="black"/>
<path d="M134.655 71.2252L129.863 72.1622L131.694 81.4777L136.485 80.5407L134.655 71.2252Z" fill="#8ED16F"/>
<path d="M133.499 78.3241C134.042 78.2179 134.31 77.2538 134.097 76.1708C133.885 75.0878 133.272 74.296 132.729 74.4022C132.185 74.5084 131.918 75.4724 132.13 76.5555C132.343 77.6385 132.956 78.4303 133.499 78.3241Z" fill="#8ED16F"/>
<path opacity="0.1" d="M133.499 78.3241C134.042 78.2179 134.31 77.2538 134.097 76.1708C133.885 75.0878 133.272 74.296 132.729 74.4022C132.185 74.5084 131.918 75.4724 132.13 76.5555C132.343 77.6385 132.956 78.4303 133.499 78.3241Z" fill="black"/>
<path d="M117.416 92.8276L115.463 97.2922L124.184 101.09L126.137 96.625L117.416 92.8276Z" fill="#8ED16F"/>
<path d="M122.611 97.8156C122.833 97.3096 122.19 96.5414 121.177 96.0999C120.163 95.6585 119.161 95.7108 118.94 96.2169C118.719 96.7229 119.361 97.4911 120.375 97.9325C121.389 98.374 122.39 98.3217 122.611 97.8156Z" fill="#8ED16F"/>
<path opacity="0.1" d="M122.611 97.8156C122.833 97.3096 122.19 96.5414 121.177 96.0999C120.163 95.6585 119.161 95.7108 118.94 96.2169C118.719 96.7229 119.361 97.4911 120.375 97.9325C121.389 98.374 122.39 98.3217 122.611 97.8156Z" fill="black"/>
<path d="M95.8683 88.6084L93.915 93.073L102.636 96.8704L104.589 92.4058L95.8683 88.6084Z" fill="#8ED16F"/>
<path d="M101.063 93.5964C101.284 93.0903 100.642 92.3222 99.6278 91.8807C98.6139 91.4392 97.6125 91.4916 97.3911 91.9976C97.1697 92.5037 97.8121 93.2718 98.826 93.7133C99.8399 94.1548 100.841 94.1024 101.063 93.5964Z" fill="#8ED16F"/>
<path opacity="0.1" d="M101.063 93.5964C101.284 93.0903 100.642 92.3222 99.6278 91.8807C98.6139 91.4392 97.6125 91.4916 97.3911 91.9976C97.1697 92.5037 97.8121 93.2718 98.826 93.7133C99.8399 94.1548 100.841 94.1024 101.063 93.5964Z" fill="black"/>
</g>
<defs>
<linearGradient id="paint0_linear" x1="74.8295" y1="106.936" x2="74.8295" y2="1.89191e-06" gradientUnits="userSpaceOnUse">
<stop stop-color="#808080" stop-opacity="0.25"/>
<stop offset="0.54" stop-color="#808080" stop-opacity="0.12"/>
<stop offset="1" stop-color="#808080" stop-opacity="0.1"/>
</linearGradient>
<linearGradient id="paint1_linear" x1="28187.4" y1="8083.65" x2="28187.4" y2="5647.63" gradientUnits="userSpaceOnUse">
<stop stop-color="#808080" stop-opacity="0.25"/>
<stop offset="0.54" stop-color="#808080" stop-opacity="0.12"/>
<stop offset="1" stop-color="#808080" stop-opacity="0.1"/>
</linearGradient>
<clipPath id="clip0">
<rect width="139.992" height="107" fill="white"/>
</clipPath>
</defs>
</svg>
