<svg width="204" height="150" viewBox="0 0 204 150" fill="none" xmlns="http://www.w3.org/2000/svg">
<g clip-path="url(#clip0)">
<path opacity="0.1" d="M2.18652 71.9155C5.39438 84.3254 12.1795 95.053 22.9019 100.253C45.1925 111.06 95.4637 105.487 132.983 99.0886C152.391 95.7795 169.449 86.6473 181.841 73.7956L2.18652 71.9155Z" fill="#009688"/>
<path opacity="0.1" d="M198.935 13.5005H178.349C177.372 13.5005 176.571 12.7759 176.571 11.8904C176.571 11.0049 177.372 10.2783 178.349 10.2783H181.91C180.931 10.2783 180.131 9.55368 180.131 8.66634C180.131 7.77899 180.931 7.05618 181.91 7.05618H179.369C178.39 7.05618 177.588 6.33151 177.588 5.44417C177.588 4.55682 178.39 3.83401 179.369 3.83401H190.113C187.729 2.8302 184.942 2.11663 181.731 1.74135C152.432 -1.66568 141.971 0.587805 138.282 2.90414C133.682 5.82729 128.573 7.85559 123.223 8.88263C105.147 12.2601 71.3413 16.3234 40.7013 7.58858C25.4728 3.23875 14.1538 10.5797 7.37061 22.8509H202.511C202.256 19.2849 201.493 15.9906 200.093 13.1086C199.762 13.3648 199.354 13.5028 198.935 13.5005V13.5005Z" fill="#009688"/>
<path opacity="0.1" d="M0.441319 46.0125C-0.349388 53.2298 -0.0806033 60.5242 1.23913 67.6637L181.98 73.6514C186.955 68.4861 191.182 62.6479 194.538 56.3075L0.441319 46.0125ZM71.9265 61.4578H68.3678C69.3466 61.4578 70.1481 62.1843 70.1481 63.0698C70.1481 63.9553 69.3466 64.68 68.3678 64.68H47.7817C46.8048 64.68 46.0033 63.9553 46.0033 63.0698C46.0033 62.1843 46.8048 61.4578 47.7817 61.4578H51.3423C50.3635 61.4578 49.5638 60.7331 49.5638 59.8476C49.5638 58.9621 50.3635 58.2356 51.3423 58.2356H48.7993C47.8205 58.2356 47.019 57.511 47.019 56.6255C47.019 55.74 47.8205 55.0135 48.7993 55.0135H69.3854C70.3641 55.0135 71.1638 55.7381 71.1638 56.6255C71.1638 57.5128 70.3641 58.2356 69.3854 58.2356H71.9265C72.9053 58.2356 73.705 58.9603 73.705 59.8476C73.705 60.735 72.9053 61.4578 71.9265 61.4578Z" fill="#009688"/>
<path opacity="0.1" d="M202.518 22.9619L5.1932 27.3062C2.79238 32.8946 1.20046 39.2132 0.467285 45.7611H199.061C200.353 41.9302 201.312 37.9946 201.927 33.9983C202.52 30.1512 202.756 26.43 202.518 22.9619ZM40.5314 37.2056H36.9726C37.9514 37.2056 38.7529 37.9321 38.7529 38.8176C38.7529 39.7031 37.9514 40.4297 36.9726 40.4297H16.3865C15.4096 40.4297 14.6081 39.7031 14.6081 38.8176C14.6081 37.9321 15.4096 37.2056 16.3865 37.2056H19.9471C18.9683 37.2056 18.1687 36.481 18.1687 35.5955C18.1687 34.71 18.9683 33.9835 19.9471 33.9835H17.4041C16.4253 33.9835 15.6238 33.2588 15.6238 32.3733C15.6238 31.4878 16.4253 30.7613 17.4041 30.7613H37.9902C38.969 30.7613 39.7686 31.486 39.7686 32.3733C39.7686 33.2607 38.969 33.9835 37.9902 33.9835H40.5314C41.5101 33.9835 42.3098 34.71 42.3098 35.5955C42.3098 36.481 41.5101 37.2056 40.5314 37.2056Z" fill="#009688"/>
<path opacity="0.1" d="M100.664 144.393C146.254 144.393 183.212 140.99 183.212 136.792C183.212 132.593 146.254 129.19 100.664 129.19C55.0747 129.19 18.1169 132.593 18.1169 136.792C18.1169 140.99 55.0747 144.393 100.664 144.393Z" fill="#009688"/>
<path d="M184.796 74.0044C184.795 73.9915 184.795 73.9785 184.796 73.9656C184.796 73.9453 184.796 73.9268 184.796 73.9083C184.759 73.6966 184.679 73.4946 184.562 73.3149C184.139 72.6378 183.55 72.0802 182.852 71.6955C181.633 71.0263 179.958 70.7397 179.47 69.4623C179.321 69.0667 179.317 68.636 179.243 68.2219C179.114 67.5767 178.817 66.9769 178.383 66.4827C177.949 65.9885 177.393 65.6173 176.77 65.4064C176.19 65.2123 175.564 65.1587 175.001 64.9184C173.741 64.3823 173.077 63.0605 172.513 61.8385C171.784 60.261 171.056 58.6829 170.327 57.1042C169.773 57.3833 169.056 57.2521 168.537 56.9027C168.037 56.53 167.639 56.0373 167.379 55.47C166.628 54.0096 166.304 52.3551 165.422 50.9649C164.539 49.5747 162.775 48.4766 161.217 49.0811C160.912 49.2333 160.598 49.3637 160.275 49.4712C158.94 49.7836 157.462 48.2566 156.319 48.9979C156.129 49.1198 155.974 49.2894 155.87 49.4897C155.869 49.4774 155.869 49.465 155.87 49.4527C155.721 49.7534 155.638 50.0823 155.626 50.4177V50.4177C155.626 50.4861 155.626 50.5526 155.626 50.6173C155.626 50.6284 155.626 50.6395 155.626 50.6506C155.626 50.9168 155.643 51.1867 155.647 51.4566C155.651 51.6833 155.634 51.9098 155.595 52.1332V52.1147C155.573 52.2404 155.541 52.3641 155.499 52.4845C155.202 53.2831 154.378 53.8062 153.992 54.5568V54.5198C153.948 54.6014 153.911 54.6861 153.879 54.7731C153.811 54.9698 153.775 55.1766 153.774 55.385C153.741 56.7955 155.235 58.1228 155.408 59.6368C155.532 60.709 155.778 61.0529 156.688 61.6592L156.888 61.7923C156.808 61.7923 156.727 61.8034 156.637 61.8053C156.601 61.8059 156.566 61.8096 156.531 61.8164C156.371 61.7721 156.202 61.764 156.038 61.7928C155.874 61.8216 155.718 61.8865 155.582 61.9827C154.884 62.5373 153.233 62.1103 152.5 61.9827C151.767 61.8552 149.255 62.199 148.904 63.5929C148.553 64.9868 147.951 67.8632 147.951 67.8632C147.951 67.8632 147.951 69.6878 147.728 70.028C147.719 70.0519 147.719 70.078 147.728 70.1019C147.728 70.614 147.746 73.692 147.251 74.4851C147.129 74.6699 147.139 75.0785 147.229 75.5813C146.708 76.2524 146.219 77.0362 146.306 77.5501C146.464 78.602 148.596 81.9092 151.65 80.1382C151.65 80.1382 153.388 76.9567 151.201 75.2652L151.296 74.8954C151.957 75.7088 152.446 76.293 152.446 76.293C152.446 76.293 152.472 76.3614 152.513 76.4779H152.446C152.732 77.2553 152.904 78.0695 152.96 78.8959C152.951 79.1989 152.896 79.4988 152.797 79.7851H152.854C152.838 79.8479 152.819 79.9108 152.797 79.97C152.69 80.2821 152.489 80.5538 152.223 80.7482C150.695 81.8315 148.947 89.5681 148.947 89.5681C148.947 89.5681 145.482 102.074 144.789 102.786C144.217 103.37 147.814 105.015 150.514 104.819C150.891 104.797 151.264 104.726 151.623 104.609C151.639 104.793 151.658 104.978 151.676 105.146C151.733 105.701 151.792 106.215 151.829 106.376C151.925 106.779 152.116 110.894 152.116 110.894C152.116 110.894 151.726 113.567 151.82 115.427C151.82 115.554 151.837 115.676 151.848 115.796L151.512 115.848C151.002 116.994 153.102 126.557 153.388 127.362C153.578 127.995 153.684 128.651 153.706 129.312C153.706 129.312 153.521 129.992 153.674 130.364C153.77 130.591 153.832 130.831 153.859 131.075C153.859 131.075 153.733 131.693 153.924 132.096C154.114 132.499 153.892 133.205 153.892 133.205C153.892 133.205 153.829 135.991 153.257 137.507C153.101 137.915 153.056 138.357 153.125 138.788C153.195 139.219 153.378 139.624 153.654 139.962C153.694 140.015 153.737 140.065 153.783 140.112C153.783 140.112 156.941 140.137 157.497 140.112H157.569C157.793 140.08 158.365 137.573 157.855 136.366C157.346 135.159 157.793 133.673 157.793 133.673V131.477C157.793 131.477 158.365 130.948 157.793 129.813C157.22 128.678 157.314 128.334 157.314 128.334C157.314 128.334 157.951 126.507 157.283 125.92C156.614 125.332 157.41 123.102 157.41 123.102L157.636 115.671C157.518 115.632 157.397 115.601 157.276 115.578C157.263 115.456 157.25 115.331 157.237 115.198C157.106 113.852 156.993 112.022 157.285 111.5C157.577 110.979 157.717 106.428 157.763 103.265L160.674 103.376C160.735 104.854 160.799 106.204 160.84 106.376C160.936 106.779 161.128 110.894 161.128 110.894C161.128 110.894 160.736 113.567 160.831 115.427C160.831 115.554 160.847 115.676 160.858 115.796L160.522 115.848C160.012 116.994 162.112 126.557 162.399 127.362C162.588 127.995 162.696 128.651 162.718 129.312C162.718 129.312 162.533 129.992 162.685 130.364C162.78 130.591 162.842 130.831 162.869 131.075C162.869 131.075 162.744 131.693 162.934 132.096C163.124 132.499 162.903 133.205 162.903 133.205C162.903 133.205 162.84 135.991 162.267 137.507C162.114 137.915 162.071 138.357 162.143 138.788C162.215 139.218 162.399 139.622 162.677 139.958C162.717 140.011 162.76 140.061 162.807 140.108C162.807 140.108 165.965 140.134 166.521 140.108H166.593C166.816 140.076 167.389 137.57 166.879 136.363C166.369 135.155 166.816 133.669 166.816 133.669V131.477C166.816 131.477 167.389 130.948 166.816 129.813C166.244 128.678 166.338 128.334 166.338 128.334C166.338 128.334 166.975 126.507 166.306 125.92C165.638 125.332 166.434 123.102 166.434 123.102L166.663 115.671C166.542 115.632 166.418 115.601 166.293 115.578C166.28 115.456 166.268 115.331 166.255 115.198C166.123 113.852 166.011 112.022 166.303 111.5C166.537 111.073 166.672 108.322 166.733 105.636C166.733 105.452 166.733 105.267 166.748 105.082C168.085 105.026 169.417 104.877 170.733 104.634C170.733 104.634 169.176 99.1236 169.653 98.2271C169.858 97.8407 169.562 95.7832 169.158 93.5667C169.722 94.0237 170.423 94.2776 171.149 94.2876C171.845 95.6279 173.963 98.7114 175.156 99.1865C176.556 99.7411 175.505 94.8237 174.838 94.112C174.523 93.7234 174.257 93.2967 174.048 92.842C174.067 92.8198 174.087 92.8013 174.105 92.781C174.124 92.7606 174.139 87.5494 173.819 87.6436C173.5 87.7379 173.119 86.8691 173.119 86.8691L172.133 78.2045L171.719 74.5775C172.065 74.8326 172.475 74.9953 172.827 75.2485C173.788 75.9529 174.102 77.1896 174.523 78.284C174.87 79.1843 175.357 80.0772 176.157 80.6429C176.957 81.2085 178.129 81.3583 178.927 80.7852C179.666 80.2472 179.884 79.2767 180.046 78.3912C181.387 78.8626 183.014 77.6018 182.841 76.2246C182.798 75.8845 182.673 75.5129 182.85 75.2153C183.204 74.6274 184.327 74.9694 184.697 74.3889C184.759 74.2885 184.791 74.1724 184.789 74.0543C184.794 74.0284 184.796 74.0173 184.796 74.0044ZM166.862 78.7702C166.842 79.1011 167.296 81.7594 167.666 83.8632C167.363 82.5525 166.755 81.1531 165.558 80.1936C165.558 80.1936 165.558 80.1271 165.544 80.0088H165.558C165.558 80.0088 165.509 79.4801 165.501 78.7277C165.503 78.0607 165.553 77.3948 165.649 76.7348V76.7182H165.625C165.625 76.6627 165.64 76.6054 165.649 76.55C165.722 75.9931 165.873 75.4492 166.098 74.9343C166.197 74.7325 166.311 74.5384 166.439 74.3538C166.637 76.1414 166.881 78.4356 166.862 78.7702V78.7702ZM167.856 84.9298C168.018 85.8375 168.135 86.4753 168.135 86.4753L169.115 93.2154V93.2468C168.587 90.4018 167.913 87.4033 167.913 87.4033C167.982 86.5791 167.963 85.75 167.856 84.9298V84.9298Z" fill="url(#paint0_linear)"/>
<path d="M155.837 60.0067C155.652 58.2986 153.805 56.8252 154.359 55.2003C154.66 54.3148 155.602 53.7731 155.92 52.8932C156.13 52.3127 156.036 51.6749 156.038 51.0575C156.04 50.44 156.184 49.7505 156.697 49.4085C157.805 48.669 159.231 50.1904 160.524 49.8799C160.836 49.7729 161.141 49.6431 161.434 49.4917C162.943 48.8909 164.65 49.9853 165.497 51.368C166.345 52.7508 166.663 54.3998 167.39 55.8528C167.639 56.4139 168.023 56.9039 168.509 57.2781C169.012 57.6257 169.699 57.7569 170.242 57.4796L172.356 62.1936C172.91 63.4082 173.546 64.7244 174.757 65.2587C175.3 65.4971 175.906 65.5507 176.467 65.7449C177.077 65.9603 177.62 66.3324 178.042 66.8239C178.463 67.3154 178.748 67.9091 178.868 68.5455C178.94 68.9596 178.942 69.3885 179.088 69.7823C179.559 71.0541 181.178 71.3388 182.358 72.0006C183.041 72.386 183.613 72.9404 184.021 73.6108C184.205 73.9306 184.364 74.3502 184.166 74.6645C183.81 75.2413 182.726 74.9011 182.382 75.4872C182.209 75.7829 182.331 76.1527 182.382 76.4928C182.55 77.8627 180.975 79.1179 179.679 78.6483C179.522 79.5301 179.309 80.497 178.597 81.0312C177.83 81.6043 176.694 81.4527 175.921 80.8907C175.147 80.3287 174.678 79.4395 174.342 78.5429C173.933 77.4523 173.629 76.2211 172.7 75.5204C172.364 75.269 171.961 75.1063 171.632 74.8531C170.894 74.2874 170.524 73.3538 170.26 72.4499C169.919 71.3222 169.647 70.1631 169.152 69.0983C168.657 68.0335 167.874 67.0426 166.801 66.5564C165.795 66.1035 164.635 66.1331 163.595 65.7652C161.806 65.133 160.481 63.6263 158.701 62.9164C158.132 62.677 157.593 62.3717 157.094 62.0069C156.199 61.4172 155.955 61.0752 155.837 60.0067Z" fill="#3F3D56"/>
<g opacity="0.1">
<path opacity="0.1" d="M156.003 52.5308C156.041 52.4585 156.075 52.3838 156.103 52.3071C156.312 51.7266 156.219 51.0889 156.221 50.4714C156.221 50.2655 156.24 50.06 156.278 49.8577C156.108 50.2229 156.025 50.623 156.036 51.026C156.035 51.5233 156.094 52.0446 156.003 52.5308Z" fill="black"/>
<path opacity="0.1" d="M178.77 80.4508C178.004 81.0221 176.868 80.8723 176.094 80.3085C175.321 79.7447 174.85 78.8592 174.523 77.9589C174.115 76.8682 173.812 75.637 172.881 74.9364C172.547 74.685 172.142 74.5204 171.815 74.269C171.077 73.7033 170.707 72.7698 170.441 71.875C170.1 70.7474 169.83 69.5883 169.333 68.5235C168.837 67.4586 168.057 66.4678 166.982 65.9816C165.978 65.5287 164.818 65.5583 163.778 65.1904C161.987 64.5581 160.663 63.0515 158.884 62.3416C158.315 62.1015 157.775 61.7963 157.276 61.4321C156.4 60.8276 156.168 60.4856 156.038 59.4189C155.854 57.818 154.229 56.4223 154.482 54.9138C154.44 54.9954 154.404 55.0794 154.373 55.1652C153.819 56.792 155.665 58.2654 155.85 59.9717C155.97 61.0383 156.219 61.3803 157.087 61.9848C157.587 62.349 158.126 62.6542 158.696 62.8944C160.474 63.6042 161.798 65.1127 163.59 65.7431C164.63 66.1128 165.789 66.0814 166.794 66.5343C167.869 67.0205 168.641 68.0132 169.145 69.0762C169.649 70.1392 169.919 71.2946 170.253 72.4278C170.525 73.3225 170.881 74.2561 171.627 74.8218C171.961 75.0732 172.366 75.2377 172.693 75.4891C173.616 76.1897 173.926 77.4209 174.334 78.5116C174.671 79.4082 175.141 80.2956 175.915 80.8575C176.689 81.4195 177.825 81.5711 178.591 80.9999C179.081 80.6302 179.33 80.0663 179.494 79.4618C179.348 79.8517 179.098 80.1939 178.77 80.4508V80.4508Z" fill="black"/>
<path opacity="0.1" d="M182.566 74.9066C182.495 75.0392 182.464 75.1894 182.477 75.3391C182.894 74.9269 183.836 75.1691 184.165 74.6385C184.241 74.5074 184.271 74.3544 184.25 74.2041C183.821 74.6108 182.88 74.3686 182.566 74.9066Z" fill="black"/>
<path opacity="0.1" d="M179.853 78.0679C179.817 78.2528 179.782 78.4506 179.738 78.6429C180.868 78.9959 182.174 78.0883 182.359 76.9421C181.91 77.8239 180.802 78.4136 179.853 78.0679Z" fill="black"/>
</g>
<path d="M158.223 60.8958C158.223 60.8958 158.838 62.1381 157.022 62.1639C155.207 62.1898 158.191 70.2314 158.191 70.2314L161.209 74.0765L164.964 72.043L165.18 66.4343L165.457 63.0457C165.457 63.0457 161.948 61.9051 162.594 60.3966C163.241 58.8882 158.223 60.8958 158.223 60.8958Z" fill="#FBBEBE"/>
<path d="M169.121 93.6832C169.121 93.6832 171.337 95.8664 173.922 92.9696L171.937 90.8604H169.426L169.121 93.6832Z" fill="#565388"/>
<path opacity="0.1" d="M169.361 90.8604L169.056 93.6832C169.056 93.6832 171.272 95.8664 173.858 92.9696" fill="black"/>
<path d="M173.09 91.2449C173.09 91.2449 173.982 93.5871 174.628 94.2951C175.274 95.0031 176.29 99.902 174.936 99.3474C173.583 98.7928 170.997 94.6648 170.842 93.9568C170.687 93.2488 170.628 91.2449 170.628 91.2449H173.09Z" fill="#FBBEBE"/>
<path d="M153.73 103.261L165.671 103.723L164.286 98.6689L158.271 98.5469L153.73 103.261Z" fill="#565388"/>
<path opacity="0.1" d="M155.39 103.261L167.333 103.723L165.948 98.6689L159.931 98.5469L155.39 103.261Z" fill="black"/>
<path d="M157.637 111.604C157.355 112.131 157.464 113.954 157.591 115.301C157.673 116.159 157.761 116.819 157.761 116.819C157.761 116.819 153.297 118.205 152.622 117.004C152.45 116.699 152.365 116.165 152.335 115.538C152.243 113.689 152.622 111.025 152.622 111.025C152.622 111.025 152.437 106.929 152.345 106.528C152.308 106.367 152.25 105.857 152.195 105.304C152.114 104.483 152.036 103.57 152.036 103.57L158.131 100.335C158.131 100.335 158.131 100.941 158.119 101.875C158.086 104.807 157.988 110.957 157.637 111.604Z" fill="#FBBEBE"/>
<path opacity="0.1" d="M157.761 116.819C157.761 116.819 153.298 118.205 152.622 117.004C152.45 116.699 152.365 116.164 152.335 115.538C153.259 115.397 156.07 115.009 157.591 115.301C157.673 116.159 157.761 116.819 157.761 116.819Z" fill="black"/>
<path d="M157.915 140.112H157.844C157.307 140.132 154.252 140.112 154.252 140.112C154.208 140.065 154.166 140.015 154.127 139.964C153.857 139.625 153.679 139.223 153.609 138.796C153.539 138.368 153.581 137.93 153.73 137.524C154.284 136.013 154.345 133.24 154.345 133.24C154.345 133.24 154.561 132.532 154.376 132.131C154.191 131.73 154.313 131.114 154.313 131.114C154.285 130.871 154.223 130.633 154.129 130.406C153.975 130.037 154.16 129.358 154.16 129.358C154.139 128.701 154.035 128.049 153.852 127.417C153.575 126.617 151.543 117.096 152.036 115.956C152.036 115.956 156.345 115.216 157.977 115.771L157.761 123.165C157.761 123.165 156.991 125.384 157.638 125.97C158.284 126.556 157.669 128.373 157.669 128.373C157.669 128.373 157.577 128.711 158.131 129.852C158.685 130.992 158.131 131.516 158.131 131.516V133.702C158.131 133.702 157.7 135.181 158.192 136.383C158.683 137.585 158.131 140.073 157.915 140.112Z" fill="#3F3D56"/>
<path d="M166.371 111.604C166.088 112.131 166.197 113.954 166.325 115.301C166.406 116.159 166.495 116.819 166.495 116.819C166.495 116.819 162.031 118.205 161.355 117.004C161.183 116.699 161.099 116.165 161.069 115.538C160.977 113.689 161.355 111.025 161.355 111.025C161.355 111.025 161.171 106.929 161.078 106.528C161.028 106.311 160.942 104.248 160.873 102.398C160.816 100.819 160.77 99.3918 160.77 99.3918L166.864 100.335C166.864 100.335 166.864 103.017 166.788 105.773C166.722 108.446 166.598 111.186 166.371 111.604Z" fill="#FBBEBE"/>
<path opacity="0.1" d="M166.495 116.819C166.495 116.819 162.031 118.205 161.355 117.004C161.183 116.699 161.098 116.164 161.069 115.538C161.992 115.397 164.803 115.009 166.325 115.301C166.406 116.159 166.495 116.819 166.495 116.819Z" fill="black"/>
<path d="M166.648 140.112H166.578C166.041 140.132 162.986 140.112 162.986 140.112C162.941 140.065 162.899 140.016 162.86 139.964C162.59 139.625 162.412 139.223 162.343 138.796C162.273 138.368 162.315 137.93 162.463 137.524C163.017 136.006 163.073 133.233 163.073 133.233C163.073 133.233 163.289 132.525 163.104 132.124C162.92 131.723 163.041 131.107 163.041 131.107C163.013 130.864 162.951 130.625 162.857 130.399C162.703 130.029 162.888 129.351 162.888 129.351C162.867 128.693 162.763 128.041 162.58 127.41C162.303 126.609 160.271 117.089 160.764 115.948C160.764 115.948 165.073 115.209 166.705 115.763L166.489 123.158C166.489 123.158 165.719 125.376 166.366 125.962C167.012 126.548 166.397 128.366 166.397 128.366C166.397 128.366 166.305 128.704 166.859 129.844C167.413 130.985 166.859 131.508 166.859 131.508V133.695C166.859 133.695 166.428 135.174 166.92 136.376C167.411 137.577 166.864 140.073 166.648 140.112Z" fill="#3F3D56"/>
<path opacity="0.1" d="M160.624 62.349C163.021 62.349 164.964 60.404 164.964 58.0047C164.964 55.6054 163.021 53.6604 160.624 53.6604C158.227 53.6604 156.284 55.6054 156.284 58.0047C156.284 60.404 158.227 62.349 160.624 62.349Z" fill="black"/>
<path d="M160.624 62.1639C163.021 62.1639 164.964 60.2189 164.964 57.8196C164.964 55.4203 163.021 53.4753 160.624 53.4753C158.227 53.4753 156.284 55.4203 156.284 57.8196C156.284 60.2189 158.227 62.1639 160.624 62.1639Z" fill="#FBBEBE"/>
<path opacity="0.1" d="M152.036 103.57L158.131 100.335C158.131 100.335 158.131 100.941 158.119 101.875C157.229 102.407 155.887 103.207 154.596 103.964C153.894 104.376 153.209 104.775 152.622 105.11C152.485 105.184 152.342 105.246 152.195 105.295C152.114 104.483 152.036 103.57 152.036 103.57Z" fill="black"/>
<path opacity="0.1" d="M166.864 100.327C166.864 100.327 166.864 103.009 166.788 105.766H166.766C166.311 105.782 165.855 105.768 165.401 105.723C164.605 105.638 163.968 105.427 163.739 105.01C163.276 104.196 161.978 103.161 160.881 102.39C160.823 100.811 160.777 99.3843 160.777 99.3843L166.864 100.327Z" fill="black"/>
<path d="M165.73 76.8328C165.576 78.0362 165.546 79.2523 165.641 80.4617C168.441 82.7725 167.918 87.64 167.918 87.64C167.918 87.64 170.074 97.5006 169.612 98.3935C169.15 99.2863 170.657 104.771 170.657 104.771C169.373 105.015 168.072 105.164 166.766 105.219C166.311 105.235 165.855 105.221 165.401 105.176C164.605 105.091 163.968 104.88 163.739 104.463C162.879 102.954 159.154 100.704 159.154 100.704C159.154 100.704 156.793 102.12 154.596 103.409C153.894 103.821 153.209 104.22 152.622 104.555C152.145 104.808 151.618 104.953 151.08 104.978C148.466 105.172 144.985 103.535 145.539 102.954C146.217 102.244 149.573 89.7973 149.573 89.7973C149.573 89.7973 151.264 82.0941 152.742 81.0163C153.001 80.8205 153.194 80.5503 153.296 80.2417C153.802 78.8349 152.956 76.5796 152.956 76.5796C152.956 76.5796 148.186 70.6954 148.4 70.3552C148.614 70.0151 148.616 68.1997 148.616 68.1997C148.616 68.1997 149.201 65.3343 149.539 63.9479C149.877 62.5614 152.31 62.2213 153.017 62.3451C153.724 62.469 155.323 62.8997 155.999 62.3451C156.675 61.7905 157.817 62.5614 157.817 62.5614L160.62 63.3341L163.141 61.8552C163.141 61.8552 165.667 61.9846 165.883 62.3229C166.099 62.6612 169.424 63.3101 169.424 63.3101C171.115 64.4489 171.054 69.8727 171.054 69.8727C171.054 69.8727 166.991 73.4147 166.16 75.2338C165.945 75.7448 165.8 76.2828 165.73 76.8328V76.8328Z" fill="#565388"/>
<path d="M170.135 69.1223L171.058 69.8618L172.013 78.4579L172.966 87.0855C172.966 87.0855 173.335 87.9488 173.644 87.8564C173.952 87.7639 173.921 92.9697 173.921 92.9697C173.921 92.9697 170.386 90.7939 169.119 93.6833L168.133 86.7158C168.133 86.7158 166.87 79.5985 166.901 79.0439C166.932 78.4893 166.255 72.4813 166.255 72.4813L170.135 69.1223Z" fill="#565388"/>
<path d="M149.081 69.5234L148.404 70.3553C148.404 70.3553 148.467 73.9287 147.942 74.7921C147.418 75.6554 149.39 80.7077 150.129 80.399C150.867 80.0902 152.529 72.204 152.529 72.1115C152.529 72.0191 149.081 69.5234 149.081 69.5234Z" fill="#565388"/>
<path d="M149.02 74.6072C149.02 74.6072 146.865 76.7941 147.019 77.8423C147.172 78.8905 149.235 82.1829 152.19 80.4137C152.19 80.4137 154.93 75.2542 149.02 74.6072Z" fill="#565388"/>
<path opacity="0.1" d="M157.844 140.117C157.307 140.138 154.252 140.117 154.252 140.117C154.208 140.07 154.166 140.021 154.127 139.969C154.908 139.703 156.596 139.304 157.844 140.117Z" fill="black"/>
<path opacity="0.1" d="M166.582 140.117C166.044 140.138 162.99 140.117 162.99 140.117C162.945 140.07 162.903 140.021 162.864 139.969C163.642 139.703 165.329 139.304 166.582 140.117Z" fill="black"/>
<path opacity="0.1" d="M154.814 85.9282C154.343 90.45 154.498 99.4233 154.596 103.409C153.894 103.821 153.209 104.22 152.622 104.555C152.145 104.808 151.619 104.953 151.08 104.978C150.884 103.773 153.595 91.3928 154.814 85.9282Z" fill="black"/>
<path opacity="0.1" d="M155.39 83.3623C155.377 83.427 155.154 84.4105 154.814 85.9282C154.947 84.6323 155.131 83.7025 155.39 83.3623Z" fill="black"/>
<path opacity="0.1" d="M162.888 82.8743C162.888 82.8743 165.505 99.3271 157.756 101.361C157.754 101.353 163.117 100.538 162.888 82.8743Z" fill="black"/>
<path opacity="0.1" d="M166.766 105.219C166.311 105.235 165.855 105.221 165.401 105.176L163.311 82.6802C164.644 83.5527 166.24 99.5175 166.766 105.219Z" fill="black"/>
<path opacity="0.1" d="M157.392 55.265C157.531 55.2539 157.67 55.2684 157.804 55.3075C158 55.4053 158.176 55.5381 158.325 55.6994C158.565 55.9009 158.853 56.0379 159.161 56.0977C159.47 56.1576 159.788 56.1382 160.086 56.0414C160.297 55.9472 160.52 55.8849 160.749 55.8565C161.102 55.8565 161.407 56.1154 161.59 56.4111C161.773 56.7069 161.867 57.0582 162.024 57.3743C162.181 57.6904 162.432 57.9899 162.777 58.0675C162.943 58.074 163.106 58.1116 163.257 58.1784C163.35 58.254 163.422 58.3529 163.464 58.465C163.752 59.088 163.981 59.8237 164.596 60.1287C164.822 60.2337 165.069 60.2873 165.318 60.2859C165.572 60.3045 165.826 60.2587 166.057 60.1528C166.284 60.0257 166.472 59.8383 166.6 59.6111C166.984 58.9752 167.028 58.1877 166.938 57.4501C166.825 56.5196 166.494 55.629 165.972 54.8509C165.422 54.064 164.673 53.4373 163.802 53.0349C162.931 52.6325 161.969 52.4687 161.013 52.5604C160.68 52.598 160.35 52.6597 160.025 52.7453C158.851 53.0596 157.699 53.6474 156.986 54.6328C156.813 54.8787 156.624 55.1122 156.419 55.3315C156.742 55.3001 157.067 55.2724 157.392 55.265Z" fill="black"/>
<path d="M157.392 55.0799C157.531 55.0689 157.67 55.0833 157.804 55.1224C158 55.2202 158.176 55.353 158.325 55.5144C158.565 55.7158 158.853 55.8529 159.161 55.9127C159.47 55.9725 159.788 55.9531 160.086 55.8564C160.297 55.7621 160.52 55.6998 160.749 55.6715C161.102 55.6715 161.407 55.9303 161.59 56.2261C161.773 56.5219 161.867 56.8731 162.024 57.1892C162.181 57.5053 162.432 57.8048 162.777 57.8825C162.943 57.8889 163.106 57.9265 163.257 57.9934C163.35 58.069 163.422 58.1678 163.464 58.2799C163.752 58.9029 163.981 59.6387 164.596 59.9437C164.822 60.0486 165.069 60.1023 165.318 60.1008C165.572 60.1194 165.826 60.0737 166.057 59.9677C166.284 59.8406 166.472 59.6532 166.6 59.4261C166.984 58.7901 167.028 58.0026 166.938 57.265C166.825 56.3345 166.494 55.4439 165.972 54.6658C165.422 53.8789 164.673 53.2522 163.802 52.8498C162.931 52.4474 161.969 52.2837 161.013 52.3754C160.68 52.4129 160.35 52.4747 160.025 52.5602C158.851 52.8745 157.699 53.4624 156.986 54.4477C156.813 54.6936 156.624 54.9271 156.419 55.1465C156.742 55.115 157.067 55.0873 157.392 55.0799Z" fill="#3F3D56"/>
<path opacity="0.1" d="M152.683 65.425C152.683 65.425 152.899 67.1517 152.16 67.5824C151.421 68.0131 152.683 65.425 152.683 65.425Z" fill="black"/>
<path opacity="0.1" d="M168.349 78.7982C168.349 78.7982 170.103 76.2101 170.351 76.9495C170.598 77.689 168.349 78.7982 168.349 78.7982Z" fill="black"/>
<path opacity="0.1" d="M168.473 79.6594C168.473 79.6594 170.203 77.5335 170.369 78.3654C170.535 79.1973 168.473 79.6594 168.473 79.6594Z" fill="black"/>
<path opacity="0.1" d="M163.39 77.1287C162.763 77.1375 162.15 76.9358 161.651 76.5556H161.499C160.981 77.0294 160.301 77.2856 159.599 77.271C159.234 77.2795 158.871 77.2137 158.533 77.0777C158.194 76.9417 157.886 76.7383 157.628 76.4798H157.427C156.895 76.9133 156.228 77.1442 155.542 77.1317C154.856 77.1192 154.197 76.864 153.682 76.4114L152.96 76.3984C152.96 76.3984 153.806 78.6538 153.3 80.0606L165.642 80.2806C165.546 79.0711 165.576 77.855 165.73 76.6517V76.6351L165.052 76.6221C164.565 76.9606 163.984 77.1377 163.39 77.1287Z" fill="black"/>
<path opacity="0.1" d="M163.39 77.4985C162.763 77.5074 162.15 77.3057 161.651 76.9254H161.499C160.981 77.3993 160.301 77.6555 159.599 77.6409C159.234 77.6493 158.871 77.5836 158.533 77.4476C158.194 77.3116 157.886 77.1082 157.628 76.8497H157.427C156.895 77.2831 156.228 77.5141 155.542 77.5016C154.856 77.489 154.197 77.2338 153.682 76.7813L152.96 76.7683C152.96 76.7683 153.806 79.0236 153.3 80.4304L165.642 80.6504C165.546 79.441 165.576 78.2249 165.73 77.0216V77.0049L165.052 76.992C164.565 77.3305 163.984 77.5076 163.39 77.4985Z" fill="black"/>
<path d="M163.39 77.3135C162.763 77.3224 162.15 77.1206 161.651 76.7404H161.499C160.981 77.2143 160.301 77.4704 159.599 77.4558C159.234 77.4643 158.871 77.3985 158.533 77.2625C158.194 77.1265 157.886 76.9231 157.628 76.6646H157.427C156.895 77.0981 156.228 77.329 155.542 77.3165C154.856 77.304 154.197 77.0488 153.682 76.5962L152.96 76.5833C152.96 76.5833 153.806 78.8386 153.3 80.2454L165.642 80.4654C165.546 79.2559 165.576 78.0398 165.73 76.8365V76.8199L165.052 76.8069C164.565 77.1454 163.984 77.3226 163.39 77.3135V77.3135Z" fill="#3F3D56"/>
<path opacity="0.1" d="M162.842 64.9868C162.842 64.9868 165.44 65.1532 165.457 65.5229C165.473 65.8927 162.842 64.9868 162.842 64.9868Z" fill="black"/>
<path opacity="0.1" d="M156.529 63.4099C156.529 63.4099 153.931 63.5763 153.914 63.946C153.898 64.3158 156.529 63.4099 156.529 63.4099Z" fill="black"/>
<path opacity="0.1" d="M166.46 70.9691C166.434 70.9506 166.408 70.9358 166.382 70.9192C167.047 71.5181 166.936 72.827 166.12 73.9066C165.303 74.9862 164.064 75.4354 163.311 74.9511C163.335 74.9714 163.355 74.9936 163.381 75.0139C164.12 75.5796 165.412 75.1359 166.266 74.0193C167.119 72.9028 167.202 71.5366 166.46 70.9691Z" fill="black"/>
<path opacity="0.1" d="M152.186 73.768C151.528 72.5812 151.613 71.2705 152.358 70.7732C152.33 70.7861 152.3 70.7972 152.273 70.812C151.456 71.2668 151.349 72.6292 152.025 73.8567C152.701 75.0842 153.92 75.7053 154.736 75.258C154.763 75.2425 154.789 75.2252 154.814 75.2062C153.999 75.5759 152.843 74.9548 152.186 73.768Z" fill="black"/>
<path opacity="0.1" d="M153.065 63.7595L152.827 64.1292L152.219 63.8057L152.539 63.314C152.75 63.4139 152.931 63.5675 153.065 63.7595V63.7595Z" fill="black"/>
<path d="M149.205 77.4412C149.205 77.4412 149.746 74.8938 149.02 74.0841C148.295 73.2744 148.527 69.0299 149.635 69.1223C150.743 69.2148 152.405 72.5719 152.128 73.2818C151.851 73.9916 150.804 77.6261 150.804 77.6261L149.205 77.4412Z" fill="#FBBEBE"/>
<path opacity="0.1" d="M166.581 59.0619C166.454 59.2891 166.266 59.4765 166.038 59.6036C165.807 59.7095 165.553 59.7553 165.3 59.7367C165.05 59.7381 164.804 59.6845 164.578 59.5795C163.963 59.2727 163.734 58.5369 163.446 57.9158C163.409 57.8037 163.344 57.7031 163.257 57.6237C163.108 57.5556 162.947 57.5161 162.783 57.5072C162.437 57.4296 162.188 57.1283 162.029 56.814C161.87 56.4997 161.776 56.1522 161.595 55.8509C161.414 55.5495 161.108 55.2852 160.755 55.2963C160.525 55.3267 160.302 55.3922 160.092 55.4904C159.793 55.5864 159.475 55.6052 159.167 55.5451C158.859 55.4849 158.571 55.3478 158.33 55.1465C158.182 54.9852 158.005 54.8524 157.809 54.7546C157.676 54.7155 157.536 54.7011 157.397 54.7121C157.185 54.7121 156.974 54.7324 156.762 54.7491C156.657 54.8872 156.544 55.0192 156.424 55.1447C156.747 55.1169 157.072 55.0892 157.397 55.0818C157.536 55.0708 157.676 55.0852 157.809 55.1243C158.005 55.2221 158.182 55.3549 158.33 55.5162C158.571 55.7176 158.859 55.8547 159.167 55.9148C159.475 55.9749 159.793 55.9561 160.092 55.8601C160.302 55.7619 160.525 55.6965 160.755 55.666C161.108 55.666 161.412 55.9248 161.595 56.2206C161.778 56.5164 161.872 56.8676 162.029 57.1837C162.186 57.4998 162.437 57.7993 162.783 57.877C162.947 57.8858 163.108 57.9253 163.257 57.9934C163.35 58.069 163.421 58.1679 163.464 58.28C163.752 58.9029 163.981 59.6387 164.596 59.9437C164.822 60.0487 165.069 60.1023 165.318 60.1009C165.572 60.1195 165.826 60.0737 166.057 59.9678C166.284 59.8407 166.472 59.6532 166.6 59.4261C166.887 58.9036 167.015 58.3087 166.969 57.7143C166.955 58.189 166.822 58.6525 166.581 59.0619V59.0619Z" fill="black"/>
<path d="M150.023 79.4616C150.941 79.4616 151.685 78.9568 151.685 78.334C151.685 77.7112 150.941 77.2063 150.023 77.2063C149.105 77.2063 148.361 77.7112 148.361 78.334C148.361 78.9568 149.105 79.4616 150.023 79.4616Z" fill="#565388"/>
<path d="M95.8462 141.104C127.312 141.104 152.819 115.571 152.819 84.0741C152.819 52.5771 127.312 27.0437 95.8462 27.0437C64.3808 27.0437 38.873 52.5771 38.873 84.0741C38.873 115.571 64.3808 141.104 95.8462 141.104Z" fill="#009688"/>
<path d="M125.74 112.734C125.74 121.736 111.601 113.503 96.4425 113.503C81.2841 113.503 65.9521 121.396 65.9521 112.393C65.9521 107.26 70.8387 100.12 77.8491 94.9349C83.1309 91.0269 89.6168 88.228 96.1323 88.228C102.832 88.228 109.396 91.2579 114.631 95.4174C121.239 100.662 125.74 107.709 125.74 112.734Z" fill="#444053"/>
<path d="M114.63 95.4134C106.572 94.1989 91.9992 92.7181 77.8491 94.9309C83.1309 91.0229 89.6168 88.2241 96.1322 88.2241C102.831 88.2241 109.394 91.254 114.63 95.4134Z" fill="#F6F8FB"/>
<path opacity="0.05" d="M65.9523 43.8164C65.9523 43.8164 48.7902 54.7991 48.9305 71.9785C49.0709 89.1579 65.9523 43.8164 65.9523 43.8164Z" fill="black"/>
<path d="M152.797 12.7982C152.797 12.7982 137.247 11.861 139.081 22.7679C139.081 22.7679 138.712 24.6942 140.462 25.5704C140.462 25.5704 140.49 24.7626 142.056 25.0362C142.614 25.1297 143.181 25.157 143.746 25.1175C144.509 25.0656 145.234 24.7657 145.811 24.2635V24.2635C145.811 24.2635 150.182 22.4573 151.883 15.305C151.883 15.305 153.141 13.7447 153.091 13.3454L150.466 14.4657C150.466 14.4657 151.362 16.3606 150.651 17.9356C150.651 17.9356 150.566 14.536 150.062 14.608C149.96 14.6247 148.699 15.2643 148.699 15.2643C148.699 15.2643 150.241 18.566 149.068 20.9636C149.068 20.9636 149.51 16.8967 148.208 15.5028L146.361 16.5824C146.361 16.5824 148.163 19.9913 146.941 22.7735C146.941 22.7735 147.255 18.5068 145.973 16.8449L144.298 18.1519C144.298 18.1519 145.992 21.5127 144.959 23.8198C144.959 23.8198 144.824 18.8525 143.936 18.4772C143.936 18.4772 142.472 19.7713 142.248 20.3018C142.248 20.3018 143.408 22.7402 142.69 24.0268C142.69 24.0268 142.248 20.7178 141.886 20.6993C141.886 20.6993 140.427 22.8918 140.274 24.3966C140.274 24.3966 140.339 22.1597 141.532 20.4904C141.532 20.4904 140.121 20.7326 139.299 21.6495C139.299 21.6495 139.526 20.0985 141.884 19.9635C141.884 19.9635 143.09 18.2998 143.414 18.1999C143.414 18.1999 141.059 18.0021 139.631 18.6362C139.631 18.6362 140.887 17.174 143.844 17.8376L145.506 16.4881C145.506 16.4881 142.407 16.0629 141.092 16.5325C141.092 16.5325 142.605 15.2384 145.951 16.1812L147.752 15.1035C147.752 15.1035 145.109 14.5341 143.534 14.7338C143.534 14.7338 145.196 13.8372 148.278 14.8095L149.571 14.2309C149.571 14.2309 147.633 13.8501 147.066 13.791C146.5 13.7318 146.47 13.5728 146.47 13.5728C147.7 13.3726 148.962 13.5192 150.114 13.9962C150.114 13.9962 152.843 12.9702 152.797 12.7982Z" fill="#009688"/>
<path d="M136.848 7.94915C136.848 7.94915 129.831 7.52396 130.651 12.4524C130.651 12.4524 130.486 13.3231 131.275 13.7187C131.275 13.7187 131.286 13.349 131.995 13.4784C132.247 13.5199 132.503 13.5323 132.758 13.5154C133.103 13.4907 133.431 13.3552 133.692 13.129V13.129C133.692 13.129 135.667 12.3119 136.435 9.08051C136.435 9.08051 137.004 8.37618 136.989 8.19502L135.803 8.70154C135.803 8.70154 136.209 9.55746 135.89 10.2692C135.89 10.2692 135.851 8.73297 135.624 8.76994C135.578 8.76994 135.007 9.06572 135.007 9.06572C135.007 9.06572 135.705 10.5576 135.179 11.6409C135.179 11.6409 135.378 9.80333 134.791 9.17294L133.956 9.66098C133.956 9.66098 134.771 11.2027 134.219 12.4598C134.219 12.4598 134.359 10.5317 133.781 9.78114L133.024 10.3709C133.024 10.3709 133.788 11.8886 133.323 12.9312C133.323 12.9312 133.262 10.687 132.859 10.5169C132.859 10.5169 132.198 11.1011 132.097 11.3414C132.097 11.3414 132.621 12.4506 132.296 13.0255C132.296 13.0255 132.097 11.53 131.927 11.5244C131.927 11.5244 131.267 12.5134 131.199 13.1882C131.231 12.5602 131.426 11.9516 131.766 11.4227C131.386 11.4947 131.036 11.6766 130.758 11.9459C130.758 11.9459 130.859 11.2453 131.929 11.1843C131.929 11.1843 132.473 10.4337 132.619 10.3875C132.619 10.3875 131.556 10.2988 130.911 10.5853C130.911 10.5853 131.478 9.92349 132.815 10.2156L133.554 9.60737C133.554 9.60737 132.154 9.42251 131.559 9.62586C131.559 9.62586 132.243 9.04169 133.755 9.46873L134.568 8.98069C134.568 8.98069 133.375 8.72373 132.662 8.81616C132.662 8.81616 133.413 8.41131 134.806 8.85128L135.388 8.58878C135.388 8.58878 134.512 8.41685 134.257 8.39097C134.003 8.36509 133.986 8.29299 133.986 8.29299C134.54 8.20068 135.109 8.26469 135.63 8.47786C135.63 8.47786 136.869 8.02679 136.848 7.94915Z" fill="#009688"/>
<path opacity="0.1" d="M198.176 134.952C200.923 134.952 203.15 134.576 203.15 134.111C203.15 133.646 200.923 133.27 198.176 133.27C195.43 133.27 193.203 133.646 193.203 134.111C193.203 134.576 195.43 134.952 198.176 134.952Z" fill="#009688"/>
<path opacity="0.1" d="M8.63744 148.944C11.3842 148.944 13.6108 148.568 13.6108 148.103C13.6108 147.639 11.3842 147.262 8.63744 147.262C5.89072 147.262 3.66406 147.639 3.66406 148.103C3.66406 148.568 5.89072 148.944 8.63744 148.944Z" fill="#009688"/>
<path opacity="0.1" d="M37.5081 150C40.2548 150 42.4814 149.623 42.4814 149.159C42.4814 148.694 40.2548 148.318 37.5081 148.318C34.7613 148.318 32.5347 148.694 32.5347 149.159C32.5347 149.623 34.7613 150 37.5081 150Z" fill="#009688"/>
<path d="M187.291 144.382C191.393 144.382 194.717 143.819 194.717 143.125C194.717 142.431 191.393 141.868 187.291 141.868C183.19 141.868 179.865 142.431 179.865 143.125C179.865 143.819 183.19 144.382 187.291 144.382Z" fill="#009688"/>
<path d="M190.361 141.071C190.699 140.794 190.947 140.421 191.07 140.001C191.16 139.577 190.979 139.067 190.575 138.912C190.12 138.738 189.635 139.054 189.267 139.372C188.9 139.69 188.477 140.053 187.995 139.986C188.243 139.761 188.428 139.476 188.533 139.158C188.638 138.84 188.659 138.501 188.593 138.172C188.572 138.036 188.515 137.909 188.427 137.803C188.174 137.533 187.718 137.647 187.415 137.86C186.455 138.537 186.187 139.842 186.181 141.017C186.085 140.594 186.167 140.152 186.165 139.723C186.163 139.295 186.043 138.799 185.677 138.572C185.45 138.45 185.196 138.391 184.938 138.398C184.506 138.381 184.026 138.424 183.731 138.74C183.361 139.134 183.459 139.792 183.779 140.219C184.098 140.646 184.582 140.923 185.027 141.221C185.385 141.434 185.691 141.725 185.921 142.073C185.948 142.122 185.97 142.173 185.987 142.226H188.693C189.298 141.918 189.859 141.53 190.361 141.071V141.071Z" fill="#009688"/>
<path d="M10.9589 125.57C10.9589 125.57 11.9728 126.898 10.4898 128.898C9.00684 130.898 7.78427 132.595 8.27367 133.845C8.27367 133.845 10.5101 130.122 12.3366 130.068C14.1631 130.014 12.9608 127.809 10.9589 125.57Z" fill="#009688"/>
<path opacity="0.1" d="M10.9587 125.57C11.0468 125.699 11.1164 125.839 11.1656 125.986C12.9422 128.075 13.8877 130.026 12.1813 130.074C10.5894 130.12 8.6724 132.967 8.22363 133.686C8.23932 133.742 8.25781 133.796 8.27904 133.85C8.27904 133.85 10.5155 130.127 12.342 130.074C14.1684 130.02 12.9606 127.809 10.9587 125.57Z" fill="black"/>
<path d="M12.8444 127.262C12.8444 127.729 12.7908 128.108 12.7262 128.108C12.6616 128.108 12.6099 127.739 12.6099 127.262C12.6099 126.785 12.6745 127.014 12.741 127.014C12.8075 127.014 12.8444 126.794 12.8444 127.262Z" fill="#FFD037"/>
<path d="M13.4834 127.82C13.0734 128.044 12.7169 128.179 12.6855 128.121C12.6542 128.064 12.9626 127.839 13.3726 127.615C13.7825 127.391 13.62 127.554 13.6514 127.615C13.6828 127.676 13.9007 127.596 13.4834 127.82Z" fill="#FFD037"/>
<path d="M5.59941 125.57C5.59941 125.57 4.58553 126.898 6.06664 128.898C7.54776 130.898 8.77218 132.595 8.28278 133.845C8.28278 133.845 6.04448 130.122 4.21986 130.068C2.39524 130.014 3.59565 127.809 5.59941 125.57Z" fill="#009688"/>
<path opacity="0.1" d="M5.5994 125.57C5.51055 125.698 5.44086 125.838 5.39256 125.986C3.61596 128.075 2.66856 130.026 4.37683 130.074C5.96691 130.12 7.88572 132.967 8.33264 133.686C8.31757 133.742 8.2997 133.796 8.27908 133.85C8.27908 133.85 6.04078 130.127 4.21616 130.074C2.39154 130.02 3.59564 127.809 5.5994 125.57Z" fill="black"/>
<path d="M3.71387 127.262C3.71387 127.729 3.76558 128.108 3.83022 128.108C3.89485 128.108 3.94656 127.739 3.94656 127.262C3.94656 126.785 3.88193 127.014 3.81729 127.014C3.75265 127.014 3.71387 126.794 3.71387 127.262Z" fill="#FFD037"/>
<path d="M3.06579 127.82C3.47577 128.044 3.83405 128.179 3.86545 128.121C3.89684 128.064 3.58843 127.839 3.17844 127.615C2.76846 127.391 2.92913 127.554 2.89958 127.615C2.87003 127.676 2.6558 127.596 3.06579 127.82Z" fill="#FFD037"/>
<path d="M4.03711 133.677C4.03711 133.677 6.87376 133.59 7.73067 132.98C8.58758 132.37 12.0946 131.643 12.307 132.61C12.5194 133.577 16.5694 137.472 13.367 137.498C10.1647 137.524 5.92637 136.997 5.07315 136.477C4.21994 135.958 4.03711 133.677 4.03711 133.677Z" fill="#A8A8A8"/>
<path opacity="0.2" d="M13.4206 137.167C10.2183 137.193 5.97992 136.666 5.12671 136.146C4.47664 135.751 4.21809 134.329 4.1313 133.673H4.03711C4.03711 133.673 4.22179 135.963 5.06946 136.483C5.91713 137.002 10.161 137.529 13.3634 137.503C14.2867 137.503 14.6062 137.165 14.5896 136.679C14.4603 136.976 14.1095 137.161 13.4206 137.167Z" fill="black"/>
<path d="M75.5905 76.5963C76.6746 76.5353 81.7773 76.1507 85.0184 74.3003C85.5389 73.9937 86.1269 73.8204 86.7303 73.7956C87.7608 73.766 88.9465 74.1967 88.1874 76.6074C86.9575 80.5505 79.816 84.9872 75.3837 84.7413C71.1213 84.5047 66.0649 82.7855 62.7259 76.7405C62.406 76.1589 62.2484 75.5018 62.2697 74.8382C62.3085 73.6181 62.7517 72.0893 65.0399 73.7937C68.1314 76.0953 73.9968 76.5316 75.1732 76.5963C75.3122 76.6037 75.4515 76.6037 75.5905 76.5963V76.5963Z" fill="#444053"/>
<path d="M116.589 76.5963C117.673 76.5353 122.776 76.1507 126.017 74.3003C126.537 73.9937 127.125 73.8204 127.729 73.7956C128.759 73.766 129.945 74.1967 129.186 76.6074C127.956 80.5505 120.815 84.9872 116.382 84.7413C112.12 84.5047 107.063 82.7855 103.724 76.7405C103.405 76.1589 103.247 75.5018 103.268 74.8382C103.307 73.6181 103.75 72.0893 106.038 73.7937C109.13 76.0953 114.995 76.5316 116.172 76.5963C116.311 76.6037 116.45 76.6037 116.589 76.5963V76.5963Z" fill="#444053"/>
</g>
<defs>
<linearGradient id="paint0_linear" x1="164.759" y1="140.125" x2="164.759" y2="48.7946" gradientUnits="userSpaceOnUse">
<stop stop-color="#808080" stop-opacity="0.25"/>
<stop offset="0.54" stop-color="#808080" stop-opacity="0.12"/>
<stop offset="1" stop-color="#808080" stop-opacity="0.1"/>
</linearGradient>
<clipPath id="clip0">
<rect width="203.15" height="150" fill="white"/>
</clipPath>
</defs>
</svg>
