<svg width="215" height="150" viewBox="0 0 215 150" fill="none" xmlns="http://www.w3.org/2000/svg">
<path opacity="0.1" d="M20.8906 90.9852C23.8784 80.0059 16.9076 68.6607 9.33805 60.407C6.8038 57.6386 4.02709 54.7514 3.25348 50.9794C2.31234 46.3646 4.7056 41.7167 7.82867 38.4839C13.5259 32.5919 21.9786 29.9362 29.837 31.5718C36.6276 32.9845 42.73 37.3265 49.553 38.5331C60.9632 40.556 71.9091 33.4806 80.4454 25.3005C86.4887 19.5169 92.8695 12.5918 101.031 12.6523C106.774 12.6944 112.102 16.3728 115.984 21.0011C117.858 23.2359 119.564 25.7898 122.056 27.144C123.538 27.9505 125.2 28.2678 126.844 28.4382C141.852 29.9815 156.313 19.8481 171.235 22.273C181.313 23.9038 190.099 31.2289 196.109 40.1678C202.12 49.1066 205.712 59.5978 208.917 70.0363C211.193 77.4509 213.319 85.5026 211.127 92.856C208.808 100.641 201.868 106.051 194.437 107.828C187.007 109.606 179.161 108.234 171.812 105.834C162.629 102.827 153.414 98.1628 143.944 99.3237C137.495 100.113 131.679 103.547 125.769 106.35C115.886 111.034 105.379 114.059 94.8938 116.948C84.8548 119.715 74.7018 122.39 64.3055 122.791C56.9497 123.075 50.1482 120.877 42.9124 120.369C38.1959 120.038 33.6534 121.283 28.9464 120.33C23.1485 119.147 16.8844 115.513 15.7235 108.705C14.6212 102.224 19.3068 96.8096 20.8906 90.9852Z" fill="#009688"/>
<g clip-path="url(#clip0)">
<path d="M131.659 47.4575C133.353 48.351 135.009 49.2652 136.626 50.2003" stroke="#2F2E41" stroke-miterlimit="10"/>
<path d="M100.139 41.9216C107.527 43.518 115.593 46.2739 123.719 50.1633C129.604 52.9617 135.236 56.2647 140.55 60.0351" stroke="#2F2E41" stroke-miterlimit="10"/>
<path d="M75.5481 149.652H151.301" stroke="#3F3D56" stroke-miterlimit="10"/>
<path d="M93.2263 40.74C95.4464 41.0128 97.7576 41.4069 100.139 41.9215" stroke="#2F2E41" stroke-miterlimit="10"/>
<path d="M71.5001 63.8882C67.3985 57.8899 65.9895 52.2226 68.0969 47.826C70.4277 42.9632 76.6668 40.4757 85.1242 40.2925" stroke="#2F2E41" stroke-miterlimit="10"/>
<path d="M157.874 77.2859C161.293 82.7856 162.353 87.9417 160.403 92.0099C158.687 95.5899 154.853 97.8825 149.575 98.916" stroke="#2F2E41" stroke-miterlimit="10"/>
<path d="M140.55 60.0349C143.976 62.4631 147.215 65.1455 150.238 68.0592" stroke="#2F2E41" stroke-miterlimit="10"/>
<path d="M69.229 33.2628C76.0374 31.8011 84.8477 32.0609 94.7013 34.0019" stroke="#2F2E41" stroke-miterlimit="10"/>
<path d="M168.321 77.2852C171.369 81.7345 173.243 86.0401 173.733 89.9611" stroke="#2F2E41" stroke-miterlimit="10"/>
<path d="M136.626 50.2004C139.684 51.9669 142.593 53.7939 145.353 55.6814" stroke="#2F2E41" stroke-miterlimit="10"/>
<path d="M141.008 115.734C140.226 115.778 139.472 116.039 138.83 116.488C138.188 116.936 137.684 117.554 137.374 118.273C136.465 120.468 137.635 123.046 139.391 124.646C141.148 126.247 143.404 127.161 145.453 128.364C148.206 129.979 150.68 132.221 152.058 135.099C153.435 137.977 153.582 141.542 151.963 144.291C150.46 146.843 147.727 148.37 145.12 149.779" stroke="#3F3D56" stroke-miterlimit="10"/>
<path d="M143.322 117.483C145.095 117.483 146.532 116.786 146.532 115.925C146.532 115.065 145.095 114.367 143.322 114.367C141.55 114.367 140.113 115.065 140.113 115.925C140.113 116.786 141.55 117.483 143.322 117.483Z" fill="#57B894"/>
<path d="M145.89 127.748C147.663 127.748 149.1 127.05 149.1 126.19C149.1 125.329 147.663 124.632 145.89 124.632C144.118 124.632 142.68 125.329 142.68 126.19C142.68 127.05 144.118 127.748 145.89 127.748Z" fill="#57B894"/>
<path d="M140.021 129.397C141.794 129.397 143.231 128.7 143.231 127.839C143.231 126.979 141.794 126.281 140.021 126.281C138.248 126.281 136.811 126.979 136.811 127.839C136.811 128.7 138.248 129.397 140.021 129.397Z" fill="#57B894"/>
<path d="M149.192 138.012C150.965 138.012 152.402 137.315 152.402 136.454C152.402 135.594 150.965 134.896 149.192 134.896C147.419 134.896 145.982 135.594 145.982 136.454C145.982 137.315 147.419 138.012 149.192 138.012Z" fill="#57B894"/>
<path d="M155.612 138.012C157.385 138.012 158.822 137.315 158.822 136.454C158.822 135.594 157.385 134.896 155.612 134.896C153.839 134.896 152.402 135.594 152.402 136.454C152.402 137.315 153.839 138.012 155.612 138.012Z" fill="#57B894"/>
<path d="M123.806 55.2336H125.615C125.615 55.2336 127.272 68.0335 126.067 69.2382C124.861 70.4429 121.546 71.1959 121.094 69.2382C120.642 67.2806 121.094 60.0524 121.094 60.0524L123.806 55.2336Z" fill="#009688"/>
<path d="M111.977 56.9652C118.053 56.9652 122.978 51.2008 122.978 44.09C122.978 36.9793 118.053 31.2148 111.977 31.2148C105.902 31.2148 100.977 36.9793 100.977 44.09C100.977 51.2008 105.902 56.9652 111.977 56.9652Z" fill="#2F2E41"/>
<path d="M109.491 46.4995C109.491 46.4995 110.094 51.4689 108.285 52.523C106.477 53.5771 110.395 59.6006 110.395 59.6006L115.066 60.8053L118.231 56.4383L117.628 51.9207C117.628 51.9207 114.012 48.3066 115.669 44.9937L109.491 46.4995Z" fill="#FFC1C7"/>
<path opacity="0.1" d="M109.491 46.4995C109.491 46.4995 110.094 51.4689 108.285 52.523C106.477 53.5771 110.395 59.6006 110.395 59.6006L115.066 60.8053L118.231 56.4383L117.628 51.9207C117.628 51.9207 114.012 48.3066 115.669 44.9937L109.491 46.4995Z" fill="black"/>
<path d="M102.71 100.443C102.71 100.443 100.902 116.857 102.71 120.772C104.518 124.687 109.34 135.68 109.34 135.68L107.833 138.843L111.902 137.939L113.56 134.777C113.56 134.777 111.601 127.097 111.299 124.386C110.998 121.676 108.738 116.706 108.738 116.706L112.957 98.7864L102.71 100.443Z" fill="#FFC1C7"/>
<path d="M117.025 97.699C117.025 97.699 117.176 114.264 118.231 116.833L117.628 139.271L120.943 139.713C120.943 139.713 125.765 120.889 125.012 116.372C124.259 111.854 125.163 95.5908 125.163 95.5908L117.025 97.699Z" fill="#FFC1C7"/>
<path d="M111.977 48.5325C115.14 48.5325 117.703 45.9705 117.703 42.8102C117.703 39.6499 115.14 37.0879 111.977 37.0879C108.815 37.0879 106.251 39.6499 106.251 42.8102C106.251 45.9705 108.815 48.5325 111.977 48.5325Z" fill="#FFC1C7"/>
<path d="M131.492 99.8074C131.492 99.8074 127.423 102.518 125.765 100.56C124.108 98.6027 103.765 101.765 101.203 101.163C98.6412 100.56 102.559 90.9227 102.559 85.9534C102.559 82.2354 103.909 76.5793 104.589 73.9652C104.818 73.0857 104.97 72.5511 104.97 72.5511C104.97 72.5511 106.516 68.1555 106.227 66.3289C106.207 66.1904 106.169 66.0552 106.114 65.9268C106.09 65.8731 106.06 65.8221 106.025 65.7747C105.303 64.8125 103.234 57.7951 102.431 54.7819C102.3 54.336 102.192 53.8836 102.107 53.4266C102.107 52.9748 107.683 51.6196 109.077 51.5548C110.472 51.4901 110.847 53.4266 110.847 53.4266C111.299 53.7278 113.409 58.9983 113.409 58.9983L115.368 54.029C115.368 54.029 115.217 52.9748 115.066 52.9748C114.916 52.9748 117.295 51.5533 117.295 51.5533C117.295 51.5533 119.738 53.276 121.094 52.9748C122.45 52.6737 125.615 55.3842 125.615 55.3842C125.615 55.3842 120.039 69.3888 122.3 72.4006C124.56 75.4123 131.492 99.8074 131.492 99.8074Z" fill="#009688"/>
<path d="M113.108 134.174C113.108 134.174 110.546 136.734 110.546 137.035L108.436 136.132C108.436 136.132 107.532 139.445 107.381 139.897C107.231 140.348 104.669 144.414 102.107 146.221C99.5454 148.028 102.107 150.287 104.367 149.835C106.628 149.384 112.354 144.264 112.354 144.264C112.354 144.264 116.272 144.264 117.628 141.252C117.628 141.252 114.012 133.873 113.108 134.174Z" fill="#2F2E41"/>
<path d="M120.642 138.518C120.642 138.518 116.771 135.707 116.521 138.317C116.272 140.927 116.272 146.649 116.272 146.649C116.272 146.649 115.066 150.414 118.834 149.962C122.601 149.511 122.902 148.456 122.902 148.456L121.094 141.228V138.066L120.642 138.518Z" fill="#2F2E41"/>
<path opacity="0.1" d="M106.025 65.7746C105.303 64.8123 103.234 57.795 102.431 54.7817H103.162C103.162 54.7817 104.997 61.9602 106.114 65.9267C106.09 65.873 106.06 65.822 106.025 65.7746Z" fill="black"/>
<path opacity="0.1" d="M115.97 75.7134C115.97 75.7134 113.861 75.864 106.176 74.3581C105.64 74.2554 105.11 74.1242 104.589 73.9651C104.818 73.0857 104.97 72.5511 104.97 72.5511C104.97 72.5511 106.516 68.1555 106.227 66.3289C106.587 67.5938 106.855 68.4476 106.929 68.4853C107.23 68.6358 116.875 70.2923 118.231 70.8946C119.587 71.497 115.97 75.7134 115.97 75.7134Z" fill="black"/>
<path opacity="0.1" d="M118.683 56.0048C118.683 56.0048 122.839 55.4923 123.097 56.1657C123.354 56.8392 124.409 63.3477 124.861 64.1822C125.313 65.0166 125.464 70.1901 123.656 70.357C121.847 70.5238 119.436 68.6881 119.888 67.1861C120.34 65.6841 118.683 56.0048 118.683 56.0048Z" fill="black"/>
<path d="M116.573 69.8405C116.573 69.8405 122.902 70.5934 123.957 69.8405C125.012 69.0876 129.382 69.0876 128.478 71.1958C127.574 73.304 119.738 73.4546 119.738 73.4546H115.217L116.573 69.8405Z" fill="#FFC1C7"/>
<path d="M103.162 53.7278H102.107C102.107 53.7278 99.9973 54.1795 100.299 60.8054C100.6 67.4312 98.4904 71.7982 106.176 73.3041C113.861 74.81 115.97 74.6594 115.97 74.6594C115.97 74.6594 119.587 70.4429 118.231 69.8406C116.875 69.2382 107.23 67.5818 106.929 67.4312C106.628 67.2806 103.162 53.7278 103.162 53.7278Z" fill="#009688"/>
<path d="M122.981 56.7C122.981 56.7 120.34 46.8008 118.231 46.8008C116.121 46.8008 113.71 47.2525 115.518 49.2102C117.327 51.1678 119.587 53.276 119.738 54.3301C119.888 55.3842 120.491 56.8901 120.491 56.8901L122.981 56.7Z" fill="#FFC1C7"/>
<path d="M119.286 56.0048C119.286 56.0048 123.442 55.4923 123.7 56.1657C123.957 56.8392 125.012 63.3477 125.464 64.1822C125.916 65.0166 126.067 70.1901 124.258 70.357C122.45 70.5238 120.039 68.6881 120.491 67.1861C120.943 65.6841 119.286 56.0048 119.286 56.0048Z" fill="#009688"/>
<path d="M110.47 42.81C113.467 42.81 115.895 40.3829 115.895 37.3889C115.895 34.3949 113.467 31.9678 110.47 31.9678C107.474 31.9678 105.046 34.3949 105.046 37.3889C105.046 40.3829 107.474 42.81 110.47 42.81Z" fill="#2F2E41"/>
<path d="M132.33 98.6716C123.912 97.2851 114.388 94.271 104.781 89.6725C93.8424 84.4365 84.5733 77.9971 77.9685 71.4893" stroke="#2F2E41" stroke-miterlimit="10"/>
<path d="M98.1977 92.5046C90.6663 88.6054 83.848 84.2704 77.9683 79.7571" stroke="#2F2E41" stroke-miterlimit="10"/>
<path d="M44.9582 31.5639C49.9449 31.5639 53.9874 27.5241 53.9874 22.5408C53.9874 17.5576 49.9449 13.5178 44.9582 13.5178C39.9715 13.5178 35.929 17.5576 35.929 22.5408C35.929 27.5241 39.9715 31.5639 44.9582 31.5639Z" fill="#009688"/>
<path d="M47.0761 27.8879C52.0628 27.8879 56.1053 23.8481 56.1053 18.8648C56.1053 13.8815 52.0628 9.8418 47.0761 9.8418C42.0894 9.8418 38.0469 13.8815 38.0469 18.8648C38.0469 23.8481 42.0894 27.8879 47.0761 27.8879Z" stroke="#2F2E41" stroke-miterlimit="10"/>
<path d="M170.495 60.3818C173.396 60.3818 175.748 58.0315 175.748 55.1321C175.748 52.2327 173.396 49.8823 170.495 49.8823C167.593 49.8823 165.241 52.2327 165.241 55.1321C165.241 58.0315 167.593 60.3818 170.495 60.3818Z" fill="#F2F2F2"/>
<path d="M171.727 58.2432C174.628 58.2432 176.98 55.8928 176.98 52.9934C176.98 50.0941 174.628 47.7437 171.727 47.7437C168.826 47.7437 166.474 50.0941 166.474 52.9934C166.474 55.8928 168.826 58.2432 171.727 58.2432Z" stroke="#2F2E41" stroke-miterlimit="10"/>
<path d="M74.6623 117.402C78.833 117.402 82.214 114.023 82.214 109.856C82.214 105.688 78.833 102.309 74.6623 102.309C70.4916 102.309 67.1106 105.688 67.1106 109.856C67.1106 114.023 70.4916 117.402 74.6623 117.402Z" fill="#F2F2F2"/>
<path d="M76.4338 114.328C80.6045 114.328 83.9855 110.949 83.9855 106.781C83.9855 102.613 80.6045 99.2346 76.4338 99.2346C72.2631 99.2346 68.8821 102.613 68.8821 106.781C68.8821 110.949 72.2631 114.328 76.4338 114.328Z" stroke="#2F2E41" stroke-miterlimit="10"/>
</g>
<defs>
<clipPath id="clip0">
<rect width="141.135" height="140.242" fill="white" transform="translate(35.929 9.75781)"/>
</clipPath>
</defs>
</svg>
