<svg width="415" height="346" viewBox="0 0 415 346" fill="none" xmlns="http://www.w3.org/2000/svg">
<g clip-path="url(#clip0)">
<path opacity="0.1" d="M134.531 12.3051C146.666 1.51844 165.713 -0.692833 183.054 0.165955C237.513 2.87093 286.672 29.1241 329.196 58.8249C344.592 69.5742 359.747 81.1616 369.738 95.9684C390.095 126.109 384.046 167.862 355.763 192.692C346.137 201.139 334.472 207.627 322.495 213.357C301.2 223.563 278.222 231.756 254.052 234.1C236.819 235.76 219.371 234.412 202.234 232.092C154.364 225.596 107.382 211.258 67.9862 186.73C50.7124 175.973 34.4314 162.597 27.3108 145.201C20.1903 127.806 24.7476 105.735 42.387 95.4167C49.6821 91.1559 58.4062 89.2309 66.9435 87.4221C79.5146 84.7627 92.2851 82.1407 103.626 76.7349C115.346 71.1507 129.217 60.3516 126.891 47.9884C124.415 34.7415 122.413 23.0918 134.531 12.3051Z" fill="#009688"/>
<path d="M284.553 277.504C284.553 277.504 294.964 259.088 310.638 253.782C317.228 251.598 322.931 247.339 326.89 241.643C328.749 238.925 330.354 236.042 331.684 233.03" stroke="#535461" stroke-width="2" stroke-miterlimit="10"/>
<path d="M341.547 229.624C339.76 231.358 331.439 233.146 331.439 233.146C331.439 233.146 333.479 224.894 335.265 223.164C336.123 222.333 337.277 221.875 338.472 221.893C339.668 221.91 340.807 222.401 341.64 223.258C342.473 224.114 342.931 225.266 342.914 226.46C342.896 227.654 342.405 228.792 341.547 229.624Z" fill="#009688"/>
<path d="M336.84 244.555C334.397 245.041 326.454 242.029 326.454 242.029C326.454 242.029 332.66 236.22 335.099 235.723C336.272 235.49 337.489 235.732 338.484 236.396C339.478 237.059 340.167 238.09 340.4 239.261C340.633 240.433 340.391 241.648 339.726 242.641C339.062 243.634 338.029 244.322 336.856 244.555H336.84Z" fill="#009688"/>
<path d="M319.703 260.71C317.348 259.881 312.001 253.284 312.001 253.284C312.001 253.284 320.31 251.392 322.653 252.205C323.224 252.389 323.753 252.685 324.209 253.075C324.664 253.466 325.037 253.944 325.305 254.48C325.573 255.016 325.731 255.601 325.77 256.199C325.809 256.797 325.728 257.397 325.531 257.964C325.335 258.53 325.027 259.052 324.626 259.498C324.225 259.944 323.739 260.305 323.196 260.561C322.653 260.817 322.064 260.962 321.465 260.988C320.865 261.013 320.266 260.919 319.703 260.71Z" fill="#009688"/>
<path d="M303.979 270.02C301.524 269.605 295.134 264 295.134 264C295.134 264 302.99 260.731 305.445 261.138C306.034 261.229 306.598 261.436 307.106 261.746C307.614 262.057 308.055 262.464 308.405 262.946C308.754 263.428 309.004 263.974 309.141 264.552C309.277 265.131 309.298 265.731 309.201 266.318C309.104 266.905 308.892 267.467 308.576 267.971C308.261 268.475 307.848 268.912 307.363 269.256C306.877 269.601 306.328 269.845 305.747 269.976C305.167 270.108 304.565 270.122 303.979 270.02Z" fill="#009688"/>
<path d="M319.5 235.582C319.5 238.071 324.003 245.277 324.003 245.277C324.003 245.277 328.514 238.071 328.514 235.586C328.514 234.392 328.04 233.247 327.194 232.403C326.349 231.559 325.202 231.084 324.007 231.084C322.812 231.084 321.665 231.559 320.82 232.403C319.974 233.247 319.5 234.392 319.5 235.586V235.582Z" fill="#009688"/>
<path d="M301.249 246.7C301.997 249.073 308.453 254.608 308.453 254.608C308.453 254.608 310.597 246.381 309.853 244.008C309.495 242.868 308.699 241.917 307.64 241.364C306.58 240.811 305.344 240.701 304.203 241.058C303.062 241.415 302.11 242.21 301.556 243.268C301.002 244.326 300.892 245.561 301.249 246.7Z" fill="#009688"/>
<path d="M284.997 259.935C285.33 262.399 290.76 268.946 290.76 268.946C290.76 268.946 294.266 261.2 293.933 258.736C293.774 257.552 293.151 256.48 292.2 255.756C291.25 255.032 290.05 254.714 288.865 254.873C287.68 255.032 286.607 255.655 285.882 256.604C285.156 257.553 284.838 258.751 284.997 259.935Z" fill="#009688"/>
<path opacity="0.25" d="M341.547 229.624C339.76 231.358 331.439 233.146 331.439 233.146C331.439 233.146 333.479 224.894 335.265 223.164C336.123 222.333 337.277 221.875 338.472 221.893C339.668 221.91 340.807 222.401 341.64 223.258C342.473 224.114 342.931 225.266 342.914 226.46C342.896 227.654 342.405 228.792 341.547 229.624Z" fill="black"/>
<path opacity="0.25" d="M336.84 244.555C334.397 245.041 326.454 242.029 326.454 242.029C326.454 242.029 332.66 236.22 335.099 235.723C336.272 235.49 337.489 235.732 338.484 236.396C339.478 237.059 340.167 238.09 340.4 239.261C340.633 240.433 340.391 241.648 339.726 242.641C339.062 243.634 338.029 244.322 336.856 244.555H336.84Z" fill="black"/>
<path opacity="0.25" d="M319.703 260.71C317.348 259.881 312.001 253.284 312.001 253.284C312.001 253.284 320.31 251.392 322.653 252.205C323.224 252.389 323.753 252.685 324.209 253.075C324.664 253.466 325.037 253.944 325.305 254.48C325.573 255.016 325.731 255.601 325.77 256.199C325.809 256.797 325.728 257.397 325.531 257.964C325.335 258.53 325.027 259.052 324.626 259.498C324.225 259.944 323.739 260.305 323.196 260.561C322.653 260.817 322.064 260.962 321.465 260.988C320.865 261.013 320.266 260.919 319.703 260.71Z" fill="black"/>
<path opacity="0.25" d="M303.979 270.02C301.524 269.605 295.134 264 295.134 264C295.134 264 302.99 260.731 305.445 261.138C306.034 261.229 306.598 261.436 307.106 261.746C307.614 262.057 308.055 262.464 308.405 262.946C308.754 263.428 309.004 263.974 309.141 264.552C309.277 265.131 309.298 265.731 309.201 266.318C309.104 266.905 308.892 267.467 308.576 267.971C308.261 268.475 307.848 268.912 307.363 269.256C306.877 269.601 306.328 269.845 305.747 269.976C305.167 270.108 304.565 270.122 303.979 270.02Z" fill="black"/>
<path opacity="0.25" d="M319.5 235.582C319.5 238.071 324.003 245.277 324.003 245.277C324.003 245.277 328.514 238.071 328.514 235.586C328.514 234.392 328.04 233.247 327.194 232.403C326.349 231.559 325.202 231.084 324.007 231.084C322.812 231.084 321.665 231.559 320.82 232.403C319.974 233.247 319.5 234.392 319.5 235.586V235.582Z" fill="black"/>
<path opacity="0.25" d="M301.249 246.7C301.997 249.073 308.453 254.608 308.453 254.608C308.453 254.608 310.597 246.381 309.853 244.008C309.495 242.868 308.699 241.917 307.64 241.364C306.58 240.811 305.344 240.701 304.203 241.058C303.062 241.415 302.11 242.21 301.556 243.268C301.002 244.326 300.892 245.561 301.249 246.7Z" fill="black"/>
<path opacity="0.25" d="M284.997 259.935C285.33 262.399 290.76 268.946 290.76 268.946C290.76 268.946 294.266 261.2 293.933 258.736C293.774 257.552 293.151 256.48 292.2 255.756C291.25 255.032 290.05 254.714 288.865 254.873C287.68 255.032 286.607 255.655 285.882 256.604C285.156 257.553 284.838 258.751 284.997 259.935Z" fill="black"/>
<path d="M285.151 277.131C285.151 277.131 287.195 256.08 299.376 244.887C304.514 240.223 307.998 234.02 309.305 227.209C309.903 223.97 310.2 220.683 310.194 217.389" stroke="#535461" stroke-width="2" stroke-miterlimit="10"/>
<path d="M317.825 210.303C316.895 212.61 310.015 217.613 310.015 217.613C310.015 217.613 308.536 209.241 309.467 206.939C309.677 206.376 309.999 205.861 310.412 205.424C310.825 204.988 311.321 204.638 311.872 204.396C312.422 204.153 313.016 204.024 313.617 204.014C314.219 204.005 314.816 204.115 315.374 204.34C315.932 204.565 316.439 204.898 316.866 205.322C317.292 205.745 317.63 206.25 317.858 206.806C318.087 207.361 318.202 207.957 318.196 208.558C318.19 209.159 318.064 209.752 317.825 210.303Z" fill="#009688"/>
<path d="M319.583 225.857C317.547 227.288 309.047 227.753 309.047 227.753C309.047 227.753 312.371 219.924 314.394 218.493C314.878 218.153 315.425 217.911 316.002 217.782C316.58 217.652 317.177 217.638 317.761 217.739C318.344 217.841 318.902 218.056 319.402 218.372C319.902 218.689 320.334 219.1 320.675 219.584C321.016 220.068 321.258 220.613 321.387 221.19C321.517 221.767 321.531 222.364 321.43 222.946C321.328 223.529 321.113 224.086 320.796 224.585C320.479 225.085 320.067 225.517 319.583 225.857Z" fill="#009688"/>
<path d="M310.472 247.563C307.979 247.771 300.418 243.887 300.418 243.887C300.418 243.887 307.236 238.801 309.699 238.589C310.891 238.489 312.074 238.866 312.987 239.637C313.901 240.407 314.47 241.509 314.57 242.699C314.671 243.889 314.293 245.07 313.522 245.982C312.75 246.894 311.647 247.463 310.455 247.563H310.472Z" fill="#009688"/>
<path d="M299.874 262.436C297.465 263.059 289.347 260.511 289.347 260.511C289.347 260.511 295.201 254.342 297.61 253.72C298.187 253.558 298.791 253.513 299.386 253.586C299.981 253.66 300.555 253.852 301.075 254.15C301.595 254.449 302.05 254.847 302.413 255.323C302.777 255.799 303.042 256.343 303.192 256.923C303.343 257.502 303.376 258.106 303.29 258.698C303.204 259.291 303.001 259.86 302.692 260.373C302.383 260.886 301.975 261.333 301.491 261.686C301.007 262.04 300.457 262.293 299.874 262.432V262.436Z" fill="#009688"/>
<path d="M300.09 224.666C301.096 226.94 308.142 231.719 308.142 231.719C308.142 231.719 309.342 223.305 308.333 221.032C307.834 219.963 306.936 219.133 305.831 218.719C304.726 218.304 303.502 218.339 302.423 218.816C301.343 219.294 300.494 220.174 300.058 221.27C299.622 222.365 299.634 223.588 300.09 224.675V224.666Z" fill="#009688"/>
<path d="M287.918 242.219C289.559 244.086 297.71 246.534 297.71 246.534C297.71 246.534 296.335 238.145 294.69 236.279C294.303 235.823 293.828 235.449 293.295 235.178C292.761 234.907 292.179 234.746 291.582 234.702C290.986 234.658 290.386 234.734 289.819 234.924C289.251 235.114 288.728 235.415 288.278 235.809C287.829 236.204 287.462 236.684 287.2 237.221C286.938 237.758 286.786 238.342 286.753 238.939C286.719 239.536 286.805 240.133 287.005 240.696C287.205 241.26 287.516 241.777 287.918 242.219Z" fill="#009688"/>
<path d="M278.429 260.897C279.734 263.017 287.353 266.801 287.353 266.801C287.353 266.801 287.415 258.304 286.107 256.184C285.797 255.68 285.391 255.243 284.911 254.896C284.432 254.549 283.889 254.3 283.313 254.162C282.737 254.025 282.14 254.002 281.556 254.095C280.971 254.188 280.411 254.396 279.906 254.705C279.402 255.015 278.964 255.42 278.616 255.899C278.269 256.378 278.019 256.92 277.882 257.495C277.744 258.07 277.721 258.666 277.815 259.25C277.908 259.834 278.115 260.393 278.425 260.897H278.429Z" fill="#009688"/>
<path opacity="0.1" d="M155.444 345.996C182.719 345.996 204.831 342.294 204.831 337.727C204.831 333.161 182.719 329.459 155.444 329.459C128.168 329.459 106.057 333.161 106.057 337.727C106.057 342.294 128.168 345.996 155.444 345.996Z" fill="#009688"/>
<path opacity="0.1" d="M252.652 282.524C279.927 282.524 302.039 278.823 302.039 274.256C302.039 269.689 279.927 265.988 252.652 265.988C225.376 265.988 203.265 269.689 203.265 274.256C203.265 278.823 225.376 282.524 252.652 282.524Z" fill="#009688"/>
<path d="M255.929 165.132L255.884 166.746L253.075 265.701H248.356L250.67 166.746L250.716 164.883L255.929 165.132Z" fill="#B77B7F"/>
<path d="M283.253 248.961L279.717 248.953L227.19 248.841L224.39 248.837L225.881 244.248H282.879L283.253 248.961Z" fill="#DDA2A6"/>
<path opacity="0.1" d="M255.929 165.132L255.884 166.746H250.67L250.716 164.883L255.929 165.132Z" fill="black"/>
<path d="M257.919 162.713H249.166V166.003H257.919V162.713Z" fill="#B77B7F"/>
<path opacity="0.1" d="M227.655 244.248L227.19 248.841L224.39 248.837L225.881 244.248H227.655Z" fill="black"/>
<path d="M235.195 162.651L235.05 164.078L223.397 278.849L218.058 278.596L230.339 164.078L230.476 162.775L235.195 162.651Z" fill="#DDA2A6"/>
<path opacity="0.1" d="M283.253 248.961L279.717 248.953L279.24 244.248H282.879L283.253 248.961Z" fill="black"/>
<path d="M288.84 278.596L283.498 278.849L271.849 164.078L271.704 162.651L276.419 162.775L276.556 164.078L288.84 278.596Z" fill="#DDA2A6"/>
<path d="M311.56 49.4944H193.843V162.215H311.56V49.4944Z" fill="white"/>
<path d="M254.999 11.7948V39.0147H250.408V11.7948C250.395 11.4856 250.445 11.1769 250.554 10.8874C250.664 10.5978 250.831 10.3333 251.045 10.1099C251.259 9.88644 251.517 9.70863 251.802 9.58716C252.087 9.46568 252.394 9.40306 252.704 9.40306C253.014 9.40306 253.32 9.46568 253.605 9.58716C253.89 9.70863 254.148 9.88644 254.362 10.1099C254.577 10.3333 254.744 10.5978 254.853 10.8874C254.962 11.1769 255.012 11.4856 254.999 11.7948Z" fill="#DDA2A6"/>
<path opacity="0.1" d="M254.999 36.5379H250.404V39.0147H254.999V36.5379Z" fill="black"/>
<path d="M256.802 38.3965V47.3827H248.63V38.3965C248.63 38.2498 248.658 38.1044 248.714 37.9688C248.77 37.8331 248.853 37.7099 248.956 37.6061C249.06 37.5024 249.184 37.4202 249.32 37.3643C249.455 37.3084 249.601 37.2799 249.748 37.2805H255.693C255.988 37.2827 256.27 37.4012 256.478 37.6103C256.685 37.8193 256.802 38.1019 256.802 38.3965Z" fill="#DDA2A6"/>
<path opacity="0.1" d="M252.701 44.7192C253.66 44.7192 254.438 43.9427 254.438 42.985C254.438 42.0272 253.66 41.2508 252.701 41.2508C251.742 41.2508 250.965 42.0272 250.965 42.985C250.965 43.9427 251.742 44.7192 252.701 44.7192Z" fill="black"/>
<path d="M252.701 44.3458C253.66 44.3458 254.438 43.5694 254.438 42.6116C254.438 41.6539 253.66 40.8774 252.701 40.8774C251.742 40.8774 250.965 41.6539 250.965 42.6116C250.965 43.5694 251.742 44.3458 252.701 44.3458Z" fill="#B77B7F"/>
<path opacity="0.1" d="M256.802 46.2708H248.605V47.3868H256.802V46.2708Z" fill="black"/>
<path opacity="0.1" d="M260.154 47.7602H245.253V50.2411H260.154V47.7602Z" fill="black"/>
<path d="M260.154 47.0134H245.253V49.4944H260.154V47.0134Z" fill="#DDA2A6"/>
<path opacity="0.1" d="M222.558 159.311H285.143C285.859 159.311 286.546 159.595 287.052 160.101C287.559 160.607 287.843 161.293 287.843 162.008V162.597H219.857V162.008C219.857 161.293 220.142 160.607 220.648 160.101C221.154 159.595 221.841 159.311 222.558 159.311Z" fill="black"/>
<path opacity="0.1" d="M230.476 162.775L235.195 162.651L235.05 164.078H230.339L230.476 162.775Z" fill="black"/>
<path opacity="0.1" d="M257.919 162.713H249.166V164.078H257.919V162.713Z" fill="black"/>
<path opacity="0.1" d="M276.556 164.078H271.849L271.704 162.651L276.419 162.775L276.556 164.078Z" fill="black"/>
<path d="M222.558 160.046H285.143C285.859 160.046 286.546 160.33 287.052 160.835C287.559 161.341 287.843 162.027 287.843 162.742V163.331H219.857V162.742C219.857 162.027 220.142 161.341 220.648 160.835C221.154 160.33 221.841 160.046 222.558 160.046Z" fill="#DDA2A6"/>
<path d="M208.836 107.714C207.893 107.216 197.619 99.4658 197.619 99.4658L181.039 88.9654C181.039 88.9654 180.952 88.7165 180.794 88.2892C185.343 83.1323 184.35 75.648 179.722 70.3874C174.113 64.0066 148.772 50.2702 141.136 62.0194C140.068 63.6789 140.031 65.5624 139.753 67.3878C139.1 71.6486 136.998 75.7766 133.7 79.2532C131.157 81.9374 127.821 84.4101 126.359 87.447C126.359 87.4096 126.33 87.3723 126.318 87.3308C125.965 87.9817 125.708 88.6805 125.557 89.4052C124.83 93.11 127.323 96.6613 128.648 100.267C129.093 101.487 129.416 102.749 129.612 104.034C129.645 103.776 129.674 103.523 129.703 103.266C130.026 105.095 130.136 106.955 130.032 108.809C120.83 110.68 120.825 126.399 120.825 126.399C120.825 126.399 119.691 132.647 119.882 134.9C120.074 137.153 120.069 142.024 120.069 143.198C120.069 144.372 118.935 151.694 118.823 152.574C118.824 152.586 118.824 152.599 118.823 152.611C118.657 153.574 116.933 158.212 121.1 159.249C121.39 159.324 121.698 159.386 122.018 159.444C122.196 163.199 122.52 171.06 122.234 172.811C122.234 172.811 123.75 183.374 125.009 186.058C125.805 187.632 126.736 189.134 127.792 190.547C127.701 191.19 127.484 191.809 127.153 192.368C126.509 193.294 126.841 194.053 127.917 194.381C127.88 194.7 127.838 195.061 127.792 195.467C127.331 199.542 126.642 207.64 127.813 211.743C129.421 217.369 129.516 219.244 129.516 219.244C129.516 219.244 129.516 220.928 130.181 221.866C130.846 222.803 132.071 231.524 132.071 232.931C132.071 234.337 135.287 246.991 134.34 249.99C133.392 252.99 134.153 257.209 134.153 257.209C134.153 257.209 133.583 264.614 132.906 266.207C132.229 267.801 131.959 293.485 132.998 300.14C134.036 306.795 134.701 312.325 134.701 312.325C134.701 312.325 134.04 318.419 134.605 319.261C135.17 320.104 136.213 325.169 135.457 325.447C134.701 325.725 134.323 327.791 134.323 327.791C134.723 328.398 135.154 328.984 135.615 329.546C135.323 329.445 135.039 329.324 134.763 329.185C135.062 329.6 135.511 330.189 136.064 330.845L135.544 337.586C135.523 337.849 135.594 338.112 135.746 338.328C135.897 338.544 136.12 338.7 136.375 338.769C138.034 339.219 139.784 339.211 141.439 338.747C143.094 338.282 144.592 337.378 145.772 336.13C150.5 331.351 152.108 332.006 152.959 329.102C153.051 328.791 153.13 328.484 153.196 328.194C153.807 325.605 151.044 323.68 148.847 324.783C149.15 322.734 149.387 320.406 149.158 319.091C148.685 316.374 148.78 309.251 148.78 309.251L148.12 275.127C148.12 275.127 149.345 268.377 150.766 265.755C152.187 263.133 152.012 253.944 152.012 253.944L153.62 223.758L155.132 209.042C155.132 209.042 156.644 203.981 158.535 209.606C158.535 209.606 157.496 220.945 157.97 223.666C158.443 226.388 159.104 239.602 158.63 242.506C158.157 245.41 156.079 261.349 157.384 265.378C158.688 269.406 160.142 274.289 159.852 275.886C159.561 277.484 158.605 312.068 158.605 312.068C158.605 312.068 161.16 318.706 159.27 320.879C157.38 323.053 159.174 331.666 159.174 331.666C159.174 331.666 159.403 331.828 159.793 332.052L159.739 332.77L159.145 340.524C159.124 340.787 159.195 341.05 159.347 341.266C159.499 341.483 159.721 341.64 159.976 341.71C161.635 342.161 163.385 342.154 165.04 341.689C166.695 341.224 168.193 340.32 169.373 339.072C174.101 334.288 175.709 334.948 176.56 332.04C176.652 331.728 176.731 331.426 176.801 331.131C177.466 328.306 174.101 326.256 171.849 328.102L171.737 328.198C171.619 328.298 171.496 328.391 171.367 328.476C171.308 328.52 171.245 328.56 171.18 328.596C171.654 326.455 172.344 322.788 172.011 321.07C171.538 318.54 172.481 310.856 172.481 310.856C172.481 310.856 175.223 301.667 175.318 297.995L176.074 268.751C176.074 268.751 175.983 256.844 176.361 253.94C176.739 251.036 179.763 225.911 182.788 218.41C185.11 212.668 186.149 198.015 185.534 190.584C185.501 190.219 185.467 189.867 185.426 189.539C189.136 186.805 189.505 182.258 189.505 182.258C189.505 182.258 186.099 175.761 182.821 173.01C179.543 170.26 178.837 165.53 178.953 163.518C179.009 162.292 178.605 161.089 177.819 160.145C177.819 160.145 176.307 155.27 175.297 154.773C175.215 154.731 175.14 154.674 175.077 154.607C174.392 153.872 174.919 151.773 174.919 151.773V151.707C175.04 151.221 175.75 148.077 175.538 147.272C175.285 146.4 175.663 142.272 175.663 142.272C175.663 142.272 178.06 135.149 177.682 129.523C177.304 123.898 182.601 124.4 182.601 124.4L198.957 124.23H200.818C201.474 123.673 202.074 123.053 202.608 122.379C205.724 122.01 212.026 120.836 212.732 117.401C213.692 112.841 209.783 108.216 208.836 107.714ZM133.06 159.722L133.172 156.864C133.559 157.195 133.816 157.407 133.816 157.407C134.025 158.155 134.035 158.944 133.845 159.697C133.744 160.051 133.564 160.377 133.318 160.651C133.073 160.926 132.769 161.141 132.429 161.282C132.35 161.316 132.273 161.356 132.2 161.402L132.042 159.788L133.06 159.722ZM192.384 109.522C191.691 109.211 189.356 109.273 188.155 109.273C186.955 109.273 185.006 108.274 185.006 108.274C184.591 107.465 182.293 106.983 180.249 106.71C178.696 102.884 176.511 99.1547 176.216 95.1677C176.216 95.0225 176.216 94.8773 176.195 94.7321L176.432 95.147C176.432 95.147 185.953 101.212 187.025 103.03C187.856 104.415 191.857 107.51 193.71 108.896C193.454 109.228 193.097 109.467 192.692 109.576C192.586 109.588 192.48 109.569 192.384 109.522Z" fill="url(#paint0_linear)"/>
<path d="M176.66 331.156C176.589 331.446 176.515 331.749 176.423 332.056C175.592 334.96 174.001 334.288 169.361 339.03C168.205 340.268 166.731 341.166 165.101 341.629C163.47 342.091 161.744 342.099 160.109 341.652C159.854 341.585 159.631 341.43 159.479 341.214C159.327 340.999 159.256 340.737 159.278 340.474L159.864 332.782L160.142 329.081C160.142 329.081 167.554 331.156 171.326 328.521C171.452 328.435 171.574 328.342 171.691 328.243C171.721 328.217 171.748 328.19 171.775 328.16C172.261 327.758 172.862 327.518 173.493 327.473C174.123 327.429 174.752 327.582 175.29 327.913C175.829 328.243 176.251 328.733 176.496 329.315C176.742 329.896 176.799 330.54 176.66 331.156Z" fill="#67647E"/>
<path d="M153.396 328.252C153.325 328.542 153.25 328.845 153.159 329.152C152.328 332.056 150.737 331.384 146.096 336.126C144.94 337.364 143.467 338.262 141.836 338.724C140.206 339.187 138.48 339.195 136.845 338.748C136.59 338.681 136.366 338.526 136.214 338.31C136.062 338.095 135.991 337.832 136.014 337.57L136.6 329.878L136.878 326.177C136.878 326.177 144.289 328.252 148.061 325.617C148.188 325.531 148.31 325.438 148.427 325.339C148.456 325.313 148.484 325.285 148.51 325.256C148.997 324.854 149.598 324.614 150.228 324.569C150.859 324.525 151.487 324.678 152.026 325.009C152.565 325.339 152.986 325.829 153.232 326.411C153.478 326.992 153.535 327.636 153.396 328.252Z" fill="#67647E"/>
<path opacity="0.1" d="M145.739 329.405L146.038 333.404C141.784 337.649 136.72 331.33 135.237 329.256C139.138 331.264 145.739 329.405 145.739 329.405Z" fill="black"/>
<path opacity="0.1" d="M170.744 331.031L171.301 330.662C167.417 336.562 161.646 333.84 159.847 332.782L160.126 329.081C160.126 329.081 167.537 331.156 171.309 328.521C171.014 329.965 170.744 331.031 170.744 331.031Z" fill="black"/>
<path d="M182.576 219.335C179.593 226.774 176.614 251.695 176.24 254.599C175.867 257.503 175.962 269.294 175.962 269.294L175.214 298.29C175.119 301.92 172.418 311.034 172.418 311.034C172.418 311.034 171.488 318.66 171.953 321.17C172.418 323.68 170.744 330.297 170.744 330.297L171.301 329.924C166.644 336.976 159.286 331.691 159.286 331.691C159.286 331.691 157.517 323.136 159.382 320.996C161.247 318.855 158.73 312.254 158.73 312.254C158.73 312.254 159.66 277.936 159.939 276.355C160.217 274.775 158.821 269.937 157.517 265.938C156.212 261.938 158.265 246.128 158.73 243.244C159.195 240.361 158.543 227.247 158.078 224.55C157.612 221.853 158.634 210.598 158.634 210.598C156.773 205.018 155.282 210.042 155.282 210.042L153.79 224.641L152.207 254.591C152.207 254.591 152.394 263.718 150.999 266.311C149.603 268.904 148.39 275.608 148.39 275.608L149.042 309.466C149.042 309.466 148.95 316.519 149.416 319.228C149.881 321.937 148.39 328.903 148.39 328.903C143.176 341.171 134.801 327.87 134.801 327.87C134.801 327.87 135.175 325.825 135.918 325.547C136.662 325.269 135.64 320.245 135.087 319.407C134.535 318.569 135.179 312.524 135.179 312.524C135.179 312.524 134.526 307.039 133.517 300.434C132.507 293.83 132.773 268.348 133.426 266.768C134.078 265.187 134.634 257.839 134.634 257.839C134.634 257.839 133.891 253.653 134.821 250.675C135.752 247.696 132.586 235.146 132.586 233.748C132.586 232.35 131.377 223.704 130.725 222.774C130.073 221.845 130.073 220.169 130.073 220.169C130.073 220.169 129.982 218.31 128.411 212.73C127.256 208.656 127.938 200.624 128.39 196.579C128.553 195.082 128.694 194.127 128.694 194.127C128.694 194.127 182.106 185.477 184.238 187.431C184.736 187.892 185.068 189.473 185.264 191.725C185.899 199.093 184.852 213.656 182.576 219.335Z" fill="#444053"/>
<path opacity="0.1" d="M162.361 261.154C162.61 261.154 168.509 261.652 170.67 261.217C172.83 260.781 162.361 261.154 162.361 261.154Z" fill="black"/>
<path opacity="0.1" d="M162.797 264.627C162.797 264.627 170.944 266.054 171.359 265.311C171.774 264.569 162.797 264.627 162.797 264.627Z" fill="black"/>
<path opacity="0.1" d="M137.9 263.137C137.9 263.137 142.121 263.324 144.418 264.382C146.715 265.44 137.9 263.137 137.9 263.137Z" fill="black"/>
<path d="M122.562 158.851C122.562 158.851 123.243 171.807 122.874 174.101C122.874 174.101 124.361 184.581 125.603 187.245C126.845 189.908 129.516 193.26 129.516 193.26L133.181 167.538L132.308 158.726L122.562 158.851Z" fill="#EFB7B9"/>
<path d="M161.056 99.8226C168.977 99.8226 175.397 93.4107 175.397 85.5012C175.397 77.5917 168.977 71.1798 161.056 71.1798C153.136 71.1798 146.716 77.5917 146.716 85.5012C146.716 93.4107 153.136 99.8226 161.056 99.8226Z" fill="#EFB7B9"/>
<path d="M153.608 92.1931C153.608 92.1931 149.137 100.939 144.667 105.029C140.197 109.12 171.488 113.771 172.231 113.771C172.975 113.771 166.644 95.1719 167.761 92.9274C168.879 90.683 153.608 92.1931 153.608 92.1931Z" fill="#EFB7B9"/>
<path opacity="0.1" d="M185.272 191.725C184.57 192.261 183.795 192.694 182.971 193.011C177.263 195.243 171.052 198.343 166.831 197.106C162.61 195.87 153.67 197.106 153.67 197.106C153.67 197.106 135.661 195.617 132.067 196.484C130.43 196.878 129.159 196.861 128.328 196.579C128.49 195.082 128.632 194.127 128.632 194.127C128.632 194.127 182.107 185.477 184.238 187.431C184.745 187.892 185.069 189.473 185.272 191.725Z" fill="black"/>
<path d="M189.181 183.461C189.181 183.461 188.687 189.663 182.971 191.895C177.254 194.127 171.052 197.227 166.831 195.99C162.61 194.754 153.67 195.99 153.67 195.99C153.67 195.99 135.661 194.501 132.067 195.368C128.474 196.235 126.6 195.123 127.718 193.509C128.835 191.895 128.715 186.564 128.715 184.332C128.715 182.1 127.468 173.048 128.586 171.434C129.703 169.82 130.696 163.622 132.931 162.626C133.267 162.485 133.567 162.27 133.808 161.998C134.05 161.726 134.227 161.403 134.327 161.054C134.512 160.307 134.502 159.526 134.298 158.784C134.298 158.784 133.92 158.473 133.401 158.013C132.084 156.839 129.857 154.661 130.572 153.947C131.565 152.951 130.572 146.504 130.572 146.504C130.572 146.504 128.212 141.546 129.084 139.688C129.957 137.829 121.507 128.03 121.507 128.03C121.507 128.03 121.507 111.169 131.689 110.423C131.689 110.423 138.893 110.672 139.761 107.448C140.629 104.224 146.342 102.362 146.342 102.362L159.382 105.216C159.382 105.216 170.927 107.705 173.042 106.208C175.156 104.71 176.781 108.191 176.781 108.191C176.781 108.191 183.98 108.564 184.724 110.053C185.467 111.543 182.368 126.047 182.368 126.047C182.368 126.047 177.15 125.553 177.524 131.133C177.898 136.713 175.514 143.783 175.514 143.783C175.514 143.783 175.14 147.873 175.389 148.74C175.622 149.541 174.899 152.661 174.782 153.142V153.204C174.782 153.204 174.263 155.279 174.936 156.017C174.998 156.084 175.071 156.14 175.152 156.183C176.149 156.677 177.645 161.514 177.645 161.514C178.42 162.453 178.818 163.646 178.762 164.862C178.642 166.85 179.385 171.558 182.613 174.288C185.841 177.018 189.181 183.461 189.181 183.461Z" fill="#A36468"/>
<path d="M133.799 154.744V155.27L133.575 161.079C133.575 161.079 125.935 161.697 121.777 160.664C117.618 159.631 119.367 155.021 119.533 154.067C119.535 154.055 119.535 154.042 119.533 154.03C119.654 153.159 120.78 145.907 120.78 144.728C120.78 143.55 120.78 138.713 120.593 136.481C120.406 134.249 121.507 128.03 121.507 128.03L122.313 127.042L131.062 130.39L133.799 154.744Z" fill="#A36468"/>
<path opacity="0.1" d="M133.779 155.283L133.554 161.091C133.554 161.091 125.915 161.709 121.756 160.676C117.597 159.643 119.346 155.034 119.513 154.08L133.779 155.283Z" fill="black"/>
<path opacity="0.1" d="M134.327 161.058C134.512 160.311 134.502 159.53 134.298 158.789C134.298 158.789 133.92 158.477 133.401 158.017C139.977 157.1 166.021 153.532 174.791 153.142V153.204C174.791 153.204 174.271 155.279 174.944 156.017L134.327 161.058Z" fill="black"/>
<path opacity="0.1" d="M175.771 165.53C175.771 165.53 177.387 174.657 171.363 177.869C171.359 177.885 174.778 173.359 175.771 165.53Z" fill="black"/>
<path opacity="0.1" d="M136.346 178.13C136.346 178.13 150.886 175.641 153.732 177.574C156.578 179.507 136.346 178.13 136.346 178.13Z" fill="black"/>
<path opacity="0.1" d="M170.744 121.645C170.744 121.645 168.509 130.822 170.183 132.929C171.858 135.037 170.744 121.645 170.744 121.645Z" fill="black"/>
<path opacity="0.1" d="M128.648 114.144C128.648 114.144 130.696 117.554 129.454 121.089C128.212 124.624 128.648 114.144 128.648 114.144Z" fill="black"/>
<path opacity="0.1" d="M124.415 144.031C124.415 144.031 127.024 145.579 126.155 147.998C125.287 150.416 124.415 144.031 124.415 144.031Z" fill="black"/>
<path opacity="0.1" d="M124.178 136.962C124.178 136.962 126.596 138.265 126.907 140.186C127.219 142.106 124.178 136.962 124.178 136.962Z" fill="black"/>
<path opacity="0.1" d="M160.063 211.116C160.063 211.116 175.277 212.668 178.318 209.071C178.318 209.092 164.596 211.801 160.063 211.116Z" fill="black"/>
<path opacity="0.1" d="M133.8 210.249C133.8 210.249 150.13 214.095 153.358 211.054C153.358 211.054 139.325 212.108 133.8 210.249Z" fill="black"/>
<path opacity="0.1" d="M161.243 216.145C161.243 216.145 168.073 216.145 171.239 216.331C174.404 216.518 161.243 216.145 161.243 216.145Z" fill="black"/>
<path opacity="0.1" d="M134.917 219.049C134.917 219.049 138.27 222.833 142.058 222.152C145.847 221.472 134.917 219.049 134.917 219.049Z" fill="black"/>
<path d="M141.502 64.156C140.451 65.7864 140.413 67.6741 140.139 69.4829C139.499 73.7105 137.426 77.8053 134.182 81.257C131.203 84.4184 127.119 87.2851 126.347 91.1476C125.615 94.8151 128.096 98.3457 129.396 101.934C132.823 111.348 128.037 121.222 126.642 130.938C126.255 133.622 126.72 137.053 130.032 137.945C131.066 138.227 132.25 138.19 133.181 138.638C134.427 139.236 134.809 140.476 135.038 141.592C135.871 145.584 136.159 149.67 135.893 153.74C135.744 156.021 135.578 158.647 137.738 160.216C138.718 160.933 140.039 161.299 141.315 161.643C144.717 162.56 149.117 163.302 151.41 161.149C152.374 160.249 152.735 158.979 153.936 158.266C155.735 157.2 158.285 157.921 160.549 158.033C165.198 158.266 169.469 155.544 171.301 152.263C173.133 148.981 172.963 145.21 172.298 141.671C171.633 138.132 170.445 134.618 170.362 131.025C170.333 129.781 170.445 128.515 171.16 127.412C172.543 125.275 175.763 124.304 177.965 122.624C182.09 119.471 182.077 114.306 180.578 109.983C179.078 105.66 176.386 101.515 176.054 97.0471C175.905 95.967 176.12 94.8682 176.664 93.9231C177.254 93.0145 178.284 92.3341 179.157 91.5832C185.177 86.5052 184.466 78.1662 179.489 72.4576C173.98 66.1308 149.021 52.5022 141.502 64.156Z" fill="#E3787D"/>
<g opacity="0.1">
<path opacity="0.1" d="M130.16 105.842C130.63 102.071 130.542 98.3332 129.209 94.6616C128.552 92.861 127.601 91.0729 126.907 89.2682C126.561 89.9208 126.309 90.6192 126.16 91.3426C125.428 95.0101 127.909 98.5407 129.209 102.129C129.647 103.333 129.965 104.577 130.16 105.842Z" fill="black"/>
<path opacity="0.1" d="M135.706 146.467C135.971 142.398 135.684 138.312 134.855 134.319C134.622 133.203 134.24 131.967 132.993 131.37C132.063 130.921 130.879 130.955 129.844 130.677C129.209 130.525 128.616 130.229 128.112 129.814C127.609 129.398 127.206 128.873 126.936 128.279C126.745 129.225 126.579 130.166 126.442 131.112C126.056 133.797 126.521 137.228 129.832 138.12C130.866 138.398 132.05 138.36 132.981 138.808C134.227 139.406 134.609 140.646 134.842 141.762C135.223 143.614 135.49 145.487 135.64 147.371C135.669 147.064 135.685 146.765 135.706 146.467Z" fill="black"/>
<path opacity="0.1" d="M171.118 144.994C169.282 148.288 165.011 150.997 160.362 150.765C158.098 150.649 155.548 149.935 153.753 150.997C152.552 151.707 152.187 152.98 151.223 153.881C148.93 156.017 144.53 155.291 141.128 154.374C139.852 154.026 138.535 153.665 137.551 152.947C136.613 152.258 135.979 151.231 135.785 150.084C135.81 151.358 135.785 152.636 135.706 153.91C135.557 156.191 135.391 158.818 137.551 160.39C138.535 161.104 139.852 161.469 141.128 161.813C144.53 162.73 148.93 163.472 151.223 161.319C152.187 160.419 152.552 159.149 153.753 158.415C155.548 157.349 158.098 158.071 160.362 158.183C165.011 158.415 169.282 155.694 171.118 152.412C172.879 149.242 172.801 145.658 172.186 142.235C171.954 143.198 171.595 144.126 171.118 144.994Z" fill="black"/>
<path opacity="0.1" d="M178.986 84.3313C178.097 85.078 177.067 85.7626 176.494 86.6711C175.95 87.6162 175.735 88.715 175.883 89.7951C176.004 91.1527 176.291 92.4904 176.739 93.7779C177.431 93.0411 178.189 92.3689 179.003 91.7699C183.074 88.3389 184.063 83.4144 182.742 78.8176C182.045 80.9768 180.741 82.8906 178.986 84.3313Z" fill="black"/>
<path opacity="0.1" d="M177.777 115.351C175.58 117.032 172.356 118.007 170.977 120.143C170.258 121.247 170.146 122.52 170.175 123.752C170.226 125.203 170.404 126.647 170.707 128.067C170.785 127.899 170.876 127.737 170.977 127.582C172.356 125.445 175.58 124.474 177.777 122.794C181.545 119.915 181.861 115.36 180.748 111.298C180.183 112.914 179.149 114.325 177.777 115.351Z" fill="black"/>
</g>
<path d="M200.357 124.188C200.357 124.188 211.1 123.632 212.03 119.106C212.961 114.58 209.122 109.979 208.183 109.493C207.245 109.008 197.116 101.308 197.116 101.308L180.79 90.8946C180.79 90.8946 172.967 68.4914 171.235 77.0668C169.502 85.6423 176.265 97.0305 176.265 97.0305C176.265 97.0305 185.638 103.046 186.693 104.843C187.748 106.639 194.208 111.352 194.208 111.352L200.357 124.188Z" fill="#EFB7B9"/>
<path d="M206.131 116.87C203.589 123.321 200.294 125.864 200.294 125.864H198.462L182.356 126.03L180.499 120.965L183.108 109.987L184.72 110.053C184.72 110.053 186.647 111.045 187.823 111.045C188.999 111.045 191.304 110.983 191.977 111.29C192.071 111.336 192.177 111.351 192.281 111.335C192.891 111.273 193.527 110.36 193.527 110.36C193.527 110.36 208.678 110.423 206.131 116.87Z" fill="#A36468"/>
<path opacity="0.1" d="M206.131 116.87C203.589 123.321 200.294 125.864 200.294 125.864H198.462C199.418 123.309 201.433 118.065 202.201 116.853C202.953 115.708 196.206 112.858 192.26 111.319C192.87 111.257 193.506 110.344 193.506 110.344C193.506 110.344 208.678 110.423 206.131 116.87Z" fill="black"/>
<path opacity="0.1" d="M37.7299 320.191C47.8666 320.191 56.0839 318.586 56.0839 316.606C56.0839 314.627 47.8666 313.022 37.7299 313.022C27.5933 313.022 19.376 314.627 19.376 316.606C19.376 318.586 27.5933 320.191 37.7299 320.191Z" fill="#009688"/>
<path opacity="0.1" d="M343.682 295.572C351.065 295.572 357.051 294.404 357.051 292.963C357.051 291.521 351.065 290.353 343.682 290.353C336.299 290.353 330.313 291.521 330.313 292.963C330.313 294.404 336.299 295.572 343.682 295.572Z" fill="#009688"/>
<path opacity="0.1" d="M401.631 306.147C409.015 306.147 415 304.979 415 303.538C415 302.097 409.015 300.928 401.631 300.928C394.248 300.928 388.262 302.097 388.262 303.538C388.262 304.979 394.248 306.147 401.631 306.147Z" fill="#009688"/>
<path opacity="0.1" d="M311.901 327.928C319.285 327.928 325.27 326.76 325.27 325.319C325.27 323.877 319.285 322.709 311.901 322.709C304.518 322.709 298.532 323.877 298.532 325.319C298.532 326.76 304.518 327.928 311.901 327.928Z" fill="#009688"/>
<path d="M55.0743 217.103C55.0743 217.103 58.0821 221.032 53.6868 226.956C49.2915 232.881 45.673 237.884 47.1437 241.581C47.1437 241.581 53.7699 230.574 59.1664 230.42C64.5629 230.267 61.0109 223.724 55.0743 217.103Z" fill="#009688"/>
<path opacity="0.1" d="M55.0744 217.103C55.3375 217.487 55.5446 217.906 55.6892 218.348C60.9528 224.525 63.757 230.288 58.697 230.433C53.9859 230.566 48.3319 238.983 46.9775 241.108C47.0209 241.273 47.075 241.435 47.1396 241.593C47.1396 241.593 53.7658 230.586 59.1623 230.433C64.5588 230.279 61.011 223.724 55.0744 217.103Z" fill="black"/>
<path d="M60.662 222.106C60.662 223.488 60.5083 224.596 60.3172 224.596C60.1261 224.596 59.9683 223.475 59.9683 222.106C59.9683 220.737 60.1635 221.376 60.3546 221.376C60.5457 221.376 60.662 220.708 60.662 222.106Z" fill="#FFD037"/>
<path d="M62.5813 223.758C61.3682 224.417 60.3088 224.82 60.2174 224.65C60.126 224.48 61.0483 223.82 62.2489 223.148C63.4495 222.476 62.9842 222.969 63.0798 223.148C63.1753 223.326 63.7943 223.094 62.5813 223.758Z" fill="#FFD037"/>
<path d="M39.2006 217.103C39.2006 217.103 36.1928 221.032 40.5881 226.956C44.9834 232.881 48.6019 237.884 47.1437 241.581C47.1437 241.581 40.4967 230.574 35.0961 230.42C29.6954 230.267 33.264 223.724 39.2006 217.103Z" fill="#009688"/>
<path opacity="0.1" d="M39.2006 217.103C38.9375 217.487 38.7305 217.906 38.5858 218.348C33.3222 224.525 30.518 230.288 35.578 230.433C40.2891 230.566 45.9639 238.983 47.2975 241.108C47.2537 241.272 47.201 241.434 47.1396 241.593C47.1396 241.593 40.4927 230.586 35.092 230.433C29.6913 230.279 33.2641 223.724 39.2006 217.103Z" fill="black"/>
<path d="M33.613 222.106C33.613 223.488 33.7667 224.596 33.9578 224.596C34.1489 224.596 34.3068 223.475 34.3068 222.106C34.3068 220.737 34.1116 221.376 33.9205 221.376C33.7294 221.376 33.613 220.708 33.613 222.106Z" fill="#FFD037"/>
<path d="M31.6936 223.758C32.9109 224.417 33.9661 224.82 34.0616 224.65C34.1572 224.48 33.2308 223.82 32.026 223.148C30.8212 222.476 31.2907 222.969 31.1951 223.148C31.0996 223.326 30.4806 223.094 31.6936 223.758Z" fill="#FFD037"/>
<path opacity="0.1" d="M47.1353 271.609C64.4923 271.609 78.563 269.453 78.563 266.792C78.563 264.132 64.4923 261.976 47.1353 261.976C29.7782 261.976 15.7075 264.132 15.7075 266.792C15.7075 269.453 29.7782 271.609 47.1353 271.609Z" fill="#009688"/>
<path d="M63.3124 236.291L63.1628 237.536L62.9509 239.266L62.8637 239.987L62.6518 241.722L62.5604 242.444L62.3486 244.174L59.9473 263.855C59.7313 265.614 56.8565 266.983 53.3834 266.983H40.912C37.439 266.983 34.5683 265.614 34.3523 263.855L31.9469 244.169L31.7351 242.439L31.6478 241.718L31.4318 239.983L31.3446 239.261L31.1327 237.531L30.9831 236.287C30.8626 235.291 32.4164 234.453 34.3814 234.453H59.939C61.8791 234.457 63.437 235.295 63.3124 236.291Z" fill="#65617D"/>
<path d="M63.1588 237.515L62.9511 239.249H31.3198L31.1121 237.515H63.1588Z" fill="#9D9CB5"/>
<path d="M62.8596 239.971L62.6519 241.701H31.623L31.4111 239.971H62.8596Z" fill="#9D9CB5"/>
<path d="M62.5605 242.423L62.3486 244.153H31.9221L31.7102 242.423H62.5605Z" fill="#9D9CB5"/>
<path opacity="0.1" d="M74.7745 64.7285C82.0018 64.7285 87.8607 58.8775 87.8607 51.66C87.8607 44.4425 82.0018 38.5915 74.7745 38.5915C67.5471 38.5915 61.6882 44.4425 61.6882 51.66C61.6882 58.8775 67.5471 64.7285 74.7745 64.7285Z" fill="#009688"/>
<path opacity="0.1" d="M47.3557 28.6345C51.8297 28.6345 55.4567 25.0125 55.4567 20.5445C55.4567 16.0765 51.8297 12.4545 47.3557 12.4545C42.8816 12.4545 39.2546 16.0765 39.2546 20.5445C39.2546 25.0125 42.8816 28.6345 47.3557 28.6345Z" fill="#009688"/>
<path opacity="0.1" d="M4.98523 43.57C7.7385 43.57 9.97047 41.341 9.97047 38.5915C9.97047 35.842 7.7385 33.613 4.98523 33.613C2.23197 33.613 0 35.842 0 38.5915C0 41.341 2.23197 43.57 4.98523 43.57Z" fill="#009688"/>
</g>
<defs>
<linearGradient id="paint0_linear" x1="165.601" y1="342.026" x2="165.601" y2="57.4226" gradientUnits="userSpaceOnUse">
<stop stop-color="#808080" stop-opacity="0.25"/>
<stop offset="0.54" stop-color="#808080" stop-opacity="0.12"/>
<stop offset="1" stop-color="#808080" stop-opacity="0.1"/>
</linearGradient>
<clipPath id="clip0">
<rect width="415" height="346" fill="white"/>
</clipPath>
</defs>
</svg>
