<svg width="154" height="107" viewBox="0 0 154 107" fill="none" xmlns="http://www.w3.org/2000/svg">
<path d="M16.3244 18.2C20.4604 18.2 23.8133 14.8333 23.8133 10.6803C23.8133 6.52727 20.4604 3.16058 16.3244 3.16058C12.1883 3.16058 8.83545 6.52727 8.83545 10.6803C8.83545 14.8333 12.1883 18.2 16.3244 18.2Z" fill="#009688"/>
<path opacity="0.1" d="M15.4093 25.9881C18.5537 33.1196 14.5427 41.3316 9.82122 47.5152C8.24096 49.5889 6.49639 51.7628 6.27731 54.3637C6.01313 57.5453 8.1588 60.4697 10.704 62.3816C15.3465 65.8656 21.6869 66.9429 27.2121 65.1847C31.9867 63.6659 36.001 60.2352 40.8175 58.8522C48.8718 56.536 57.4094 60.3759 64.3071 65.1604C69.1897 68.5426 74.4185 72.6639 80.3046 71.9393C84.4462 71.4298 87.9611 68.5102 90.3468 65.0731C91.4985 63.4135 92.5005 61.5534 94.1774 60.4341C95.1745 59.7677 96.3456 59.4151 97.5167 59.1628C108.211 56.8676 119.561 62.4689 130.114 59.5882C137.242 57.6472 142.925 51.986 146.46 45.4724C149.994 38.9587 151.643 31.604 153.017 24.3172C153.994 19.1413 154.804 13.5496 152.56 8.78938C150.186 3.74929 144.689 0.693852 139.166 0.121262C133.642 -0.451329 128.102 1.12896 123.013 3.35785C116.655 6.14964 110.423 10.0575 103.483 10.0704C98.7571 10.0801 94.2499 8.25884 89.7314 6.86942C82.1765 4.54833 74.3203 3.39505 66.4915 2.33075C58.9961 1.31173 51.4266 0.363885 43.8862 0.96559C38.551 1.39099 33.8392 3.43873 28.6619 4.38658C25.2871 5.00446 21.8963 4.54832 18.5843 5.58351C14.5056 6.86456 10.3109 9.83265 10.0854 14.5072C9.87276 18.9569 13.7421 22.2048 15.4093 25.9881Z" fill="#009688"/>
<path d="M97.9581 32.3384C97.2702 30.5382 95.4967 26.3068 94.3288 27.1463C92.8532 28.2074 95.8043 32.8948 95.8043 32.8948C95.8881 33.7553 94.2289 35.5459 93.3397 36.4388C93.3397 36.3676 93.3397 36.3272 93.3397 36.3272C93.3312 36.3611 93.3182 36.3938 93.3011 36.4242L93.227 36.3838C93.2071 36.4551 93.1713 36.521 93.1222 36.5762C93.1222 36.4549 93.1142 36.3838 93.1142 36.3838C92.9434 37.11 89.9633 38.0304 89.9633 38.0304C89.9633 38.0304 89.8828 38.0304 89.7443 38.0304C88.9163 38.0304 86.7609 37.8427 85.7622 36.2382C85.2456 35.369 84.5848 34.5949 83.8082 33.9494C83.5423 33.7402 83.2192 33.6172 82.882 33.5968C80.1226 33.4189 77.8883 32.0166 77.4421 31.7173L77.3599 31.6607L77.3422 31.7125C77.2375 31.562 77.136 31.4019 77.041 31.2369L76.9926 31.148C77.6606 30.8113 78.2226 30.2954 78.6164 29.6576C79.0102 29.0198 79.2204 28.2849 79.2237 27.5345C79.2237 27.507 79.2237 27.4779 79.2237 27.4504C79.4664 27.0291 79.5942 26.5509 79.5942 26.0642V25.579L80.224 25.0161C80.5124 24.7589 80.8104 24.4871 80.957 24.1329C81.0159 23.9896 81.0423 23.8349 81.0343 23.68C81.0484 23.5474 81.0286 23.4133 80.9768 23.2904C80.9249 23.1676 80.8427 23.0601 80.7379 22.978C80.2546 22.6432 79.4492 22.978 79.0997 22.5122C78.9386 22.3019 78.9676 22.0156 78.8886 21.7682C78.7276 21.2651 78.1476 20.9934 77.6112 20.9853C77.0748 20.9772 76.5609 21.1729 76.0455 21.3201C74.9625 21.6288 73.8322 21.7352 72.711 21.6339C72.4077 21.5797 72.0964 21.5907 71.7976 21.6663C71.6151 21.742 71.453 21.8598 71.3242 22.0101C71.1955 22.1605 71.1038 22.3391 71.0566 22.5316C71.0168 22.6763 70.993 22.8249 70.9857 22.9748C70.5363 23.4838 70.2877 24.1401 70.2866 24.8204V26.0642C70.2876 26.7282 70.5247 27.3701 70.9551 27.8742C71.0059 28.4594 71.1831 29.0266 71.4744 29.5361C71.7657 30.0456 72.164 30.4852 72.6417 30.8245C72.6417 30.8568 72.6417 30.8897 72.6417 30.9231L72.6626 30.9361C72.6366 31.3217 72.5773 31.7043 72.4854 32.0796V31.9971C72.4854 31.9971 70.2302 33.2022 67.8139 33.2313H67.5481C67.0715 33.2152 66.608 33.3897 66.2594 33.7165C65.5442 34.3926 64.291 35.4618 63.521 35.4618C63.3599 35.4618 59.2941 36.2592 58.6207 36.3919L57.3626 35.1545L57.324 35.2273L57.2499 35.1545C57.1123 35.1651 56.9756 35.1851 56.8407 35.2143C56.1964 34.4476 54.9077 32.6652 54.6097 30.2729C54.6097 30.2729 57.3916 27.0913 56.3687 24.1264C55.4957 21.5999 53.0906 27.0153 52.4076 28.6473C52.2881 28.9321 52.2733 29.2503 52.3657 29.545L54.6258 36.8593C54.4106 37.4261 54.3489 38.04 54.447 38.6385H54.4212L56.0675 40.7591C56.0675 40.7591 57.3063 41.2896 59.2441 41.2799C60.6644 41.2822 62.072 41.011 63.3905 40.4809H63.7723L63.6998 40.5084H65.6602L66.907 44.2949C66.8651 44.6394 66.2627 49.4482 65.7794 50.5238C65.636 50.8832 65.5712 51.2694 65.5893 51.6561C65.6147 52.3991 65.7354 53.1358 65.9486 53.8478L67.0407 53.8073L66.9988 53.8931C66.0742 55.7968 64.5294 59.1887 63.616 62.359L62.0261 65.594L63.2181 80.1028H63.2665L63.3583 80.1174C63.4872 80.1368 63.6805 80.1659 63.935 80.1983L63.8415 80.36L61.2142 84.7272C61.2142 84.7272 59.3408 88.5785 63.4855 87.8522C63.4855 87.8522 65.0175 87.4058 65.6425 84.779L68.3681 82.212C68.3681 82.212 68.4953 80.5072 67.7237 79.8262C67.6754 79.0385 67.553 76.7385 67.7414 76.1853C67.9686 75.5156 66.7749 67.8148 66.7749 67.8148C66.7749 67.8148 71.0888 58.8296 73.7016 58.6064C73.8932 58.5929 74.0855 58.6182 74.2671 58.6808C76.4143 59.3828 79.0159 64.596 79.7811 66.2183L79.8165 66.2927V66.3073L79.8455 66.3704V66.3882L79.8713 66.4431V66.4577L79.8938 66.5078V66.5192L79.9131 66.5596V66.5758L79.9276 66.6065V66.6195L79.9373 66.6421V66.655V66.6696L79.9454 66.689L80.2853 76.7902L80.3191 76.808H80.3352L80.3062 77.0167L80.158 78.0599C80.158 78.0599 82.0314 82.0228 81.9171 82.5242C81.8027 83.0256 83.1655 85.0362 85.0953 84.4781C87.0251 83.9201 85.8766 80.7741 85.8766 80.7741L84.0176 76.9277L83.9355 76.7563C84.1207 76.6422 84.2953 76.5117 84.4574 76.3664C84.4574 76.3664 83.8904 72.237 84.4574 71.3441C85.0244 70.4513 85.1952 66.3768 85.1952 66.3768C85.1952 66.3768 84.7973 63.5867 84.1159 62.359L81.2614 52.1284C82.1168 52.9274 82.7821 53.2396 83.3378 53.2186H83.4297C83.674 53.2232 83.9151 53.1629 84.1288 53.0439C84.2435 52.9789 84.3514 52.9025 84.451 52.8158C84.47 52.7994 84.4877 52.7815 84.5041 52.7624C85.2983 52.0928 83.5956 49.4692 82.6307 47.91C81.7012 46.4057 82.9818 42.3183 83.0785 42.0142C83.1645 41.9509 83.2568 41.8967 83.354 41.8525C83.5538 41.7665 83.7681 41.7199 83.9854 41.715C84.9101 41.7474 86.0473 42.2811 87.4552 42.5496C88.4337 42.7167 89.4252 42.7942 90.4176 42.7809H90.4756C90.8703 42.7809 91.2279 42.7728 91.5178 42.7615C91.7824 42.7511 92.0411 42.6809 92.2749 42.5561C92.4753 42.4388 92.6567 42.2915 92.813 42.1194L95.284 39.3163L95.2196 39.347C95.3394 39.0291 95.3394 38.6782 95.2196 38.3603L97.8308 33.8314C97.9626 33.6082 98.0425 33.358 98.0646 33.0995C98.0866 32.841 98.0502 32.5808 97.9581 32.3384Z" fill="url(#paint0_linear)"/>
<path d="M68.6211 81.8287L65.9905 84.36C65.3881 86.948 63.9077 87.3863 63.9077 87.3863C59.9079 88.1013 61.7153 84.3131 61.7153 84.3131L64.2524 80.0025L64.5649 79.4704C64.5649 79.4704 66.3739 78.9204 67.5788 79.2504C67.731 79.2923 67.8715 79.3686 67.9896 79.4736C68.7451 80.1319 68.6211 81.8287 68.6211 81.8287Z" fill="#444176"/>
<path d="M84.8407 84.085C82.977 84.635 81.6625 82.6552 81.7801 82.1586C81.8977 81.6621 80.0774 77.7623 80.0774 77.7623L80.2191 76.7336L80.3512 75.7809L83.4119 76.0009L83.7002 76.609L85.4947 80.402C85.4947 80.402 86.7045 83.5351 84.8407 84.085Z" fill="#444176"/>
<path opacity="0.1" d="M68.0184 79.9038C67.73 80.4004 65.3927 80.1497 64.2538 79.9944L64.5663 79.4622C64.5663 79.4622 66.3753 78.9123 67.5802 79.2423C67.7323 79.2841 67.8729 79.3605 67.991 79.4655C68.0071 79.734 68.0184 79.9038 68.0184 79.9038Z" fill="black"/>
<path opacity="0.1" d="M83.7035 76.6058C82.1361 77.6539 80.4672 76.8614 80.2159 76.7303L80.348 75.7776L83.4087 75.9976L83.7035 76.6058Z" fill="black"/>
<path d="M84.1286 71.0998C83.5809 71.9797 84.1286 76.0526 84.1286 76.0526C82.3196 77.704 80.1836 76.4925 80.1836 76.4925L79.8614 66.5337C79.8614 66.5337 76.2998 58.3346 73.7788 58.5546C71.2578 58.7746 67.0937 67.6335 67.0937 67.6335C67.0937 67.6335 68.2439 75.226 68.0248 75.8827C67.8057 76.5394 68.0248 79.734 68.0248 79.734C67.6414 80.3939 63.6416 79.734 63.6416 79.734L62.4915 65.4273L64.0186 62.2344C64.8965 59.1094 66.3881 55.7644 67.2806 53.8881C67.7235 52.9548 68.02 52.3855 68.02 52.3855L70.9356 51.7757L80.3995 49.8056L83.8 62.2344C84.4572 63.4443 84.8406 66.1956 84.8406 66.1956C84.8406 66.1956 84.6763 70.2199 84.1286 71.0998Z" fill="#565387"/>
<g opacity="0.1">
<path opacity="0.1" d="M81.06 76.4926L80.7378 66.5337C80.7378 66.5337 77.1762 58.3347 74.6552 58.5546C74.5425 58.5657 74.4315 58.5907 74.325 58.629C76.7831 59.4491 79.8615 66.5337 79.8615 66.5337L80.1837 76.4926C80.8558 76.8364 81.6134 76.9753 82.3632 76.8921C81.9087 76.8372 81.4675 76.7019 81.06 76.4926Z" fill="black"/>
<path opacity="0.1" d="M64.5116 79.7389L63.3614 65.4323L64.895 62.2345C65.7729 59.1095 67.2645 55.7645 68.157 53.8883C68.5999 52.955 68.8963 52.3856 68.8963 52.3856L71.812 51.7758L80.4511 49.9723L80.4044 49.7993L70.9357 51.7758L68.02 52.3856C68.02 52.3856 67.7236 52.955 67.2806 53.8883C66.385 55.7645 64.8966 59.116 64.0186 62.2345L62.4851 65.4258L63.6353 79.7325C63.6353 79.7325 65.8196 80.0932 67.1147 80.0139C66.243 79.9664 65.3741 79.8746 64.5116 79.7389Z" fill="black"/>
</g>
<path d="M57.8473 35.4182C57.8473 35.4182 54.7239 35.5799 55.162 38.8844L56.0383 38.9944L57.3528 37.5646L58.01 36.3547V36.0797L57.8473 35.4182Z" fill="#CED2DF"/>
<path opacity="0.1" d="M57.8473 35.4182C57.8473 35.4182 54.7239 35.5799 55.162 38.8844L56.0383 38.9944L57.3528 37.5646L58.01 36.3547V36.0797L57.8473 35.4182Z" fill="black"/>
<path d="M92.5954 36.6279C92.5954 36.6279 95.1728 38.0028 94.5139 39.5993L93.6924 39.9227L92.597 39.3178L92.4359 37.888L92.5455 36.898L92.5954 36.6279Z" fill="#CED2DF"/>
<path opacity="0.1" d="M92.5954 36.6279C92.5954 36.6279 95.1728 38.0028 94.5139 39.5993L93.6924 39.9227L92.597 39.3178L92.4359 37.888L92.5455 36.898L92.5954 36.6279Z" fill="black"/>
<path d="M76.0471 22.4313H73.8547C71.9784 22.4313 70.4574 23.9586 70.4574 25.8426C70.4574 27.7266 71.9784 29.2539 73.8547 29.2539H76.0471C77.9234 29.2539 79.4444 27.7266 79.4444 25.8426C79.4444 23.9586 77.9234 22.4313 76.0471 22.4313Z" fill="#88455E"/>
<path d="M57.8265 35.8855L55.9079 38.9588L55.7469 38.4121L53.1405 29.8847C53.0513 29.594 53.0656 29.2812 53.1808 28.9999C53.8396 27.3921 56.1625 22.0447 57.0049 24.5437C57.9908 27.4552 55.3055 30.5964 55.3055 30.5964C55.6115 33.1455 57.0372 34.9927 57.5977 35.6332C57.7395 35.7998 57.8265 35.8855 57.8265 35.8855Z" fill="#EC8C9C"/>
<path d="M92.1846 37.2055C92.1846 37.2055 95.1985 34.3442 95.0841 33.1893C95.0841 33.1893 92.2345 28.5681 93.6601 27.5281C94.7877 26.6999 96.5001 30.873 97.1638 32.6474C97.2515 32.8838 97.2867 33.1365 97.267 33.388C97.2472 33.6395 97.173 33.8835 97.0494 34.1032L93.4475 40.5068L92.1846 37.2055Z" fill="#EC8C9C"/>
<path d="M72.6756 29.228C72.6756 29.228 73.2233 32.7492 71.635 34.0707C70.0467 35.3922 76.1841 35.3841 76.1841 35.3841L78.3764 33.3477C78.3764 33.3477 75.8554 30.9813 76.6222 29.2215L72.6756 29.228Z" fill="#EC8C9C"/>
<path opacity="0.1" d="M72.566 33.2443C72.566 33.2443 74.9227 35.0057 77.2778 33.0243L81.1132 41.0034L80.8942 50.7422C80.8942 50.7422 72.9478 54.8684 69.66 52.3387C66.3722 49.809 69.1123 48.4875 69.1123 48.4875L68.3455 41.005L69.1671 36.1622C69.1671 36.1622 70.6458 33.8508 70.757 33.8508C70.8681 33.8508 72.566 33.2443 72.566 33.2443Z" fill="black"/>
<path d="M72.5657 33.1342C72.5657 33.1342 74.9224 34.8989 77.2791 32.9142L81.1146 40.8933L80.8955 50.6322C80.8955 50.6322 72.9491 54.7584 69.6613 52.2287C66.3736 49.6989 69.1136 48.3774 69.1136 48.3774L68.3469 40.8949L69.1684 36.0522C69.1684 36.0522 70.6472 33.7408 70.7583 33.7408C70.8695 33.7408 72.5657 33.1342 72.5657 33.1342Z" fill="#EBF1F6"/>
<path opacity="0.1" d="M72.5658 32.311C72.5658 32.311 70.3316 33.5888 67.9056 33.5257C67.678 33.5186 67.4513 33.5569 67.2386 33.6386C67.026 33.7202 66.8316 33.8435 66.6668 34.0012C65.9758 34.6677 64.766 35.7223 64.017 35.7223C63.8559 35.7223 59.194 36.6572 59.194 36.6572L57.9617 35.4198C57.9617 35.4198 56.1253 39.0235 55.249 38.8586L56.8389 40.95C56.8389 40.95 59.8529 42.2698 63.7979 40.675H66.0998L67.3047 44.4162C67.3047 44.4162 66.7023 49.479 66.2093 50.5789C65.7164 51.6788 66.3704 53.8252 66.3704 53.8252L70.6988 53.6634C70.6988 53.6634 70.9179 51.517 71.2465 51.2372C71.5751 50.9574 70.0964 41.4983 70.0964 41.4983C70.0964 41.4983 69.1105 36.1606 72.7269 34.2358L72.5658 32.311Z" fill="black"/>
<path opacity="0.1" d="M70.934 51.7823C70.7746 52.435 70.661 53.0982 70.5941 53.7669L67.2805 53.8931C67.7235 52.9598 68.0199 52.3905 68.0199 52.3905L70.934 51.7823Z" fill="black"/>
<path opacity="0.1" d="M57.8266 35.8855L55.908 38.9588L55.7469 38.4121C56.4509 37.7101 57.2757 36.243 57.6043 35.6316C57.7396 35.7998 57.8266 35.8855 57.8266 35.8855Z" fill="black"/>
<path d="M72.5658 32.311C72.5658 32.311 70.2204 33.5888 67.796 33.5257C67.5685 33.5186 67.3418 33.5569 67.1291 33.6386C66.9164 33.7202 66.7221 33.8435 66.5573 34.0012C65.8662 34.6677 64.6565 35.7223 63.9074 35.7223C63.7463 35.7223 59.0845 36.6572 59.0845 36.6572L57.8473 35.4182C57.8473 35.4182 56.011 39.0219 55.1346 38.8569L56.7246 40.9484C56.7246 40.9484 59.7385 42.2682 63.6835 40.6734H65.9854L67.1904 44.413C67.1904 44.413 66.5879 49.4757 66.095 50.5756C65.602 51.6755 66.2561 53.8219 66.2561 53.8219L70.5845 53.6602C70.5845 53.6602 70.8035 51.5138 71.1321 51.2339C71.4608 50.9541 69.982 41.4951 69.982 41.4951C69.982 41.4951 68.9961 36.1574 72.6125 34.2325L72.5658 32.311Z" fill="#CED2DF"/>
<path opacity="0.1" d="M77.2792 31.9777C77.2792 31.9777 79.5151 33.689 82.5 33.8864C82.8266 33.9069 83.1389 34.0284 83.394 34.2341C84.1468 34.8754 84.7848 35.6413 85.2803 36.4986C86.4853 38.48 89.4444 38.26 89.4444 38.26C89.4444 38.26 92.3214 37.3526 92.4857 36.6426C92.4857 36.6426 92.5679 40.5245 94.3769 39.5864L91.9976 42.3393C91.8477 42.5132 91.6638 42.6545 91.4574 42.7543C91.251 42.8542 91.0265 42.9106 90.7976 42.92C89.9035 42.9556 88.3506 42.9669 87.0394 42.7114C85.0661 42.3264 83.6421 41.3915 82.6015 42.2164C82.6015 42.2164 81.2322 46.5076 82.1633 48.0491C83.0944 49.5905 84.7407 52.1753 83.9723 52.8368C83.2039 53.4984 82.2729 53.4418 80.7393 51.8469C79.2058 50.2521 79.0399 47.5557 79.0399 47.5557L79.4232 40.6232C79.4232 40.6232 77.9445 35.3955 76.5237 34.3506L77.2792 31.9777Z" fill="black"/>
<path opacity="0.1" d="M94.5946 39.5169L92.2089 42.2811C92.0504 42.4645 91.8542 42.6113 91.6339 42.7114C91.438 42.8002 91.2268 42.8501 91.0121 42.8586C90.118 42.8958 88.5652 42.9071 87.2539 42.6499C85.4079 42.2892 84.0419 41.4481 83.0206 42.0159C82.9482 42.0559 82.8792 42.1019 82.8144 42.1534C82.8144 42.1534 81.4451 46.4446 82.3762 47.986C83.3073 49.5275 84.9536 52.1122 84.1852 52.7738C84.0566 52.8874 83.9123 52.9816 83.7567 53.0536C83.0673 53.3658 82.2119 53.0957 80.9522 51.7839C79.4187 50.1874 79.2527 47.4927 79.2527 47.4927L79.6361 40.5601C79.6361 40.5601 78.1574 35.3324 76.7366 34.2875L77.3632 32.0311C77.7949 32.3255 79.9502 33.7085 82.6146 33.8848C82.9412 33.9053 83.2535 34.0268 83.5086 34.2325C84.2614 34.8739 84.8993 35.6397 85.395 36.497C86.5999 38.4784 89.5591 38.2585 89.5591 38.2585C90.2685 38.0312 90.9612 37.7545 91.6322 37.4303C92.0527 37.2233 92.4232 36.9968 92.5988 36.7833C92.6481 36.7275 92.6839 36.6611 92.7035 36.5892C92.7035 36.5892 92.7872 40.4518 94.5946 39.5169Z" fill="black"/>
<path d="M94.4851 39.5719L92.101 42.3394C91.9699 42.4913 91.8128 42.6184 91.6371 42.7146C91.4119 42.8374 91.1617 42.9066 90.9057 42.9168C90.0117 42.954 88.4588 42.9653 87.1476 42.7082C85.3676 42.3604 84.0322 41.5646 83.0254 42.0191C82.9103 42.0694 82.8021 42.1341 82.7032 42.2116C82.7032 42.2116 81.334 46.5028 82.2651 48.0442C83.1961 49.5857 84.8424 52.1705 84.0741 52.832C83.9747 52.9179 83.8667 52.9933 83.7519 53.0568C83.0431 53.4499 82.1668 53.2186 80.8378 51.8421C79.3043 50.2456 79.1384 47.5509 79.1384 47.5509L79.5217 40.6184C79.5217 40.6184 78.043 35.3906 76.6222 34.3457L77.2794 31.9794L77.3584 32.0344C77.7901 32.3287 79.9454 33.7117 82.6098 33.888C82.9364 33.9086 83.2486 34.03 83.5038 34.2358C84.2565 34.8771 84.8945 35.643 85.3901 36.5002C86.5951 38.4817 89.5542 38.2617 89.5542 38.2617C90.2636 38.0344 90.9564 37.7577 91.6274 37.4335C92.1252 37.178 92.5311 36.8981 92.5939 36.6426C92.5939 36.6426 92.5939 36.6927 92.5939 36.7817C92.6422 37.4497 92.8839 40.3984 94.4851 39.5719Z" fill="#CED2DF"/>
<path opacity="0.1" d="M76.6705 29.3104H72.6433C72.7319 29.9534 72.7572 30.6035 72.719 31.2514C73.3338 31.6858 74.0547 31.9439 74.8045 31.998C75.5543 32.0522 76.3046 31.9003 76.9749 31.5587C76.5883 30.8406 76.3531 30.0254 76.6705 29.3104Z" fill="black"/>
<path d="M75.0869 31.9227C77.2959 31.9227 79.0867 30.1246 79.0867 27.9065C79.0867 25.6884 77.2959 23.8903 75.0869 23.8903C72.8779 23.8903 71.0872 25.6884 71.0872 27.9065C71.0872 30.1246 72.8779 31.9227 75.0869 31.9227Z" fill="#EC8C9C"/>
<path opacity="0.1" d="M74.2557 27.1916C74.7019 27.1382 75.1482 26.9797 75.5879 27.0687C75.9874 27.1495 76.3273 27.4261 76.7268 27.5102C77.4968 27.672 78.212 27.1026 78.7935 26.5721L80.05 25.4237C80.3287 25.1697 80.6154 24.9029 80.7588 24.5535C80.9022 24.2041 80.8522 23.7447 80.5462 23.5248C80.0871 23.2013 79.2961 23.5248 78.9643 23.0654C78.8145 22.8584 78.837 22.5802 78.7597 22.3327C78.5986 21.8377 78.0445 21.5676 77.5258 21.5611C77.0071 21.5547 76.5109 21.7455 76.0148 21.8846C74.9696 22.1891 73.8768 22.2939 72.7931 22.1936C72.5006 22.1398 72.2 22.1503 71.9119 22.2243C71.7346 22.3003 71.5775 22.417 71.4533 22.5651C71.3291 22.7131 71.2412 22.8884 71.1967 23.0767C70.9486 23.9566 71.3723 25.3752 71.7975 26.1629C72.2228 26.9506 73.4068 27.2967 74.2557 27.1916Z" fill="black"/>
<path d="M74.2557 27.0816C74.7019 27.0282 75.1482 26.8697 75.5879 26.9587C75.9874 27.0396 76.3273 27.3162 76.7268 27.4003C77.4968 27.562 78.212 26.9927 78.7935 26.4621L80.05 25.3137C80.3287 25.0598 80.6154 24.7929 80.7588 24.4435C80.9022 24.0941 80.8522 23.6348 80.5462 23.4148C80.0871 23.0913 79.2961 23.4148 78.9643 22.9554C78.8145 22.7484 78.837 22.4702 78.7597 22.2227C78.5986 21.7277 78.0445 21.4576 77.5258 21.4511C77.0071 21.4447 76.5109 21.6355 76.0148 21.7746C74.9696 22.0791 73.8768 22.1839 72.7931 22.0836C72.5006 22.0298 72.2 22.0403 71.9119 22.1143C71.7346 22.1903 71.5775 22.307 71.4533 22.4551C71.3291 22.6031 71.2412 22.7784 71.1967 22.9667C70.9486 23.8466 71.3723 25.2652 71.7975 26.0529C72.2228 26.8406 73.4068 27.1787 74.2557 27.0816Z" fill="#88455E"/>
<path opacity="0.1" d="M67.2791 44.4421C67.2791 44.4421 68.1554 44.5521 68.5935 45.102C69.0317 45.652 69.7984 45.8169 69.7984 45.8169" fill="black"/>
<path opacity="0.1" d="M59.3873 37.1779C59.3873 37.1779 60.1025 38.7808 59.6611 38.9425C59.2198 39.1043 59.3873 40.2624 59.3873 40.2624" fill="black"/>
<g opacity="0.1">
<path opacity="0.1" d="M59.6339 36.628C59.6339 36.628 64.2909 35.6931 64.452 35.6931C65.2027 35.6931 66.4108 34.6385 67.1019 33.9721C67.3121 33.7699 67.5706 33.6256 67.8526 33.5532H67.793C67.5654 33.546 67.3387 33.5844 67.126 33.666C66.9134 33.7476 66.719 33.8709 66.5542 34.0287C65.8631 34.6951 64.6534 35.7497 63.9043 35.7497C63.7738 35.7497 60.7937 36.3433 59.584 36.5843L59.6339 36.628Z" fill="black"/>
<path opacity="0.1" d="M72.5722 32.5422V32.3368C71.4519 32.9104 70.2464 33.2977 69.0026 33.4836C70.2367 33.3733 71.4434 33.0551 72.5722 32.5422Z" fill="black"/>
<path opacity="0.1" d="M66.8135 53.7943C66.8135 53.7943 66.1562 51.6479 66.6524 50.548C67.1485 49.4481 67.7478 44.3854 67.7478 44.3854L66.5461 40.6442H64.2377L64.0975 40.6992H65.9903L67.1904 44.442C67.1904 44.442 66.5879 49.5048 66.095 50.6047C65.6021 51.7045 66.2561 53.851 66.2561 53.851L70.5845 53.6892V53.6552L66.8135 53.7943Z" fill="black"/>
</g>
<g opacity="0.1">
<path opacity="0.1" d="M84.1287 51.952C84.0293 52.0379 83.9213 52.1133 83.8065 52.1769C83.0977 52.5699 82.2214 52.3386 80.8925 50.9621C79.6746 49.6956 79.3203 47.7272 79.2252 46.9815L79.193 47.5509C79.193 47.5509 79.3541 50.2472 80.8925 51.8421C82.2214 53.2234 83.0977 53.4498 83.8065 53.0568C83.9213 52.9932 84.0293 52.9179 84.1287 52.832C84.359 52.633 84.3719 52.2594 84.2511 51.7935C84.2211 51.854 84.1795 51.9079 84.1287 51.952Z" fill="black"/>
<path opacity="0.1" d="M93.7101 39.6543L92.1589 41.4545C92.0278 41.6064 91.8706 41.7335 91.6949 41.8298C91.4698 41.9526 91.2196 42.0217 90.9636 42.032C90.0696 42.0692 88.5167 42.0805 87.2054 41.8233C85.4254 41.4756 84.09 40.6798 83.0832 41.1343C82.9682 41.1846 82.8599 41.2492 82.7611 41.3267C82.7611 41.3267 81.8767 44.0991 82.012 45.9867C82.1167 44.2221 82.7611 42.2067 82.7611 42.2067C82.8599 42.1291 82.9682 42.0645 83.0832 42.0142C84.0916 41.5597 85.4254 42.3555 87.2054 42.7032C88.5167 42.9588 90.068 42.9475 90.9636 42.9119C91.2196 42.9016 91.4698 42.8325 91.6949 42.7097C91.8702 42.6149 92.0273 42.4894 92.1589 42.3393L94.5445 39.575C94.4211 39.6522 94.2814 39.6995 94.1366 39.7133C93.9918 39.727 93.8458 39.7068 93.7101 39.6543Z" fill="black"/>
</g>
<path d="M23.6553 59.4669C23.6744 59.4855 23.699 59.4974 23.7254 59.5009C23.7518 59.5044 23.7786 59.4993 23.8019 59.4863C23.7523 59.4872 23.7029 59.4807 23.6553 59.4669Z" fill="url(#paint1_linear)"/>
<path d="M40.0716 32.6733C39.7816 32.5892 39.3676 32.4517 38.8698 32.277C39.3871 31.6088 39.7656 30.8432 39.983 30.0255L39.9411 30.0416C39.9556 29.9915 39.9701 29.943 39.983 29.8912C39.0277 30.281 37.971 29.6211 37.2976 28.7735C36.6243 27.926 36.17 26.8746 35.4323 26.095C35.1248 25.7848 34.7941 25.4988 34.4432 25.2393C34.2257 25.0776 33.9921 24.8948 33.7264 24.8867C33.2963 24.8738 32.9596 25.2975 32.5456 25.4221C32.2732 25.4837 31.9895 25.4731 31.7224 25.3914C30.6544 25.1455 29.6283 24.691 28.5378 24.5713C27.9543 24.4989 27.3621 24.566 26.8093 24.767C26.2616 24.9757 26.0119 25.3914 25.5689 25.7246C25.0857 26.082 24.1417 26.0739 23.5795 26.137C22.8973 26.2153 22.2104 26.2439 21.524 26.2227C21.1296 26.1884 20.7325 26.2031 20.3417 26.2664C19.525 26.446 18.8693 27.0978 18.2572 27.7222C18.0901 27.8634 17.9699 28.0524 17.9125 28.264C17.9046 28.3236 17.9046 28.384 17.9125 28.4436C17.9063 28.6066 17.9343 28.7692 17.9946 28.9207C18.1831 29.4822 18.4493 30.0141 18.7856 30.501C19.0353 30.8601 19.3268 31.1981 19.4686 31.6235C19.5358 31.8327 19.5711 32.0508 19.5733 32.2705C19.5663 32.5039 19.5421 32.7363 19.5008 32.966C19.3927 33.6011 19.215 34.2222 18.9708 34.8181C18.8193 35.1239 18.715 35.4512 18.6615 35.7886C18.6569 35.8575 18.6569 35.9267 18.6615 35.9956C18.6213 37.0631 19.6941 37.8315 19.9019 38.8925C19.919 38.9806 19.9292 39.0698 19.9325 39.1594C19.91 39.821 19.5346 40.468 18.9805 40.7251C19.0288 40.7445 19.0788 40.7607 19.1287 40.7769C19.081 40.8069 19.0315 40.834 18.9805 40.8578C19.082 40.8966 19.1851 40.9306 19.2898 40.9581C18.66 41.5088 18.1307 42.1657 17.7256 42.899C15.8619 46.3831 3.23911 53.2073 3.23911 53.2073L3.42597 53.314L3.27455 53.4127C2.18238 54.1422 -0.380507 56.2692 1.93592 58.9591C1.93592 58.9591 3.74492 56.0929 5.01267 54.8717C5.06905 54.8167 5.12543 54.7665 5.17376 54.7196C5.20161 54.7627 5.22028 54.8111 5.2286 54.8618C5.23692 54.9124 5.2347 54.9643 5.22208 55.014L13.5213 50.3314C13.5213 50.3314 16.4708 48.2578 17.2939 47.7903C17.8733 47.4279 18.5038 47.1552 19.1641 46.9816L19.0675 47.022C19.3778 46.9363 19.6977 46.8906 20.0195 46.8861C21.4886 46.9088 23.0801 47.9893 23.6037 52.2675C24.306 57.9967 23.9806 59.0302 23.7551 59.171C23.7273 59.1689 23.6998 59.164 23.6729 59.1564C23.6799 59.1625 23.6875 59.1679 23.6955 59.1726C23.6649 59.1704 23.6347 59.165 23.6053 59.1564C23.6215 59.1714 23.6413 59.1819 23.6627 59.187C23.6841 59.1921 23.7065 59.1916 23.7277 59.1855C23.743 59.1902 23.759 59.1915 23.7748 59.1896C23.7906 59.1876 23.8059 59.1824 23.8195 59.1742C23.8565 59.1764 23.8937 59.1764 23.9307 59.1742C23.9307 59.227 23.9269 59.2809 23.9194 59.3359C23.9081 59.3359 23.8534 59.3667 23.9194 59.3699C23.9017 59.6934 23.9033 60.0444 23.9194 60.4116C23.1897 60.452 22.46 60.4957 21.8253 60.5345L21.8817 60.232L21.9074 60.0962C22.468 60.0509 22.9996 59.8859 23.0624 59.4298C23.1993 58.4269 21.8285 57.8915 20.6622 57.8252C19.496 57.7589 12.5016 58.2263 12.5016 58.2263C12.5016 58.2263 11.4529 59.5899 14.7793 60.0056C14.8781 60.0573 14.9807 60.1113 15.087 60.1673C16.3902 60.913 18.1573 62.2862 19.0047 62.9624L19.1222 63.0562L18.7421 63.3667C20.7992 63.8342 22.7886 71.7275 23.8856 75.3361C24.9826 78.9447 27.3828 78.8137 29.3722 78.2783C31.236 77.7769 31.4663 72.3422 31.4969 71.6596V71.59L34.8121 75.7017L35.0634 76.0139C35.16 76.0645 35.2556 76.112 35.3501 76.1562C37.8598 77.3548 40.6321 75.0563 39.8444 72.436C39.047 69.7946 37.8099 65.8884 36.9851 64.2369C36.2941 62.854 35.4016 60.5571 34.8604 59.1192C34.9307 59.0909 34.999 59.0579 35.065 59.0205C35.065 59.0205 35.0521 58.9558 35.0312 58.8378L35.065 58.82C35.065 58.82 34.2596 54.6598 34.2241 51.703C34.2241 51.6513 34.2241 51.5973 34.2241 51.5413C34.2241 51.5089 34.2241 51.4766 34.2241 51.4458C34.8234 51.3084 35.2035 51.255 35.2035 51.255L35.2148 51.1256L35.1455 51.1401L35.479 47.3083C35.479 47.3083 36.7032 44.6928 35.7657 43.6043C35.4807 43.2859 35.2904 42.8936 35.2164 42.472C35.0553 41.4708 35.2164 39.7999 37.3991 38.4121C40.7594 36.2722 42.0706 34.5302 42.0706 34.5302C42.0706 34.5302 42.1286 33.2815 40.0716 32.6733ZM33.3977 35.3324V33.5613C34.0211 33.5306 34.6574 33.6033 35.2841 33.5613C35.5917 33.5397 35.8965 33.4882 36.1942 33.4076L36.3456 33.5128C35.4288 34.2208 34.4408 34.8307 33.3977 35.3324ZM23.8695 63.095C24.1159 63.2664 24.364 63.4444 24.6072 63.6239C24.7587 64.4974 24.8924 65.1136 24.902 65.1573C24.624 64.4384 24.2783 63.7478 23.8695 63.095Z" fill="url(#paint2_linear)"/>
<path d="M29.195 61.6392L29.0501 62.4301L28.9389 63.0351L28.7359 64.1414L26.7675 65.5244C26.7675 65.5244 26.5903 65.3723 26.2971 65.1313C25.4917 64.4649 23.7954 63.1127 22.5502 62.3816C22.2302 62.1764 21.8839 62.0159 21.5209 61.9044L29.195 61.6392Z" fill="#FFBDC6"/>
<path opacity="0.1" d="M29.1949 61.6392L29.05 62.4301C28.6161 62.4544 28.1808 62.4321 27.7516 62.3638L23.159 62.4301C22.9416 62.4172 22.7386 62.3994 22.5485 62.38C22.2285 62.1748 21.8822 62.0143 21.5192 61.9028L29.1949 61.6392Z" fill="black"/>
<path d="M27.7518 62.2344C27.7518 62.2344 30.0489 62.6291 30.1794 61.6408C30.3099 60.6525 28.9986 60.1317 27.8855 60.0573C26.7724 59.9829 20.076 60.4552 20.076 60.4552C20.076 60.4552 18.8953 62.0355 23.1592 62.2991L27.7518 62.2344Z" fill="#7679B4"/>
<path opacity="0.1" d="M29.195 61.6392L29.0501 62.4301L28.9389 63.0351L28.7359 64.1414L26.7675 65.5244C26.7675 65.5244 26.5903 65.3723 26.2971 65.1313C25.4917 64.4649 23.7954 63.1127 22.5502 62.3816C22.2302 62.1764 21.8839 62.0159 21.5209 61.9044L29.195 61.6392Z" fill="black"/>
<path opacity="0.1" d="M29.1949 61.6392L29.05 62.4301C28.6161 62.4544 28.1808 62.4321 27.7516 62.3638L23.159 62.4301C22.9416 62.4172 22.7386 62.3994 22.5485 62.38C22.2285 62.1748 21.8822 62.0143 21.5192 61.9028L29.1949 61.6392Z" fill="black"/>
<path opacity="0.1" d="M27.7518 62.2344C27.7518 62.2344 30.0489 62.6291 30.1794 61.6408C30.3099 60.6525 28.9986 60.1317 27.8855 60.0573C26.7724 59.9829 20.076 60.4552 20.076 60.4552C20.076 60.4552 18.8953 62.0355 23.1592 62.2991L27.7518 62.2344Z" fill="black"/>
<path d="M32.7696 29.7537H20.7638V44.049H32.7696V29.7537Z" fill="#A66477"/>
<path opacity="0.1" d="M32.7696 29.7537H20.7638V44.049H32.7696V29.7537Z" fill="black"/>
<path d="M6.69126 54.2278C6.49312 54.278 6.24183 54.4688 5.95993 54.747C4.74695 55.9504 3.01688 58.773 3.01688 58.773C0.800327 56.1235 3.25367 54.0289 4.30557 53.3091C4.56009 53.1344 4.73084 53.0406 4.73084 53.0406L6.69126 54.2278Z" fill="#FFBDC6"/>
<path d="M29.0646 34.2665C29.0646 34.2665 29.6558 38.4169 31.6887 39.4052C33.7216 40.3935 29.0646 42.2375 29.0646 42.2375L22.7001 39.8662C22.7001 39.8662 26.3084 38.6806 25.5867 35.1884L29.0646 34.2665Z" fill="#FFBDC6"/>
<path d="M22.2473 59.234L22.1023 60.025L21.9912 60.6299L21.7882 61.7363L19.8197 63.1192C19.8197 63.1192 19.6425 62.9672 19.3493 62.7262C18.5439 62.0598 16.8477 60.7075 15.6025 59.9764C15.2825 59.7713 14.9362 59.6107 14.5731 59.4993L22.2473 59.234Z" fill="#FFBDC6"/>
<path opacity="0.1" d="M22.2473 59.234L22.1023 60.025C21.6684 60.0492 21.2332 60.027 20.804 59.9586L16.2114 60.025C15.9939 60.012 15.791 59.9942 15.6009 59.9748C15.2809 59.7697 14.9346 59.6091 14.5715 59.4977L22.2473 59.234Z" fill="black"/>
<path d="M20.7975 59.8276C20.7975 59.8276 23.0946 60.2223 23.2251 59.234C23.3555 58.2457 22.0443 57.7184 20.928 57.6537C19.8116 57.589 13.1201 58.0484 13.1201 58.0484C13.1201 58.0484 11.9393 59.6287 16.2033 59.8923L20.7975 59.8276Z" fill="#7679B4"/>
<path opacity="0.1" d="M21.9847 60.6316L21.7817 61.7379L19.8133 63.1209C19.8133 63.1209 19.6361 62.9688 19.3429 62.7278L21.9461 60.5847L21.9847 60.6316Z" fill="black"/>
<path d="M34.9731 75.713C34.8829 75.6688 34.7916 75.6219 34.6993 75.5723L34.4593 75.2649L31.2891 71.2212V71.2924C31.2681 71.9637 31.0394 77.3175 29.2578 77.8109C27.3553 78.3382 25.0582 78.4692 24.0096 74.9123C22.9609 71.3555 21.0569 63.5818 19.0884 63.1209L22.0073 60.7156C22.0073 60.7156 23.9403 62.9801 24.7296 65.1605C24.7006 65.0214 23.3652 58.7601 24.4671 57.6537H34.0453C34.0453 57.6537 35.5208 61.8819 36.5389 63.9781C37.3282 65.6053 38.5122 69.4517 39.2774 72.0542C40.0345 74.6293 37.3894 76.8938 34.9731 75.713Z" fill="#7679B4"/>
<path opacity="0.1" d="M34.7059 58.8377C33.2287 59.716 26.7337 59.3585 24.6171 59.2161L24.042 59.1741C23.9792 59.1741 24.0516 59.1385 24.0516 59.1385L24.1112 58.54L25.6851 54.5222L34.1163 49.618C33.9456 50.134 33.8876 50.9249 33.9021 51.8323C33.944 54.7406 34.7059 58.8377 34.7059 58.8377Z" fill="black"/>
<path d="M34.7059 58.6419C33.2287 59.5202 26.7337 59.1627 24.617 59.0204L24.0419 58.9783H23.9469L24.0516 58.9508L24.5703 58.8134L25.685 54.3329L34.1163 49.4255C33.9455 49.9415 33.8876 50.7324 33.9021 51.6398C33.9439 54.5432 34.7059 58.6419 34.7059 58.6419Z" fill="#F2F1F2"/>
<path opacity="0.1" d="M33.9018 51.6335C32.1879 52.0298 28.4152 53.196 26.9654 56.0007C25.9989 57.8738 25.1935 58.6777 24.6184 59.0141L24.0433 58.972L24.053 58.9364L24.5717 58.799L25.6864 54.3185L34.1177 49.4111C33.9437 49.9416 33.8873 50.7261 33.9018 51.6335Z" fill="black"/>
<path opacity="0.1" d="M4.72275 53.0422L6.69123 54.2278C6.49309 54.2779 6.2418 54.4688 5.9599 54.747C5.79881 54.2618 4.76464 53.5954 4.29749 53.3107C4.552 53.136 4.72275 53.0422 4.72275 53.0422Z" fill="black"/>
<path opacity="0.1" d="M23.697 59.0544C23.675 59.0667 23.6498 59.0716 23.6248 59.0684C23.5999 59.0652 23.5766 59.0541 23.5585 59.0366C23.6035 59.0494 23.6502 59.0554 23.697 59.0544Z" fill="black"/>
<path d="M28.1448 39.1416C28.1448 39.1416 26.3728 39.3389 25.126 38.0223C25.126 38.0223 19.8778 39.5379 18.1059 42.9637C16.3339 46.3895 4.26208 53.1086 4.26208 53.1086C4.26208 53.1086 6.35621 54.2942 6.16452 54.8878L14.1029 50.2764C14.1029 50.2764 16.9235 48.2335 17.7112 47.7725C18.4989 47.3115 22.8289 44.4793 23.7471 52.1866C24.6653 59.8939 23.7471 58.9801 23.7471 58.9801C23.7471 58.9801 25.06 59.441 26.9688 55.7451C28.8777 52.0491 34.7767 51.1999 34.7767 51.1999L35.0989 47.318C35.0989 47.318 36.27 44.7429 35.3727 43.6689C35.0991 43.3529 34.9174 42.9673 34.8476 42.5545C34.6978 41.5678 34.8476 39.9228 36.9417 38.556C40.1634 36.4533 41.4038 34.7355 41.4038 34.7355C41.4038 34.7355 41.4698 33.4836 39.5014 32.8916C37.5329 32.2996 29.5285 29.0711 29.5285 29.0711L29.2659 30.1904L35.5644 34.6708C35.5644 34.6708 32.4152 37.2394 29.9264 37.1747C29.9167 37.1634 30.3758 39.0753 28.1448 39.1416Z" fill="#565388"/>
<path opacity="0.1" d="M29.3608 36.0731C29.2056 35.5423 29.0846 35.002 28.9983 34.4556L25.5205 35.3841C25.6727 36.0504 25.6455 36.7455 25.4415 37.3978C26.1523 37.5882 26.9032 37.564 27.6003 37.328C28.2974 37.0921 28.9098 36.6551 29.3608 36.0715V36.0731Z" fill="black"/>
<path d="M26.4726 37.33C28.5384 37.33 30.213 35.6485 30.213 33.5742C30.213 31.5 28.5384 29.8184 26.4726 29.8184C24.4068 29.8184 22.7322 31.5 22.7322 33.5742C22.7322 35.6485 24.4068 37.33 26.4726 37.33Z" fill="#FFBDC6"/>
<path opacity="0.1" d="M28.4605 25.0323C29.4979 25.1503 30.4854 25.5984 31.5067 25.841C31.7618 25.9214 32.0337 25.932 32.2944 25.8717C32.6906 25.7488 33.0128 25.3315 33.422 25.3444C33.6749 25.3444 33.9052 25.5256 34.1082 25.6922C34.4444 25.9483 34.7606 26.2301 35.0538 26.5349C35.7577 27.3032 36.1959 28.3384 36.8386 29.173C37.4813 30.0076 38.4946 30.6579 39.4079 30.2745C38.7878 32.7008 36.7516 34.556 34.5512 34.7064C33.6733 34.7663 32.7792 34.5835 31.9239 34.8423C31.7119 34.9291 31.4882 34.9836 31.2602 35.0041C30.7769 35.0041 30.3774 34.5528 30.0714 34.1144C29.3561 33.0825 28.7827 31.9114 27.9772 30.9717C27.7115 30.6611 27.3973 30.3651 27.022 30.3085C26.6467 30.2519 26.3003 30.4314 25.9653 30.6061C25.4127 30.894 24.8473 31.1916 24.4188 31.6834C23.9904 32.1751 23.7197 32.911 23.8969 33.5774C23.992 33.9365 24.211 34.26 24.2191 34.6369C24.2191 35.2354 23.7004 35.6737 23.5957 36.2544C23.5726 36.4995 23.564 36.7458 23.5699 36.992C23.5232 37.791 23.0045 38.4477 22.46 38.9475C22.249 39.1432 22.0138 39.3519 21.9526 39.6543C21.9107 39.8598 21.9526 40.0781 21.9252 40.2868C21.8463 40.806 21.3308 41.068 20.8749 41.136C20.3425 41.2143 19.7989 41.1496 19.2995 40.9483C19.9439 40.6459 20.3289 39.7837 20.1807 39.0073C19.9777 37.9382 18.9081 37.1715 18.9983 36.0813C19.0487 35.7475 19.1486 35.4231 19.2947 35.1189C19.5281 34.5308 19.6977 33.919 19.8005 33.2944C19.9059 32.8136 19.8954 32.3145 19.7699 31.8386C19.633 31.4197 19.3543 31.0865 19.1159 30.7323C18.793 30.2507 18.5382 29.7265 18.3588 29.1746C18.2937 29.0115 18.2689 28.8351 18.2863 28.6603C18.3382 28.4541 18.4504 28.2682 18.6084 28.1265C19.1948 27.5102 19.823 26.8681 20.6027 26.6902C20.9752 26.6279 21.3541 26.6132 21.7303 26.6465C22.3871 26.6675 23.0445 26.6394 23.6972 26.5624C24.2352 26.4993 25.147 26.5074 25.6012 26.1548C26.0249 25.8313 26.2649 25.4188 26.7884 25.2118C27.3227 25.0154 27.8969 24.9537 28.4605 25.0323Z" fill="black"/>
<path opacity="0.1" d="M30.5399 63.8132C30.5399 63.8132 32.7049 68.0947 32.0493 69.4129L30.5399 63.8132Z" fill="black"/>
<path opacity="0.1" d="M34.4656 75.2649L31.2954 71.2212V71.2924C31.2954 71.2924 31.1118 69.9855 31.7159 70.4254C33.0384 71.3862 35.1551 72.9616 35.2002 73.2334C35.2453 73.5051 34.7717 74.5953 34.4656 75.2649Z" fill="black"/>
<g opacity="0.1">
<path opacity="0.1" d="M29.9796 37.1634C29.9796 37.1634 30.247 38.2763 29.382 38.8327C30.7141 38.603 30.7721 37.5629 30.7319 37.11C30.4832 37.1505 30.2314 37.1683 29.9796 37.1634Z" fill="black"/>
<path opacity="0.1" d="M5.0514 52.8449C5.0514 52.8449 17.1232 46.1259 18.8952 42.7C20.1662 40.2414 23.2284 38.7679 24.8554 38.1306C23.6682 38.5301 19.6732 40.0619 18.1719 42.9637C16.4 46.3895 4.32812 53.1085 4.32812 53.1085L5.0514 52.8449Z" fill="black"/>
<path opacity="0.1" d="M32.3283 36.6409C34.3822 35.9939 36.3458 34.3975 36.3458 34.3975L30.0474 29.917L30.1907 29.3024L29.5883 29.0598L29.3257 30.1791L35.6242 34.6595C34.6134 35.4573 33.506 36.1231 32.3283 36.6409Z" fill="black"/>
<path opacity="0.1" d="M32.3685 51.8226C33.1733 51.5467 33.9992 51.3374 34.838 51.1966L34.8493 51.0688C34.0042 51.2552 33.1748 51.5073 32.3685 51.8226Z" fill="black"/>
<path opacity="0.1" d="M24.7347 58.7245H24.6767C24.6547 58.7368 24.6294 58.7417 24.6045 58.7385C24.5796 58.7353 24.5563 58.7242 24.5382 58.7067C24.5832 58.7194 24.6299 58.7254 24.6767 58.7245C24.8925 58.5984 25.2163 57.6149 24.5382 51.9214C23.8133 45.8428 20.9685 46.32 19.4108 47.0188C21.0023 46.5788 23.1931 46.9589 23.8165 52.185C24.4947 57.8786 24.1709 58.8636 23.955 58.9882C24.2348 58.9777 24.5056 58.8862 24.7347 58.7245Z" fill="black"/>
<path opacity="0.1" d="M23.9551 58.9897C23.9083 58.9906 23.8616 58.9846 23.8165 58.9719C23.8347 58.9894 23.8579 59.0005 23.8829 59.0037C23.9078 59.0069 23.9331 59.002 23.9551 58.9897Z" fill="black"/>
</g>
<path d="M28.4605 24.9044C29.4979 25.0225 30.4854 25.4705 31.5067 25.7131C31.7618 25.7935 32.0337 25.8041 32.2944 25.7439C32.6906 25.6209 33.0128 25.2036 33.422 25.2166C33.6749 25.2166 33.9052 25.3977 34.1082 25.5643C34.4444 25.8205 34.7606 26.1022 35.0538 26.407C35.7577 27.1753 36.1959 28.2105 36.8386 29.0452C37.4813 29.8798 38.4946 30.53 39.4079 30.1467C38.7878 32.5729 36.7516 34.4282 34.5512 34.5786C33.6733 34.6384 32.7792 34.4556 31.9239 34.7144C31.7119 34.8012 31.4882 34.8557 31.2602 34.8762C30.7769 34.8762 30.3774 34.4249 30.0714 33.9866C29.3561 32.9546 28.7827 31.7836 27.9772 30.8438C27.7115 30.5332 27.3973 30.2372 27.022 30.1806C26.6467 30.124 26.3003 30.3036 25.9653 30.4783C25.4127 30.7662 24.8473 31.0638 24.4188 31.5555C23.9904 32.0472 23.7197 32.7832 23.8969 33.4496C23.992 33.8087 24.211 34.1322 24.2191 34.509C24.2191 35.1075 23.7004 35.5458 23.5957 36.1265C23.5726 36.3716 23.564 36.6179 23.5699 36.8641C23.5232 37.6631 23.0045 38.3198 22.46 38.8196C22.249 39.0153 22.0138 39.224 21.9526 39.5265C21.9107 39.7319 21.9526 39.9503 21.9252 40.1589C21.8463 40.6781 21.3308 40.9402 20.8749 41.0081C20.3425 41.0864 19.7989 41.0217 19.2995 40.8205C19.9439 40.518 20.3289 39.6559 20.1807 38.8795C19.9777 37.8103 18.9081 37.0436 18.9983 35.9534C19.0487 35.6196 19.1486 35.2952 19.2947 34.991C19.5281 34.4029 19.6977 33.7912 19.8005 33.1665C19.9059 32.6857 19.8954 32.1867 19.7699 31.7108C19.633 31.2918 19.3543 30.9586 19.1159 30.6044C18.793 30.1228 18.5382 29.5986 18.3588 29.0468C18.2937 28.8837 18.2689 28.7072 18.2863 28.5324C18.3382 28.3262 18.4504 28.1403 18.6084 27.9986C19.1948 27.3824 19.823 26.7402 20.6027 26.5623C20.9752 26.5 21.3541 26.4853 21.7303 26.5186C22.3871 26.5396 23.0445 26.5115 23.6972 26.4345C24.2352 26.3715 25.147 26.3795 25.6012 26.0269C26.0249 25.7034 26.2649 25.291 26.7884 25.0839C27.3227 24.8875 27.8969 24.8259 28.4605 24.9044Z" fill="#A66477"/>
<path d="M135.266 16.474C135.266 16.453 135.266 16.4336 135.266 16.4142C135.266 16.3948 135.266 16.3721 135.256 16.3527H135.23C135.23 16.309 135.23 16.2654 135.23 16.2185C135.166 14.7191 133.101 11.5278 132.273 12.4594C131.548 13.2779 132.641 15.3483 133.199 16.2799L133.249 16.364L133.221 16.3462C133.221 16.3462 130.916 23.2497 130.644 23.5182C130.372 23.7867 128.474 29.215 125.972 29.8264C125.478 29.9445 125.067 30.0512 124.722 30.1499L124.75 30.0577C124.911 29.5288 125.109 29.029 125.19 28.4402C125.27 27.8514 125.19 27.1381 124.893 26.8518C124.748 26.7095 124.571 26.6901 124.452 26.4636C124.374 26.265 124.333 26.0541 124.329 25.8409L124.117 23.2238L124.265 23.1785C125.161 22.8906 126.029 22.208 126.13 21.2893C126.099 21.3012 126.067 21.3114 126.035 21.32C126.047 21.2666 126.056 21.2126 126.063 21.1583C125.31 21.4559 124.613 20.673 123.888 20.322C122.694 19.7349 121.33 20.2881 120.098 20.4223C118.701 20.576 117.375 19.9937 115.948 20.0988C115.172 20.1587 114.308 20.6876 114.35 21.4559C114.374 21.8781 114.672 22.2355 114.795 22.6399C115.104 23.6185 114.416 24.6003 113.814 25.4349C113.417 25.9832 113.037 26.6513 112.97 27.295C111.583 25.8393 110.083 24.1571 109.909 23.5247L105.896 16.6212C105.896 16.6212 105.801 16.7231 105.648 16.8735C105.624 16.7991 105.595 16.7118 105.563 16.6245C105.051 15.1833 103.601 11.6911 101.763 12.3316C99.9247 12.9722 102.525 16.5517 103.656 17.9783L103.817 18.1756C103.722 18.199 103.622 18.1945 103.53 18.1627L108.005 25.87C108.005 25.87 108.818 27.3452 109.564 27.7463C109.564 27.7463 115.123 34.784 115.191 36.1912C115.259 37.5984 117.691 41.3526 117.691 41.3526C117.691 41.3526 118.504 47.4521 117.08 48.5245H117.098H117.109H117.127H117.143H117.176H117.196H117.217H117.245H117.267H117.3H117.316C117.248 48.5908 117.179 48.6636 117.108 48.7429C116.053 49.9172 114.704 52.434 116.547 56.7139C119.258 63.0221 119.666 65.4936 119.666 65.4936C119.666 65.4936 114.511 65.7621 113.496 65.9627C112.597 66.1406 109.103 66.2651 108.304 66.2861C108.019 65.9529 107.177 65.2154 106.04 66.2861C104.616 67.627 103.599 72.1091 103.599 72.1091C103.599 72.1091 103.056 75.729 104.888 74.7893C104.888 74.7893 107.058 71.7727 107.667 71.6384C107.969 71.5721 108.29 71.1241 108.535 70.6922L108.548 70.7003C108.562 70.7003 108.622 70.6679 108.718 70.6291C109.17 70.4496 110.411 70.0177 111.391 70.2328C111.927 70.3509 114.228 70.3784 116.639 70.3719C116.095 71.6821 115.118 75.0626 115.118 75.0626C115.118 75.0626 114.711 78.2151 116.064 78.0857C117.031 77.9903 118.513 75.5107 119.286 74.0954C119.846 73.6829 121.452 72.2045 122.64 72.3161L130.639 69.2332C130.639 69.2332 132.537 68.1608 131.52 64.6088C130.715 61.7847 128.423 56.0038 127.517 53.7506L127.49 53.6924C127.271 53.1473 127.139 52.8238 127.139 52.8238C126.767 51.7952 126.523 50.7244 126.412 49.6357C126.404 49.55 126.398 49.4627 126.391 49.3769C126.503 49.3297 126.609 49.2683 126.705 49.1942C126.705 49.1942 125.96 41.6211 126.705 40.8156L126.718 40.801V40.7913L126.731 40.7751L126.76 40.7379L126.796 40.6927C126.836 40.6393 126.884 40.573 126.939 40.4921C127.366 39.8645 128.162 38.4314 127.933 36.7395C127.923 36.6662 127.911 36.5923 127.897 36.5179C127.81 36.0591 127.653 35.6163 127.434 35.2045C127.401 35.0331 127.381 34.8596 127.374 34.6853C127.374 34.5866 127.374 34.4783 127.374 34.3618V34.3424C127.374 34.3111 127.374 34.2799 127.374 34.2486V34.2259C127.374 34.1499 127.387 34.0642 127.398 33.993V33.9639C127.398 33.9348 127.403 33.9051 127.413 33.875V33.8378C127.413 33.8086 127.425 33.7795 127.432 33.7504V33.7197C127.442 33.6809 127.451 33.642 127.464 33.6032V33.5838C127.474 33.5515 127.485 33.5196 127.496 33.4884L127.511 33.4512L127.543 33.3735L127.559 33.3347C127.572 33.3056 127.587 33.2765 127.601 33.2474L127.612 33.2231C127.632 33.1875 127.652 33.1525 127.674 33.118L127.691 33.0905L127.744 33.0145L127.77 32.9805L127.827 32.9125L127.852 32.8834C127.881 32.8527 127.91 32.822 127.943 32.7929C128.824 31.9841 132.756 26.0237 132.756 26.0237C132.756 26.0237 133.705 24.6828 133.705 23.8126C133.758 23.7932 135.435 18.1805 135.266 16.474ZM124.71 66.5757C124.613 65.657 124.516 64.5182 124.428 63.3407L125.961 65.7411C125.961 65.7411 125.816 66.4722 124.71 66.5757Z" fill="url(#paint3_linear)"/>
<path d="M108.72 66.0679C108.72 66.0679 107.802 64.6122 106.423 65.9369C105.044 67.2616 104.062 71.6677 104.062 71.6677C104.062 71.6677 103.536 75.2261 105.308 74.3026C105.308 74.3026 107.403 71.3377 107.999 71.2067C108.595 71.0757 109.245 69.4275 109.245 69.4275L108.72 66.0679Z" fill="#493545"/>
<path d="M118.561 69.6247C118.561 69.6247 117.314 69.031 116.921 69.4936C116.528 69.9562 115.215 74.5661 115.215 74.5661C115.215 74.5661 114.822 77.5972 116.133 77.4646C117.445 77.332 119.742 72.5863 119.742 72.5863L118.561 69.6247Z" fill="#493545"/>
<path opacity="0.05" d="M118.561 69.6247C118.561 69.6247 117.314 69.031 116.921 69.4936C116.528 69.9562 115.215 74.5661 115.215 74.5661C115.215 74.5661 114.822 77.5972 116.133 77.4646C117.445 77.332 119.742 72.5863 119.742 72.5863L118.561 69.6247Z" fill="black"/>
<path d="M122.891 60.6655L125.712 65.0796C125.712 65.0796 125.515 66.0679 123.809 65.8706L117.97 69.5601C117.97 69.5601 117.462 74.0518 119.085 73.6442C119.347 73.5779 121.179 71.6677 122.496 71.8003L130.24 68.7691C130.24 68.7691 132.076 67.7145 131.092 64.224C130.108 60.7334 126.854 52.6395 126.854 52.6395L121.71 55.5284L122.891 60.6655Z" fill="#3E3D77"/>
<path opacity="0.05" d="M122.891 60.6655L125.712 65.0796C125.712 65.0796 125.515 66.0679 123.809 65.8706L117.97 69.5601C117.97 69.5601 117.462 74.0518 119.085 73.6442C119.347 73.5779 121.179 71.6677 122.496 71.8003L130.24 68.7691C130.24 68.7691 132.076 67.7145 131.092 64.224C130.108 60.7334 126.854 52.6395 126.854 52.6395L121.71 55.5284L122.891 60.6655Z" fill="black"/>
<path d="M124.663 67.1871C125.056 69.691 122.827 69.8883 122.827 69.8883C122.827 69.8883 112.788 70.0857 111.607 69.822C110.426 69.5584 108.851 70.283 108.851 70.283C106.816 69.0311 108.458 65.9352 108.458 65.9352C108.458 65.9352 112.657 65.8042 113.641 65.6117C114.626 65.4192 119.611 65.1459 119.611 65.1459C119.611 65.1459 119.218 62.7083 116.593 56.5166C114.809 52.3111 116.109 49.8363 117.135 48.6831C117.397 48.3771 117.7 48.1092 118.036 47.8873L126.106 48.2819C126.098 48.6906 126.113 49.0995 126.151 49.5064C126.289 50.9034 126.651 52.2689 127.223 53.5501C126.764 53.5501 123.811 56.3176 123.811 56.3176C123.811 56.3176 124.268 64.6849 124.663 67.1871Z" fill="#3E3D77"/>
<path opacity="0.1" d="M109.047 66.1989C109.047 66.1989 113.247 66.0678 114.231 65.8754C115.215 65.6829 120.201 65.4144 120.201 65.4144C120.201 65.4144 119.808 62.9768 117.182 56.7851C115.399 52.5796 116.699 50.1049 117.725 48.9516C117.987 48.6456 118.29 48.3777 118.625 48.1558L126.103 48.5214C126.103 48.4437 126.103 48.3596 126.103 48.2868L118.033 47.8922C117.697 48.1141 117.394 48.3819 117.132 48.688C116.111 49.8428 114.806 52.316 116.589 56.5214C119.221 62.7083 119.611 65.1459 119.611 65.1459C119.611 65.1459 114.618 65.4095 113.641 65.6068C112.665 65.8042 108.458 65.9303 108.458 65.9303C108.458 65.9303 106.818 69.0278 108.851 70.2846C108.851 70.2846 108.912 70.2555 109.012 70.2135C107.66 68.8176 109.047 66.1989 109.047 66.1989Z" fill="black"/>
<path d="M121.053 23.7075H116.986V34.0497H121.053V23.7075Z" fill="#493545"/>
<path opacity="0.1" d="M121.053 23.7075H116.986V34.0497H121.053V23.7075Z" fill="black"/>
<path d="M123.379 22.1902C123.519 22.229 123.677 22.2339 123.772 22.428C123.831 22.5831 123.863 22.7472 123.867 22.9132L124.123 26.1094C124.127 26.3186 124.167 26.5256 124.242 26.7208C124.35 26.9375 124.529 26.9634 124.669 27.1025C124.951 27.384 125.033 28.0892 124.956 28.6634C124.879 29.2376 124.684 29.7293 124.531 30.2485C124.312 30.9926 124.167 31.8288 123.859 32.4564C123.551 33.084 122.992 33.4269 122.632 32.8996C122.271 32.3723 122.319 31.308 122.251 30.4362C122.139 28.9804 121.573 27.7253 121.535 26.2598C121.502 25.0742 121.82 23.9678 122.018 22.8437C122.16 22.0721 122.168 21.1356 122.374 20.4417C122.546 21.2666 122.875 22.0511 123.379 22.1902Z" fill="#493545"/>
<path opacity="0.1" d="M123.379 22.1902C123.519 22.229 123.677 22.2339 123.772 22.428C123.831 22.5831 123.863 22.7472 123.867 22.9132L124.123 26.1094C124.127 26.3186 124.167 26.5256 124.242 26.7208C124.35 26.9375 124.529 26.9634 124.669 27.1025C124.951 27.384 125.033 28.0892 124.956 28.6634C124.879 29.2376 124.684 29.7293 124.531 30.2485C124.312 30.9926 124.167 31.8288 123.859 32.4564C123.551 33.084 122.992 33.4269 122.632 32.8996C122.271 32.3723 122.319 31.308 122.251 30.4362C122.139 28.9804 121.573 27.7253 121.535 26.2598C121.502 25.0742 121.82 23.9678 122.018 22.8437C122.16 22.0721 122.168 21.1356 122.374 20.4417C122.546 21.2666 122.875 22.0511 123.379 22.1902Z" fill="black"/>
<path d="M106.16 17.6468L104.587 18.9651C104.587 18.9651 104.4 18.7451 104.121 18.3893C103.027 16.9869 100.513 13.4689 102.29 12.8397C104.066 12.2105 105.471 15.6412 105.967 17.0581C106.093 17.4172 106.16 17.6468 106.16 17.6468Z" fill="#C77485"/>
<path d="M134.57 17.1858C133.914 18.1741 132.996 17.1858 132.996 17.1858C132.996 17.1858 132.878 17.0095 132.712 16.7248C132.173 15.8077 131.114 13.7745 131.815 12.969C132.621 12.0486 134.616 15.1898 134.678 16.6633C134.697 16.8445 134.659 17.0271 134.57 17.1858Z" fill="#C77485"/>
<path d="M118.429 27.8579C118.429 27.8579 119.742 32.0747 119.347 33.3251C118.952 34.5754 122.169 36.0311 122.169 36.0311H125.844C125.844 36.0311 127.157 33.3299 126.828 32.539C126.499 31.748 123.679 31.156 123.679 31.156C123.679 31.156 122.039 31.156 122.105 26.7419L118.429 27.8579Z" fill="#C77485"/>
<path opacity="0.1" d="M106.16 17.6467L104.587 18.965C104.587 18.965 104.4 18.745 104.121 18.3892C104.693 18.2873 105.581 17.4494 105.969 17.058C106.093 17.4171 106.16 17.6467 106.16 17.6467Z" fill="black"/>
<path opacity="0.1" d="M134.57 17.1857C133.914 18.174 132.996 17.1857 132.996 17.1857C132.996 17.1857 132.878 17.0094 132.712 16.7248L132.733 16.6584C133.159 16.9642 134.481 16.7037 134.678 16.6584C134.698 16.8412 134.66 17.0257 134.57 17.1857Z" fill="black"/>
<path opacity="0.1" d="M126.148 49.5048C124.118 50.4348 117.524 48.7785 117.127 48.6798C117.389 48.3738 117.692 48.106 118.028 47.884L126.098 48.2787C126.091 48.688 126.108 49.0974 126.148 49.5048Z" fill="black"/>
<path d="M119.283 31.4811C119.283 31.4811 117.709 32.0084 115.478 29.9655C115.478 29.9655 110.484 25.0241 110.162 23.8385L106.296 17.0451C106.296 17.0451 104.656 18.8243 103.999 18.5606L108.329 26.1369C108.329 26.1369 109.117 27.5927 109.838 27.9809C109.838 27.9809 115.218 34.8989 115.283 36.2818C115.347 37.6648 117.707 41.3688 117.707 41.3688C117.707 41.3688 118.495 47.3632 117.116 48.4178C117.116 48.4178 124.792 50.3944 126.432 49.0761C126.432 49.0761 125.71 41.6357 126.432 40.8415C126.432 40.8415 128.663 38.2066 127.153 35.3081C127.153 35.3081 126.831 33.7278 127.679 32.9369C128.526 32.1459 132.337 26.2825 132.337 26.2825C132.337 26.2825 133.255 24.9643 133.255 24.1086C133.255 24.1086 134.961 18.3115 134.705 16.796C134.705 16.796 133.196 17.1195 132.737 16.796C132.737 16.796 130.506 23.5894 130.243 23.845C129.98 24.1005 128.149 29.4447 125.716 30.0383C123.284 30.6319 122.896 30.894 122.896 30.894C122.896 30.894 127.619 33.8588 125.323 35.1755C123.028 36.4921 119.283 31.4811 119.283 31.4811Z" fill="#FFAAC4"/>
<path opacity="0.1" d="M122.264 28.8722C122.186 28.2516 122.155 27.626 122.169 27.0007L118.495 28.12C118.592 28.3658 118.669 28.6189 118.725 28.877C119.146 29.063 119.713 29.503 120.201 29.503C120.939 29.5272 121.665 29.3054 122.264 28.8722Z" fill="black"/>
<path d="M120.135 29.3072C122.019 29.3072 123.547 27.7734 123.547 25.8814C123.547 23.9894 122.019 22.4556 120.135 22.4556C118.25 22.4556 116.723 23.9894 116.723 25.8814C116.723 27.7734 118.25 29.3072 120.135 29.3072Z" fill="#C77485"/>
<path opacity="0.1" d="M116.075 20.6035C115.325 20.6617 114.487 21.1826 114.529 21.9379C114.552 22.3536 114.835 22.7046 114.959 23.1025C115.257 24.0649 114.593 25.0306 114.01 25.8522C113.427 26.6739 112.883 27.7625 113.382 28.6327C113.524 28.8422 113.678 29.0436 113.843 29.236C114.46 30.0723 114.452 31.2013 114.726 32.2057C115.075 33.4908 115.902 34.5925 117.036 35.2844C118.169 35.9763 119.524 36.2059 120.821 35.926C120.333 35.3001 120.089 34.5166 120.136 33.7229C120.174 33.1471 120.359 32.5454 120.136 32.0132C119.85 31.3291 119.009 31.0589 118.576 30.4605C118.142 29.862 118.171 29.0322 118.381 28.3189C118.59 27.6056 118.952 26.944 119.126 26.2162C119.169 26.0038 119.223 25.7938 119.288 25.587C119.59 24.7232 120.496 24.2218 121.382 24.0067C122.268 23.7916 123.199 23.7786 124.064 23.4956C124.929 23.2125 125.77 22.5493 125.87 21.6387C125.141 21.9315 124.466 21.168 123.764 20.817C122.608 20.2412 121.288 20.783 120.096 20.9157C118.738 21.0677 117.45 20.5032 116.075 20.6035Z" fill="black"/>
<path d="M116.009 20.4725C115.259 20.5307 114.421 21.0516 114.463 21.8069C114.485 22.2226 114.769 22.5736 114.893 22.9715C115.191 23.9339 114.527 24.8996 113.944 25.7213C113.361 26.5429 112.817 27.6315 113.316 28.5017C113.458 28.7112 113.612 28.9126 113.777 29.105C114.394 29.9413 114.386 31.0703 114.659 32.0748C115.009 33.3598 115.836 34.4615 116.97 35.1534C118.103 35.8454 119.458 36.0749 120.755 35.795C120.267 35.1691 120.023 34.3856 120.07 33.592C120.107 33.0161 120.293 32.4144 120.07 31.8823C119.784 31.1981 118.943 30.9279 118.509 30.3295C118.076 29.731 118.105 28.9012 118.314 28.1879C118.524 27.4746 118.886 26.8131 119.06 26.0852C119.103 25.8728 119.157 25.6628 119.221 25.456C119.524 24.5923 120.43 24.0908 121.315 23.8757C122.201 23.6606 123.133 23.6476 123.998 23.3646C124.863 23.0815 125.703 22.4184 125.803 21.5077C125.075 21.8005 124.4 21.037 123.698 20.686C122.541 20.1102 121.222 20.6521 120.03 20.7847C118.675 20.9351 117.391 20.3641 116.009 20.4725Z" fill="#493545"/>
<path opacity="0.1" d="M123.514 33.4918C123.514 33.4918 124.88 34.7162 125.149 35.2564L123.514 33.4918Z" fill="black"/>
<path opacity="0.1" d="M126.47 40.8044C126.47 40.8044 124.764 40.8044 123.977 41.0017C123.189 41.1991 121.286 41.0017 121.286 41.0017" fill="black"/>
<g opacity="0.1">
<path opacity="0.1" d="M125.319 35.1706C125.171 35.2551 125.012 35.3162 124.847 35.3517C125.274 35.447 125.722 35.3826 126.106 35.1706C128.403 33.8523 123.679 30.8891 123.679 30.8891H122.891C122.891 30.8891 127.616 33.854 125.319 35.1706Z" fill="black"/>
<path opacity="0.1" d="M134.716 16.9108C134.716 16.8688 134.707 16.8283 134.7 16.7911C134.43 16.8473 134.158 16.8889 133.884 16.9157C134.16 16.9463 134.44 16.9446 134.716 16.9108Z" fill="black"/>
<path opacity="0.1" d="M117.905 48.413C119.283 47.3584 118.496 41.364 118.496 41.364C118.496 41.364 116.135 37.6745 116.069 36.2916C116.003 34.9086 110.624 27.9906 110.624 27.9906C109.903 27.596 109.115 26.1467 109.115 26.1467C109.115 26.1467 104.653 18.834 103.997 18.5704L108.327 26.1467C108.327 26.1467 109.115 27.6024 109.836 27.9906C109.836 27.9906 115.217 34.9086 115.281 36.2916C115.346 37.6745 117.707 41.3688 117.707 41.3688C117.707 41.3688 118.495 47.3633 117.116 48.4179C117.116 48.4179 121.834 49.6326 124.663 49.5226C121.828 49.4223 117.905 48.413 117.905 48.413Z" fill="black"/>
<path opacity="0.1" d="M119.321 31.5329L119.283 31.4827C119.238 31.4961 119.192 31.5063 119.146 31.5135C119.207 31.5215 119.265 31.528 119.321 31.5329Z" fill="black"/>
</g>
<g opacity="0.1">
<path opacity="0.1" d="M134.7 16.783L134.66 16.7911C134.591 18.8146 133.192 23.5684 133.192 23.5684C133.192 24.424 132.274 25.7423 132.274 25.7423C132.274 25.7423 128.469 31.6057 127.616 32.3966C126.762 33.1876 127.09 34.7679 127.09 34.7679L127.099 34.784C127.073 34.2519 127.137 33.427 127.68 32.9223C128.532 32.1313 132.339 26.268 132.339 26.268C132.339 26.268 133.257 24.9497 133.257 24.0941C133.257 24.1038 134.963 18.3067 134.7 16.783Z" fill="black"/>
<path opacity="0.1" d="M126.369 40.3094C126.467 40.869 126.401 40.277 126.435 40.8367C126.435 40.8367 128.046 38.9393 127.606 36.594C127.738 38.6903 126.369 40.3094 126.369 40.3094Z" fill="black"/>
</g>
<path opacity="0.1" d="M76.6769 107C114.725 107 145.569 104.025 145.569 100.355C145.569 96.6857 114.725 93.7108 76.6769 93.7108C38.629 93.7108 7.78503 96.6857 7.78503 100.355C7.78503 104.025 38.629 107 76.6769 107Z" fill="#009688"/>
<path d="M49.9718 93.6137C49.9718 93.6137 47.6264 85.6152 50.4116 79.7292C51.5962 77.2675 51.9534 74.4864 51.4297 71.8035C51.171 70.5317 50.7968 69.2864 50.3117 68.0833" stroke="#535461" stroke-width="2" stroke-miterlimit="10"/>
<path d="M52.0484 64.3662C52.0484 65.3464 50.2764 68.1883 50.2764 68.1883C50.2764 68.1883 48.5045 65.3464 48.5045 64.3662C48.4865 64.1222 48.5188 63.877 48.5995 63.6461C48.6801 63.4152 48.8074 63.2034 48.9732 63.0241C49.1391 62.8448 49.34 62.7018 49.5634 62.604C49.7868 62.5062 50.0279 62.4557 50.2716 62.4557C50.5153 62.4557 50.7564 62.5062 50.9798 62.604C51.2032 62.7018 51.4041 62.8448 51.57 63.0241C51.7358 63.2034 51.863 63.4152 51.9437 63.6461C52.0244 63.877 52.0567 64.1222 52.0387 64.3662H52.0484Z" fill="#009688"/>
<path d="M54.9657 69.7946C54.4357 70.6179 51.4137 72.038 51.4137 72.038C51.4137 72.038 51.4685 68.6882 51.9984 67.8649C52.116 67.6512 52.2761 67.464 52.4688 67.3151C52.6615 67.1662 52.8826 67.0587 53.1185 66.9993C53.3544 66.9399 53.5999 66.9298 53.8397 66.9698C54.0796 67.0098 54.3087 67.0989 54.5128 67.2317C54.7169 67.3644 54.8916 67.5379 55.0261 67.7413C55.1605 67.9448 55.2518 68.1738 55.2943 68.4142C55.3368 68.6546 55.3295 68.9012 55.273 69.1387C55.2164 69.3762 55.1118 69.5994 54.9657 69.7946Z" fill="#009688"/>
<path d="M54.8385 79.0741C53.967 79.5156 50.6503 79.2099 50.6503 79.2099C50.6503 79.2099 52.382 76.3454 53.2534 75.9038C53.4623 75.7778 53.6949 75.6965 53.9365 75.6649C54.1781 75.6333 54.4237 75.652 54.6578 75.72C54.8918 75.788 55.1095 75.9037 55.297 76.0599C55.4845 76.2161 55.6379 76.4095 55.7477 76.628C55.8574 76.8464 55.9211 77.0853 55.9347 77.3296C55.9484 77.5739 55.9117 77.8184 55.827 78.0478C55.7422 78.2772 55.6113 78.4866 55.4423 78.6629C55.2734 78.8392 55.07 78.9786 54.845 79.0724L54.8385 79.0741Z" fill="#009688"/>
<path d="M53.1678 86.0714C52.3833 86.6537 49.0553 86.9174 49.0553 86.9174C49.0553 86.9174 50.2796 83.8004 51.0657 83.2165C51.444 82.9857 51.8946 82.9054 52.3289 82.9915C52.7632 83.0775 53.1496 83.3237 53.4123 83.6815C53.6749 84.0393 53.7946 84.4829 53.7479 84.9249C53.7011 85.3669 53.4913 85.7753 53.1598 86.0698L53.1678 86.0714Z" fill="#009688"/>
<path d="M47.699 72.2289C48.3997 72.9115 51.6617 73.62 51.6617 73.62C51.6617 73.62 50.8563 70.3672 50.162 69.683C50 69.5007 49.8023 69.3538 49.5813 69.2515C49.3603 69.1492 49.1206 69.0938 48.8773 69.0886C48.634 69.0834 48.3923 69.1286 48.1671 69.2214C47.942 69.3141 47.7383 69.4524 47.5687 69.6277C47.3991 69.803 47.2673 70.0114 47.1815 70.2401C47.0957 70.4688 47.0578 70.7127 47.07 70.9568C47.0822 71.2008 47.1444 71.4397 47.2526 71.6586C47.3608 71.8775 47.5127 72.0716 47.699 72.2289Z" fill="#009688"/>
<path d="M45.8514 80.4393C46.7229 80.8808 50.0397 80.5751 50.0397 80.5751C50.0397 80.5751 48.3144 77.7106 47.4429 77.2771C47.0297 77.1048 46.567 77.0959 46.1475 77.2521C45.728 77.4083 45.3829 77.718 45.1814 78.1191C44.9799 78.5202 44.937 78.983 45.0613 79.4146C45.1856 79.8461 45.4678 80.2145 45.8514 80.4458V80.4393Z" fill="#009688"/>
<path d="M45.1426 88.6658C45.9271 89.2481 49.2551 89.5118 49.2551 89.5118C49.2551 89.5118 48.0308 86.3949 47.2447 85.811C47.0605 85.6473 46.8443 85.524 46.61 85.4488C46.3757 85.3737 46.1283 85.3483 45.8837 85.3744C45.6391 85.4005 45.4026 85.4774 45.1892 85.6003C44.9758 85.7231 44.7903 85.8893 44.6443 86.0881C44.4984 86.287 44.3953 86.5141 44.3416 86.7552C44.2879 86.9962 44.2847 87.2458 44.3324 87.4881C44.38 87.7305 44.4773 87.9602 44.6182 88.1627C44.7591 88.3651 44.9404 88.5359 45.1506 88.6642L45.1426 88.6658Z" fill="#009688"/>
<path opacity="0.1" d="M52.0484 64.3662C52.0484 65.3464 50.2764 68.1883 50.2764 68.1883C50.2764 68.1883 48.5045 65.3464 48.5045 64.3662C48.4865 64.1222 48.5188 63.877 48.5995 63.6461C48.6801 63.4152 48.8074 63.2034 48.9732 63.0241C49.1391 62.8448 49.34 62.7018 49.5634 62.604C49.7868 62.5062 50.0279 62.4557 50.2716 62.4557C50.5153 62.4557 50.7564 62.5062 50.9798 62.604C51.2032 62.7018 51.4041 62.8448 51.57 63.0241C51.7358 63.2034 51.863 63.4152 51.9437 63.6461C52.0244 63.877 52.0567 64.1222 52.0387 64.3662H52.0484Z" fill="#009688"/>
<path opacity="0.1" d="M54.9657 69.7946C54.4357 70.6179 51.4137 72.038 51.4137 72.038C51.4137 72.038 51.4685 68.6882 51.9984 67.8649C52.116 67.6512 52.2761 67.464 52.4688 67.3151C52.6615 67.1662 52.8826 67.0587 53.1185 66.9993C53.3544 66.9399 53.5999 66.9298 53.8397 66.9698C54.0796 67.0098 54.3087 67.0989 54.5128 67.2317C54.7169 67.3644 54.8916 67.5379 55.0261 67.7413C55.1605 67.9448 55.2518 68.1738 55.2943 68.4142C55.3368 68.6546 55.3295 68.9012 55.273 69.1387C55.2164 69.3762 55.1118 69.5994 54.9657 69.7946Z" fill="#009688"/>
<path opacity="0.1" d="M54.8385 79.0741C53.967 79.5156 50.6503 79.2099 50.6503 79.2099C50.6503 79.2099 52.382 76.3454 53.2534 75.9038C53.4623 75.7778 53.6949 75.6965 53.9365 75.6649C54.1781 75.6333 54.4237 75.652 54.6578 75.72C54.8918 75.788 55.1095 75.9037 55.297 76.0599C55.4845 76.2161 55.6379 76.4095 55.7477 76.628C55.8574 76.8464 55.9211 77.0853 55.9347 77.3296C55.9484 77.5739 55.9117 77.8184 55.827 78.0478C55.7422 78.2772 55.6113 78.4866 55.4423 78.6629C55.2734 78.8392 55.07 78.9786 54.845 79.0724L54.8385 79.0741Z" fill="#009688"/>
<path opacity="0.1" d="M53.1678 86.0714C52.3833 86.6537 49.0553 86.9174 49.0553 86.9174C49.0553 86.9174 50.2796 83.8004 51.0657 83.2165C51.444 82.9857 51.8946 82.9054 52.3289 82.9915C52.7632 83.0775 53.1496 83.3237 53.4123 83.6815C53.6749 84.0393 53.7946 84.4829 53.7479 84.9249C53.7011 85.3669 53.4913 85.7753 53.1598 86.0698L53.1678 86.0714Z" fill="#009688"/>
<path opacity="0.1" d="M47.699 72.2289C48.3997 72.9115 51.6617 73.62 51.6617 73.62C51.6617 73.62 50.8563 70.3672 50.162 69.683C50 69.5007 49.8023 69.3538 49.5813 69.2515C49.3603 69.1492 49.1206 69.0938 48.8773 69.0886C48.634 69.0834 48.3923 69.1286 48.1671 69.2214C47.942 69.3141 47.7383 69.4524 47.5687 69.6277C47.3991 69.803 47.2673 70.0114 47.1815 70.2401C47.0957 70.4688 47.0578 70.7127 47.07 70.9568C47.0822 71.2008 47.1444 71.4397 47.2526 71.6586C47.3608 71.8775 47.5127 72.0716 47.699 72.2289Z" fill="#009688"/>
<path opacity="0.1" d="M45.8514 80.4393C46.7229 80.8808 50.0397 80.5751 50.0397 80.5751C50.0397 80.5751 48.3144 77.7106 47.4429 77.2771C47.0297 77.1048 46.567 77.0959 46.1475 77.2521C45.728 77.4083 45.3829 77.718 45.1814 78.1191C44.9799 78.5202 44.937 78.983 45.0613 79.4146C45.1856 79.8461 45.4678 80.2145 45.8514 80.4458V80.4393Z" fill="#009688"/>
<path opacity="0.1" d="M45.1426 88.6658C45.9271 89.2481 49.2551 89.5118 49.2551 89.5118C49.2551 89.5118 48.0308 86.3949 47.2447 85.811C47.0605 85.6473 46.8443 85.524 46.61 85.4488C46.3757 85.3737 46.1283 85.3483 45.8837 85.3744C45.6391 85.4005 45.4026 85.4774 45.1892 85.6003C44.9758 85.7231 44.7903 85.8893 44.6443 86.0881C44.4984 86.287 44.3953 86.5141 44.3416 86.7552C44.2879 86.9962 44.2847 87.2458 44.3324 87.4881C44.38 87.7305 44.4773 87.9602 44.6182 88.1627C44.7591 88.3651 44.9404 88.5359 45.1506 88.6642L45.1426 88.6658Z" fill="#009688"/>
<path d="M97.4345 93.7286C97.4345 93.7286 95.0891 85.7301 97.8743 79.844C99.0588 77.3824 99.4161 74.6013 98.8923 71.9183C98.6336 70.6466 98.2594 69.4013 97.7744 68.1981" stroke="#535461" stroke-width="2" stroke-miterlimit="10"/>
<path d="M99.5077 64.4795C99.5077 65.4597 97.7357 68.3016 97.7357 68.3016C97.7357 68.3016 95.9637 65.4597 95.9637 64.4795C95.9968 64.0315 96.1973 63.6127 96.525 63.3071C96.8528 63.0014 97.2836 62.8315 97.7309 62.8315C98.1782 62.8315 98.6089 63.0014 98.9367 63.3071C99.2645 63.6127 99.465 64.0315 99.498 64.4795H99.5077Z" fill="#009688"/>
<path d="M102.43 69.9077C101.9 70.731 98.8778 72.1512 98.8778 72.1512C98.8778 72.1512 98.9326 68.8014 99.4626 67.9781C99.5801 67.7643 99.7402 67.5772 99.9329 67.4283C100.126 67.2793 100.347 67.1718 100.583 67.1124C100.818 67.053 101.064 67.043 101.304 67.083C101.544 67.123 101.773 67.2121 101.977 67.3448C102.181 67.4775 102.356 67.651 102.49 67.8545C102.625 68.0579 102.716 68.287 102.758 68.5274C102.801 68.7678 102.794 69.0144 102.737 69.2519C102.681 69.4893 102.576 69.7126 102.43 69.9077Z" fill="#009688"/>
<path d="M102.307 79.1873C101.436 79.6288 98.119 79.3231 98.119 79.3231C98.119 79.3231 99.8507 76.4586 100.722 76.017C100.931 75.8899 101.164 75.8076 101.407 75.7753C101.649 75.7431 101.896 75.7615 102.13 75.8295C102.365 75.8975 102.584 76.0135 102.772 76.1704C102.96 76.3272 103.114 76.5214 103.223 76.7408C103.333 76.9602 103.396 77.2 103.409 77.4452C103.422 77.6903 103.384 77.9355 103.298 78.1653C103.212 78.395 103.08 78.6045 102.909 78.7803C102.739 78.9562 102.534 79.0948 102.307 79.1873Z" fill="#009688"/>
<path d="M100.63 86.1846C99.846 86.7669 96.5179 87.0306 96.5179 87.0306C96.5179 87.0306 97.7422 83.9137 98.5283 83.3298C98.9066 83.0989 99.3572 83.0187 99.7915 83.1047C100.226 83.1908 100.612 83.4369 100.875 83.7947C101.138 84.1525 101.257 84.5961 101.211 85.0381C101.164 85.4801 100.954 85.8885 100.622 86.183L100.63 86.1846Z" fill="#009688"/>
<path d="M95.1648 72.3421C95.8655 73.0247 99.1275 73.7331 99.1275 73.7331C99.1275 73.7331 98.3221 70.4804 97.6278 69.7962C97.4658 69.6138 97.2681 69.4669 97.0471 69.3647C96.8261 69.2624 96.5864 69.2069 96.3431 69.2018C96.0998 69.1966 95.8581 69.2418 95.6329 69.3345C95.4078 69.4273 95.2041 69.5656 95.0345 69.7409C94.865 69.9161 94.7332 70.1246 94.6474 70.3533C94.5616 70.5819 94.5236 70.8259 94.5358 71.0699C94.548 71.314 94.6102 71.5529 94.7184 71.7718C94.8266 71.9906 94.9786 72.1848 95.1648 72.3421Z" fill="#009688"/>
<path d="M93.3138 80.5525C94.1853 80.9941 97.5021 80.6884 97.5021 80.6884C97.5021 80.6884 95.7704 77.8238 94.8989 77.3822C94.4857 77.21 94.0229 77.201 93.6034 77.3572C93.1839 77.5134 92.8388 77.8231 92.6373 78.2242C92.4359 78.6254 92.393 79.0881 92.5172 79.5197C92.6415 79.9513 92.9238 80.3196 93.3074 80.5509L93.3138 80.5525Z" fill="#009688"/>
<path d="M92.6067 88.7789C93.3912 89.3612 96.7192 89.6249 96.7192 89.6249C96.7192 89.6249 95.495 86.508 94.7089 85.9241C94.3306 85.6932 93.8799 85.613 93.4456 85.699C93.0113 85.7851 92.6249 86.0312 92.3622 86.389C92.0996 86.7468 91.9799 87.1904 92.0266 87.6324C92.0734 88.0744 92.2832 88.4828 92.6147 88.7773L92.6067 88.7789Z" fill="#009688"/>
<path opacity="0.1" d="M99.5077 64.4795C99.5077 65.4597 97.7357 68.3016 97.7357 68.3016C97.7357 68.3016 95.9637 65.4597 95.9637 64.4795C95.9968 64.0315 96.1973 63.6127 96.525 63.3071C96.8528 63.0014 97.2836 62.8315 97.7309 62.8315C98.1782 62.8315 98.6089 63.0014 98.9367 63.3071C99.2645 63.6127 99.465 64.0315 99.498 64.4795H99.5077Z" fill="#009688"/>
<path opacity="0.1" d="M102.43 69.9077C101.9 70.731 98.8778 72.1512 98.8778 72.1512C98.8778 72.1512 98.9326 68.8014 99.4626 67.9781C99.5801 67.7643 99.7402 67.5772 99.9329 67.4283C100.126 67.2793 100.347 67.1718 100.583 67.1124C100.818 67.053 101.064 67.043 101.304 67.083C101.544 67.123 101.773 67.2121 101.977 67.3448C102.181 67.4775 102.356 67.651 102.49 67.8545C102.625 68.0579 102.716 68.287 102.758 68.5274C102.801 68.7678 102.794 69.0144 102.737 69.2519C102.681 69.4893 102.576 69.7126 102.43 69.9077Z" fill="#009688"/>
<path opacity="0.1" d="M102.307 79.1873C101.436 79.6288 98.119 79.3231 98.119 79.3231C98.119 79.3231 99.8507 76.4586 100.722 76.017C100.931 75.8899 101.164 75.8076 101.407 75.7753C101.649 75.7431 101.896 75.7615 102.13 75.8295C102.365 75.8975 102.584 76.0135 102.772 76.1704C102.96 76.3272 103.114 76.5214 103.223 76.7408C103.333 76.9602 103.396 77.2 103.409 77.4452C103.422 77.6903 103.384 77.9355 103.298 78.1653C103.212 78.395 103.08 78.6045 102.909 78.7803C102.739 78.9562 102.534 79.0948 102.307 79.1873Z" fill="#009688"/>
<path opacity="0.1" d="M100.63 86.1846C99.846 86.7669 96.5179 87.0306 96.5179 87.0306C96.5179 87.0306 97.7422 83.9137 98.5283 83.3298C98.9066 83.0989 99.3572 83.0187 99.7915 83.1047C100.226 83.1908 100.612 83.4369 100.875 83.7947C101.138 84.1525 101.257 84.5961 101.211 85.0381C101.164 85.4801 100.954 85.8885 100.622 86.183L100.63 86.1846Z" fill="#009688"/>
<path opacity="0.1" d="M95.1648 72.3421C95.8655 73.0247 99.1275 73.7331 99.1275 73.7331C99.1275 73.7331 98.3221 70.4804 97.6278 69.7962C97.4658 69.6138 97.2681 69.4669 97.0471 69.3647C96.8261 69.2624 96.5864 69.2069 96.3431 69.2018C96.0998 69.1966 95.8581 69.2418 95.6329 69.3345C95.4078 69.4273 95.2041 69.5656 95.0345 69.7409C94.865 69.9161 94.7332 70.1246 94.6474 70.3533C94.5616 70.5819 94.5236 70.8259 94.5358 71.0699C94.548 71.314 94.6102 71.5529 94.7184 71.7718C94.8266 71.9906 94.9786 72.1848 95.1648 72.3421Z" fill="#009688"/>
<path opacity="0.1" d="M93.3138 80.5525C94.1853 80.9941 97.5021 80.6884 97.5021 80.6884C97.5021 80.6884 95.7704 77.8238 94.8989 77.3822C94.4857 77.21 94.0229 77.201 93.6034 77.3572C93.1839 77.5134 92.8388 77.8231 92.6373 78.2242C92.4359 78.6254 92.393 79.0881 92.5172 79.5197C92.6415 79.9513 92.9238 80.3196 93.3074 80.5509L93.3138 80.5525Z" fill="#009688"/>
<path opacity="0.1" d="M92.6067 88.7789C93.3912 89.3612 96.7192 89.6249 96.7192 89.6249C96.7192 89.6249 95.495 86.508 94.7089 85.9241C94.3306 85.6932 93.8799 85.613 93.4456 85.699C93.0113 85.7851 92.6249 86.0312 92.3622 86.389C92.0996 86.7468 91.9799 87.1904 92.0266 87.6324C92.0734 88.0744 92.2832 88.4828 92.6147 88.7773L92.6067 88.7789Z" fill="#009688"/>
<path opacity="0.5" d="M108.912 2.47635H107.9C107.996 2.48094 108.092 2.46596 108.182 2.4323C108.272 2.39865 108.354 2.34703 108.423 2.28056C108.493 2.2141 108.548 2.13418 108.586 2.04564C108.623 1.9571 108.643 1.86178 108.643 1.76547C108.643 1.66915 108.623 1.57384 108.586 1.4853C108.548 1.39676 108.493 1.31683 108.423 1.25037C108.354 1.18391 108.272 1.13228 108.182 1.09863C108.092 1.06498 107.996 1.04999 107.9 1.05458H99.6978C99.5159 1.0633 99.3443 1.142 99.2186 1.27436C99.0929 1.40672 99.0228 1.58258 99.0228 1.76547C99.0228 1.94835 99.0929 2.12421 99.2186 2.25657C99.3443 2.38893 99.5159 2.46764 99.6978 2.47635H100.709C100.527 2.48507 100.356 2.56377 100.23 2.69613C100.105 2.82849 100.034 3.00436 100.034 3.18724C100.034 3.37012 100.105 3.54598 100.23 3.67834C100.356 3.8107 100.527 3.88941 100.709 3.89812H99.2935C99.1976 3.89353 99.1019 3.90852 99.012 3.94217C98.9222 3.97583 98.84 4.02745 98.7706 4.09391C98.7012 4.16037 98.6459 4.2403 98.6081 4.32884C98.5704 4.41738 98.5509 4.51269 98.5509 4.60901C98.5509 4.70533 98.5704 4.80064 98.6081 4.88918C98.6459 4.97772 98.7012 5.05764 98.7706 5.1241C98.84 5.19057 98.9222 5.24219 99.012 5.27584C99.1019 5.3095 99.1976 5.32449 99.2935 5.31989H107.49C107.585 5.32449 107.681 5.3095 107.771 5.27584C107.861 5.24219 107.943 5.19057 108.012 5.1241C108.082 5.05764 108.137 4.97772 108.175 4.88918C108.213 4.80064 108.232 4.70533 108.232 4.60901C108.232 4.51269 108.213 4.41738 108.175 4.32884C108.137 4.2403 108.082 4.16037 108.012 4.09391C107.943 4.02745 107.861 3.97583 107.771 3.94217C107.681 3.90852 107.585 3.89353 107.49 3.89812H108.912C109.094 3.88941 109.265 3.8107 109.391 3.67834C109.517 3.54598 109.587 3.37012 109.587 3.18724C109.587 3.00436 109.517 2.82849 109.391 2.69613C109.265 2.56377 109.094 2.48507 108.912 2.47635Z" fill="#DEE3F3"/>
<path opacity="0.5" d="M61.5169 6.62356H60.7469C60.8201 6.62758 60.8934 6.61657 60.9623 6.59119C61.0311 6.56582 61.0941 6.52662 61.1474 6.47598C61.2006 6.42535 61.243 6.36434 61.272 6.29669C61.301 6.22903 61.316 6.15616 61.316 6.08251C61.316 6.00886 61.301 5.93598 61.272 5.86833C61.243 5.80068 61.2006 5.73967 61.1474 5.68903C61.0941 5.6384 61.0311 5.59919 60.9623 5.57382C60.8934 5.54845 60.8201 5.53744 60.7469 5.54146H54.5096C54.3718 5.54903 54.2421 5.60933 54.1472 5.70997C54.0523 5.8106 53.9994 5.94392 53.9994 6.08251C53.9994 6.22109 54.0523 6.35441 54.1472 6.45505C54.2421 6.55568 54.3718 6.61599 54.5096 6.62356H55.2796C55.2064 6.61954 55.1331 6.63055 55.0642 6.65592C54.9954 6.68129 54.9324 6.7205 54.8791 6.77113C54.8258 6.82177 54.7834 6.88277 54.7544 6.95043C54.7254 7.01808 54.7105 7.09096 54.7105 7.16461C54.7105 7.23826 54.7254 7.31113 54.7544 7.37879C54.7834 7.44644 54.8258 7.50745 54.8791 7.55808C54.9324 7.60872 54.9954 7.64792 55.0642 7.67329C55.1331 7.69867 55.2064 7.70968 55.2796 7.70566H54.2019C54.1287 7.70163 54.0554 7.71265 53.9865 7.73802C53.9177 7.76339 53.8547 7.80259 53.8014 7.85323C53.7482 7.90387 53.7057 7.96487 53.6768 8.03253C53.6478 8.10018 53.6328 8.17306 53.6328 8.24671C53.6328 8.32036 53.6478 8.39323 53.6768 8.46089C53.7057 8.52854 53.7482 8.58955 53.8014 8.64018C53.8547 8.69082 53.9177 8.73002 53.9865 8.75539C54.0554 8.78077 54.1287 8.79178 54.2019 8.78776H60.4392C60.5124 8.79178 60.5857 8.78077 60.6546 8.75539C60.7234 8.73002 60.7864 8.69082 60.8397 8.64018C60.8929 8.58955 60.9354 8.52854 60.9644 8.46089C60.9934 8.39323 61.0083 8.32036 61.0083 8.24671C61.0083 8.17306 60.9934 8.10018 60.9644 8.03253C60.9354 7.96487 60.8929 7.90387 60.8397 7.85323C60.7864 7.80259 60.7234 7.76339 60.6546 7.73802C60.5857 7.71265 60.5124 7.70163 60.4392 7.70566H61.5169C61.6547 7.69809 61.7844 7.63778 61.8793 7.53715C61.9741 7.43651 62.027 7.30319 62.027 7.16461C62.027 7.02602 61.9741 6.8927 61.8793 6.79206C61.7844 6.69143 61.6547 6.63113 61.5169 6.62356Z" fill="#DEE3F3"/>
<path d="M9.16384 83.2617C9.16384 83.2617 11.9829 88.8178 9.68576 91.857C7.38867 94.8963 9.89517 103.179 9.89517 103.179" stroke="#009688" stroke-miterlimit="10"/>
<path d="M10.0047 81.5245C10.0047 82.5953 9.22185 83.4655 9.22185 83.4655C9.22185 83.4655 8.43896 82.5969 8.43896 81.5245C8.43896 80.4521 9.22185 79.5836 9.22185 79.5836C9.22185 79.5836 10.0047 80.4538 10.0047 81.5245Z" fill="#009688"/>
<path d="M10.6249 83.2617C10.6249 83.2617 7.8059 88.8178 10.103 91.857C12.4001 94.8963 9.89358 103.179 9.89358 103.179" stroke="#009688" stroke-miterlimit="10"/>
<path d="M9.79041 81.5245C9.79041 82.5953 10.5733 83.4655 10.5733 83.4655C10.5733 83.4655 11.3562 82.5969 11.3562 81.5245C11.3562 80.4521 10.5733 79.5836 10.5733 79.5836C10.5733 79.5836 9.79041 80.4538 9.79041 81.5245Z" fill="#009688"/>
<path opacity="0.1" d="M9.79041 81.5245C9.79041 82.5953 10.5733 83.4655 10.5733 83.4655C10.5733 83.4655 11.3562 82.5969 11.3562 81.5245C11.3562 80.4521 10.5733 79.5836 10.5733 79.5836C10.5733 79.5836 9.79041 80.4538 9.79041 81.5245Z" fill="black"/>
<path d="M11.7768 83.2617C11.7768 83.2617 14.5958 88.8178 12.2987 91.857C10.0016 94.8963 12.5081 103.179 12.5081 103.179" stroke="#009688" stroke-miterlimit="10"/>
<path d="M12.6093 81.5245C12.6093 82.5953 11.8265 83.4655 11.8265 83.4655C11.8265 83.4655 11.0436 82.5969 11.0436 81.5245C11.0436 80.4521 11.8265 79.5836 11.8265 79.5836C11.8265 79.5836 12.6093 80.4538 12.6093 81.5245Z" fill="#009688"/>
<path d="M12.1698 85.9758C11.4304 86.7474 10.2657 86.8282 10.2657 86.8282C10.2657 86.8282 10.3012 85.6572 11.0406 84.8873C11.78 84.1173 12.9446 84.0349 12.9446 84.0349C12.9446 84.0349 12.9043 85.2027 12.1698 85.9758Z" fill="#009688"/>
<path d="M12.2439 89.8093C11.5045 90.5808 10.3398 90.6617 10.3398 90.6617C10.3398 90.6617 10.3753 89.4906 11.1147 88.7207C11.8541 87.9508 13.0187 87.8683 13.0187 87.8683C13.0187 87.8683 12.9833 89.0361 12.2439 89.8093Z" fill="#009688"/>
<path d="M8.2328 91.9169C8.93191 92.7256 8.90775 93.8967 8.90775 93.8967C8.90775 93.8967 7.74954 93.7559 7.05042 92.9472C6.3513 92.1385 6.37547 90.9674 6.37547 90.9674C6.37547 90.9674 7.53368 91.1081 8.2328 91.9169Z" fill="#009688"/>
<path d="M8.87705 83.747C9.76625 84.339 10.0546 85.4745 10.0546 85.4745C10.0546 85.4745 8.90121 85.6508 8.01201 85.0588C7.12282 84.4668 6.83447 83.3313 6.83447 83.3313C6.83447 83.3313 7.99268 83.1518 8.87705 83.747Z" fill="#009688"/>
<path opacity="0.1" d="M8.87705 83.747C9.76625 84.339 10.0546 85.4745 10.0546 85.4745C10.0546 85.4745 8.90121 85.6508 8.01201 85.0588C7.12282 84.4668 6.83447 83.3313 6.83447 83.3313C6.83447 83.3313 7.99268 83.1518 8.87705 83.747Z" fill="black"/>
<path d="M13.2345 83.2617C13.2345 83.2617 10.4155 88.8178 12.7126 91.857C15.0097 94.8963 12.5032 103.179 12.5032 103.179" stroke="#009688" stroke-miterlimit="10"/>
<path d="M12.4001 81.5245C12.4001 82.5953 13.183 83.4655 13.183 83.4655C13.183 83.4655 13.9659 82.5969 13.9659 81.5245C13.9659 80.4521 13.183 79.5836 13.183 79.5836C13.183 79.5836 12.4001 80.4538 12.4001 81.5245Z" fill="#009688"/>
<path opacity="0.1" d="M12.4001 81.5245C12.4001 82.5953 13.183 83.4655 13.183 83.4655C13.183 83.4655 13.9659 82.5969 13.9659 81.5245C13.9659 80.4521 13.183 79.5836 13.183 79.5836C13.183 79.5836 12.4001 80.4538 12.4001 81.5245Z" fill="black"/>
<path d="M12.6256 86.0584C11.8766 86.8219 11.8202 87.9994 11.8202 87.9994C11.8202 87.9994 12.9848 87.9331 13.7339 87.1696C14.483 86.4062 14.5393 85.2286 14.5393 85.2286C14.5393 85.2286 13.3747 85.295 12.6256 86.0584Z" fill="#009688"/>
<path opacity="0.1" d="M12.6256 86.0584C11.8766 86.8219 11.8202 87.9994 11.8202 87.9994C11.8202 87.9994 12.9848 87.9331 13.7339 87.1696C14.483 86.4062 14.5393 85.2286 14.5393 85.2286C14.5393 85.2286 13.3747 85.295 12.6256 86.0584Z" fill="black"/>
<path d="M14.093 91.3654C13.344 92.1288 13.2876 93.3063 13.2876 93.3063C13.2876 93.3063 14.4523 93.24 15.2013 92.4766C15.9504 91.7131 16.0067 90.5356 16.0067 90.5356C16.0067 90.5356 14.8373 90.6019 14.093 91.3654Z" fill="#009688"/>
<path d="M11.9377 90.1992C11.9377 90.1992 13.634 87.5142 16.0165 87.4495" stroke="#009688" stroke-miterlimit="10"/>
<path d="M10.6119 88.5769C10.6119 88.5769 8.91567 85.8918 6.5332 85.8271" stroke="#009688" stroke-miterlimit="10"/>
<path d="M10.3914 92.4102C10.3914 92.4102 12.0876 89.7252 14.4701 89.6605" stroke="#009688" stroke-miterlimit="10"/>
<path d="M15.9344 87.8764C16.1773 87.8764 16.3742 87.6787 16.3742 87.4349C16.3742 87.191 16.1773 86.9933 15.9344 86.9933C15.6915 86.9933 15.4946 87.191 15.4946 87.4349C15.4946 87.6787 15.6915 87.8764 15.9344 87.8764Z" fill="#009688"/>
<path d="M6.57539 86.2913C6.81826 86.2913 7.01515 86.0936 7.01515 85.8497C7.01515 85.6058 6.81826 85.4081 6.57539 85.4081C6.33251 85.4081 6.13562 85.6058 6.13562 85.8497C6.13562 86.0936 6.33251 86.2913 6.57539 86.2913Z" fill="#009688"/>
<path d="M11.6399 93.2901C11.6399 93.2901 9.94363 90.6051 7.56116 90.5404" stroke="#009688" stroke-miterlimit="10"/>
<path d="M7.60285 91.008C7.84573 91.008 8.04262 90.8103 8.04262 90.5664C8.04262 90.3225 7.84573 90.1248 7.60285 90.1248C7.35998 90.1248 7.16309 90.3225 7.16309 90.5664C7.16309 90.8103 7.35998 91.008 7.60285 91.008Z" fill="#009688"/>
<path d="M14.5021 90.1247C14.745 90.1247 14.9419 89.927 14.9419 89.6832C14.9419 89.4393 14.745 89.2416 14.5021 89.2416C14.2593 89.2416 14.0624 89.4393 14.0624 89.6832C14.0624 89.927 14.2593 90.1247 14.5021 90.1247Z" fill="#009688"/>
<path d="M21.0199 99.9461C21.0199 99.9461 16.9315 99.1244 15.8394 98.0294C14.7472 96.9343 9.84373 95.0192 9.29764 96.3876C8.75156 97.756 1.9376 102.41 6.57206 103.231C11.2065 104.053 17.476 104.326 18.8388 103.778C20.2016 103.23 21.0199 99.9461 21.0199 99.9461Z" fill="#A8A8A8"/>
<path opacity="0.2" d="M6.5719 102.722C11.2064 103.543 17.4758 103.817 18.8386 103.268C19.876 102.851 20.5977 100.842 20.8828 99.917L21.0197 99.9461C21.0197 99.9461 20.2014 103.231 18.8386 103.778C17.4758 104.325 11.2064 104.051 6.5719 103.231C5.23488 102.993 4.85149 102.437 4.99647 101.733C5.10923 102.186 5.57638 102.545 6.5719 102.722Z" fill="black"/>
<path d="M145.145 84.5203C145.145 84.5203 146.495 86.2995 144.522 88.9683C142.548 91.6372 140.921 93.9033 141.58 95.5725C141.58 95.5725 144.557 90.602 146.98 90.5325C149.403 90.4629 147.811 87.5078 145.145 84.5203Z" fill="#009688"/>
<path opacity="0.1" d="M145.145 84.5203C145.263 84.6917 145.356 84.879 145.421 85.0767C147.785 87.8652 149.043 90.4678 146.772 90.5341C144.655 90.5955 142.117 94.395 141.508 95.3558C141.528 95.4299 141.552 95.5028 141.58 95.5742C141.58 95.5742 144.557 90.6036 146.98 90.5341C149.403 90.4645 147.811 87.5078 145.145 84.5203Z" fill="black"/>
<path d="M147.655 86.7782C147.655 87.4026 147.586 87.9104 147.494 87.9104C147.402 87.9104 147.333 87.4042 147.333 86.7782C147.333 86.1522 147.42 86.4547 147.505 86.4547C147.59 86.4547 147.655 86.1555 147.655 86.7782Z" fill="#FFD037"/>
<path d="M148.517 87.5239C147.97 87.8231 147.495 88.0092 147.455 87.9267C147.415 87.8442 147.822 87.5466 148.368 87.2489C148.914 86.9513 148.699 87.1681 148.74 87.2489C148.782 87.3298 149.061 87.2247 148.517 87.5239Z" fill="#FFD037"/>
<path d="M138.015 84.5203C138.015 84.5203 136.666 86.2995 138.639 88.9683C140.612 91.6372 142.239 93.9033 141.58 95.5725C141.58 95.5725 138.603 90.602 136.181 90.5325C133.758 90.4629 135.349 87.5078 138.015 84.5203Z" fill="#009688"/>
<path opacity="0.1" d="M138.015 84.5203C137.898 84.6917 137.805 84.879 137.74 85.0767C135.375 87.8652 134.117 90.4678 136.389 90.5341C138.505 90.5955 141.044 94.395 141.653 95.3558C141.633 95.4299 141.609 95.5028 141.58 95.5742C141.58 95.5742 138.603 90.6036 136.181 90.5341C133.758 90.4645 135.349 87.5078 138.015 84.5203Z" fill="black"/>
<path d="M135.506 86.7782C135.506 87.4026 135.575 87.9104 135.667 87.9104C135.759 87.9104 135.828 87.4042 135.828 86.7782C135.828 86.1522 135.741 86.4547 135.655 86.4547C135.57 86.4547 135.506 86.1555 135.506 86.7782Z" fill="#FFD037"/>
<path d="M134.644 87.5239C135.19 87.8231 135.665 88.0092 135.705 87.9267C135.746 87.8442 135.338 87.5466 134.792 87.2489C134.246 86.9513 134.462 87.1681 134.42 87.2489C134.378 87.3298 134.098 87.2247 134.644 87.5239Z" fill="#FFD037"/>
<path d="M135.936 95.3395C135.936 95.3395 139.71 95.2231 140.847 94.4095C141.985 93.5959 146.646 92.6303 146.935 93.9242C147.223 95.2182 152.607 100.412 148.346 100.446C144.085 100.48 138.446 99.7796 137.31 99.0857C136.174 98.3918 135.936 95.3395 135.936 95.3395Z" fill="#A8A8A8"/>
<path opacity="0.2" d="M148.422 99.998C144.161 100.032 138.521 99.3316 137.386 98.6377C136.521 98.1087 136.176 96.2114 136.061 95.3364H135.936C135.936 95.3364 136.174 98.3934 137.31 99.0873C138.446 99.7812 144.085 100.483 148.346 100.448C149.577 100.438 150 99.998 149.978 99.3477C149.807 99.744 149.345 99.9899 148.422 99.998Z" fill="black"/>
<path opacity="0.5" d="M29.6477 12.0729H28.6361C28.7319 12.0775 28.8277 12.0625 28.9176 12.0289C29.0074 11.9952 29.0896 11.9436 29.159 11.8771C29.2284 11.8107 29.2837 11.7307 29.3215 11.6422C29.3592 11.5537 29.3787 11.4583 29.3787 11.362C29.3787 11.2657 29.3592 11.1704 29.3215 11.0819C29.2837 10.9933 29.2284 10.9134 29.159 10.8469C29.0896 10.7805 29.0074 10.7288 28.9176 10.6952C28.8277 10.6615 28.7319 10.6465 28.6361 10.6511H20.44C20.2581 10.6599 20.0865 10.7386 19.9608 10.8709C19.8352 11.0033 19.765 11.1791 19.765 11.362C19.765 11.5449 19.8352 11.7208 19.9608 11.8531C20.0865 11.9855 20.2581 12.0642 20.44 12.0729H21.4517C21.2697 12.0816 21.0981 12.1603 20.9725 12.2927C20.8468 12.4251 20.7767 12.6009 20.7767 12.7838C20.7767 12.9667 20.8468 13.1425 20.9725 13.2749C21.0981 13.4073 21.2697 13.486 21.4517 13.4947H20.0357C19.8538 13.5034 19.6822 13.5821 19.5565 13.7145C19.4308 13.8468 19.3607 14.0227 19.3607 14.2056C19.3607 14.3884 19.4308 14.5643 19.5565 14.6967C19.6822 14.829 19.8538 14.9077 20.0357 14.9165H28.2318C28.3276 14.921 28.4234 14.9061 28.5132 14.8724C28.6031 14.8387 28.6853 14.7871 28.7547 14.7207C28.8241 14.6542 28.8794 14.5743 28.9171 14.4857C28.9549 14.3972 28.9744 14.3019 28.9744 14.2056C28.9744 14.1093 28.9549 14.0139 28.9171 13.9254C28.8794 13.8369 28.8241 13.7569 28.7547 13.6905C28.6853 13.624 28.6031 13.5724 28.5132 13.5387C28.4234 13.5051 28.3276 13.4901 28.2318 13.4947H29.6477C29.8297 13.486 30.0013 13.4073 30.127 13.2749C30.2526 13.1425 30.3228 12.9667 30.3228 12.7838C30.3228 12.6009 30.2526 12.4251 30.127 12.2927C30.0013 12.1603 29.8297 12.0816 29.6477 12.0729Z" fill="#DEE3F3"/>
<defs>
<linearGradient id="paint0_linear" x1="75.1804" y1="87.9525" x2="75.1804" y2="20.9885" gradientUnits="userSpaceOnUse">
<stop stop-color="#808080" stop-opacity="0.25"/>
<stop offset="0.54" stop-color="#808080" stop-opacity="0.12"/>
<stop offset="1" stop-color="#808080" stop-opacity="0.1"/>
</linearGradient>
<linearGradient id="paint1_linear" x1="62.6749" y1="76.5622" x2="62.6749" y2="76.5544" gradientUnits="userSpaceOnUse">
<stop stop-color="#808080" stop-opacity="0.25"/>
<stop offset="0.54" stop-color="#808080" stop-opacity="0.12"/>
<stop offset="1" stop-color="#808080" stop-opacity="0.1"/>
</linearGradient>
<linearGradient id="paint2_linear" x1="10374.3" y1="32705.4" x2="10374.3" y2="14663.4" gradientUnits="userSpaceOnUse">
<stop stop-color="#808080" stop-opacity="0.25"/>
<stop offset="0.54" stop-color="#808080" stop-opacity="0.12"/>
<stop offset="1" stop-color="#808080" stop-opacity="0.1"/>
</linearGradient>
<linearGradient id="paint3_linear" x1="29222.5" y1="39645.3" x2="29222.5" y2="12850.2" gradientUnits="userSpaceOnUse">
<stop stop-color="#808080" stop-opacity="0.25"/>
<stop offset="0.54" stop-color="#808080" stop-opacity="0.12"/>
<stop offset="1" stop-color="#808080" stop-opacity="0.1"/>
</linearGradient>
</defs>
</svg>
