<svg width="512" height="512" viewBox="0 0 512 512" fill="none" xmlns="http://www.w3.org/2000/svg">
<g clip-path="url(#clip0)">
<rect width="512" height="512" rx="256" fill="white"/>
<rect x="116.216" y="518.981" width="571.386" height="347.296" transform="rotate(-70.045 116.216 518.981)" fill="#4285F4"/>
<path d="M269.106 205.91V234.327H260V164.135H284.137C289.96 164.012 295.586 166.201 299.767 170.211C304 173.985 306.385 179.386 306.292 185.022C306.416 190.7 304.031 196.141 299.767 199.926C295.545 203.916 290.331 205.91 284.137 205.9L269.106 205.91ZM269.106 172.778V197.287H284.364C287.75 197.389 291.013 196.07 293.367 193.656C298.147 189.053 298.26 181.473 293.604 176.737C293.521 176.655 293.449 176.573 293.367 176.502C291.044 174.036 287.761 172.686 284.364 172.778H269.106ZM327.27 184.736C334.001 184.736 339.308 186.516 343.2 190.076C347.092 193.635 349.033 198.525 349.033 204.724V234.327H340.33V227.657H339.937C336.169 233.15 331.152 235.892 324.896 235.892C319.558 235.892 315.088 234.327 311.495 231.186C308.006 228.271 306.024 223.954 306.106 219.423C306.106 214.452 308.006 210.503 311.795 207.567C315.583 204.632 320.642 203.159 326.981 203.159C332.38 203.159 336.84 204.141 340.33 206.094V204.028C340.35 200.939 338.967 198.013 336.572 196.049C334.166 193.901 331.028 192.725 327.786 192.766C322.707 192.766 318.681 194.894 315.718 199.139L307.706 194.137C312.104 187.866 318.629 184.736 327.27 184.736ZM315.491 219.628C315.48 221.96 316.606 224.149 318.505 225.509C320.518 227.074 323.017 227.913 325.577 227.862C329.417 227.852 333.103 226.338 335.818 223.648C338.833 220.835 340.34 217.541 340.34 213.746C337.501 211.506 333.547 210.38 328.468 210.38C324.772 210.38 321.685 211.26 319.217 213.03C316.729 214.83 315.491 217.009 315.491 219.628ZM399 186.301L368.617 255.501H359.222L370.496 231.289L350.509 186.301H360.399L374.842 220.804H375.038L389.089 186.301H399Z" fill="white" stroke="white"/>
<path d="M213.945 196.21C213.945 192.163 213.609 188.131 212.906 184.144H156.065V206.982H188.613C187.268 214.354 183.345 220.992 177 225.13L176.581 239.841L196 240.63C207.374 230.324 213.945 214.264 213.945 196.21Z" fill="#4285F4"/>
<path d="M156.47 255.13C172.759 255.13 186.475 249.75 196.472 240.454L177.015 225.255C171.595 228.954 164.63 231.066 156.47 231.066C140.733 231.066 127.368 220.383 122.592 205.986H102.552V221.648C112.794 242.181 133.66 255.13 156.47 255.13Z" fill="#34A853"/>
<path d="M122.21 205.921C119.709 198.531 119.709 190.506 122.21 183.116V167.762H102.367C93.8777 184.597 93.8777 204.44 102.367 221.275L122.21 205.921Z" fill="#FBBC04"/>
<path d="M156.251 158.53C164.82 158.395 173.099 161.59 179.304 167.438L196.472 150.482C185.586 140.384 171.178 134.838 156.251 135.004C133.534 135.004 112.753 147.679 102.552 167.739L122.51 183.052C127.267 168.975 140.578 158.53 156.251 158.53Z" fill="#EA4335"/>
<g filter="url(#filter0_d)">
<path d="M258.325 298.825C257.068 296.182 255.248 294.145 252.865 292.715C250.482 291.242 247.708 290.505 244.545 290.505C241.382 290.505 238.522 291.242 235.965 292.715C233.452 294.145 231.458 296.225 229.985 298.955C228.555 301.642 227.84 304.762 227.84 308.315C227.84 311.868 228.555 314.988 229.985 317.675C231.458 320.362 233.452 322.442 235.965 323.915C238.522 325.345 241.382 326.06 244.545 326.06C248.965 326.06 252.605 324.738 255.465 322.095C258.325 319.452 259.993 315.877 260.47 311.37H242.4V306.56H266.775V311.11C266.428 314.837 265.258 318.26 263.265 321.38C261.272 324.457 258.65 326.905 255.4 328.725C252.15 330.502 248.532 331.39 244.545 331.39C240.342 331.39 236.507 330.415 233.04 328.465C229.573 326.472 226.822 323.72 224.785 320.21C222.792 316.7 221.795 312.735 221.795 308.315C221.795 303.895 222.792 299.93 224.785 296.42C226.822 292.867 229.573 290.115 233.04 288.165C236.507 286.172 240.342 285.175 244.545 285.175C249.355 285.175 253.602 286.367 257.285 288.75C261.012 291.133 263.72 294.492 265.41 298.825H258.325ZM280.511 301.165C281.551 299.128 283.024 297.547 284.931 296.42C286.881 295.293 289.242 294.73 292.016 294.73V300.84H290.456C283.826 300.84 280.511 304.437 280.511 311.63V331H274.596V295.38H280.511V301.165ZM314.379 331.585C311.042 331.585 308.009 330.827 305.279 329.31C302.592 327.793 300.469 325.648 298.909 322.875C297.392 320.058 296.634 316.808 296.634 313.125C296.634 309.485 297.414 306.278 298.974 303.505C300.577 300.688 302.744 298.543 305.474 297.07C308.204 295.553 311.259 294.795 314.639 294.795C318.019 294.795 321.074 295.553 323.804 297.07C326.534 298.543 328.679 300.667 330.239 303.44C331.842 306.213 332.644 309.442 332.644 313.125C332.644 316.808 331.821 320.058 330.174 322.875C328.571 325.648 326.382 327.793 323.609 329.31C320.836 330.827 317.759 331.585 314.379 331.585ZM314.379 326.385C316.502 326.385 318.496 325.887 320.359 324.89C322.222 323.893 323.717 322.398 324.844 320.405C326.014 318.412 326.599 315.985 326.599 313.125C326.599 310.265 326.036 307.838 324.909 305.845C323.782 303.852 322.309 302.378 320.489 301.425C318.669 300.428 316.697 299.93 314.574 299.93C312.407 299.93 310.414 300.428 308.594 301.425C306.817 302.378 305.387 303.852 304.304 305.845C303.221 307.838 302.679 310.265 302.679 313.125C302.679 316.028 303.199 318.477 304.239 320.47C305.322 322.463 306.752 323.958 308.529 324.955C310.306 325.908 312.256 326.385 314.379 326.385ZM372.011 295.38V331H366.096V325.735C364.969 327.555 363.388 328.985 361.351 330.025C359.358 331.022 357.148 331.52 354.721 331.52C351.948 331.52 349.456 330.957 347.246 329.83C345.036 328.66 343.281 326.927 341.981 324.63C340.724 322.333 340.096 319.538 340.096 316.245V295.38H345.946V315.465C345.946 318.975 346.834 321.683 348.611 323.59C350.388 325.453 352.814 326.385 355.891 326.385C359.054 326.385 361.546 325.41 363.366 323.46C365.186 321.51 366.096 318.672 366.096 314.945V295.38H372.011ZM387.913 301.945C389.083 299.908 390.816 298.218 393.113 296.875C395.453 295.488 398.161 294.795 401.238 294.795C404.401 294.795 407.261 295.553 409.818 297.07C412.418 298.587 414.455 300.732 415.928 303.505C417.401 306.235 418.138 309.42 418.138 313.06C418.138 316.657 417.401 319.863 415.928 322.68C414.455 325.497 412.418 327.685 409.818 329.245C407.261 330.805 404.401 331.585 401.238 331.585C398.205 331.585 395.518 330.913 393.178 329.57C390.881 328.183 389.126 326.472 387.913 324.435V347.9H381.998V295.38H387.913V301.945ZM412.093 313.06C412.093 310.373 411.551 308.033 410.468 306.04C409.385 304.047 407.911 302.53 406.048 301.49C404.228 300.45 402.213 299.93 400.003 299.93C397.836 299.93 395.821 300.472 393.958 301.555C392.138 302.595 390.665 304.133 389.538 306.17C388.455 308.163 387.913 310.482 387.913 313.125C387.913 315.812 388.455 318.173 389.538 320.21C390.665 322.203 392.138 323.742 393.958 324.825C395.821 325.865 397.836 326.385 400.003 326.385C402.213 326.385 404.228 325.865 406.048 324.825C407.911 323.742 409.385 322.203 410.468 320.21C411.551 318.173 412.093 315.79 412.093 313.06Z" fill="white"/>
</g>
<g filter="url(#filter1_d)">
<path d="M229.69 368.665C231.337 368.925 232.832 369.597 234.175 370.68C235.562 371.763 236.645 373.107 237.425 374.71C238.248 376.313 238.66 378.025 238.66 379.845C238.66 382.142 238.075 384.222 236.905 386.085C235.735 387.905 234.023 389.357 231.77 390.44C229.56 391.48 226.938 392 223.905 392H207.005V346.695H223.255C226.332 346.695 228.953 347.215 231.12 348.255C233.287 349.252 234.912 350.617 235.995 352.35C237.078 354.083 237.62 356.033 237.62 358.2C237.62 360.887 236.883 363.118 235.41 364.895C233.98 366.628 232.073 367.885 229.69 368.665ZM212.92 366.26H222.865C225.638 366.26 227.783 365.61 229.3 364.31C230.817 363.01 231.575 361.212 231.575 358.915C231.575 356.618 230.817 354.82 229.3 353.52C227.783 352.22 225.595 351.57 222.735 351.57H212.92V366.26ZM223.385 387.125C226.332 387.125 228.628 386.432 230.275 385.045C231.922 383.658 232.745 381.73 232.745 379.26C232.745 376.747 231.878 374.775 230.145 373.345C228.412 371.872 226.093 371.135 223.19 371.135H212.92V387.125H223.385ZM278.458 356.38V392H272.543V386.735C271.417 388.555 269.835 389.985 267.798 391.025C265.805 392.022 263.595 392.52 261.168 392.52C258.395 392.52 255.903 391.957 253.693 390.83C251.483 389.66 249.728 387.927 248.428 385.63C247.172 383.333 246.543 380.538 246.543 377.245V356.38H252.393V376.465C252.393 379.975 253.282 382.683 255.058 384.59C256.835 386.453 259.262 387.385 262.338 387.385C265.502 387.385 267.993 386.41 269.813 384.46C271.633 382.51 272.543 379.672 272.543 375.945V356.38H278.458ZM319.125 356.38L297.675 408.77H291.565L298.585 391.61L284.22 356.38H290.785L301.965 385.24L313.015 356.38H319.125Z" fill="white"/>
</g>
</g>
<defs>
<filter id="filter0_d" x="221.795" y="285.175" width="200.343" height="66.725" filterUnits="userSpaceOnUse" color-interpolation-filters="sRGB">
<feFlood flood-opacity="0" result="BackgroundImageFix"/>
<feColorMatrix in="SourceAlpha" type="matrix" values="0 0 0 0 0 0 0 0 0 0 0 0 0 0 0 0 0 0 127 0"/>
<feOffset dx="4" dy="4"/>
<feColorMatrix type="matrix" values="0 0 0 0 0.0737153 0 0 0 0 0.348661 0 0 0 0 0.804167 0 0 0 0.5 0"/>
<feBlend mode="normal" in2="BackgroundImageFix" result="effect1_dropShadow"/>
<feBlend mode="normal" in="SourceGraphic" in2="effect1_dropShadow" result="shape"/>
</filter>
<filter id="filter1_d" x="207.005" y="346.695" width="116.12" height="66.075" filterUnits="userSpaceOnUse" color-interpolation-filters="sRGB">
<feFlood flood-opacity="0" result="BackgroundImageFix"/>
<feColorMatrix in="SourceAlpha" type="matrix" values="0 0 0 0 0 0 0 0 0 0 0 0 0 0 0 0 0 0 127 0"/>
<feOffset dx="4" dy="4"/>
<feColorMatrix type="matrix" values="0 0 0 0 0.0737153 0 0 0 0 0.348661 0 0 0 0 0.804167 0 0 0 0.5 0"/>
<feBlend mode="normal" in2="BackgroundImageFix" result="effect1_dropShadow"/>
<feBlend mode="normal" in="SourceGraphic" in2="effect1_dropShadow" result="shape"/>
</filter>
<clipPath id="clip0">
<rect width="512" height="512" rx="256" fill="white"/>
</clipPath>
</defs>
</svg>
