<svg width="265" height="70" viewBox="0 0 265 70" fill="none" xmlns="http://www.w3.org/2000/svg">
<path d="M212.865 34.5632V45.8104H209.265V18.0285H218.808C221.111 17.98 223.335 18.8464 224.988 20.4334C226.662 21.9274 227.605 24.0651 227.568 26.2959C227.617 28.5429 226.674 30.6968 224.988 32.1948C223.319 33.7737 221.258 34.5632 218.808 34.5592L212.865 34.5632ZM212.865 21.4497V31.1502H218.898C220.237 31.1907 221.527 30.6684 222.458 29.7129C224.347 27.891 224.392 24.891 222.551 23.0165C222.519 22.9841 222.49 22.9517 222.458 22.9234C221.539 21.9476 220.241 21.4132 218.898 21.4497H212.865ZM235.862 26.1825C238.524 26.1825 240.622 26.887 242.161 28.2959C243.699 29.7048 244.467 31.6401 244.467 34.0936V45.8104H241.026V43.1706H240.871C239.381 45.3448 237.397 46.4298 234.923 46.4298C232.813 46.4298 231.046 45.8104 229.625 44.5674C228.246 43.4136 227.462 41.705 227.495 39.9115C227.495 37.9438 228.246 36.3811 229.744 35.2191C231.242 34.0571 233.242 33.4741 235.748 33.4741C237.883 33.4741 239.646 33.8628 241.026 34.6361V33.8183C241.034 32.5956 240.487 31.4377 239.54 30.6603C238.589 29.8101 237.348 29.3445 236.066 29.3607C234.058 29.3607 232.466 30.2028 231.295 31.883L228.127 29.9032C229.866 27.4214 232.446 26.1825 235.862 26.1825ZM231.205 39.9925C231.201 40.9155 231.646 41.782 232.397 42.3204C233.193 42.9399 234.181 43.2719 235.193 43.2516C236.711 43.2476 238.169 42.6484 239.242 41.5836C240.434 40.4702 241.03 39.1665 241.03 37.6645C239.907 36.7778 238.344 36.3325 236.336 36.3325C234.874 36.3325 233.654 36.6807 232.678 37.3811C231.695 38.0936 231.205 38.956 231.205 39.9925V39.9925ZM264.223 26.802L252.21 54.1911H248.496L252.953 44.6079L245.05 26.802H248.961L254.671 40.458H254.749L260.304 26.802H264.223Z" fill="#5F6368"/>
<path d="M198.322 32.134C198.322 31.0449 198.232 29.9599 198.044 28.887H182.868V35.0328H191.558C191.199 37.0166 190.04 38.7697 188.346 39.8831V43.875H193.534C196.571 41.1017 198.322 36.9923 198.322 32.134V32.134Z" fill="#4285F4"/>
<path d="M182.868 47.7335C187.211 47.7335 190.868 46.3205 193.534 43.8792L188.346 39.8872C186.901 40.8589 185.043 41.4136 182.868 41.4136C178.672 41.4136 175.108 38.6078 173.835 34.8264H168.492V38.9398C171.222 44.3326 176.786 47.7335 182.868 47.7335V47.7335Z" fill="#34A853"/>
<path d="M173.835 34.8263C173.161 32.8466 173.161 30.6967 173.835 28.7169V24.6035H168.492C166.206 29.1137 166.206 34.4296 168.492 38.9398L173.835 34.8263Z" fill="#FBBC04"/>
<path d="M182.868 22.13C185.162 22.0935 187.378 22.9518 189.04 24.5227L193.636 19.968C190.721 17.2554 186.864 15.7655 182.868 15.8101C176.786 15.8101 171.222 19.215 168.492 24.6037L173.835 28.7171C175.108 24.9357 178.672 22.13 182.868 22.13V22.13Z" fill="#EA4335"/>
<path d="M14.9731 31.12C14.5091 30.144 13.8371 29.392 12.9571 28.864C12.0771 28.32 11.0531 28.048 9.88513 28.048C8.71713 28.048 7.66113 28.32 6.71713 28.864C5.78913 29.392 5.05313 30.16 4.50913 31.168C3.98113 32.16 3.71713 33.312 3.71713 34.624C3.71713 35.936 3.98113 37.088 4.50913 38.08C5.05313 39.072 5.78913 39.84 6.71713 40.384C7.66113 40.912 8.71713 41.176 9.88513 41.176C11.5171 41.176 12.8611 40.688 13.9171 39.712C14.9731 38.736 15.5891 37.416 15.7651 35.752H9.09313V33.976H18.0931V35.656C17.9651 37.032 17.5331 38.296 16.7971 39.448C16.0611 40.584 15.0931 41.488 13.8931 42.16C12.6931 42.816 11.3571 43.144 9.88513 43.144C8.33313 43.144 6.91713 42.784 5.63713 42.064C4.35713 41.328 3.34113 40.312 2.58913 39.016C1.85313 37.72 1.48513 36.256 1.48513 34.624C1.48513 32.992 1.85313 31.528 2.58913 30.232C3.34113 28.92 4.35713 27.904 5.63713 27.184C6.91713 26.448 8.33313 26.08 9.88513 26.08C11.6611 26.08 13.2291 26.52 14.5891 27.4C15.9651 28.28 16.9651 29.52 17.5891 31.12H14.9731ZM23.1648 31.984C23.5488 31.232 24.0928 30.648 24.7968 30.232C25.5168 29.816 26.3888 29.608 27.4128 29.608V31.864H26.8368C24.3888 31.864 23.1648 33.192 23.1648 35.848V43H20.9808V29.848H23.1648V31.984ZM35.6699 43.216C34.4379 43.216 33.3179 42.936 32.3099 42.376C31.3179 41.816 30.5339 41.024 29.9579 40C29.3979 38.96 29.1179 37.76 29.1179 36.4C29.1179 35.056 29.4059 33.872 29.9819 32.848C30.5739 31.808 31.3739 31.016 32.3819 30.472C33.3899 29.912 34.5179 29.632 35.7659 29.632C37.0139 29.632 38.1419 29.912 39.1499 30.472C40.1579 31.016 40.9499 31.8 41.5259 32.824C42.1179 33.848 42.4139 35.04 42.4139 36.4C42.4139 37.76 42.1099 38.96 41.5019 40C40.9099 41.024 40.1019 41.816 39.0779 42.376C38.0539 42.936 36.9179 43.216 35.6699 43.216ZM35.6699 41.296C36.4539 41.296 37.1899 41.112 37.8779 40.744C38.5659 40.376 39.1179 39.824 39.5339 39.088C39.9659 38.352 40.1819 37.456 40.1819 36.4C40.1819 35.344 39.9739 34.448 39.5579 33.712C39.1419 32.976 38.5979 32.432 37.9259 32.08C37.2539 31.712 36.5259 31.528 35.7419 31.528C34.9419 31.528 34.2059 31.712 33.5339 32.08C32.8779 32.432 32.3499 32.976 31.9499 33.712C31.5499 34.448 31.3499 35.344 31.3499 36.4C31.3499 37.472 31.5419 38.376 31.9259 39.112C32.3259 39.848 32.8539 40.4 33.5099 40.768C34.1659 41.12 34.8859 41.296 35.6699 41.296ZM56.9495 29.848V43H54.7655V41.056C54.3495 41.728 53.7655 42.256 53.0135 42.64C52.2775 43.008 51.4615 43.192 50.5655 43.192C49.5415 43.192 48.6215 42.984 47.8055 42.568C46.9895 42.136 46.3415 41.496 45.8615 40.648C45.3975 39.8 45.1655 38.768 45.1655 37.552V29.848H47.3255V37.264C47.3255 38.56 47.6535 39.56 48.3095 40.264C48.9655 40.952 49.8615 41.296 50.9975 41.296C52.1655 41.296 53.0855 40.936 53.7575 40.216C54.4295 39.496 54.7655 38.448 54.7655 37.072V29.848H56.9495ZM62.8211 32.272C63.2531 31.52 63.8931 30.896 64.7411 30.4C65.6051 29.888 66.6051 29.632 67.7411 29.632C68.9091 29.632 69.9651 29.912 70.9091 30.472C71.8691 31.032 72.6211 31.824 73.1651 32.848C73.7091 33.856 73.9811 35.032 73.9811 36.376C73.9811 37.704 73.7091 38.888 73.1651 39.928C72.6211 40.968 71.8691 41.776 70.9091 42.352C69.9651 42.928 68.9091 43.216 67.7411 43.216C66.6211 43.216 65.6291 42.968 64.7651 42.472C63.9171 41.96 63.2691 41.328 62.8211 40.576V49.24H60.6371V29.848H62.8211V32.272ZM71.7491 36.376C71.7491 35.384 71.5491 34.52 71.1491 33.784C70.7491 33.048 70.2051 32.488 69.5171 32.104C68.8451 31.72 68.1011 31.528 67.2851 31.528C66.4851 31.528 65.7411 31.728 65.0531 32.128C64.3811 32.512 63.8371 33.08 63.4211 33.832C63.0211 34.568 62.8211 35.424 62.8211 36.4C62.8211 37.392 63.0211 38.264 63.4211 39.016C63.8371 39.752 64.3811 40.32 65.0531 40.72C65.7411 41.104 66.4851 41.296 67.2851 41.296C68.1011 41.296 68.8451 41.104 69.5171 40.72C70.2051 40.32 70.7491 39.752 71.1491 39.016C71.5491 38.264 71.7491 37.384 71.7491 36.376ZM91.6303 34.384C92.2383 34.48 92.7903 34.728 93.2863 35.128C93.7983 35.528 94.1983 36.024 94.4863 36.616C94.7903 37.208 94.9423 37.84 94.9423 38.512C94.9423 39.36 94.7263 40.128 94.2943 40.816C93.8623 41.488 93.2303 42.024 92.3983 42.424C91.5823 42.808 90.6143 43 89.4943 43H83.2543V26.272H89.2543C90.3903 26.272 91.3583 26.464 92.1583 26.848C92.9583 27.216 93.5583 27.72 93.9583 28.36C94.3583 29 94.5583 29.72 94.5583 30.52C94.5583 31.512 94.2863 32.336 93.7422 32.992C93.2143 33.632 92.5103 34.096 91.6303 34.384ZM85.4383 33.496H89.1103C90.1343 33.496 90.9263 33.256 91.4863 32.776C92.0463 32.296 92.3263 31.632 92.3263 30.784C92.3263 29.936 92.0463 29.272 91.4863 28.792C90.9263 28.312 90.1183 28.072 89.0623 28.072H85.4383V33.496ZM89.3023 41.2C90.3903 41.2 91.2383 40.944 91.8463 40.432C92.4543 39.92 92.7583 39.208 92.7583 38.296C92.7583 37.368 92.4383 36.64 91.7983 36.112C91.1583 35.568 90.3023 35.296 89.2303 35.296H85.4383V41.2H89.3023ZM109.637 29.848V43H107.453V41.056C107.037 41.728 106.453 42.256 105.701 42.64C104.965 43.008 104.149 43.192 103.253 43.192C102.229 43.192 101.309 42.984 100.493 42.568C99.677 42.136 99.029 41.496 98.549 40.648C98.085 39.8 97.853 38.768 97.853 37.552V29.848H100.013V37.264C100.013 38.56 100.341 39.56 100.997 40.264C101.653 40.952 102.549 41.296 103.685 41.296C104.853 41.296 105.773 40.936 106.445 40.216C107.117 39.496 107.453 38.448 107.453 37.072V29.848H109.637ZM124.653 29.848L116.733 49.192H114.477L117.069 42.856L111.765 29.848H114.189L118.317 40.504L122.397 29.848H124.653Z" fill="#828282"/>
<line x1="147.5" x2="147.5" y2="70" stroke="#828282"/>
</svg>
